<?xml version="1.0" standalone="no"?>
<!DOCTYPE svg PUBLIC "-//W3C//DTD SVG 1.1//EN" "http://www.w3.org/Graphics/SVG/1.1/DTD/svg11.dtd" >
<svg xmlns="http://www.w3.org/2000/svg">
<metadata>
This is a custom SVG webfont generated by Font Squirrel.
</metadata>
<defs>
<font id="webfonturgAsTVz" horiz-adv-x="553" >
<font-face units-per-em="1000" ascent="806" descent="-194" />
<missing-glyph horiz-adv-x="378" />
<glyph unicode=" "  horiz-adv-x="378" />
<glyph unicode="&#x09;" horiz-adv-x="378" />
<glyph unicode="&#xa0;" horiz-adv-x="378" />
<glyph unicode="!" horiz-adv-x="319" d="M221 53q-4 -22 -22 -37.5t-40 -15.5t-35 15.5t-9 37.5t22 37.5t40 15.5t35 -15.5t9 -37.5zM323 665l-115 -456q-5 -22 -18 -22q-8 0 -9.5 4.5t-0.5 18.5l37 455q4 23 22 37t39 14t35 -14t10 -37z" />
<glyph unicode="&#x22;" horiz-adv-x="415" d="M403 670l-63 -247h-26l19 247q1 15 13.5 25t27.5 10t23.5 -10t5.5 -25zM307 670l-63 -247h-26l19 247q1 15 13.5 25t27.5 10t23.5 -10t5.5 -25z" />
<glyph unicode="#" horiz-adv-x="903" d="M856 153q-4 -20 -37 -20h-238l-138 -304q-5 -13 -9.5 -18t-14.5 -5q-8 0 -13 6t-4 14q0 1 7 18l131 289h-201l-138 -304q-5 -13 -9.5 -18t-14.5 -5q-8 0 -13 6t-4 14q0 1 7 18l131 289h-171q-10 0 -15.5 0.5t-10.5 5.5t-3 14q3 20 37 20h182l69 154h-225q-10 0 -16 0.5 t-11 5.5t-4 14q3 20 36 20h238l138 304q10 23 25 23q8 0 13 -6t3 -14l-7 -18l-131 -289h201l138 304q10 23 25 23q8 0 13 -6t3 -14l-7 -18l-131 -289h171q10 0 15.5 -0.5t10.5 -5.5t4 -14q-3 -20 -37 -20h-182l-69 -154h225q10 0 16 -0.5t11 -5.5t4 -14zM628 327h-201 l-69 -154h201z" />
<glyph unicode="$" d="M513 195q-14 -79 -77 -138.5t-146 -66.5l-7 -46h-31l7 45q-92 5 -131 59.5t-26 129.5q4 22 17 34.5t21.5 14.5t15.5 2q19 0 30.5 -12.5t8.5 -33.5q-4 -20 -19 -33t-35 -13q-8 0 -16 2q4 -54 40.5 -84.5t98.5 -34.5l50 299q-34 8 -49.5 13t-36 17.5t-37.5 32.5 q-47 56 -33 131q12 73 74 129t146 62l8 46h31l-7 -45q89 -5 130 -54.5t28 -121.5q-4 -22 -18 -34.5t-22 -14t-14 -1.5q-18 0 -30 12t-8 34q3 21 18 33.5t35 12.5q11 0 15 -2q-3 43 -38.5 72t-101.5 33l-45 -271q31 -8 47 -13t36.5 -18.5t35.5 -33.5q47 -60 35 -143zM329 410 l44 263q-63 -6 -107 -44t-52 -86q-17 -101 115 -133zM457 165q9 61 -26 100q-27 33 -87 46l-48 -290q65 8 108.5 50.5t52.5 93.5z" />
<glyph unicode="%" horiz-adv-x="903" d="M864 730q-2 -8 -12 -18l-658 -754q-12 -14 -23 -14q-8 0 -13 6t-4 14q0 6 13 21l584 667l-1 1q-68 -35 -145 -35q-84 0 -154 44q16 -55 4 -114q-14 -84 -63.5 -142.5t-107.5 -58.5q-61 0 -98 57.5t-22 144.5q14 85 69.5 143t117.5 58q40 0 69 -31q77 -79 189 -79 q125 0 215 95q13 15 23 15q8 0 13 -6t4 -14zM854 145q-14 -84 -63.5 -142.5t-107.5 -58.5q-61 0 -98 57.5t-23 144.5q15 85 71 143t117 58q58 0 88 -58.5t16 -143.5zM431 549q12 77 -13.5 128t-68.5 51q-11 0 -24 -5t-33.5 -20.5t-38.5 -55.5t-28 -99q-10 -50 -5.5 -83.5 t11 -52.5t20.5 -28.5t22.5 -12t16.5 -2.5q43 0 85 51t56 129zM829 146q13 77 -12.5 128t-68.5 51q-11 0 -24 -5t-33.5 -20.5t-38.5 -55.5t-28 -99q-10 -50 -5.5 -83.5t10.5 -52.5t20 -28.5t22.5 -12t16.5 -2.5q43 0 85.5 51t55.5 129z" />
<glyph unicode="&#x26;" horiz-adv-x="844" d="M844 400q-42 0 -73 -14t-46.5 -29t-41.5 -48q-118 -148 -187 -214q25 -29 39 -43t40 -28.5t53 -14.5q42 0 84.5 28.5t53.5 83.5h25q-12 -63 -61.5 -103t-111.5 -40q-92 0 -171 76q-105 -76 -203 -76q-79 0 -127 43t-38 107q4 25 17.5 47t25.5 34l43 39l122 104 q-22 116 -7 203q12 75 62.5 118t103.5 43q46 0 61.5 -40.5t7.5 -88.5q-13 -72 -152 -194l-8 -10q-3 -18 35 -104.5t93 -163.5q50 48 93 98q62 73 103 126l7 19q3 20 -14.5 31t-46.5 11l5 31q40 -3 121 -3l98 3zM490 587q1 5 2 19t-0.5 35.5t-13.5 37t-34 15.5 q-29 0 -58.5 -28.5t-39.5 -88.5q-13 -80 3 -169q130 115 141 179zM431 72q-102 127 -138 259q-68 -57 -92.5 -88t-32.5 -84q-10 -56 12 -103t78 -47q83 0 173 63z" />
<glyph unicode="'" horiz-adv-x="319" d="M307 670l-63 -247h-26l19 247q1 15 13.5 25t27.5 10t23.5 -10t5.5 -25z" />
<glyph unicode="(" horiz-adv-x="436" d="M322 -240q-1 -10 -12 -10q-9 0 -37 29t-64.5 90t-51 155.5t3.5 225.5q21 125 78.5 237.5t147.5 195.5q20 19 50.5 43t39.5 24q11 0 8 -10q0 -2 -5 -9q-27 -22 -46.5 -39.5t-56 -62t-63 -92t-54 -124t-41.5 -163.5q-52 -313 100 -481q3 -3 3 -9z" />
<glyph unicode=")" horiz-adv-x="436" d="M358 250q-17 -98 -54.5 -185.5t-79.5 -142.5t-83.5 -96t-67.5 -58.5t-31 -17.5q-11 0 -9 10q0 2 5 9q114 92 176 215q63 126 86 266q52 313 -100 480l-2 4q-2 4 -2 6q2 10 13 10q8 0 36 -29t64.5 -90t51.5 -155.5t-3 -225.5z" />
<glyph unicode="*" d="M543 441q-2 -13 -11.5 -20.5t-20.5 -7.5q-8 0 -18 8l-120 94l-11 -148l-1 -22q-2 -12 -12 -19t-20 -7q-14 0 -20 10.5t-1 16.5l1 5l42 164l-151 -94q-12 -8 -21 -8q-11 0 -17.5 7.5t-4.5 20.5q3 17 26 27l159 67l-138 67q-19 10 -16 26q2 13 11.5 20.5t19.5 7.5 q8 0 18 -8l120 -94l11 148l2 22q2 12 11.5 19t19.5 7q27 0 20 -37l-42 -159l151 94q12 8 21 8q11 0 18 -7.5t5 -20.5q-3 -17 -27 -27l-159 -67l138 -67q19 -10 17 -26z" />
<glyph unicode="+" horiz-adv-x="844" d="M813 250q-4 -20 -37 -20h-296l-49 -297q-2 -11 -3.5 -15.5t-7.5 -11t-15 -6.5q-21 0 -14 33l49 297h-297q-10 0 -15.5 0.5t-10.5 5.5t-3 14q3 20 36 20h297l50 297q5 33 25 33t15 -33l-50 -297h296q10 0 15.5 -0.5t10.5 -5.5t4 -14z" />
<glyph unicode="," horiz-adv-x="319" d="M224 1q-12 -75 -60.5 -134.5t-64.5 -59.5q-11 0 -9 11q0 5 12 13q84 71 100 170q2 11 1 18q-17 -19 -44 -19q-25 0 -36 15.5t-8 37.5q3 21 20 37t42 16q32 0 43.5 -30t3.5 -75z" />
<glyph unicode="-" horiz-adv-x="378" d="M336 187h-279l10 58h279z" />
<glyph unicode="." horiz-adv-x="319" d="M221 53q-4 -22 -22 -37.5t-40 -15.5t-35 15.5t-9 37.5t22 37.5t40 15.5t35 -15.5t9 -37.5z" />
<glyph unicode="/" d="M602 730l-8 -18l-519 -942q-11 -20 -25 -20q-8 0 -13 6t-3 14l8 18l519 942q11 20 24 20q8 0 13 -6t4 -14z" />
<glyph unicode="0" d="M548 320q-26 -155 -82 -236q-75 -106 -194 -106q-117 0 -157 102q-30 81 -5 240q26 152 84 240q35 52 87 79t106 27q52 0 94.5 -26t61.5 -78q32 -89 5 -242zM467 331q26 153 20 205q-2 33 -14.5 56.5t-30 33.5t-31.5 14t-28 4q-37 0 -78.5 -26t-65.5 -92 q-20 -55 -44 -195q-25 -156 -22 -213q3 -64 34 -91t69 -27q13 0 27 3.5t37 14.5t44.5 38.5t36.5 68.5q24 64 46 206z" />
<glyph unicode="1" d="M453 0q-35 3 -167 3t-169 -3l5 31h35q67 0 83.5 9.5t20.5 38.5l87 519q-61 -27 -142 -27l5 31q125 0 199 64q17 0 19.5 -4t-0.5 -22l-94 -561q-3 -17 -1 -27.5t22 -15.5t67 -5h35z" />
<glyph unicode="2" d="M515 174l-57 -174h-392q3 18 5 23t11 12l255 229q119 108 137 208q11 69 -20 116t-98 47q-50 0 -93.5 -28t-67.5 -74q3 1 12 1q25 0 36.5 -15.5t7.5 -36.5q-4 -27 -23 -40t-37 -13q-4 0 -9.5 1t-16.5 5.5t-16 17.5t-2 32q12 71 76.5 126t150.5 55q95 0 150 -54t41 -140 q-7 -43 -34 -83t-50.5 -61t-71.5 -60l-45 -32q-37 -27 -48 -36l-156 -123h193q89 0 97 7q11 8 40 90h25z" />
<glyph unicode="3" d="M523 171q-13 -77 -86.5 -135t-169.5 -58q-88 0 -143 44.5t-43 112.5q5 30 24 44t41 14q23 0 37 -15t10 -41q-5 -26 -26 -42.5t-48 -12.5q19 -44 65.5 -60t84.5 -16q49 0 92.5 38.5t58.5 126.5q13 78 -13.5 122t-87.5 44h-50q-14 0 -18.5 1.5t-3.5 9.5t6 9.5t20 2.5 q54 3 77 10t48 31q22 23 37.5 54t20 47.5t5.5 26.5q10 59 -16 85.5t-69 26.5q-40 0 -83.5 -15.5t-67.5 -46.5q13 0 23 -1.5t21.5 -13.5t7.5 -35q-4 -22 -20 -36.5t-39 -14.5q-22 0 -34.5 14t-8.5 38q10 59 70.5 97.5t138.5 38.5t128.5 -39.5t40.5 -98.5q-9 -51 -52 -100.5 t-123 -75.5q77 -15 116 -66.5t29 -114.5z" />
<glyph unicode="4" d="M537 165h-107l-15 -87q-5 -29 6 -38t65 -9h23l-5 -31q-36 3 -139 3q-104 0 -142 -3l5 31h23q54 0 68 9t19 38l15 87h-282l5 31l400 467q13 14 23 14q11 0 13 -5.5t-1 -20.5l-76 -455h107zM364 196l63 378l-323 -378h260z" />
<glyph unicode="5" d="M520 201q-16 -93 -94.5 -158t-171.5 -65q-83 0 -128 56t-33 128q5 28 22.5 40t35.5 12q23 0 34 -14.5t8 -34.5q-3 -19 -19.5 -34t-39.5 -15q-10 0 -16 2q8 -48 46 -80t93 -32q70 0 122 61q37 45 53 140q15 94 -3 137q-22 54 -78 54q-84 0 -144 -66q-12 -13 -20 -13 q-9 0 -10 6.5t2 19.5l49 297q4 24 14 24l11 -5q63 -27 136 -27t143 27l14 5q10 0 8 -11q-1 -6 -18 -22t-44 -35t-69.5 -33t-85.5 -14q-47 0 -91 14l-33 -198q63 53 144 53q85 0 131.5 -65t31.5 -154z" />
<glyph unicode="6" d="M528 204q-16 -98 -91 -162t-163 -64q-33 0 -61 10t-54 34t-39.5 63t-18 96.5t9.5 135.5q26 155 125.5 252t208.5 97q66 0 94.5 -31t21.5 -77q-4 -26 -20.5 -37t-33.5 -11q-18 0 -30 12t-8 34q7 45 61 45q-21 40 -87 40q-18 0 -38.5 -4.5t-52 -23t-58 -48t-51.5 -86.5 t-37 -133l-4 -24q21 39 60.5 71.5t92.5 32.5q39 0 69 -12.5t41.5 -23t27.5 -29.5q51 -62 35 -157zM438 204q17 99 2 137q-25 63 -90 63t-108 -55.5t-54 -122.5q-15 -88 -4 -141q2 -10 7 -20t15 -25t29 -24.5t44 -9.5q63 0 109 54q16 19 26 44.5t14 44.5t10 55z" />
<glyph unicode="7" d="M630 644q-3 -23 -14 -35l-174 -189q-97 -105 -135 -338l-8 -49q-11 -55 -56 -55q-47 0 -36 55q34 204 209 396l125 138h-221q-90 0 -102 -5q-13 -6 -43 -92h-25l68 206h25q0 -9 2 -13.5t13.5 -9t35.5 -6.5q35 -3 80 -3h256z" />
<glyph unicode="8" d="M522 167q-13 -79 -86.5 -134t-164.5 -55q-86 0 -143.5 47.5t-44.5 125.5q6 37 25.5 68t51.5 54t52.5 35t54.5 28l-17 11l-15 11t-15.5 12.5t-14 12.5t-13 14.5t-10 15.5t-8.5 18l-4 20q-3 11 -2.5 23t2.5 25q12 70 75.5 118.5t142.5 48.5q75 0 124.5 -41t38.5 -107 q-15 -93 -153 -156l54 -37q86 -59 70 -158zM507 517q10 54 -27.5 89t-97.5 35q-58 0 -106 -28.5t-55 -74.5q-5 -33 10 -52.5t49 -42.5l98 -66q22 11 44 24.5t50.5 46.5t34.5 69zM466 132q5 27 -6.5 51t-22 33.5t-28.5 21.5l-121 82q-67 -30 -106.5 -75t-48.5 -94 q-10 -62 33 -103.5t112 -41.5q67 0 123 35t65 91z" />
<glyph unicode="9" d="M549 329q-26 -155 -121 -253t-202 -98q-69 0 -102.5 29t-25.5 79q5 26 21.5 37t32.5 11q18 0 30.5 -12t8.5 -34q-8 -46 -60 -46q24 -36 99 -36q21 0 42.5 6t49.5 24.5t52 48.5t45.5 84t33.5 124l5 31q-61 -105 -153 -105q-54 0 -85 18t-57 51q-47 60 -31 153q9 52 31 89 t62 71q75 65 165 65q32 0 59.5 -10t53 -33.5t39 -62t17.5 -96t-10 -135.5zM472 420q14 101 4 145q0 3 -4 13.5t-13 25.5t-28 26t-44 11q-65 0 -111 -53q-25 -28 -35 -59t-20 -89q-16 -101 -1 -140q25 -59 89 -59q66 0 109 56t54 123z" />
<glyph unicode=":" horiz-adv-x="319" d="M221 53q-4 -22 -22 -37.5t-40 -15.5t-35 15.5t-9 37.5t22 37.5t40 15.5t35 -15.5t9 -37.5zM275 378q-4 -22 -22 -37.5t-40 -15.5t-35 15.5t-9 37.5t22 37.5t40 15.5t35 -15.5t9 -37.5z" />
<glyph unicode=";" horiz-adv-x="319" d="M275 378q-4 -22 -22 -37.5t-40 -15.5t-35 15.5t-9 37.5t22 37.5t40 15.5t35 -15.5t9 -37.5zM216 3q-9 -53 -36.5 -101.5t-50.5 -71.5t-30 -23q-11 0 -9 11q0 4 10 13q77 74 95 180q-9 -7 -28 -10q0 -1 -8 -1q-25 0 -36 15.5t-8 37.5q3 21 20 37t42 16q53 0 39 -103z" />
<glyph unicode="&#x3c;" horiz-adv-x="844" d="M739 -19q-4 -20 -24 -20l-16 5l-541 262q-18 9 -15 22q1 5 3 8.5t6 5.5l6 4l8 4l645 268q21 -2 18 -21q-3 -12 -23 -21l-594 -248l511 -248q18 -9 16 -21z" />
<glyph unicode="=" horiz-adv-x="844" d="M829 347q-3 -20 -37 -20h-631q-10 0 -16 0.5t-11 5.5t-4 14q3 20 36 20h633q10 0 15.5 -0.5t10.5 -5.5t4 -14zM797 153q-4 -20 -37 -20h-633q-10 0 -15.5 0.5t-10.5 5.5t-3 14q3 20 37 20h631q10 0 16 -0.5t11 -5.5t4 -14z" />
<glyph unicode="&#x3e;" horiz-adv-x="844" d="M784 250q-2 -12 -24 -22l-645 -268q-10 1 -14.5 7.5t-2.5 12.5q2 13 22 22l595 248l-512 248q-17 9 -15 22q1 7 8 13t15 6l16 -5l541 -262q17 -9 16 -22z" />
<glyph unicode="?" horiz-adv-x="524" d="M309 53q-4 -22 -22 -37.5t-40 -15.5t-35 15.5t-9 37.5t22 37.5t40 15.5t35 -15.5t9 -37.5zM546 570q-11 -63 -67 -99q-156 -93 -177 -222l-6 -35q-2 -11 -3.5 -15.5t-5 -8t-9.5 -3.5q-8 0 -9.5 5.5t1.5 18.5l8 44q21 128 138 229q38 33 48 90q4 21 3.5 35t-7.5 33.5 t-31.5 30t-65.5 10.5q-100 0 -151 -68q8 0 14.5 -1t16.5 -4.5t14.5 -13.5t1.5 -26q-3 -20 -18 -33t-36 -13q-19 0 -30.5 12t-7.5 36q10 54 65.5 93.5t137.5 39.5q56 0 95 -13t56.5 -34t23 -43t1.5 -45z" />
<glyph unicode="@" horiz-adv-x="844" d="M828 340q-35 -212 -143 -212q-36 0 -63 19t-27 54q-68 -73 -153 -73t-136.5 63.5t-35.5 155.5t88 155.5t157 63.5q42 0 78 -21.5t57 -63.5h37q17 0 20 -3.5t0 -20.5l-40 -240q-10 -67 26 -67q45 0 70 50t39 136q26 159 -57 253t-210 94q-133 0 -245 -98t-135 -238 q-23 -136 54 -236t219 -100q140 0 300 64q6 3 23 3h9q21 0 21 -10q-1 -8 -64 -30q-148 -49 -292 -49q-154 0 -236.5 107t-58.5 251q25 148 145 253t265 105q66 0 124.5 -26t99.5 -72t59 -116t5 -151zM606 265l28 164q2 14 1 21t-9 23q-38 71 -113 71q-57 0 -108.5 -57 t-65.5 -140t18.5 -140t89.5 -57q77 0 141 76q15 19 18 39z" />
<glyph unicode="A" horiz-adv-x="814" d="M765 0l-130 3q-108 0 -145 -3l5 31q82 0 87 29q1 4 -2 18l-31 153h-266l-70 -130q-7 -11 -8 -20q-3 -20 13 -35t52 -15l-5 -31l-115 3q-39 0 -102 -3l5 31q41 0 70 14.5t37.5 25.5t18.5 29l320 597q4 8 6.5 11t7 5.5t12.5 2.5q12 0 15.5 -4t6.5 -18l127 -626 q5 -22 18.5 -29.5t59.5 -7.5h18zM543 262l-67 330l-177 -330h244z" />
<glyph unicode="B" horiz-adv-x="771" d="M729 183q-12 -73 -88.5 -128t-176.5 -55h-406l5 31h24q54 0 68 9t19 38l88 527q5 29 -6 38t-65 9h-24l5 31h378q99 0 157.5 -50.5t47.5 -118.5q-10 -56 -67 -99.5t-134 -57.5q88 -10 137 -60t38 -114zM658 514q8 50 -21 94t-99 44h-136q-34 0 -42.5 -7t-13.5 -33 l-41 -246h156q80 0 133.5 45t63.5 103zM629 184q10 60 -22.5 110t-104.5 50h-201l-45 -273q-5 -26 1.5 -33t40.5 -7h138q76 0 129 46.5t64 106.5z" />
<glyph unicode="C" horiz-adv-x="786" d="M752 233q-16 -96 -107 -175.5t-211 -79.5q-150 0 -240 106t-65 258q25 151 151 257t275 106q109 0 182 -89l65 77q10 12 18 12q7 0 8 -4.5t0 -15.5q-1 -2 -1 -4l-40 -237q-2 -16 -5 -20t-15 -4q-9 0 -11 3t-2 14q2 111 -53.5 174t-139.5 63q-26 0 -56.5 -6t-74.5 -27 t-81 -55t-70 -97.5t-47 -147.5q-9 -70 -6 -122t23 -88.5t43 -60.5t54 -37.5t56.5 -18.5t50.5 -5q90 0 170.5 61t103.5 164q0 1 1 2q4 14 14 14q9 0 10.5 -5t-0.5 -12z" />
<glyph unicode="D" horiz-adv-x="829" d="M812 336q-23 -140 -133.5 -238t-243.5 -98h-378l5 31h24q54 0 68 9t19 38l88 527q5 29 -6 38t-65 9h-24l5 31h378q133 0 210 -102t53 -245zM712 336q25 147 -19 222q-55 94 -176 94h-113q-34 0 -42.5 -7t-13.5 -33l-90 -541q-5 -26 1.5 -33t40.5 -7h113q115 0 196 78 q77 75 103 227z" />
<glyph unicode="E" horiz-adv-x="742" d="M741 258l-85 -258h-601l5 31h24q54 0 68 9t19 38l87 524q5 29 -6 38t-65 9h-24l5 31h586l-9 -225h-25q3 57 -1.5 91t-23 59t-54 34.5t-94.5 9.5h-143q-34 0 -42.5 -7t-12.5 -33l-40 -240h98q71 0 96 24t36 93h25l-44 -265h-25q11 69 -6 93t-88 24h-98l-44 -267 q-5 -26 1.5 -33t40.5 -7h151q53 0 91 9.5t63.5 25.5t46 47t33.5 62t30 83h25z" />
<glyph unicode="F" horiz-adv-x="713" d="M729 455h-25q6 112 -25 153t-142 41h-133q-34 0 -42.5 -7t-12.5 -33l-43 -253h94q70 0 94.5 24.5t35.5 92.5h25l-44 -265h-25q11 69 -5 93t-86 24h-94l-41 -246q-4 -17 -1.5 -28t22.5 -15.5t66 -4.5h33l-5 -31q-35 3 -167 3q-117 0 -153 -3l5 31h24q54 0 68 9t19 38 l87 524q5 29 -6 38t-65 9h-24l5 31h570z" />
<glyph unicode="G" horiz-adv-x="851" d="M825 242q-49 0 -62 -6t-18 -38l-29 -174q-3 -23 -13 -23q-8 0 -27 22.5t-26 39.5q-32 -42 -91.5 -63.5t-123.5 -21.5q-152 0 -241.5 106.5t-64.5 257.5q25 150 150.5 256.5t275.5 106.5q37 0 68 -8.5t54 -25.5t33.5 -27t25.5 -28l65 77q10 12 18 12q7 0 8 -4.5t0 -15.5 q-1 -2 -1 -4l-40 -237q-2 -16 -5 -20t-15 -4q-9 0 -11 3t-2 14q2 112 -53 174.5t-139 62.5q-29 0 -61.5 -7t-76 -29t-79.5 -56.5t-67.5 -97t-44.5 -142.5q-9 -70 -6 -122t23.5 -89t44 -61t55 -37.5t57.5 -18.5t52 -5q11 0 23 0.5t41.5 7t52 18t43.5 36.5t27 59l10 64 q3 17 1 27.5t-22 15.5t-67 5h-35l6 31q35 -3 165 -3l128 3z" />
<glyph unicode="H" horiz-adv-x="814" d="M758 0q-34 3 -147 3q-112 0 -148 -3l5 31h24q54 0 68 9t19 38l44 262h-319l-44 -262q-5 -29 6 -38t65 -9h24l-5 -31q-34 3 -147 3q-112 0 -148 -3l5 31h24q54 0 68 9t19 38l88 527q5 29 -6 38t-65 9h-24l5 31q34 -3 147 -3q112 0 148 3l-5 -31h-24q-54 0 -68 -9t-19 -38 l-39 -234h319l39 234q5 29 -6 38t-65 9h-24l5 31q34 -3 147 -3q112 0 148 3l-5 -31h-24q-54 0 -68 -9t-19 -38l-88 -527q-5 -29 6 -38t65 -9h24z" />
<glyph unicode="I" horiz-adv-x="406" d="M355 0q-34 3 -152 3q-117 0 -153 -3l5 31h26q56 0 70.5 9t19.5 38l88 527q5 29 -6.5 38t-67.5 9h-26l5 31q34 -3 152 -3q117 0 153 3l-5 -31h-26q-56 0 -70.5 -9t-19.5 -38l-88 -527q-5 -29 6.5 -38t67.5 -9h26z" />
<glyph unicode="J" horiz-adv-x="567" d="M607 652q-51 0 -65 -6t-19 -36l-74 -444q-7 -37 -8 -41q-20 -66 -82.5 -106.5t-133.5 -40.5t-112 39.5t-32 94.5q5 30 24.5 44t40.5 14q23 0 37 -15t10 -41q-9 -56 -73 -56q10 -25 39.5 -41.5t66.5 -16.5q44 0 83.5 40t50.5 109l76 455q4 17 1 28t-23 15.5t-68 4.5h-36 l5 31q37 -3 167 -3l130 3z" />
<glyph unicode="K" horiz-adv-x="843" d="M785 0l-115 3q-108 0 -144 -3l5 31q57 0 62 29q2 10 -10 34l-149 271l-145 -114l-29 -173q-5 -29 6 -38t65 -9h24l-5 -31q-34 3 -147 3q-112 0 -148 -3l5 31h24q54 0 68 9t19 38l88 527q5 29 -6 38t-65 9h-24l5 31q34 -3 147 -3q112 0 148 3l-5 -31h-24q-54 0 -68 -9 t-19 -38l-53 -320l383 300q24 20 26 35q1 6 0 12.5t-10.5 13t-26.5 6.5l5 31q33 -3 126 -3q59 0 86 3l-5 -31q-83 -1 -157 -61l-218 -172l184 -337q10 -19 20 -29.5t24.5 -15t25 -5.5t32.5 -1z" />
<glyph unicode="L" horiz-adv-x="683" d="M667 258l-71 -258h-541l5 31h24q54 0 68 9t19 38l88 527q5 29 -6 38t-65 9h-24l5 31q34 -3 151 -3q132 0 169 3l-5 -31h-33q-66 0 -82.5 -9.5t-20.5 -38.5l-89 -533q-5 -26 1.5 -33t40.5 -7h94q38 0 70 8t54.5 19t41.5 31.5t30 36.5t22 44t16 43.5t13 44.5h25z" />
<glyph unicode="M" horiz-adv-x="989" d="M929 0q-36 3 -142 3q-107 0 -145 -3l5 31h24q54 0 68 9t19 38l96 575l-1 1l-365 -636q-10 -18 -22 -18q-10 0 -16 18l-151 629l-1 -1l-90 -541q-4 -10 -2.5 -23t7 -24t27.5 -19t58 -8l-5 -31l-116 3l-118 -3l5 31q36 0 60 7t35 20.5t14.5 22.5t6.5 24l83 500q5 29 -6 38 t-65 9h-24l5 31h169q17 0 22.5 -2.5t8.5 -15.5l137 -570l327 569q8 14 13.5 16.5t23.5 2.5h169l-5 -31h-24q-54 0 -68 -9t-19 -38l-88 -527q-5 -29 6 -38t65 -9h24z" />
<glyph unicode="N" horiz-adv-x="814" d="M867 652q-36 0 -60 -7t-35 -20.5t-14.5 -23t-6.5 -25.5l-91 -548q-3 -18 -6 -23t-13 -5t-16 12l-334 617l-87 -522q-4 -11 -2.5 -24.5t7 -25t27.5 -19t58 -7.5l-5 -31l-116 3l-118 -3l5 31q36 0 60 7t35 20.5t14.5 23t6.5 25.5l86 518q3 16 2 18q-1 9 -100 9l5 31h169 q15 0 19.5 -2t10.5 -12l284 -522l71 429q4 11 2.5 24.5t-7 25t-27.5 19t-58 7.5l5 31l116 -3l118 3z" />
<glyph unicode="O" horiz-adv-x="844" d="M828 339q-25 -150 -145.5 -255.5t-265.5 -105.5q-143 0 -228 105t-60 256q25 152 145.5 259t265.5 107q143 0 228 -106.5t60 -259.5zM727 354q12 90 1.5 152.5t-43.5 101t-71 55.5t-80 17q-41 0 -84.5 -17.5t-87.5 -53.5t-78.5 -102t-49.5 -153q-14 -96 -4 -162.5 t42 -108.5t70 -60.5t81 -18.5q41 0 85 19t88.5 57.5t80 109.5t50.5 164z" />
<glyph unicode="P" horiz-adv-x="742" d="M752 497q-12 -75 -93.5 -128t-175.5 -53h-181l-40 -238q-5 -29 6 -38t65 -9h24l-5 -31q-34 3 -147 3q-112 0 -148 -3l5 31h24q54 0 68 9t19 38l88 527q5 29 -6 38t-65 9h-24l5 31h365q104 0 166 -55t50 -131zM649 497l3 23q1 8 1 27t-4 30.5t-14 27t-26 25t-42.5 16 t-61.5 6.5h-101q-34 0 -42.5 -7t-13.5 -33l-45 -270h150q48 0 84.5 12.5t56 28.5t32.5 41.5t16.5 39t6.5 33.5z" />
<glyph unicode="Q" horiz-adv-x="844" d="M775 -10q-4 -24 -14 -52t-28 -59.5t-48.5 -52t-66.5 -20.5q-23 0 -39.5 6.5t-26.5 22t-16.5 29t-9.5 40t-4 42.5l-1 47l-35 -7q-35 -8 -68 -8q-145 0 -229.5 105.5t-59.5 255.5q25 152 145.5 259t265.5 107q143 0 228 -106.5t60 -259.5q-19 -116 -96 -205.5t-174 -127.5 q15 -53 33.5 -75t52.5 -22t66 21.5t44 62.5q5 18 14 18q11 0 7 -21zM728 339q13 92 2.5 157t-42.5 106t-71 59.5t-83 18.5q-42 0 -87 -19t-89.5 -57t-79 -107t-49.5 -158q-12 -63 -7.5 -113t16 -85.5t32.5 -61.5t41.5 -41t44.5 -23q-12 20 -7 49q5 34 33.5 59t65.5 25 q41 0 63 -27.5t38 -79.5q143 87 179 298zM518 25q-6 101 -74 101q-28 0 -48.5 -19t-24.5 -43q-2 -11 0 -23.5t15 -25t37 -12.5q49 0 95 22z" />
<glyph unicode="R" horiz-adv-x="800" d="M797 88q-6 -34 -36 -72t-82 -38q-80 0 -121 41q-25 27 -27.5 61t8.5 83q11 51 8.5 78.5t-24.5 53.5q-31 36 -97 36h-125l-42 -253q-5 -29 6 -38t65 -9h24l-5 -31q-35 3 -145 3t-147 -3l5 31h24q54 0 68 9t19 38l88 527q5 29 -6 38t-65 9h-24l5 31h324q113 0 184 -53.5 t59 -126.5q-9 -53 -64.5 -97.5t-146.5 -65.5q56 -17 83 -52q19 -22 23 -45.5t3 -81.5v-61q0 -27 2 -46t7.5 -31t15.5 -17.5t26 -5.5q14 0 27 5t30.5 26.5t27.5 57.5q5 16 15 16q13 0 10 -17zM635 503q21 124 -103 144q-31 5 -91 5q-51 0 -60 -1q-18 -2 -23.5 -9.5 t-9.5 -29.5l-43 -259h121q184 0 209 150z" />
<glyph unicode="S" horiz-adv-x="611" d="M569 185q-14 -83 -82.5 -145t-159.5 -62q-124 0 -184 72l-47 -60q-9 -12 -17 -12t-9 5.5t2 18.5l34 200q2 11 3 15t4.5 7t9.5 3q5 0 8 -2t2 -7q-13 -107 43 -158q57 -51 156 -51q65 0 111.5 43t55.5 100q9 54 -20 95q-18 24 -36 32.5t-65 20.5q-7 2 -23.5 5.5t-23.5 5.5 q-68 17 -94.5 29.5t-52.5 46.5q-38 52 -27 124q14 80 83 137t155 57q44 0 79 -14t48 -26t30 -32l46 59q11 13 18 13t8 -4.5t0 -15.5q-1 -2 -1 -4l-34 -201q-2 -15 -5 -19.5t-12 -4.5q-8 0 -9 3t-1 15q3 88 -36.5 145.5t-134.5 57.5q-62 0 -108.5 -39t-55.5 -92 q-6 -36 13 -74t74 -52l131 -33q50 -13 81 -46.5t40.5 -73.5t2.5 -82z" />
<glyph unicode="T" horiz-adv-x="786" d="M808 452h-25q11 127 -15.5 160.5t-142.5 33.5q-48 0 -59 -2q-11 -1 -16.5 -6.5t-7.5 -11.5t-4 -20l-88 -527q-3 -17 -0.5 -27.5t24.5 -15.5t73 -5h40l-5 -31q-40 3 -189 3q-148 0 -190 -3l5 31h40q73 0 91 9.5t22 38.5l88 527q4 17 1.5 26.5t-17.5 11.5q-9 2 -57 2 q-42 0 -68.5 -2.5t-50 -11t-37 -20t-26.5 -35.5t-22 -52t-20 -73h-25l57 225h643z" />
<glyph unicode="U" horiz-adv-x="814" d="M867 652q-36 0 -60 -7t-35 -20.5t-14.5 -23.5t-6.5 -26l-60 -360q-14 -84 -92.5 -160.5t-182.5 -76.5q-107 0 -172 73t-48 178l63 376q5 29 -6 38t-65 9h-24l5 31q34 -3 147 -3q112 0 148 3l-5 -31h-24q-54 0 -68 -9t-19 -38l-63 -379q-6 -47 -4.5 -81.5t14.5 -58.5 t27.5 -39t34.5 -23.5t35.5 -11.5t31.5 -3q81 0 151.5 60.5t87.5 161.5l57 347q4 10 2.5 23t-7 24t-27.5 19t-58 8l5 31l118 -3l119 3z" />
<glyph unicode="V" horiz-adv-x="814" d="M888 652q-85 0 -122 -65l-335 -589q-7 -12 -12 -16t-17 -4q-11 0 -14 4t-6 16l-147 616q-6 26 -20.5 32t-71.5 6l5 31l126 -3q109 0 145 3l-5 -31q-81 0 -86 -29q-1 -5 2 -17l122 -513l278 490q9 14 10 20q3 18 -11 33t-52 16l5 31l113 -3q51 0 98 3z" />
<glyph unicode="W" horiz-adv-x="1106" d="M1181 652q-80 -1 -114 -70l-298 -584q-11 -20 -24 -20q-12 0 -16 19v1l-91 515l-262 -515q-11 -20 -24 -20q-7 0 -10 2.5t-4 6.5t-3 10l-108 616q-2 15 -6.5 22.5t-16.5 11.5t-23.5 4.5t-38.5 0.5l5 31l121 -3q108 0 144 3l-5 -31q-84 0 -89 -30q-1 -4 2 -18l87 -493 l218 428l5 12q1 3 -5.5 38t-9.5 42q-6 13 -20.5 17t-58.5 4l5 31l120 -3q107 0 144 3l-5 -31q-84 0 -89 -30q-1 -2 0 -8t1 -7l89 -496l238 468q6 12 8 20q4 22 -16.5 37t-59.5 16l5 31l118 -3q47 0 92 3z" />
<glyph unicode="X" horiz-adv-x="814" d="M774 0l-129 3q-112 0 -148 -3l5 31q30 1 48 10.5t19 18.5l-5 15l-129 238l-189 -213q-13 -14 -14 -25q-3 -15 9 -29t42 -15l-5 -31q-39 3 -127 3l-112 -3l5 31q103 0 160 64l217 245l-151 277q-11 21 -27.5 28t-61.5 7h-19l5 31l129 -3q112 0 149 3l-5 -31 q-27 0 -46.5 -9t-21.5 -20l4 -15l109 -197l151 170q15 17 15 27q3 16 -9.5 29.5t-41.5 14.5l5 31q35 -3 127 -3l112 3l-5 -31q-103 0 -159 -63l-181 -205l171 -317q13 -23 31.5 -29.5t58.5 -6.5h19z" />
<glyph unicode="Y" horiz-adv-x="814" d="M896 652q-90 -2 -141 -64l-260 -315l-33 -193q-5 -31 6 -40t66 -9h23l-5 -31q-35 3 -145 3t-147 -3l5 31h24q54 0 68 9t19 38l33 195l-169 345q-10 20 -27.5 27t-58.5 7h-19l5 31l130 -3q113 0 149 3l-5 -31q-68 0 -72 -24l5 -20l144 -294l224 271q13 18 15 29 q4 19 -9.5 28.5t-37.5 9.5l5 31l114 -3q52 0 99 3z" />
<glyph unicode="Z" horiz-adv-x="669" d="M647 267l-62 -267h-487q-17 0 -21 2.5t-2 14.5q1 9 10 20l516 615h-171q-106 0 -162.5 -44t-79.5 -150h-25l49 225h472q22 0 23 -6q1 -4 0 -10q-2 -10 -10 -19l-515 -614h182q69 0 115 15.5t73.5 50t41.5 70.5t28 97h25z" />
<glyph unicode="[" horiz-adv-x="319" d="M239 -250h-142l167 1000h142l-7 -40h-102l-153 -920h102z" />
<glyph unicode="\" horiz-adv-x="500" d="M405 -230q-4 -20 -24 -20q-14 0 -18 22l-183 940l-2 18q4 20 23 20q14 0 18 -22l184 -940z" />
<glyph unicode="]" horiz-adv-x="319" d="M137 -250h-142l7 40h102l153 920h-102l7 40h142z" />
<glyph unicode="^" horiz-adv-x="556" d="M658 584l-15 -22l-252 123l-291 -123l-8 22l310 160z" />
<glyph unicode="_" horiz-adv-x="814" d="M791 -138h-814l4 26h814z" />
<glyph unicode="`" d="M429 525l-21 -19l-138 123q-16 16 -13 30q2 13 15 24.5t27 11.5q16 0 32 -25z" />
<glyph unicode="a" horiz-adv-x="613" d="M579 0q-72 3 -96 3l-107 -3l4 25q53 0 58 28q2 10 -11 60l-13 56h-207q-49 -88 -50 -99q0 -6 -0.5 -15.5t9 -19t28.5 -10.5l-4 -25l-82 3q-41 0 -74 -3l4 25q23 1 40.5 7.5t30.5 21t18 22.5l15 23l229 413l7 11q2 3 6.5 5.5t11.5 2.5q14 0 18 -22l98 -444q5 -26 17 -33 t54 -7zM408 194l-52 241l-135 -241h187z" />
<glyph unicode="b" horiz-adv-x="580" d="M552 138q-9 -55 -66.5 -96.5t-137.5 -41.5h-302l4 25q49 0 62 8t18 39l62 370q5 31 -5 39t-59 8l4 25h281q78 0 122 -38.5t36 -88.5q-7 -42 -49 -74t-99 -44q64 -8 100.5 -45t28.5 -86zM491 387q4 9 0.5 26t-9.5 34t-27 29.5t-53 12.5h-96q-27 0 -35 -7t-13 -36l-28 -168 h112q69 0 106 35.5t43 73.5zM469 138q4 24 -1 49.5t-28.5 47t-62.5 21.5h-150l-32 -188q-4 -30 1 -36.5t32 -6.5h98q62 0 99.5 36t43.5 77z" />
<glyph unicode="c" horiz-adv-x="591" d="M570 177q-12 -71 -80.5 -131t-160.5 -60q-114 0 -184 79t-51 192t115 192t210 79q83 0 135 -63l47 51q12 12 17 12q7 0 8 -6t-2 -18l-28 -169q-2 -15 -5 -19.5t-12 -4.5t-11 13q1 89 -42.5 134t-104.5 45q-18 0 -39 -4t-54 -19t-60.5 -40t-52.5 -72.5t-35 -110.5 q-7 -55 -4.5 -94.5t18.5 -66.5t33 -44t41 -26t40.5 -12t31.5 -3q67 0 127 45t78 121q3 16 14 16q13 0 11 -16z" />
<glyph unicode="d" horiz-adv-x="624" d="M615 253q-17 -104 -101 -178.5t-188 -74.5h-281l4 25q49 0 62 8t18 39l62 370q5 31 -5 39t-59 8l4 25h281q106 0 163.5 -77.5t39.5 -183.5zM532 253q19 115 -15 171q-40 65 -132 65h-77q-27 0 -35 -7t-13 -36l-63 -378q-4 -30 1 -36.5t32 -6.5h77q101 0 163 72 q46 54 62 156z" />
<glyph unicode="e" horiz-adv-x="558" d="M561 194l-61 -194h-457l4 25q49 0 62 8t18 39l61 367q5 31 -5 39t-59 8l4 25h445l-9 -169h-25q5 84 -19.5 114t-109.5 30h-102q-27 0 -34.5 -6.5t-12.5 -36.5l-28 -165h70q54 0 73 17.5t28 69.5h25l-33 -199h-25q9 52 -4.5 69.5t-67.5 17.5h-70l-31 -185q-4 -30 1 -36.5 t32 -6.5h108q63 0 100.5 18.5t57 51.5t39.5 99h25z" />
<glyph unicode="f" horiz-adv-x="536" d="M553 342h-25q7 85 -18 114.5t-107 29.5h-95q-27 0 -34.5 -6.5t-12.5 -36.5l-29 -175h67q54 0 72 17.5t27 69.5h25l-33 -199h-25q9 52 -3.5 69.5t-66.5 17.5h-67l-28 -168q-6 -36 7.5 -43t73.5 -7l-4 -25l-122 3l-112 -3l4 25q49 0 62 8t18 39l61 367q5 31 -5 39t-59 8 l4 25h434z" />
<glyph unicode="g" horiz-adv-x="641" d="M625 182q-38 0 -48 -7.5t-15 -37.5l-19 -113q-3 -23 -13 -23q-8 0 -22.5 16.5t-19.5 28.5q-53 -60 -158 -60q-117 0 -186 79.5t-50 191.5q19 113 115 192t209 79q87 0 135 -63l47 51q12 12 17 12q11 0 6 -24l-28 -169q-2 -15 -5 -19.5t-12 -4.5t-11 13q1 89 -42 134 t-104 45q-19 0 -41 -4t-54.5 -19.5t-59.5 -40.5t-51.5 -72.5t-34.5 -109.5q-7 -53 -5 -92t17.5 -66.5t33 -44.5t41 -26.5t41.5 -13t36 -3.5q51 0 88 20q20 11 32 24t14.5 21.5t5.5 24.5l5 30q6 32 -6 41.5t-66 9.5h-20l5 25q34 -3 128 -3q49 0 100 3z" />
<glyph unicode="h" horiz-adv-x="613" d="M570 0l-107 3l-109 -3l4 25q49 0 62 8t18 39l31 183h-239l-31 -183q-5 -31 5 -39t59 -8l-4 -25l-107 3l-109 -3l4 25q49 0 62 8t18 39l62 370q5 31 -5 39t-59 8l4 25l107 -3l109 3l-4 -25q-49 0 -62 -8t-18 -39l-27 -162h239l27 162q5 31 -5 39t-59 8l4 25l107 -3l109 3 l-4 -25q-49 0 -62 -8t-18 -39l-62 -370q-5 -31 5 -39t59 -8z" />
<glyph unicode="i" horiz-adv-x="302" d="M263 0l-111 3l-113 -3l4 25q53 0 66 7.5t18 40.5l62 368q5 33 -5 40.5t-63 7.5l4 25l111 -3l113 3l-4 -25q-53 0 -66 -7.5t-18 -40.5l-62 -368q-5 -33 5 -40.5t63 -7.5z" />
<glyph unicode="j" horiz-adv-x="424" d="M453 489q-40 0 -48.5 -9t-16.5 -56l-47 -280q-8 -47 -10 -52q-17 -48 -63 -77t-99 -29t-84.5 29t-24.5 69q4 21 17.5 32t31.5 11q17 0 27 -12t7 -29q-2 -15 -13.5 -28t-36.5 -14q24 -36 77 -36q29 0 58.5 26.5t38.5 81.5l54 323q6 31 -5 40.5t-62 9.5h-18l4 25 q39 -3 121 -3q59 0 96 3z" />
<glyph unicode="k" horiz-adv-x="636" d="M595 0q-41 3 -84 3l-105 -3l4 25q33 0 36 21q3 18 -15 46l-103 179l-110 -85l-19 -114q-5 -31 5 -39t59 -8l-4 -25l-107 3l-109 -3l4 25q49 0 62 8t18 39l62 370q5 31 -5 39t-59 8l4 25l107 -3l109 3l-4 -25q-49 0 -62 -8t-18 -39l-37 -222l258 197q37 29 41 53 q3 16 -13 19l4 25q42 -3 92 -3q28 0 64 3l-4 -25q-27 -2 -46 -9t-75.5 -45.5t-161.5 -121.5l134 -234q20 -35 37 -44.5t45 -9.5z" />
<glyph unicode="l" horiz-adv-x="513" d="M505 194l-51 -194h-411l4 25q49 0 62 8t18 39l62 370q5 31 -5 39t-59 8l4 25l110 -3l124 3l-4 -25q-60 0 -76.5 -7t-22.5 -43l-62 -371q-4 -30 1 -36.5t32 -6.5h63q40 0 71 11t49 25t32 40t20 43.5t14 49.5h25z" />
<glyph unicode="m" horiz-adv-x="747" d="M700 0q-99 3 -103 3l-105 -3l4 25q49 0 62 8t18 39l69 412l-1 1l-268 -467q-10 -18 -22 -18q-10 0 -16 18l-110 460l-1 -1l-63 -376q-13 -76 59 -76l-4 -25q-37 3 -85 3l-87 -3l4 25q25 0 42.5 8t26 22.5t11.5 23.5t5 22l57 341q5 31 -5 39t-59 8l4 25h121 q17 0 22.5 -2.5t8.5 -15.5l102 -421l241 420q8 14 13.5 16.5t23.5 2.5h121l-4 -25q-49 0 -62 -8t-18 -39l-62 -370q-5 -31 5 -39t59 -8z" />
<glyph unicode="n" horiz-adv-x="613" d="M652 489q-25 0 -42.5 -8t-26 -22.5t-11.5 -23.5t-5 -22l-65 -387q-2 -11 -3 -15.5t-4.5 -7.5t-10.5 -3q-9 0 -15 11l-241 436l-8 12l-60 -358q-13 -76 59 -76l-4 -25q-38 3 -85 3l-87 -3l4 25q25 0 42.5 8t26 22.5t11.5 23.5t5 22l63 381q-18 7 -70 7l4 25h120 q11 0 14.5 -0.5t6.5 -3t7 -9.5l212 -385l50 297q13 76 -59 76l4 25q36 -3 85 -3l87 3z" />
<glyph unicode="o" horiz-adv-x="636" d="M628 255q-19 -113 -110.5 -191t-201.5 -78t-175.5 78.5t-46.5 190.5q18 112 109.5 192.5t202.5 80.5t175.5 -80.5t46.5 -192.5zM543 266q9 70 1 116t-34 73t-52.5 37.5t-55.5 10.5q-28 0 -59 -11.5t-64 -36t-60 -74t-38 -115.5q-9 -74 -1.5 -123t32.5 -78t52 -41t56 -12 t60.5 12.5t65 40t60 79.5t37.5 122z" />
<glyph unicode="p" horiz-adv-x="558" d="M569 373q-9 -57 -70.5 -98t-136.5 -41h-134l-27 -162q-5 -31 5 -39t59 -8l-4 -25l-107 3l-109 -3l4 25q49 0 62 8t18 39l62 370q5 31 -5 39t-59 8l4 25h271q83 0 129.5 -42.5t37.5 -98.5zM483 373q3 17 4 28t-2.5 29.5t-13.5 29.5t-34 20t-60 9h-69q-27 0 -35 -7t-13 -36 l-31 -189h109q44 0 74 11.5t44 33t19 36t8 35.5z" />
<glyph unicode="q" horiz-adv-x="636" d="M588 -8q-8 -46 -40 -91t-81 -45q-20 0 -34.5 8t-22 18.5t-12 32.5t-5.5 37l-3 44q-30 -10 -74 -10q-110 0 -175.5 78.5t-46.5 190.5q18 112 109.5 192.5t202.5 80.5t175.5 -80.5t46.5 -192.5q-15 -89 -74.5 -155t-128.5 -92q7 -23 15.5 -38t18 -20t15.5 -6.5t14 -1.5 q23 0 46 13t32 39q5 17 14 17q10 0 8 -19zM545 255q21 126 -26 187t-117 61q-31 0 -63.5 -13t-65.5 -40.5t-59 -78t-37 -116.5q-7 -59 -4 -98.5t19.5 -68t33 -43t36.5 -22.5l-2 7q-2 8 0 21q4 25 26.5 44t51.5 19q18 0 31.5 -6.5t23 -21.5t13 -22.5t10.5 -24.5 q103 63 129 216zM388 25q-4 67 -54 67q-20 0 -35 -12t-17 -29q1 -4 0 -12.5t9 -18t29 -9.5q40 0 68 14z" />
<glyph unicode="r" horiz-adv-x="602" d="M604 68q-4 -25 -27 -53.5t-65 -28.5q-70 0 -98 33q-19 22 -21 43t7 62q6 32 6 53.5t-12 36.5q-27 32 -77 32h-90l-29 -174q-5 -31 5 -39t59 -8l-4 -25l-106 3l-107 -3l4 25q49 0 62 8t18 39l62 370q5 31 -5 39t-59 8l4 25h240q89 0 142.5 -40.5t44.5 -94.5 q-7 -44 -50.5 -77t-101.5 -47q25 -10 40.5 -24t22 -32.5t8 -28.5t2.5 -30q4 -93 9 -108q11 -24 31 -24q8 0 16 2t22.5 17.5t22.5 42.5q0 13 14 13q13 0 10 -15zM472 379q6 38 -3 62t-34 33.5t-46 12t-57 2.5q-45 0 -53 -3q-12 -6 -19 -40l-29 -178h88q46 0 77.5 11t46 30.5 t20.5 34.5t9 35z" />
<glyph unicode="s" horiz-adv-x="458" d="M431 142q-10 -62 -62.5 -109t-122.5 -47q-91 0 -138 49q-15 -18 -23 -26q-20 -23 -26 -23q-7 0 -8 6t2 18l22 135q2 11 3 15t4.5 7t9.5 3q11 0 11 -9q-11 -74 30 -111q42 -39 117 -39q49 0 84 32t41 72q9 47 -19 75q-14 15 -26.5 20.5t-54.5 15.5q-72 17 -93.5 25.5 t-39.5 29.5q-37 45 -27 101q10 60 62 103t119 43q75 0 117 -49q19 22 23 26q20 23 26 23q7 0 8 -6t-2 -18l-23 -136q-2 -15 -5 -19.5t-12 -4.5q-10 0 -10 13q1 20 -1.5 38t-12.5 47t-38.5 46.5t-72.5 17.5q-48 0 -82 -29t-40 -66q-10 -63 51 -89q2 -1 59 -15q66 -16 86 -25 t42 -36l7 -12q8 -12 13.5 -38t1.5 -54z" />
<glyph unicode="t" horiz-adv-x="591" d="M612 339h-25q9 94 -12 119t-103 25q-43 0 -52 -5.5t-15 -37.5l-60 -364q-6 -32 5.5 -41.5t66.5 -9.5h21l-4 -25q-38 3 -137 3t-139 -3l4 25h21q55 0 69.5 9.5t20.5 41.5l60 364q6 32 -1 37.5t-50 5.5q-84 0 -113 -25t-51 -119h-25l42 169h491z" />
<glyph unicode="u" horiz-adv-x="613" d="M652 489q-71 0 -83 -62l-44 -266q-11 -62 -70.5 -118.5t-139.5 -56.5t-128.5 49t-44.5 113q0 12 10 75l36 217q6 33 -3.5 41t-59.5 8l4 25l107 -3l109 3l-4 -25q-49 0 -62 -8t-18 -39l-45 -269q-4 -37 -3 -64t12.5 -45t22.5 -28.5t27 -16t26 -7t20 -1.5q58 0 113 43.5 t69 123.5l39 235q13 76 -59 76l4 25q41 -3 84 -3q46 0 85 3z" />
<glyph unicode="v" horiz-adv-x="613" d="M671 489q-61 -4 -98 -66l-243 -414l-8 -12q-2 -3 -6.5 -5.5t-11.5 -2.5q-9 0 -12 4.5t-5 13.5v2l-113 440q-7 26 -17.5 33t-50.5 7l4 25q39 -3 93 -3l106 3l-4 -25q-51 0 -56 -27q-1 -5 4 -24l90 -360l198 338q12 19 13 30q8 39 -34 43l4 25q39 -3 81 -3q37 0 70 3z" />
<glyph unicode="w" horiz-adv-x="836" d="M895 489q-56 -3 -92 -72l-213 -408q-11 -20 -24 -20q-14 0 -17 22l-68 364l-192 -367q-9 -19 -23 -19t-17 19l-84 447q-4 22 -15.5 28t-44.5 6l4 25q39 -3 89 -3l106 3l-4 -25q-55 0 -60 -29q-1 -7 2 -19l65 -348l160 307l6 13l-5 25q-4 25 -8 32q-5 12 -15.5 15.5 t-39.5 3.5l4 25q39 -3 89 -3l106 3l-4 -25q-54 0 -59 -29q-2 -10 1 -21l66 -346l167 322q8 12 9 25q3 17 -6 32.5t-38 16.5l4 25l86 -3q36 0 69 3z" />
<glyph unicode="x" horiz-adv-x="613" d="M584 0q-46 3 -94 3l-109 -3l4 25q34 2 38 27q1 9 -4 18l-92 163l-114 -123q-29 -34 -32 -50q-5 -32 25 -35l-4 -25q-42 3 -91 3q-45 0 -82 -3l4 25q45 1 76.5 20t64.5 54l140 155l-106 190q-16 30 -29.5 37.5t-56.5 7.5l4 25q43 -3 95 -3l108 3l-4 -25q-33 -2 -38 -28 q-2 -9 5 -21l74 -129l97 106q18 18 21 37q5 31 -24 35l4 25l91 -3q43 0 82 3l-4 -25q-71 -2 -130 -62l-125 -137q137 -244 142 -249q16 -16 68 -16z" />
<glyph unicode="y" horiz-adv-x="613" d="M676 489q-64 -3 -120 -70l-181 -214l-21 -130q-6 -34 3.5 -42t59.5 -8l-4 -25l-106 3l-107 -3l4 25q49 0 62 8t18 39l22 134l-129 251q-10 20 -24 26t-52 6l4 25q44 -3 96 -3l109 3l-4 -25q-41 0 -45 -20q-1 -11 8 -27l104 -203l153 182q19 23 22 38q3 27 -24 30l4 25 q39 -3 81 -3q38 0 71 3z" />
<glyph unicode="z" horiz-adv-x="502" d="M489 201l-46 -201h-366q-17 0 -21 2t-2 13q0 7 10 18l385 456h-123q-78 0 -120.5 -32t-59.5 -112h-25l36 169h354q16 0 20.5 -2t2.5 -12q0 -6 -9 -17l-384 -455h130q51 0 85.5 11t55 36.5t31.5 52.5t21 73h25z" />
<glyph unicode="{" horiz-adv-x="500" d="M387 -239q-2 -11 -22 -11q-84 0 -132 38q-32 25 -36.5 56.5t5.5 72.5l33 198q6 35 -3 60.5t-29 38t-38 18.5t-37 7q-14 1 -14 11q1 11 16 11q64 4 111 45q22 20 29 41t20 97l31 183q10 53 72 88t139 35q8 0 11 -0.5t5.5 -3t1.5 -7.5q-2 -9 -11 -11q-32 -2 -57.5 -10.5 t-35.5 -15.5t-25 -20q-20 -18 -27 -39t-17 -80l-30 -180q-3 -17 -7.5 -29t-17.5 -34t-42.5 -40t-72.5 -30q97 -29 99 -103q0 -7 -14 -91l-25 -150q-6 -36 -5 -48q3 -32 30 -57.5t81 -28.5q14 -1 14 -11z" />
<glyph unicode="|" horiz-adv-x="278" d="M123 -217q-2 -11 -3.5 -15.5t-7.5 -11t-15 -6.5q-21 0 -14 33l156 934q5 33 25 33t15 -33z" />
<glyph unicode="}" horiz-adv-x="500" d="M469 250q-2 -11 -16 -11q-62 -4 -112 -45q-22 -20 -29 -42t-20 -96l-30 -183q-10 -53 -72.5 -88t-139.5 -35q-7 0 -10 0.5t-6 3t-2 7.5q2 9 11 11q33 2 58.5 10.5t35.5 15.5t25 20q20 17 26.5 37.5t16.5 81.5l31 180q2 12 4 21.5t11 27t23 31t40.5 28.5t61.5 25 q-97 29 -99 103q0 13 13 91l25 150q6 36 5 48q-3 32 -30 57.5t-81 28.5q-13 1 -14 11q2 11 22 11q83 0 133 -38q31 -25 36 -56.5t-6 -72.5l-33 -198q-6 -35 3.5 -60.5t29 -38t37.5 -18.5t38 -7q13 -1 14 -11z" />
<glyph unicode="~" horiz-adv-x="556" d="M603 290l-61 -44q-23 -17 -63 -35q-41 -18 -76 -18q-42 0 -94 34q-59 37 -98 37q-68 0 -165 -71l-11 17l61 44q22 16 63 35q43 18 76 18q41 0 95 -34q57 -37 97 -37q68 0 165 71z" />
<glyph unicode="&#xa2;" horiz-adv-x="591" d="M570 177q-12 -69 -78 -128t-154 -63l-3 -16q-1 -6 -6.5 -10.5t-11.5 -4.5q-14 0 -12 15l3 17q-107 8 -169.5 85t-44.5 185t106.5 185t197.5 85l3 17q2 15 17 15q6 0 10 -4.5t3 -10.5l-3 -16q78 -3 126 -63l47 51q12 12 17 12q7 0 8 -6t-2 -18l-28 -169q-2 -15 -5 -19.5 t-12 -4.5t-11 13q1 87 -41.5 132.5t-102.5 46.5l-82 -492q66 1 125.5 46t77.5 120q3 16 14 16q13 0 11 -16zM312 13l82 488q-22 -4 -43.5 -11t-49.5 -25t-50.5 -43t-42 -68t-28.5 -97q-11 -55 -4 -96t19.5 -67.5t35 -44t41.5 -25.5t40 -11z" />
<glyph unicode="&#xa3;" horiz-adv-x="814" d="M774 171q-15 -86 -52.5 -146t-97.5 -60q-43 0 -82.5 21t-66.5 50l-60 63q-21 -59 -90 -90t-153 -31q-45 0 -70.5 34t-17.5 81q9 52 60.5 83t114.5 31q53 0 101 -35q5 52 7 155h-183l5 30h178q0 92 11 157q12 73 78.5 121t146.5 48q72 0 118.5 -28.5t38.5 -81.5 q-4 -20 -19.5 -33t-34.5 -13t-30.5 13.5t-7.5 32.5q3 19 18.5 32.5t34.5 13.5h2q-30 38 -124 38q-54 0 -98 -42.5t-53 -100.5q-12 -71 -12 -157h160l-5 -30h-156q-4 -144 -15 -206v-3q16 -15 30 -29.5t30.5 -27.5t33 -22.5t37 -15.5t42.5 -6q56 0 100 45.5t55 108.5h26z M355 136l2 12q-49 33 -103 33q-53 0 -95.5 -23.5t-48.5 -64.5q-6 -36 13.5 -62.5t53.5 -26.5q63 0 115.5 37.5t62.5 94.5z" />
<glyph unicode="&#xa5;" horiz-adv-x="814" d="M896 652q-90 -2 -141 -64l-203 -245h156l-5 -30h-176l-32 -40l-15 -86h202l-5 -30h-202l-13 -77q-5 -31 6 -40t66 -9h23l-5 -31q-35 3 -145 3t-147 -3l5 31h24q54 0 68 9t19 38l13 79h-200l5 30h200l15 86l-20 40h-174l5 30h154l-134 275q-10 20 -27.5 27t-58.5 7h-19 l5 31l130 -3q113 0 149 3l-5 -31q-68 0 -72 -24l5 -20l130 -265h38l200 242q13 18 15 29q4 19 -9.5 28.5t-37.5 9.5l5 31l114 -3q52 0 99 3z" />
<glyph unicode="&#xa8;" d="M336 601q-3 -19 -19.5 -33.5t-36.5 -14.5q-19 0 -31 14t-9 34q4 20 20.5 34t35.5 14q20 0 32 -14.5t8 -33.5zM512 601q-3 -19 -19.5 -33.5t-36.5 -14.5q-19 0 -31 14t-9 34q4 20 20.5 34t35.5 14q20 0 32 -14.5t8 -33.5z" />
<glyph unicode="&#xa9;" horiz-adv-x="683" d="M740 342q-23 -142 -140 -242t-258 -100q-142 0 -225 100t-60 242q23 141 140 241t259 100q141 0 224 -100t60 -241zM700 342q21 124 -52.5 212.5t-198.5 88.5t-228 -88t-124 -213t53 -213.5t199 -88.5t227.5 88.5t123.5 213.5zM538 284q-8 -51 -56 -93t-111 -42 q-79 0 -127 56.5t-35 136.5t79.5 136t145.5 56q58 0 97 -47l34 41q5 6 10 6q4 0 3 -13l-21 -125q-2 -12 -10 -13q-8 0 -8 9q1 59 -28 92.5t-73 33.5q-14 0 -30 -3t-39.5 -14.5t-43.5 -29.5t-37.5 -51.5t-24.5 -78.5q-9 -52 0.5 -89t32 -54.5t43.5 -24.5t42 -7q48 0 90.5 32 t54.5 87q2 8 8 8t4 -9z" />
<glyph unicode="&#xab;" horiz-adv-x="611" d="M483 12q0 -12 -12 -12h-2q-8 0 -8 7q-28 133 -113 227q-2 4 -2 8q2 5 5 7q119 97 188 228q3 6 11 6h2q5 0 7 -4t0 -8q-50 -121 -141 -229q54 -106 65 -230zM308 12q0 -12 -12 -12h-2q-8 0 -8 7q-28 133 -113 227q-2 4 -2 8q2 5 5 7q119 97 188 228q3 6 11 6h2q5 0 7 -4 t0 -8q-50 -121 -141 -229q54 -106 65 -230z" />
<glyph unicode="&#xad;" horiz-adv-x="378" d="M336 187h-279l10 58h279z" />
<glyph unicode="&#xae;" horiz-adv-x="683" d="M740 342q-23 -142 -140 -242t-258 -100q-142 0 -225 100t-60 242q23 141 140 241t259 100q141 0 224 -100t60 -241zM700 342q21 124 -52.5 212.5t-198.5 88.5t-228 -88t-124 -213t53 -213.5t199 -88.5t227.5 88.5t123.5 213.5zM585 213q-2 -10 -8 -22t-20.5 -24 t-34.5 -12q-42 0 -64 22q-13 14 -14.5 32t4.5 44q6 27 5 41.5t-13 28.5q-19 19 -52 19h-66l-22 -134q-2 -9 -0.5 -14.5t10 -8t28.5 -2.5h12l-3 -16q-19 1 -77 1t-77 -1l3 16h12q29 0 36.5 4.5t9.5 20.5l46 279q2 9 0.5 14.5t-10 8t-28.5 2.5h-12l3 16h171q60 0 98 -28.5 t31 -66.5q-5 -28 -34.5 -51.5t-77.5 -34.5q30 -9 44 -28q10 -12 12 -24t2 -43t0.5 -41t2.5 -23.5t8 -17t16 -3.5q33 0 45 47q3 8 8 8q6 0 6 -9zM498 433q4 23 -2 38.5t-15 23.5t-27 12t-29 4.5t-30 0.5q-27 0 -31 -1q-9 -1 -12 -5t-5 -15l-23 -137h64q98 0 110 79z" />
<glyph unicode="&#xb4;" d="M516 659q-3 -16 -23 -30l-180 -123l-13 19l146 145q25 25 40 25q14 0 23 -11.5t7 -24.5z" />
<glyph unicode="&#xb8;" horiz-adv-x="494" d="M374 -133q-3 -16 -15.5 -28t-37 -19t-46.5 -11.5t-60 -6t-60 -2t-63 -0.5h-26l4 26h13q61 0 94.5 1.5t71.5 11t41 28.5q4 25 -19.5 33t-64.5 8l16 97h52l-12 -71q52 0 85 -16t27 -51z" />
<glyph unicode="&#xbb;" horiz-adv-x="611" d="M346 242q-2 -4 -5 -8q-118 -97 -188 -227q-3 -7 -11 -7h-2q-5 0 -7 4t0 8q51 122 140 230q-54 107 -64 229q0 12 12 12h2q7 0 8 -6q28 -134 113 -228q2 -4 2 -7zM521 242q-1 -4 -5 -8q-118 -97 -188 -227q-4 -7 -11 -7h-2q-5 0 -7 4t0 8q51 122 140 230q-54 107 -64 229 q0 12 12 12h2q6 0 8 -6q28 -134 113 -228q2 -4 2 -7z" />
<glyph unicode="&#xc0;" horiz-adv-x="814" d="M765 0l-130 3q-108 0 -145 -3l5 31q82 0 87 29q1 4 -2 18l-31 153h-266l-70 -130q-7 -11 -8 -20q-3 -20 13 -35t52 -15l-5 -31l-115 3q-39 0 -102 -3l5 31q41 0 70 14.5t37.5 25.5t18.5 29l320 597q4 8 6.5 11t7 5.5t12.5 2.5q12 0 15.5 -4t6.5 -18l127 -626 q5 -22 18.5 -29.5t59.5 -7.5h18zM543 262l-67 330l-177 -330h244zM607 768l-18 -22l-162 93q-18 12 -19 27q0 17 12.5 29.5t29.5 12.5q13 0 31 -19z" />
<glyph unicode="&#xc2;" horiz-adv-x="814" d="M765 0l-130 3q-108 0 -145 -3l5 31q82 0 87 29q1 4 -2 18l-31 153h-266l-70 -130q-7 -11 -8 -20q-3 -20 13 -35t52 -15l-5 -31l-115 3q-39 0 -102 -3l5 31q41 0 70 14.5t37.5 25.5t18.5 29l320 597q4 8 6.5 11t7 5.5t12.5 2.5q12 0 15.5 -4t6.5 -18l127 -626 q5 -22 18.5 -29.5t59.5 -7.5h18zM543 262l-67 330l-177 -330h244zM683 752l-14 -16l-129 66l-151 -66l-8 16l171 117z" />
<glyph unicode="&#xc6;" horiz-adv-x="975" d="M974 258l-85 -258h-516l5 31q52 0 65.5 6.5t19.5 38.5l39 237h-172l-116 -213q-7 -13 -8 -19q-4 -20 12 -34.5t52 -15.5l-5 -31l-114 3l-103 -3l5 31q91 0 126 67l304 553q-12 1 -38 1h-47l5 31h585l-10 -225h-25q3 50 0 86.5t-17.5 60.5t-46.5 35.5t-86 11.5h-112 q-34 0 -42.5 -7t-13.5 -33l-45 -268h94q69 0 93 24.5t35 92.5h25l-44 -265h-25q11 68 -4.5 92.5t-84.5 24.5h-94l-40 -242q-5 -26 1.5 -33t40.5 -7h111q37 0 66 5.5t50 13t39.5 24.5t30 31t24 43t20.5 50t21 60h25zM507 344l44 260q0 9 1 18.5t-8.5 18t-29.5 8.5l-167 -305 h160z" />
<glyph unicode="&#xc7;" horiz-adv-x="786" d="M752 233q-15 -91 -100 -169t-198 -85l-7 -45q52 0 85 -16t27 -51q-3 -16 -15.5 -28t-37 -19t-46.5 -11.5t-60 -6t-60 -2t-63 -0.5h-26l4 26h13q61 0 94.5 1.5t71.5 11t41 28.5q4 25 -19.5 33t-64.5 8l11 71q-137 12 -217 116t-56 247q25 151 151 257t275 106 q109 0 182 -89l65 77q10 12 18 12q7 0 8 -4.5t0 -15.5q-1 -2 -1 -4l-40 -237q-2 -16 -5 -20t-15 -4q-9 0 -11 3t-2 14q2 111 -53.5 174t-139.5 63q-26 0 -56.5 -6t-74.5 -27t-81 -55t-70 -97.5t-47 -147.5q-9 -70 -6 -122t23 -88.5t43 -60.5t54 -37.5t56.5 -18.5t50.5 -5 q90 0 170.5 61t103.5 164q0 1 1 2q4 14 14 14q9 0 10.5 -5t-0.5 -12z" />
<glyph unicode="&#xc8;" horiz-adv-x="742" d="M741 258l-85 -258h-601l5 31h24q54 0 68 9t19 38l87 524q5 29 -6 38t-65 9h-24l5 31h586l-9 -225h-25q3 57 -1.5 91t-23 59t-54 34.5t-94.5 9.5h-143q-34 0 -42.5 -7t-12.5 -33l-40 -240h98q71 0 96 24t36 93h25l-44 -265h-25q11 69 -6 93t-88 24h-98l-44 -267 q-5 -26 1.5 -33t40.5 -7h151q53 0 91 9.5t63.5 25.5t46 47t33.5 62t30 83h25zM571 768l-18 -22l-162 93q-18 12 -19 27q0 17 12.5 29.5t29.5 12.5q13 0 31 -19z" />
<glyph unicode="&#xc9;" horiz-adv-x="742" d="M741 258l-85 -258h-601l5 31h24q54 0 68 9t19 38l87 524q5 29 -6 38t-65 9h-24l5 31h586l-9 -225h-25q3 57 -1.5 91t-23 59t-54 34.5t-94.5 9.5h-143q-34 0 -42.5 -7t-12.5 -33l-40 -240h98q71 0 96 24t36 93h25l-44 -265h-25q11 69 -6 93t-88 24h-98l-44 -267 q-5 -26 1.5 -33t40.5 -7h151q53 0 91 9.5t63.5 25.5t46 47t33.5 62t30 83h25zM659 866q-3 -10 -13 -18t-14 -9l-194 -93l-10 22l166 121q23 19 37 19q17 0 25.5 -13t2.5 -29z" />
<glyph unicode="&#xca;" horiz-adv-x="742" d="M741 258l-85 -258h-601l5 31h24q54 0 68 9t19 38l87 524q5 29 -6 38t-65 9h-24l5 31h586l-9 -225h-25q3 57 -1.5 91t-23 59t-54 34.5t-94.5 9.5h-143q-34 0 -42.5 -7t-12.5 -33l-40 -240h98q71 0 96 24t36 93h25l-44 -265h-25q11 69 -6 93t-88 24h-98l-44 -267 q-5 -26 1.5 -33t40.5 -7h151q53 0 91 9.5t63.5 25.5t46 47t33.5 62t30 83h25zM647 752l-14 -16l-129 66l-151 -66l-8 16l171 117z" />
<glyph unicode="&#xcb;" horiz-adv-x="742" d="M741 258l-85 -258h-601l5 31h24q54 0 68 9t19 38l87 524q5 29 -6 38t-65 9h-24l5 31h586l-9 -225h-25q3 57 -1.5 91t-23 59t-54 34.5t-94.5 9.5h-143q-34 0 -42.5 -7t-12.5 -33l-40 -240h98q71 0 96 24t36 93h25l-44 -265h-25q11 69 -6 93t-88 24h-98l-44 -267 q-5 -26 1.5 -33t40.5 -7h151q53 0 91 9.5t63.5 25.5t46 47t33.5 62t30 83h25zM446 784q-4 -20 -20.5 -34t-35.5 -14q-20 0 -32 14.5t-8 33.5q3 19 19.5 33.5t36.5 14.5q19 0 31 -14t9 -34zM654 784q-4 -20 -20.5 -34t-35.5 -14q-20 0 -32 14.5t-8 33.5q3 19 19.5 33.5 t36.5 14.5q19 0 31 -14t9 -34z" />
<glyph unicode="&#xce;" horiz-adv-x="406" d="M355 0q-34 3 -152 3q-117 0 -153 -3l5 31h26q56 0 70.5 9t19.5 38l88 527q5 29 -6.5 38t-67.5 9h-26l5 31q34 -3 152 -3q117 0 153 3l-5 -31h-26q-56 0 -70.5 -9t-19.5 -38l-88 -527q-5 -29 6.5 -38t67.5 -9h26zM479 752l-14 -16l-129 66l-151 -66l-8 16l171 117z" />
<glyph unicode="&#xcf;" horiz-adv-x="406" d="M355 0q-34 3 -152 3q-117 0 -153 -3l5 31h26q56 0 70.5 9t19.5 38l88 527q5 29 -6.5 38t-67.5 9h-26l5 31q34 -3 152 -3q117 0 153 3l-5 -31h-26q-56 0 -70.5 -9t-19.5 -38l-88 -527q-5 -29 6.5 -38t67.5 -9h26zM278 784q-4 -20 -20.5 -34t-35.5 -14q-20 0 -32 14.5 t-8 33.5q3 19 19.5 33.5t36.5 14.5q19 0 31 -14t9 -34zM486 784q-4 -20 -20.5 -34t-35.5 -14q-20 0 -32 14.5t-8 33.5q3 19 19.5 33.5t36.5 14.5q19 0 31 -14t9 -34z" />
<glyph unicode="&#xd4;" horiz-adv-x="844" d="M828 339q-25 -150 -145.5 -255.5t-265.5 -105.5q-143 0 -228 105t-60 256q25 152 145.5 259t265.5 107q143 0 228 -106.5t60 -259.5zM727 354q12 90 1.5 152.5t-43.5 101t-71 55.5t-80 17q-41 0 -84.5 -17.5t-87.5 -53.5t-78.5 -102t-49.5 -153q-14 -96 -4 -162.5 t42 -108.5t70 -60.5t81 -18.5q41 0 85 19t88.5 57.5t80 109.5t50.5 164zM698 752l-14 -16l-129 66l-151 -66l-8 16l171 117z" />
<glyph unicode="&#xd9;" horiz-adv-x="814" d="M867 652q-36 0 -60 -7t-35 -20.5t-14.5 -23.5t-6.5 -26l-60 -360q-14 -84 -92.5 -160.5t-182.5 -76.5q-107 0 -172 73t-48 178l63 376q5 29 -6 38t-65 9h-24l5 31q34 -3 147 -3q112 0 148 3l-5 -31h-24q-54 0 -68 -9t-19 -38l-63 -379q-6 -47 -4.5 -81.5t14.5 -58.5 t27.5 -39t34.5 -23.5t35.5 -11.5t31.5 -3q81 0 151.5 60.5t87.5 161.5l57 347q4 10 2.5 23t-7 24t-27.5 19t-58 8l5 31l118 -3l119 3zM631 768l-18 -22l-162 93q-18 12 -19 27q0 17 12.5 29.5t29.5 12.5q13 0 31 -19z" />
<glyph unicode="&#xdb;" horiz-adv-x="814" d="M867 652q-36 0 -60 -7t-35 -20.5t-14.5 -23.5t-6.5 -26l-60 -360q-14 -84 -92.5 -160.5t-182.5 -76.5q-107 0 -172 73t-48 178l63 376q5 29 -6 38t-65 9h-24l5 31q34 -3 147 -3q112 0 148 3l-5 -31h-24q-54 0 -68 -9t-19 -38l-63 -379q-6 -47 -4.5 -81.5t14.5 -58.5 t27.5 -39t34.5 -23.5t35.5 -11.5t31.5 -3q81 0 151.5 60.5t87.5 161.5l57 347q4 10 2.5 23t-7 24t-27.5 19t-58 8l5 31l118 -3l119 3zM707 752l-14 -16l-129 66l-151 -66l-8 16l171 117z" />
<glyph unicode="&#xdc;" horiz-adv-x="814" d="M867 652q-36 0 -60 -7t-35 -20.5t-14.5 -23.5t-6.5 -26l-60 -360q-14 -84 -92.5 -160.5t-182.5 -76.5q-107 0 -172 73t-48 178l63 376q5 29 -6 38t-65 9h-24l5 31q34 -3 147 -3q112 0 148 3l-5 -31h-24q-54 0 -68 -9t-19 -38l-63 -379q-6 -47 -4.5 -81.5t14.5 -58.5 t27.5 -39t34.5 -23.5t35.5 -11.5t31.5 -3q81 0 151.5 60.5t87.5 161.5l57 347q4 10 2.5 23t-7 24t-27.5 19t-58 8l5 31l118 -3l119 3zM506 784q-4 -20 -20.5 -34t-35.5 -14q-20 0 -32 14.5t-8 33.5q3 19 19.5 33.5t36.5 14.5q19 0 31 -14t9 -34zM714 784q-4 -20 -20.5 -34 t-35.5 -14q-20 0 -32 14.5t-8 33.5q3 19 19.5 33.5t36.5 14.5q19 0 31 -14t9 -34z" />
<glyph unicode="&#xe0;" horiz-adv-x="613" d="M579 0q-72 3 -96 3l-107 -3l4 25q53 0 58 28q2 10 -11 60l-13 56h-207q-49 -88 -50 -99q0 -6 -0.5 -15.5t9 -19t28.5 -10.5l-4 -25l-82 3q-41 0 -74 -3l4 25q23 1 40.5 7.5t30.5 21t18 22.5l15 23l229 413l7 11q2 3 6.5 5.5t11.5 2.5q14 0 18 -22l98 -444q5 -26 17 -33 t54 -7zM408 194l-52 241l-135 -241h187zM473 608l-21 -19l-138 123q-16 16 -13 30q2 13 15 24.5t27 11.5q16 0 32 -25z" />
<glyph unicode="&#xe2;" horiz-adv-x="613" d="M560 610l-15 -14l-121 108l-157 -108l-11 14l179 162zM579 0q-72 3 -96 3l-107 -3l4 25q53 0 58 28q2 10 -11 60l-13 56h-207q-49 -88 -50 -99q0 -6 -0.5 -15.5t9 -19t28.5 -10.5l-4 -25l-82 3q-41 0 -74 -3l4 25q23 1 40.5 7.5t30.5 21t18 22.5l15 23l229 413l7 11 q2 3 6.5 5.5t11.5 2.5q14 0 18 -22l98 -444q5 -26 17 -33t54 -7zM408 194l-52 241l-135 -241h187z" />
<glyph unicode="&#xe6;" horiz-adv-x="736" d="M739 194l-61 -194h-392l4 25q37 0 47 7.5t15 37.5l27 165h-132l-76 -136q-12 -19 -13 -30q0 -5 -1 -14t8.5 -19t28.5 -11l-4 -25q-45 3 -81 3q-42 0 -75 -3l4 25q62 1 102 69l223 394q-10 1 -31 1h-27l4 25h443l-9 -169h-25q5 84 -16 114t-97 30h-76q-27 0 -35 -7 t-13 -36l-31 -186h64q53 0 71 17.5t27 69.5h25l-33 -199h-25q9 52 -4 69.5t-65 17.5h-64l-28 -167q-4 -30 1 -36.5t32 -6.5h77q85 0 121 35t65 134h25zM383 260l30 177q7 45 -24 48l-128 -225h122z" />
<glyph unicode="&#xe7;" horiz-adv-x="591" d="M570 177q-11 -66 -73.5 -124.5t-147.5 -65.5l-9 -53q52 0 85 -16t27 -51q-3 -16 -15.5 -28t-37 -19t-46.5 -11.5t-60 -6t-60 -2t-63 -0.5h-26l4 26h13q61 0 94.5 1.5t71.5 11t41 28.5q4 25 -19.5 33t-64.5 8l13 80q-102 11 -161.5 88t-41.5 181q19 113 115 192t210 79 q83 0 135 -63l47 51q12 12 17 12q7 0 8 -6t-2 -18l-28 -169q-2 -15 -5 -19.5t-12 -4.5t-11 13q1 89 -42.5 134t-104.5 45q-18 0 -39 -4t-54 -19t-60.5 -40t-52.5 -72.5t-35 -110.5q-7 -55 -4.5 -94.5t18.5 -66.5t33 -44t41 -26t40.5 -12t31.5 -3q67 0 127 45t78 121 q3 16 14 16q13 0 11 -16z" />
<glyph unicode="&#xe8;" horiz-adv-x="558" d="M561 194l-61 -194h-457l4 25q49 0 62 8t18 39l61 367q5 31 -5 39t-59 8l4 25h445l-9 -169h-25q5 84 -19.5 114t-109.5 30h-102q-27 0 -34.5 -6.5t-12.5 -36.5l-28 -165h70q54 0 73 17.5t28 69.5h25l-33 -199h-25q9 52 -4.5 69.5t-67.5 17.5h-70l-31 -185q-4 -30 1 -36.5 t32 -6.5h108q63 0 100.5 18.5t57 51.5t39.5 99h25zM445 608l-21 -19l-138 123q-16 16 -13 30q2 13 15 24.5t27 11.5q16 0 32 -25z" />
<glyph unicode="&#xe9;" horiz-adv-x="558" d="M532 742q-3 -16 -23 -30l-180 -123l-13 19l146 145q25 25 40 25q14 0 23 -11.5t7 -24.5zM561 194l-61 -194h-457l4 25q49 0 62 8t18 39l61 367q5 31 -5 39t-59 8l4 25h445l-9 -169h-25q5 84 -19.5 114t-109.5 30h-102q-27 0 -34.5 -6.5t-12.5 -36.5l-28 -165h70 q54 0 73 17.5t28 69.5h25l-33 -199h-25q9 52 -4.5 69.5t-67.5 17.5h-70l-31 -185q-4 -30 1 -36.5t32 -6.5h108q63 0 100.5 18.5t57 51.5t39.5 99h25z" />
<glyph unicode="&#xea;" horiz-adv-x="558" d="M532 610l-15 -14l-121 108l-157 -108l-11 14l179 162zM561 194l-61 -194h-457l4 25q49 0 62 8t18 39l61 367q5 31 -5 39t-59 8l4 25h445l-9 -169h-25q5 84 -19.5 114t-109.5 30h-102q-27 0 -34.5 -6.5t-12.5 -36.5l-28 -165h70q54 0 73 17.5t28 69.5h25l-33 -199h-25 q9 52 -4.5 69.5t-67.5 17.5h-70l-31 -185q-4 -30 1 -36.5t32 -6.5h108q63 0 100.5 18.5t57 51.5t39.5 99h25z" />
<glyph unicode="&#xeb;" horiz-adv-x="558" d="M352 684q-3 -19 -19.5 -33.5t-36.5 -14.5q-19 0 -31 14t-9 34q4 20 20.5 34t35.5 14q20 0 32 -14.5t8 -33.5zM528 684q-3 -19 -19.5 -33.5t-36.5 -14.5q-19 0 -31 14t-9 34q4 20 20.5 34t35.5 14q20 0 32 -14.5t8 -33.5zM561 194l-61 -194h-457l4 25q49 0 62 8t18 39 l61 367q5 31 -5 39t-59 8l4 25h445l-9 -169h-25q5 84 -19.5 114t-109.5 30h-102q-27 0 -34.5 -6.5t-12.5 -36.5l-28 -165h70q54 0 73 17.5t28 69.5h25l-33 -199h-25q9 52 -4.5 69.5t-67.5 17.5h-70l-31 -185q-4 -30 1 -36.5t32 -6.5h108q63 0 100.5 18.5t57 51.5t39.5 99h25 z" />
<glyph unicode="&#xee;" horiz-adv-x="302" d="M405 610l-15 -14l-121 108l-157 -108l-11 14l179 162zM263 0l-111 3l-113 -3l4 25q53 0 66 7.5t18 40.5l62 368q5 33 -5 40.5t-63 7.5l4 25l111 -3l113 3l-4 -25q-53 0 -66 -7.5t-18 -40.5l-62 -368q-5 -33 5 -40.5t63 -7.5z" />
<glyph unicode="&#xef;" horiz-adv-x="302" d="M225 684q-3 -19 -19.5 -33.5t-36.5 -14.5q-19 0 -31 14t-9 34q4 20 20.5 34t35.5 14q20 0 32 -14.5t8 -33.5zM401 684q-3 -19 -19.5 -33.5t-36.5 -14.5q-19 0 -31 14t-9 34q4 20 20.5 34t35.5 14q20 0 32 -14.5t8 -33.5zM263 0l-111 3l-113 -3l4 25q53 0 66 7.5t18 40.5 l62 368q5 33 -5 40.5t-63 7.5l4 25l111 -3l113 3l-4 -25q-53 0 -66 -7.5t-18 -40.5l-62 -368q-5 -33 5 -40.5t63 -7.5z" />
<glyph unicode="&#xf4;" horiz-adv-x="636" d="M571 610l-15 -14l-121 108l-157 -108l-11 14l179 162zM628 255q-19 -113 -110.5 -191t-201.5 -78t-175.5 78.5t-46.5 190.5q18 112 109.5 192.5t202.5 80.5t175.5 -80.5t46.5 -192.5zM543 266q9 70 1 116t-34 73t-52.5 37.5t-55.5 10.5q-28 0 -59 -11.5t-64 -36t-60 -74 t-38 -115.5q-9 -74 -1.5 -123t32.5 -78t52 -41t56 -12t60.5 12.5t65 40t60 79.5t37.5 122z" />
<glyph unicode="&#xf9;" horiz-adv-x="613" d="M652 489q-71 0 -83 -62l-44 -266q-11 -62 -70.5 -118.5t-139.5 -56.5t-128.5 49t-44.5 113q0 12 10 75l36 217q6 33 -3.5 41t-59.5 8l4 25l107 -3l109 3l-4 -25q-49 0 -62 -8t-18 -39l-45 -269q-4 -37 -3 -64t12.5 -45t22.5 -28.5t27 -16t26 -7t20 -1.5q58 0 113 43.5 t69 123.5l39 235q13 76 -59 76l4 25q41 -3 84 -3q46 0 85 3zM492 608l-21 -19l-138 123q-16 16 -13 30q2 13 15 24.5t27 11.5q16 0 32 -25z" />
<glyph unicode="&#xfb;" horiz-adv-x="613" d="M579 610l-15 -14l-121 108l-157 -108l-11 14l179 162zM652 489q-71 0 -83 -62l-44 -266q-11 -62 -70.5 -118.5t-139.5 -56.5t-128.5 49t-44.5 113q0 12 10 75l36 217q6 33 -3.5 41t-59.5 8l4 25l107 -3l109 3l-4 -25q-49 0 -62 -8t-18 -39l-45 -269q-4 -37 -3 -64 t12.5 -45t22.5 -28.5t27 -16t26 -7t20 -1.5q58 0 113 43.5t69 123.5l39 235q13 76 -59 76l4 25q41 -3 84 -3q46 0 85 3z" />
<glyph unicode="&#xfc;" horiz-adv-x="613" d="M399 684q-3 -19 -19.5 -33.5t-36.5 -14.5q-19 0 -31 14t-9 34q4 20 20.5 34t35.5 14q20 0 32 -14.5t8 -33.5zM575 684q-3 -19 -19.5 -33.5t-36.5 -14.5q-19 0 -31 14t-9 34q4 20 20.5 34t35.5 14q20 0 32 -14.5t8 -33.5zM652 489q-71 0 -83 -62l-44 -266 q-11 -62 -70.5 -118.5t-139.5 -56.5t-128.5 49t-44.5 113q0 12 10 75l36 217q6 33 -3.5 41t-59.5 8l4 25l107 -3l109 3l-4 -25q-49 0 -62 -8t-18 -39l-45 -269q-4 -37 -3 -64t12.5 -45t22.5 -28.5t27 -16t26 -7t20 -1.5q58 0 113 43.5t69 123.5l39 235q13 76 -59 76l4 25 q41 -3 84 -3q46 0 85 3z" />
<glyph unicode="&#xff;" horiz-adv-x="613" d="M380 684q-3 -19 -19.5 -33.5t-36.5 -14.5q-19 0 -31 14t-9 34q4 20 20.5 34t35.5 14q20 0 32 -14.5t8 -33.5zM556 684q-3 -19 -19.5 -33.5t-36.5 -14.5q-19 0 -31 14t-9 34q4 20 20.5 34t35.5 14q20 0 32 -14.5t8 -33.5zM676 489q-64 -3 -120 -70l-181 -214l-21 -130 q-6 -34 3.5 -42t59.5 -8l-4 -25l-106 3l-107 -3l4 25q49 0 62 8t18 39l22 134l-129 251q-10 20 -24 26t-52 6l4 25q44 -3 96 -3l109 3l-4 -25q-41 0 -45 -20q-1 -11 8 -27l104 -203l153 182q19 23 22 38q3 27 -24 30l4 25q39 -3 81 -3q38 0 71 3z" />
<glyph unicode="&#x152;" horiz-adv-x="1092" d="M1091 258l-85 -258h-411q-32 0 -95 -14q-41 -8 -71 -8q-139 0 -225.5 104.5t-60.5 256.5q25 153 146.5 259.5t262.5 106.5q29 0 83 -13q42 -9 74 -9h396l-10 -225h-25q3 57 -0.5 89.5t-19.5 58.5t-48.5 36t-88.5 10h-126q-34 0 -42.5 -7t-13.5 -33l-40 -242h117 q74 0 100.5 23.5t38.5 93.5h25l-44 -265h-25q12 69 -7 93t-93 24h-117l-45 -268q-5 -26 1.5 -33t40.5 -7h128q63 0 104.5 12.5t69.5 45.5t43.5 67.5t37.5 101.5h25zM610 342q32 187 34 234q4 55 -13 81t-80 26q-103 0 -192.5 -94t-113.5 -235q-25 -147 32 -250.5t161 -103.5 q34 0 57.5 8t37.5 26.5t20.5 35t14.5 45.5q10 35 42 227z" />
<glyph unicode="&#x153;" horiz-adv-x="824" d="M827 194l-61 -194h-312q-26 0 -79 -9q-28 -5 -50 -5q-107 0 -173 78t-47 191t110.5 193t199.5 80q23 0 67 -8q33 -6 58 -6h300l-9 -169h-25q6 84 -16.5 114t-100.5 30h-86q-27 0 -35 -7t-13 -36l-27 -167h82q55 0 75.5 17.5t28.5 69.5h25l-33 -199h-25q8 52 -6 69.5 t-70 17.5h-82l-31 -186q-4 -30 1 -36.5t32 -6.5h89q87 0 122.5 35.5t65.5 133.5h25zM461 257q24 144 25 175q2 38 -12 56t-60 18q-76 0 -142 -69t-83 -171q-17 -107 24 -182.5t118 -75.5q49 0 68 19.5t31 64.5q4 14 31 165z" />
<glyph unicode="&#x178;" horiz-adv-x="814" d="M896 652q-90 -2 -141 -64l-260 -315l-33 -193q-5 -31 6 -40t66 -9h23l-5 -31q-35 3 -145 3t-147 -3l5 31h24q54 0 68 9t19 38l33 195l-169 345q-10 20 -27.5 27t-58.5 7h-19l5 31l130 -3q113 0 149 3l-5 -31q-68 0 -72 -24l5 -20l144 -294l224 271q13 18 15 29 q4 19 -9.5 28.5t-37.5 9.5l5 31l114 -3q52 0 99 3zM482 784q-4 -20 -20.5 -34t-35.5 -14q-20 0 -32 14.5t-8 33.5q3 19 19.5 33.5t36.5 14.5q19 0 31 -14t9 -34zM690 784q-4 -20 -20.5 -34t-35.5 -14q-20 0 -32 14.5t-8 33.5q3 19 19.5 33.5t36.5 14.5q19 0 31 -14t9 -34z " />
<glyph unicode="&#x2c6;" d="M516 527l-15 -14l-121 108l-157 -108l-11 14l179 162z" />
<glyph unicode="&#x2da;" horiz-adv-x="873" d="M606 617q10 58 -57 58q-68 0 -77 -58t57 -58q67 0 77 58zM639 616q-6 -35 -39 -61t-77 -26q-40 0 -65 25.5t-19 63.5q6 35 39 61t77 26q40 0 65 -25.5t19 -63.5z" />
<glyph unicode="&#x2dc;" d="M557 633q-54 -48 -77.5 -63.5t-50.5 -15.5q-24 0 -66 27q-34 22 -58 22q-45 0 -95 -49l-14 15q53 48 76.5 63.5t50.5 15.5q25 0 67 -27q32 -22 58 -22q44 0 94 49z" />
<glyph unicode="&#x2000;" horiz-adv-x="454" />
<glyph unicode="&#x2001;" horiz-adv-x="908" />
<glyph unicode="&#x2002;" horiz-adv-x="454" />
<glyph unicode="&#x2003;" horiz-adv-x="908" />
<glyph unicode="&#x2004;" horiz-adv-x="302" />
<glyph unicode="&#x2005;" horiz-adv-x="227" />
<glyph unicode="&#x2006;" horiz-adv-x="151" />
<glyph unicode="&#x2007;" horiz-adv-x="151" />
<glyph unicode="&#x2008;" horiz-adv-x="113" />
<glyph unicode="&#x2009;" horiz-adv-x="181" />
<glyph unicode="&#x200a;" horiz-adv-x="50" />
<glyph unicode="&#x2010;" horiz-adv-x="378" d="M336 187h-279l10 58h279z" />
<glyph unicode="&#x2011;" horiz-adv-x="378" d="M336 187h-279l10 58h279z" />
<glyph unicode="&#x2013;" d="M581 255h-524l3 22h524z" />
<glyph unicode="&#x2014;" horiz-adv-x="1106" d="M1120 255h-1049l3 22h1049z" />
<glyph unicode="&#x2018;" horiz-adv-x="319" d="M287 447q-4 -21 -20.5 -37t-41.5 -16q-33 0 -45.5 30.5t-5.5 74.5q9 53 39.5 101t56 70.5t33.5 22.5q11 0 9 -11l-7 -9q-92 -75 -109 -175q-2 -12 -2 -21q19 23 48 23q25 0 36.5 -16t8.5 -37z" />
<glyph unicode="&#x2019;" horiz-adv-x="319" d="M325 589q-9 -53 -39 -101t-55.5 -70.5t-33.5 -22.5q-11 0 -9 11l6 9q93 76 109 175q3 18 3 21q-19 -23 -49 -23q-25 0 -36 15.5t-8 37.5q3 21 20 37t42 16q33 0 45 -30.5t5 -74.5z" />
<glyph unicode="&#x201a;" horiz-adv-x="319" d="M220 -1q-9 -53 -39.5 -101t-56 -70.5t-33.5 -22.5q-11 0 -9 11l7 9q92 75 109 175q3 18 3 21q-19 -23 -49 -23q-25 0 -36.5 16t-7.5 37q3 21 19.5 37t41.5 16q33 0 45.5 -30.5t5.5 -74.5z" />
<glyph unicode="&#x201c;" horiz-adv-x="523" d="M287 447q-4 -21 -20.5 -37t-41.5 -16q-33 0 -45.5 30.5t-5.5 74.5q9 53 39.5 101t56 70.5t33.5 22.5q11 0 9 -11l-7 -9q-92 -75 -109 -175q-2 -12 -2 -21q19 23 48 23q25 0 36.5 -16t8.5 -37zM491 447q-4 -21 -20.5 -37t-41.5 -16q-33 0 -45.5 30.5t-5.5 74.5 q9 53 39.5 101t56 70.5t33.5 22.5q11 0 9 -11l-7 -9q-92 -75 -109 -175q-2 -12 -2 -21q19 23 48 23q25 0 36.5 -16t8.5 -37z" />
<glyph unicode="&#x201d;" horiz-adv-x="523" d="M326 589q-9 -53 -39 -101t-55.5 -70.5t-33.5 -22.5q-11 0 -9 11l6 9q93 76 109 175q3 18 3 21q-19 -23 -49 -23q-25 0 -36 15.5t-8 37.5q3 21 20 37t42 16q33 0 45 -30.5t5 -74.5zM530 589q-9 -53 -39 -101t-55.5 -70.5t-33.5 -22.5q-11 0 -9 11l6 9q93 76 109 175 q3 18 3 21q-19 -23 -49 -23q-25 0 -36 15.5t-8 37.5q3 21 20 37t42 16q33 0 45 -30.5t5 -74.5z" />
<glyph unicode="&#x201e;" horiz-adv-x="523" d="M228 -1q-9 -53 -39.5 -101t-56 -70.5t-33.5 -22.5q-11 0 -9 11l7 9q92 75 109 175q3 18 3 21q-19 -23 -49 -23q-25 0 -36.5 16t-7.5 37q3 21 19.5 37t41.5 16q33 0 45.5 -30.5t5.5 -74.5zM432 -1q-9 -53 -39.5 -101t-56 -70.5t-33.5 -22.5q-11 0 -9 11l7 9q92 75 109 175 q3 18 3 21q-19 -23 -49 -23q-25 0 -36.5 16t-7.5 37q3 21 19.5 37t41.5 16q33 0 45.5 -30.5t5.5 -74.5z" />
<glyph unicode="&#x2026;" horiz-adv-x="720" d="M622 53q-4 -22 -22 -37.5t-40 -15.5t-35 15.5t-9 37.5t22 37.5t40 15.5t35 -15.5t9 -37.5zM422 53q-4 -22 -22 -37.5t-40 -15.5t-35 15.5t-9 37.5t22 37.5t40 15.5t35 -15.5t9 -37.5zM222 53q-4 -22 -22 -37.5t-40 -15.5t-35 15.5t-9 37.5t22 37.5t40 15.5t35 -15.5 t9 -37.5z" />
<glyph unicode="&#x202f;" horiz-adv-x="181" />
<glyph unicode="&#x2039;" horiz-adv-x="408" d="M294 12q0 -12 -12 -12h-2q-8 0 -8 7q-28 133 -113 227q-2 4 -2 8q2 5 5 7q119 97 188 228q3 6 11 6h2q5 0 7 -4t0 -8q-50 -121 -141 -229q54 -106 65 -230z" />
<glyph unicode="&#x203a;" horiz-adv-x="408" d="M332 242q-2 -4 -5 -8q-118 -97 -188 -227q-3 -7 -11 -7h-2q-5 0 -7 4t0 8q51 122 140 230q-54 107 -64 229q0 12 12 12h2q7 0 8 -6q28 -134 113 -228q2 -4 2 -7z" />
<glyph unicode="&#x205f;" horiz-adv-x="227" />
<glyph unicode="&#x20ac;" horiz-adv-x="657" d="M597 -12q-2 -10 -12 -10h-3q-4 0 -6 3l-33 44q-60 -47 -128 -47q-126 0 -197 107q-53 81 -51 186h-55q-5 0 -7.5 4t-0.5 9l5 10q3 7 11 7h48q1 13 5 41q3 21 9 41h-52q-5 0 -7 4t0 9l5 10q2 7 10 7h52q37 108 114 185q105 107 232 107q69 0 113 -46l47 43q3 3 8 3h3 q10 0 8 -10l-26 -155q-2 -10 -12 -10h-10q-8 0 -8 9q3 57 -30 96.5t-88 39.5q-48 0 -93.5 -26t-79.5 -69q-53 -65 -79 -167h312q5 0 7.5 -4t0.5 -9l-5 -10q-4 -7 -11 -7h-310l-8 -41l-6 -41h280q5 0 7 -4.5t0 -8.5l-5 -10q-3 -7 -10 -7h-275q-9 -104 22 -168 q20 -43 57.5 -69t84.5 -26q55 0 101 39.5t62 96.5q4 9 12 9h10q10 0 8 -10z" />
<glyph unicode="&#x2122;" horiz-adv-x="1065" d="M531 548h-15q6 77 -9.5 97t-85.5 20q-29 0 -35 -1q-7 -1 -10.5 -4t-4.5 -6.5t-2 -12.5l-53 -316q-3 -18 5.5 -23.5t52.5 -5.5h24l-3 -19q-23 2 -113 2q-89 0 -114 -2l3 19h24q31 0 45 3.5t17.5 8.5t5.5 17l53 316q3 19 -5 22q-2 1 -4 1q-6 1 -35 1q-70 0 -92.5 -20 t-42.5 -97h-15l35 135h385zM1043 277q-21 2 -85 2t-87 -2l3 19h14q33 0 41.5 5t11.5 23l58 345l-1 1l-219 -382q-9 -11 -14 -11q-7 0 -9 11l-91 377l-54 -325q0 -9 -1 -18.5t13 -17.5t42 -8l-3 -19l-70 2l-71 -2l3 19q28 0 44.5 8.5t20 16t5.5 19.5l50 300q2 18 -4 23t-39 5 h-15l4 19h102q10 0 13.5 -1.5t4.5 -9.5l82 -342l196 342q5 8 8.5 9.5t14.5 1.5h101l-4 -19h-14q-33 0 -41.5 -5t-10.5 -23l-53 -316q-3 -18 3.5 -23t39.5 -5h14z" />
</font>
</defs>
</svg>
