<?xml version="1.0" standalone="no"?>
<!DOCTYPE svg PUBLIC "-//W3C//DTD SVG 1.1//EN" "http://www.w3.org/Graphics/SVG/1.1/DTD/svg11.dtd" >
<svg xmlns="http://www.w3.org/2000/svg">
<metadata>
This is a custom SVG webfont generated by Font Squirrel.
Copyright   : Copyright 2003 2008 B Jackowski and J M Nowacki on behalf of TeX users groups This work is released under the GUST Font License   see httptugorgfontslicensesGUSTFONTLICENSEtxt for details
</metadata>
<defs>
<font id="webfontCMshccGH" horiz-adv-x="1210" >
<font-face units-per-em="2048" ascent="1651" descent="-397" />
<missing-glyph horiz-adv-x="847" />
<glyph unicode=" "  horiz-adv-x="847" />
<glyph unicode="&#x09;" horiz-adv-x="847" />
<glyph unicode="&#xa0;" horiz-adv-x="847" />
<glyph unicode="!" horiz-adv-x="790" d="M281 123q0 72 57 125t123 53q57 0 92 -36t35 -87q0 -72 -56.5 -125t-123.5 -53q-55 0 -91 34t-36 89zM461 483v23l110 790q8 66 51.5 105t75 47t54.5 8q61 0 95 -36t34 -79q0 -14 -15 -57l-288 -799q-10 -27 -18.5 -31.5t-43.5 -4.5q-18 0 -28.5 1t-20.5 9t-6 24z" />
<glyph unicode="&#x22;" horiz-adv-x="1060" d="M522 864l66 467q6 45 47 77t90 32q47 0 71.5 -33t8.5 -76l-168 -467h-115zM854 864l66 467q6 45 47 77t90 32q47 0 71.5 -33t8.5 -76l-168 -467h-115z" />
<glyph unicode="#" horiz-adv-x="1933" d="M256 285q0 61 82 61h360l176 334h-421q-82 0 -82 61q0 63 94 64h477l303 571q25 45 60 45q27 0 45 -18.5t18 -44.5q0 -12 -14 -39l-271 -514h338l303 571q25 45 60 45q27 0 45 -18.5t18 -44.5q0 -12 -14 -39l-270 -514h276q94 0 94 -64q0 -61 -82 -61h-356l-176 -334h418 q84 0 84 -61q0 -63 -97 -64h-475l-305 -573q-25 -45 -59 -45q-27 0 -45.5 18.5t-18.5 44.5q0 12 15 39l272 516h-338l-305 -573q-25 -45 -59 -45q-27 0 -45.5 18.5t-18.5 44.5q0 12 14 39l273 516h-279q-94 1 -94 64zM840 346h338l176 334h-338z" />
<glyph unicode="$" horiz-adv-x="1177" d="M215 315q2 23 7 49.5t21.5 64.5t52.5 62.5t87 24.5q20 0 41.5 -6t43 -33.5t17.5 -70.5q-2 -27 -12 -55.5t-52 -59.5t-106 -31q27 -158 248 -174l127 516q-51 10 -77.5 17.5t-75 34t-84.5 67.5q-88 98 -78 240q6 70 38.5 144.5t93 147t163 122.5t229.5 57l25 104h96 l-25 -104q145 -8 241.5 -82t84.5 -226q-6 -82 -48 -136t-118 -54q-41 0 -74.5 25.5t-29.5 82.5q6 59 49 103.5t117 44.5q-35 133 -246 145l-115 -458q160 -35 231 -121q88 -109 76 -258q-6 -72 -38.5 -151t-92 -157.5t-164 -134t-233.5 -65.5l-27 -105h-96l27 105 q-188 16 -261 109t-63 216zM569 1083q-6 -70 44.5 -119t150.5 -67l110 438q-139 -14 -219 -90t-86 -162zM659 88q150 14 228 106.5t84 178.5q6 61 -35 123.5t-152 83.5z" />
<glyph unicode="%" horiz-adv-x="1933" d="M352 -51q0 25 33 57l1219 1276h-2q-96 -31 -203 -31q-174 0 -312 82q2 -14 3 -51q0 -86 -28 -183.5t-76 -185.5t-126 -145t-170 -57q-35 0 -69.5 10t-77.5 35.5t-70 84t-27 142.5q0 127 52.5 253t155 213t227.5 87q84 0 157 -70q143 -143 363 -143q250 0 420 186 q27 27 53.5 27t44.5 -18.5t18 -45t-26 -53.5l-1444 -1505q-29 -29 -53 -29q-23 0 -42.5 16.5t-19.5 47.5zM625 891q0 -49 19.5 -78t51.5 -29q78 0 145.5 93.5t102.5 211t35 209.5q0 14 -2 34t-10.5 53.5t-31 55t-54.5 21.5q-41 0 -88.5 -40t-81.5 -144q-25 -72 -55.5 -198 t-30.5 -189zM1202 158q0 123 50.5 247.5t153.5 215t232 90.5q78 0 142.5 -56.5t64.5 -199.5q0 -119 -45 -247t-140 -225.5t-214 -97.5q-92 0 -168 63t-76 210zM1380 66q0 -51 19.5 -79t52.5 -28q78 0 145.5 93t102.5 210t35 209q0 166 -99 166q-68 0 -122 -89t-80.5 -196.5 t-40.5 -195.5z" />
<glyph unicode="&#x26;" horiz-adv-x="1814" d="M289 371q0 94 51 219t139 213q-20 53 -20 119q0 119 54 238.5t168 207.5t259 88q117 0 191.5 -65.5t74.5 -167.5q0 -90 -47 -133t-102 -43q-37 0 -69 21.5t-32 72.5q0 49 33 90t94 53q-35 98 -143 98q-190 0 -272 -454q84 33 166 33q78 0 116.5 -35t38.5 -97 q0 -76 -58.5 -139t-164.5 -63q-90 0 -164 35q-78 -203 -78 -345q0 -279 394 -278q285 0 444 113q121 88 175 218t54 228q0 131 -104 281q-2 -2 -61.5 -33t-84.5 -47q-86 -61 -92 -144l13 19q14 18 45.5 35.5t68.5 17.5q49 0 76 -27.5t27 -68.5q0 -55 -41 -101.5t-111 -46.5 q-82 0 -137 49.5t-55 122.5q0 43 18 83t39.5 66.5t71 62.5t76 52.5t87.5 51.5q160 86 238 209q-78 20 -78 94q0 59 44 103t104 44q41 0 71.5 -24.5t30.5 -71.5q0 -27 -13.5 -74t-73.5 -140t-161 -169q119 -176 119 -332q0 -23 -2 -53.5t-19.5 -97t-46 -127t-88 -130 t-140.5 -119.5t-212 -84t-291 -34q-311 0 -465.5 112t-154.5 294zM664 780q27 -80 108 -80q49 0 78 43t29 103q0 41 -45 41q-88 -1 -170 -107z" />
<glyph unicode="'" horiz-adv-x="729" d="M522 864l66 467q6 45 47 77t90 32q47 0 71.5 -33t8.5 -76l-168 -467h-115z" />
<glyph unicode="(" horiz-adv-x="968" d="M346 152q0 328 142.5 648t357.5 531q68 66 159 135.5t119 69.5q37 0 37 -29q0 -16 -12 -22l-39 -35q-162 -139 -286 -343t-186.5 -408.5t-92 -373.5t-29.5 -292q0 -289 125 -473q23 -29 23 -41q0 -29 -37 -29t-107.5 93t-107.5 190q-66 166 -66 379z" />
<glyph unicode=")" horiz-adv-x="968" d="M66 -481q0 12 38 47q139 119 251 283.5t175.5 323.5t106.5 326t57.5 286.5t14.5 207.5q0 283 -136 490q-12 16 -12 24q0 29 37 29t103.5 -88t99.5 -162q80 -186 80 -412q0 -170 -45 -361t-169 -425.5t-313 -413.5q-53 -53 -138 -118.5t-116 -65.5q-34 0 -34 29z" />
<glyph unicode="*" d="M424 881q0 70 82 96l293 104l-244 105q-41 16 -41 55q0 43 36 78t75 35q27 0 53 -27l176 -178l27 281q4 37 19 61.5t36.5 32.5t33 10t19.5 2q31 0 50.5 -17.5t19.5 -41.5q0 -12 -12 -39l-115 -289l272 182q35 23 58 23q25 0 45 -17.5t20 -54.5q0 -70 -82 -96l-293 -105 l244 -104q41 -16 41 -55q0 -43 -36 -78t-75 -35q-27 0 -53 27l-176 178l-27 -281q-4 -37 -19 -61.5t-36.5 -32.5t-33 -10t-19.5 -2q-31 0 -50.5 17.5t-19.5 41.5q0 12 13 39l114 287l-246 -164q-57 -39 -84 -39q-25 0 -45 17.5t-20 54.5z" />
<glyph unicode="+" horiz-adv-x="1814" d="M313 514q0 61 88 61h586l150 596q14 63 65 64q23 0 42.5 -16.5t19.5 -47.5q0 -12 -9 -41l-139 -555h555q88 0 88 -63q0 -61 -88 -61h-586l-149 -598q-14 -61 -64 -62q-27 0 -45 18.5t-18 45.5q0 10 6 30l141 566h-555q-88 0 -88 63z" />
<glyph unicode="," horiz-adv-x="729" d="M182 -356q0 12 35 41q188 133 254 344q-43 -29 -98 -29q-66 0 -95.5 37t-29.5 82q0 66 52 124t132 58q63 0 98 -45t35 -119q0 -94 -47 -195.5t-108.5 -173t-115.5 -118.5t-75 -47q-14 0 -25.5 13.5t-11.5 27.5z" />
<glyph unicode="-" horiz-adv-x="847" d="M188 397q0 4 11.5 50.5t11.5 52.5q10 37 19.5 44t52.5 7h444q66 0 66 -37q0 -2 -25 -100q-10 -39 -20.5 -47.5t-55.5 -8.5h-436q-68 0 -68 39z" />
<glyph unicode="." horiz-adv-x="729" d="M250 121q0 74 58.5 127t123.5 53q55 0 90 -34t35 -87q0 -72 -57.5 -126t-126.5 -54q-49 0 -86 31t-37 90z" />
<glyph unicode="/" d="M72 -449q0 14 20 50l1176 1888q31 47 63 47q27 0 45.5 -18.5t18.5 -44.5q0 -14 -21 -50l-1175 -1888q-31 -47 -64 -47q-27 0 -45 18t-18 45z" />
<glyph unicode="0" d="M236 328q0 133 56 352t136 360q182 313 514 314q360 0 361 -369q0 -143 -68 -398t-188 -407q-174 -215 -449 -215q-362 1 -362 363zM446 215q0 -82 48.5 -129t119.5 -47q205 0 299 283q47 137 116 414.5t69 375.5q0 74 -48.5 121t-125.5 47q-80 0 -147.5 -47t-98.5 -103 q-59 -113 -145.5 -461t-86.5 -454z" />
<glyph unicode="1" d="M254 37q0 29 11 42t23.5 15t37.5 2h63q61 0 90 4q33 2 41 8.5t15 28.5l229 916q-127 -59 -240 -60q-47 0 -47 39q0 51 51 58q258 18 449 241q23 23 41 23q25 0 34 -13.5t9 -23.5q0 -8 -6 -27l-297 -1188q55 -6 121 -6h67q66 0 66 -37q0 -59 -62 -59q-53 0 -164.5 3 t-167.5 3q-53 0 -160.5 -3t-158.5 -3q-45 0 -45 37z" />
<glyph unicode="2" d="M186 -6q0 18 19.5 69.5t63.5 130t138.5 168t219.5 154.5q211 109 315 248q41 55 65.5 142t29.5 133t5 65q0 94 -51 135t-121 41q-162 0 -286.5 -154.5t-124.5 -285.5q0 -57 39 -58q78 0 140 90.5t62 147.5q0 29 -22 65q-10 16 -10 23q0 16 16 27q10 14 27 14q23 0 43 -42 t20 -83q0 -88 -84 -201.5t-201 -113.5q-63 0 -102 43t-39 110q0 63 39 145.5t105.5 161t170 132t218.5 53.5q168 0 276.5 -87t108.5 -251q0 -172 -115 -293t-430 -281q-197 -98 -305 -233q111 0 237 -14q158 -14 215 -15q94 0 159 47t87 115q8 23 16.5 28t43.5 5 q57 0 57 -31q0 -18 -15.5 -60t-48 -97.5t-76.5 -104.5t-110 -83t-139 -34q-90 0 -228 86q-127 84 -200 84q-72 0 -113 -141q-6 -20 -15.5 -24.5t-43.5 -4.5q-56 0 -56 29z" />
<glyph unicode="3" d="M221 238q0 59 18.5 99t46 56.5t48 22.5t37.5 6q47 0 74.5 -27.5t27.5 -66.5q0 -43 -31.5 -88t-99.5 -56q16 -72 74.5 -108.5t132.5 -36.5q90 0 159.5 41t102.5 104q35 68 60.5 176.5t25.5 151.5q0 125 -143 125h-66q-25 0 -36 1t-20 8t-9 22l16 53q8 12 53 12h58 q174 0 247 111q35 49 60.5 151.5t25.5 149.5q0 135 -153 135q-147 0 -264 -96.5t-117 -208.5q0 -57 39 -57t75.5 31.5t36.5 74.5q0 27 -20 59q-12 12 -12 25q0 16 16 27q10 14 27 14q23 0 44 -43t21 -78q0 -72 -59.5 -128t-134.5 -56q-63 0 -104.5 40t-41.5 105 q0 131 146.5 248t355.5 117q160 0 254 -71t94 -204q0 -113 -76.5 -232.5t-236.5 -174.5q147 -72 147 -250q0 -190 -158.5 -323.5t-410.5 -133.5q-150 0 -240 77t-90 196z" />
<glyph unicode="4" d="M109 55q0 39 77 72q18 10 66.5 47t144 138.5t176.5 226.5q182 279 289 688q8 33 16.5 52t40 47t78.5 28q14 0 32 -4t38 -25.5t20 -58.5q0 -14 -13 -72.5t-61 -179.5t-120 -253t-207 -298t-305 -309h41q98 0 278 -62l62 244q10 43 19.5 67.5t40 52t77.5 27.5 q39 0 65.5 -22.5t26.5 -63.5q0 -16 -8 -47l-74 -301q74 0 138 21q23 6 24 6q18 0 33.5 -22.5t15.5 -33.5q0 -31 -84 -49t-153 -18q-6 -31 -56 -227q-31 -123 -133 -123q-43 0 -67.5 25.5t-24.5 60.5l37 159l37 150q-115 39 -162 49t-121 10q-139 0 -190 -32q-35 -25 -45 -25 q-16 0 -32.5 21.5t-16.5 33.5z" />
<glyph unicode="5" d="M244 250q0 63 18.5 109.5t48 65.5t53 27.5t46.5 8.5q43 0 75.5 -25.5t32.5 -77t-38 -101.5t-115 -56q14 -72 64 -110t120 -38q35 0 71.5 9.5t93 50.5t89.5 112q33 74 69.5 227.5t36.5 209.5q0 43 -24.5 78.5t-81.5 35.5q-154 0 -277 -121q-23 -23 -30 -26.5t-27 -3.5 q-49 0 -49 37q0 2 6 32l156 619q12 41 32 41q8 0 33 -13q125 -53 273 -53q150 0 307 58l28 8q14 0 22.5 -9.5t8.5 -19.5q0 -33 -61 -84q-213 -193 -457 -192q-25 0 -52.5 2t-45 5t-19.5 3l-12 -27l-61 -244q113 61 235 62q147 0 245.5 -78t98.5 -240q0 -223 -169 -395 t-441 -172q-147 0 -225 85t-78 200z" />
<glyph unicode="6" d="M270 346q0 129 54.5 345t187.5 382q121 152 266.5 216.5t274.5 64.5t181 -58.5t52 -130.5q0 -88 -45 -135t-104 -47q-51 0 -77 27.5t-26 66.5q0 47 34 89t91 55q-27 53 -108 53q-84 0 -165 -48t-130 -114q-90 -119 -156 -375q104 131 246 131q98 0 168.5 -32.5t104.5 -85 t48.5 -100.5t14.5 -93q0 -221 -157 -406.5t-415 -185.5q-174 0 -257 101.5t-83 279.5zM485 199q0 -53 31 -99.5t100 -46.5q162 0 232 180q23 59 62.5 221t39.5 224q0 117 -125 117q-94 0 -165.5 -81t-106.5 -192.5t-51.5 -196.5t-16.5 -126z" />
<glyph unicode="7" d="M293 909q0 8 14 35l195 377q12 25 21 29t42 4t45.5 -4t12.5 -25q0 -16 -27 -61q135 90 272 90q49 0 78 -24.5t49 -90.5q18 -53 32.5 -70.5t41.5 -17.5q111 0 256 176q16 18 24.5 22.5t39.5 4.5q57 0 57 -29q0 -12 -25 -41q-184 -246 -295 -483q-147 -311 -245 -692 q-6 -20 -9.5 -29.5t-16.5 -35.5t-27.5 -40t-42 -26.5t-62.5 -12.5q-47 0 -77 29t-30 72q0 35 48.5 180t150.5 338q106 205 326 503q-37 -10 -76 -10q-49 0 -129 35q-68 27 -107 27q-111 0 -230.5 -57.5t-182.5 -163.5q-16 -27 -24.5 -32t-41.5 -5q-57 -1 -57 28z" />
<glyph unicode="8" d="M223 242q0 92 38 171t104.5 133t107.5 79.5t96 52.5q-39 23 -77.5 81t-38.5 150q0 74 30.5 150t89 143.5t154.5 109.5t213 42q141 0 233.5 -60.5t92.5 -179.5q0 -74 -28 -137.5t-80 -108.5t-86 -67.5t-83 -48.5q53 -37 83 -63.5t59.5 -87t29.5 -138.5q0 -84 -35.5 -169 t-103.5 -160t-177.5 -122t-242.5 -47q-176 0 -277.5 74t-101.5 203zM401 238q0 -88 54.5 -136.5t158.5 -48.5q156 0 247 84t91 187q0 55 -24.5 84.5t-102.5 85.5q-55 45 -176 124q-127 -72 -187.5 -180t-60.5 -200zM639 1063q0 -41 21.5 -65.5t97.5 -79.5l153 -109 q100 61 150.5 145t50.5 164q0 156 -184 156q-141 0 -215 -68.5t-74 -142.5z" />
<glyph unicode="9" d="M256 160q0 90 46 133t101 43q51 0 77 -27.5t26 -66.5q0 -45 -30 -86t-85 -56q37 -47 127 -47q82 0 153.5 46t114.5 102q88 127 156 385q-109 -133 -246 -133q-102 0 -173.5 34.5t-104.5 90t-46.5 100.5t-13.5 86q0 31 5.5 78t48.5 157.5t120 188.5q168 166 408 166 q166 0 249 -98.5t83 -274.5q0 -63 -13.5 -163.5t-74 -276.5t-158.5 -303q-106 -135 -242.5 -204t-269.5 -69q-111 0 -184.5 46.5t-73.5 148.5zM590 643q0 -45 26.5 -81t98.5 -36q96 0 169.5 86t108.5 203t50.5 201t15.5 114q0 51 -26.5 97.5t-94.5 46.5q-176 0 -244 -187 q-29 -76 -66.5 -232.5t-37.5 -211.5z" />
<glyph unicode=":" horiz-adv-x="729" d="M250 121q0 74 58.5 127t123.5 53q55 0 90 -34t35 -87q0 -72 -57.5 -126t-126.5 -54q-49 0 -86 31t-37 90zM401 729q0 72 57.5 126t127.5 54q47 0 85 -29.5t38 -93.5q0 -70 -57.5 -124t-125.5 -54q-55 0 -90 34t-35 87z" />
<glyph unicode=";" horiz-adv-x="729" d="M182 -356q0 12 23 32q178 143 244 340l-25 -8q-25 -8 -51 -8q-66 0 -95.5 37t-29.5 82q0 68 53 125t129 57q119 0 119 -149q0 -96 -45 -202t-103.5 -178.5t-110.5 -120.5t-71 -48q-14 0 -25.5 13.5t-11.5 27.5zM401 729q0 72 57.5 126t127.5 54q47 0 85 -29.5t38 -93.5 q0 -70 -57.5 -124t-125.5 -54q-55 0 -90 34t-35 87z" />
<glyph unicode="&#x3c;" horiz-adv-x="1830" d="M326 514q8 41 67 64l1434 612q25 12 43 12q29 0 41 -19.5t6 -41.5q-10 -41 -68 -66l-1317 -563l1037 -561q45 -27 35 -66q-4 -23 -27 -42t-51 -19l-43 14l-1123 611q-46 22 -34 65z" />
<glyph unicode="=" horiz-adv-x="1814" d="M256 285q0 61 82 61h1280q84 0 84 -61q0 -63 -96 -64h-1256q-94 1 -94 64zM371 741q0 63 94 64h1255q94 0 95 -64q0 -61 -82 -61h-1280q-82 0 -82 61z" />
<glyph unicode="&#x3e;" horiz-adv-x="1830" d="M168 -115q10 41 68 66l1318 563l-1038 561q-45 27 -35 66q6 25 30 43t48 18q18 0 43 -14l1124 -610q43 -25 35 -64q-12 -43 -67 -65l-1436 -613q-25 -12 -41 -12q-27 0 -40 19t-9 42z" />
<glyph unicode="?" d="M438 1004q0 53 39 127.5t103.5 148.5t167 125t215.5 51q139 0 216.5 -69.5t77.5 -184.5q0 -213 -223 -360l-252 -162q-27 -18 -41 -29.5t-28.5 -36t-14.5 -55.5q0 -37 33 -37q37 0 85 26.5t73 92.5q8 20 16 24.5t41 4.5q20 0 30.5 -1t19 -7.5t8.5 -20.5q0 -59 -82 -125.5 t-195 -66.5q-29 0 -56.5 7t-58 44t-30.5 100q0 156 133 242l295 192q129 84 129 207q0 141 -178 141q-102 0 -195.5 -63.5t-159.5 -169.5q2 -2 10.5 -3t19.5 -8.5t22.5 -16.5t18.5 -27.5t7 -40.5q0 -59 -43 -101.5t-100 -42.5q-45 0 -74 27t-29 68zM489 123q0 72 57.5 125 t123.5 53q57 0 92 -36t35 -87q0 -72 -56.5 -125t-124.5 -53q-55 0 -91 34t-36 89z" />
<glyph unicode="@" horiz-adv-x="1814" d="M336 506q0 164 62.5 326.5t176 299t293 221.5t389.5 85q262 0 420 -134.5t158 -385.5q0 -55 -11.5 -131t-41 -170.5t-71.5 -172t-110.5 -131t-150.5 -53.5q-152 0 -205 88q-131 -88 -268 -88q-150 0 -247 82t-97 242q0 131 61.5 260t192.5 223t301 94q92 0 168 -41 t108 -133h60q20 0 30.5 -1t18.5 -7t8 -21q0 -31 -70 -280l-18 -72l-35 -143q-16 -70 -16 -86q0 -43 28 -43q63 0 115.5 79t80.5 186.5t42 195.5t14 129q0 219 -129 329.5t-338 110.5q-186 0 -343.5 -82t-256 -211t-152.5 -278.5t-54 -294.5q0 -209 123.5 -325t351.5 -116 q276 0 577 117q33 12 70 12h41q20 0 30.5 -1t18.5 -7t8 -20l-2 -11q-4 -10 -14 -14l-97 -39q-96 -37 -279 -73.5t-357 -36.5q-270 0 -427 134t-157 388zM842 535q0 -27 4 -53.5t17.5 -63.5t45 -60.5t78.5 -23.5q82 0 165 56t97 114l113 457q-23 70 -73 98t-101 28 q-100 0 -184 -100t-123 -224t-39 -228z" />
<glyph unicode="A" horiz-adv-x="1773" d="M150 37q0 27 11 41t21.5 16t30.5 2q70 0 112 13.5t54 25.5t27 37l747 1233q20 35 38.5 43t57.5 8q45 0 57.5 -9t16.5 -50l135 -1262q2 -23 7 -28t24 -9q16 -2 67 -2h27q66 0 66 -37q0 -27 -11.5 -41t-20.5 -16t-26 -2q-47 0 -141 3t-139 3q-51 0 -151.5 -3t-149.5 -3 q-20 0 -31.5 9t-11.5 20l-2 8q0 41 18 50t61 9q84 0 134 10l-31 287h-475l-166 -276q31 -12 76 -17l47 -4q53 0 53 -37q0 -59 -57 -59q-37 0 -117 3t-119 3q-33 0 -101.5 -3t-99.5 -3q-16 0 -26 9t-10 20zM731 489h406l-62 570z" />
<glyph unicode="B" horiz-adv-x="1673" d="M131 37q0 29 12.5 42t24.5 15t35 2h45q33 0 82 4q27 2 34 6.5t13 26.5l293 1172q-49 4 -101 4h-45q-66 0 -65 37q0 29 12 42t24.5 15t34.5 2h779q172 0 282.5 -69.5t110.5 -209.5q0 -131 -108.5 -243.5t-307.5 -149.5q133 -12 220 -80.5t87 -191.5q0 -166 -154.5 -313.5 t-422.5 -147.5h-819q-66 0 -66 37zM627 98q14 -2 47 -2h289q121 0 204.5 70t116.5 158t33 178q0 68 -20.5 110.5t-57.5 58t-58.5 19.5t-50.5 4h-356zM793 768h284q168 0 261.5 119t93.5 254q0 168 -170 168h-269q-47 0 -57 -5.5t-16 -27.5z" />
<glyph unicode="C" horiz-adv-x="1693" d="M334 502q0 131 41 264t123 254t194.5 215t268 149.5t329.5 55.5q211 0 340 -140l176 140q55 0 56 -29l-9 -39l-114 -459q-8 -31 -17.5 -36t-48.5 -5q-25 0 -36 1t-19 8.5t-8 21.5q0 2 3 26.5t3 61.5q0 154 -76 253t-221 99q-121 0 -251 -52t-226 -171 q-117 -143 -174.5 -366.5t-57.5 -339.5q0 -170 95 -256q102 -96 284 -97q90 0 186.5 37t195.5 139.5t145 251.5q6 18 55 19q57 0 57 -29q0 -37 -54 -144.5t-165 -195.5q-217 -174 -471 -174q-119 0 -223.5 30t-191.5 90t-138 168t-51 249z" />
<glyph unicode="D" horiz-adv-x="1794" d="M131 37q0 29 12.5 42t24.5 15t35 2h45q33 0 82 4q27 2 34 6.5t13 26.5l293 1172q-49 4 -101 4h-45q-66 0 -65 37q0 29 12 42t24.5 15t34.5 2h770q100 0 188.5 -26.5t163 -82t117.5 -154t43 -229.5q0 -158 -58 -317.5t-164.5 -293.5t-273.5 -218t-366 -84h-753 q-66 0 -66 37zM637 98q14 -2 47 -2h213q317 0 481 260q66 106 119 321.5t53 311.5t-32.5 163t-90 98.5t-111.5 45t-118 13.5h-194q-47 0 -57.5 -5.5t-16.5 -27.5z" />
<glyph unicode="E" horiz-adv-x="1550" d="M131 37q0 29 12.5 42t24.5 15t35 2h45q33 0 82 4q27 2 34 6.5t13 26.5l289 1159q-6 0 -47 2t-54 2h-45q-63 0 -63 37q0 29 11 42.5t23.5 15.5t34.5 2h1057q61 0 66 -35l-47 -406q-2 -23 -5.5 -32t-15.5 -15t-39 -6q-57 0 -57 39q0 18 6 43q6 53 6 98q0 53 -9 91t-36 61.5 t-50.5 37t-78.5 19.5t-92 7t-117 1q-139 0 -168 -4l-129 -522h86q117 0 162 41t74 154q8 29 18 37t43 8q57 0 57 -37q0 -6 -6 -27l-114 -463q-8 -35 -19.5 -42t-42.5 -7q-57 0 -57 37l6 29q14 66 14 92q0 47 -28.5 64.5t-112.5 17.5h-104l-144 -576q14 -2 47 -2h205 q121 0 206 25.5t145.5 87t96 124t83.5 173.5q18 41 27 48t42 7q57 0 58 -37q0 -8 -11 -35l-194 -454q-10 -25 -21.5 -30t-46.5 -5h-1089q-66 0 -66 37z" />
<glyph unicode="F" horiz-adv-x="1488" d="M131 37q0 29 12.5 42t24.5 15t35 2h45q33 0 82 4q27 2 34 6.5t13 26.5l289 1159q-6 0 -47 2t-54 2h-45q-63 0 -63 37q0 29 11 42.5t23.5 15.5t34.5 2h1026q61 0 66 -35l-47 -406q-2 -23 -5 -32t-15.5 -15t-39.5 -6q-57 0 -57 39l4 25q8 74 8 120q0 63 -17 104.5t-41 63 t-79 31.5t-96 12t-129 2q-129 0 -158 -4l-135 -547h74q117 0 161 40t72 155q8 29 18.5 37t43.5 8q57 0 57 -37q0 -4 -6 -26l-115 -463q-8 -35 -19.5 -42t-41.5 -7q-57 0 -58 36q0 4 2 14.5t2 14.5q16 53 17 94q0 45 -27.5 62.5t-111.5 17.5h-93l-137 -547q49 -6 127 -6h74 q66 0 65 -37q0 -59 -63 -59q-57 0 -178 3t-180 3q-51 0 -158 -3t-160 -3q-45 0 -45 37z" />
<glyph unicode="G" horiz-adv-x="1832" d="M334 500q0 133 41 267t124 255t195.5 214t266 148.5t327.5 55.5q211 0 340 -140l176 140q55 0 56 -29l-9 -39l-114 -459q-8 -31 -17.5 -36t-48.5 -5q-25 0 -36 1t-19 8.5t-8 21.5q0 2 3 26.5t3 63.5q0 147 -75 248.5t-222 101.5q-121 0 -254 -55t-232 -180 q-109 -141 -165 -360.5t-56 -331.5q0 -168 101 -262q104 -92 284 -93q100 0 184.5 49.5t108.5 133.5q6 18 29.5 112.5t23.5 100.5q0 12 -122 12h-70q-66 0 -66 37q0 59 64 59q57 0 172 -3t170 -3q43 0 131 3t129 3t41 -37q0 -41 -18.5 -50t-63.5 -9t-68 -4q-18 -2 -24 -31 l-96 -391q-10 -43 -35 -43q-12 0 -64.5 31.5t-89.5 64.5q-147 -131 -393 -131q-121 0 -227.5 31t-192.5 92.5t-135 167t-49 244.5z" />
<glyph unicode="H" horiz-adv-x="1835" d="M131 37q0 29 12.5 42t24.5 15t35 2h45q33 0 82 4q27 2 34 6.5t13 26.5l293 1172q-49 4 -101 4h-45q-66 0 -65 37q0 27 12 41t21.5 16t25.5 2q51 0 156.5 -3t159.5 -3q51 0 154.5 3t152.5 3q45 0 45 -37q0 -29 -11.5 -42t-23.5 -15t-35 -2l-127 -2q-29 -2 -36 -8.5 t-13 -28.5l-121 -492h588l131 527q-49 4 -100 4h-45q-66 0 -66 37q0 27 12.5 41t21.5 16t25 2q51 0 157 -3t159 -3q51 0 154.5 3t152.5 3q45 0 45 -37q0 -29 -11 -42t-23.5 -15t-34.5 -2l-127 -2q-29 -2 -36 -8.5t-14 -28.5l-290 -1170q6 0 47 -2t53 -2h45q63 0 63 -37 q0 -27 -12 -41t-21.5 -16t-23.5 -2q-51 0 -156.5 3t-158.5 3q-51 0 -155.5 -3t-154.5 -3q-45 0 -45 37q0 29 12.5 42t25 15t34.5 2h45q33 0 82 4q27 2 34 6.5t13 26.5l137 549h-587l-146 -582q6 0 47 -2t54 -2h45q63 0 63 -37q0 -27 -12 -41t-21.5 -16t-23.5 -2 q-51 0 -156.5 3t-159.5 3q-51 0 -155.5 -3t-153.5 -3q-45 0 -45 37z" />
<glyph unicode="I" horiz-adv-x="966" d="M121 37q0 29 11 42t23.5 15t37.5 2h49q61 0 84 2q31 2 38 7.5t13 27.5l291 1172q-12 0 -56.5 2t-48.5 2h-49q-66 0 -65 37q0 27 11 41t21.5 16t26.5 2q53 0 161.5 -3t164.5 -3q53 0 160.5 3t158.5 3q45 0 45 -37q0 -29 -12 -42t-24.5 -15t-35.5 -2h-51q-35 0 -84 -4 q-31 -2 -38 -7.5t-13 -27.5l-291 -1170l105 -4h51q66 0 65 -37q0 -59 -61 -59q-53 0 -161.5 3t-164.5 3q-53 0 -159.5 -3t-157.5 -3q-45 0 -45 37z" />
<glyph unicode="J" horiz-adv-x="1251" d="M147 188q0 94 58.5 145.5t124.5 51.5q59 0 94 -35t35 -84q0 -51 -35 -105.5t-107 -72.5q53 -49 146 -49q84 0 153.5 72.5t100.5 193.5l248 998q-47 6 -131 6h-80q-63 0 -64 37q0 59 62 59q57 0 174.5 -3t177.5 -3q45 0 136 3t134 3q20 0 30.5 -11.5t10.5 -25.5 q0 -29 -11 -42t-23.5 -15t-37.5 -2h-16q-45 0 -67 -2q-18 -4 -23.5 -8.5t-9.5 -24.5l-246 -987q-31 -129 -164 -225.5t-346 -96.5q-143 0 -233.5 59.5t-90.5 163.5z" />
<glyph unicode="K" horiz-adv-x="1832" d="M131 37q0 29 12.5 42t24.5 15t35 2h45l121 8l301 1201q-49 4 -101 4h-45q-66 0 -65 37q0 27 12 41t21.5 16t25.5 2q51 0 156.5 -3t159.5 -3q51 0 154.5 3t152.5 3q45 0 45 -37q0 -29 -11.5 -42t-23.5 -15t-35 -2l-127 -2q-29 -2 -36 -8.5t-13 -28.5l-147 -592l813 614 q-25 8 -62 13l-39 4q-53 0 -53 37q0 27 12.5 41t21.5 16t25 2q43 0 132.5 -3t134.5 -3q29 0 89 3t87 3q16 0 26.5 -10.5t10.5 -26.5q0 -59 -54 -59q-143 -4 -241 -78l-496 -373l320 -723q8 -18 14 -24.5t28.5 -10.5t69.5 -4q61 0 62 -37q0 -27 -11.5 -41t-20.5 -16t-24 -2 q-39 0 -121.5 3t-123.5 3q-49 0 -148.5 -3t-146.5 -3q-45 0 -45 37q0 29 11 42t23.5 15t36.5 2q68 0 109 15l-256 579l-223 -170l-105 -420q6 0 47 -2t54 -2h45q63 0 63 -37q0 -27 -12 -41t-21.5 -16t-23.5 -2q-51 0 -156.5 3t-159.5 3q-51 0 -155.5 -3t-153.5 -3 q-45 0 -45 37z" />
<glyph unicode="L" horiz-adv-x="1429" d="M131 37q0 29 12.5 42t24.5 15t35 2h45q33 0 82 4q27 2 34 6.5t13 26.5l293 1172q-49 4 -101 4h-45q-66 0 -65 37q0 27 12 41t21.5 16t25.5 2q53 0 161.5 -3t162.5 -3q59 0 176 3t176 3q47 0 47 -37q0 -29 -11 -42t-22.5 -15t-36.5 -2h-73q-53 0 -94 -4q-39 -2 -48.5 -7.5 t-15.5 -27.5l-291 -1172q14 -2 47 -2h119q90 0 166 33t122 73t88 110.5t59.5 110.5t41.5 105q6 23 18.5 28t39.5 5q57 0 57 -37q0 -10 -10 -35l-164 -446q-12 -31 -22.5 -37t-47.5 -6h-966q-66 0 -66 37z" />
<glyph unicode="M" horiz-adv-x="2197" d="M131 37q0 27 12.5 41t23.5 16t34 2q61 0 116 10q39 8 49.5 17.5t16.5 34.5l287 1147q-49 4 -101 4h-45q-66 0 -65 37q0 29 12 42t24.5 15t34.5 2h396q43 0 56 -9.5t19 -47.5l170 -1063l709 1073q20 33 37.5 40t56.5 7h377q66 0 66 -37q0 -29 -11.5 -42t-23.5 -15t-35 -2 l-127 -2q-29 -2 -36 -8.5t-13 -28.5l-291 -1170q6 0 48 -2t52 -2h45q63 0 64 -37q0 -27 -12.5 -41t-21.5 -16t-23 -2q-49 0 -149.5 3t-150 3t-146.5 -3t-144 -3q-45 0 -45 37q0 29 12 42t24.5 15t34.5 2h45q33 0 82 4q27 2 34 6.5t13 26.5l283 1139l-2 2l-805 -1223l-20 -28 q-6 -8 -22.5 -15.5t-41.5 -7.5q-33 0 -45 12.5t-16 46.5l-189 1184h-2l-280 -1126q49 -20 141 -21q63 0 64 -37q0 -59 -56 -59q-39 0 -120.5 3t-122.5 3q-39 0 -119 -3t-117 -3q-23 0 -32 13.5t-9 23.5z" />
<glyph unicode="N" horiz-adv-x="1835" d="M131 37q0 27 12.5 41t23.5 16t34 2q61 0 116 10q39 8 49.5 17.5t16.5 34.5l279 1118l6 22q0 10 -88 11h-56q-66 0 -65 37q0 29 12 42t24.5 15t34.5 2h379q35 0 44.5 -5t23.5 -30l491 -948l218 866q-51 20 -144 21q-63 0 -63 37q0 59 57 59q39 0 120 -3t122 -3 q39 0 118.5 3t116.5 3q41 0 41 -37q0 -27 -11 -41t-21.5 -16t-30.5 -2q-70 0 -117 -11q-43 -8 -53.5 -16t-16.5 -33l-299 -1200q-8 -35 -19 -42t-50 -7q-33 0 -42.5 5t-21.5 28l-602 1163l-268 -1079q49 -20 141 -21q63 0 64 -37q0 -59 -56 -59q-39 0 -120.5 3t-122.5 3 q-39 0 -119 -3t-117 -3q-23 0 -32 13.5t-9 23.5z" />
<glyph unicode="O" horiz-adv-x="1751" d="M328 469q0 125 36.5 259t113.5 261t182.5 227.5t255 162t319.5 61.5q231 0 384 -126t153 -386q0 -166 -61.5 -334t-172.5 -309.5t-286 -230.5t-384 -89q-242 0 -391 127t-149 377zM608 395q0 -160 68 -248q78 -96 213 -96q227 0 399 252q88 129 150.5 362.5t62.5 360.5 q0 41 -5 80t-23.5 86t-48 82t-84 59.5t-126.5 24.5q-102 0 -215.5 -62.5t-203.5 -210.5q-78 -129 -132.5 -347t-54.5 -343z" />
<glyph unicode="P" horiz-adv-x="1611" d="M131 37q0 29 12.5 42t24.5 15t35 2h45q33 0 82 4q27 2 34 6.5t13 26.5l293 1172q-49 4 -101 4h-45q-66 0 -65 37q0 29 12 42t24.5 15t34.5 2h744q74 0 141.5 -14.5t132 -47t103.5 -96t39 -151.5q0 -195 -172 -336.5t-422 -141.5h-318l-129 -518q6 0 47 -2t54 -2h45 q63 0 63 -37q0 -27 -12 -41t-21.5 -16t-23.5 -2q-51 0 -156.5 3t-159.5 3q-51 0 -155.5 -3t-153.5 -3q-45 0 -45 37zM786 702h236q217 0 287 111q45 63 73.5 181t28.5 165q0 37 -11 63.5t-37 42t-49.5 24.5t-68.5 13.5t-72.5 5.5t-82.5 1h-95q-41 0 -50 -5.5t-15 -27.5z" />
<glyph unicode="Q" horiz-adv-x="1751" d="M328 469q0 125 36.5 259t113.5 261t182.5 227.5t255 162t319.5 61.5q231 0 384 -126t153 -386q0 -82 -17.5 -175.5t-61.5 -204t-108.5 -206.5t-170 -183t-236.5 -136q18 -57 43.5 -87t43 -34t44.5 -4q14 0 31.5 2t53.5 11t66.5 33.5t44.5 61.5q10 31 37 31 q14 0 25.5 -10.5t11.5 -26.5q0 -18 -20.5 -76.5t-59.5 -133.5t-111.5 -131t-158.5 -56q-184 0 -185 239q0 29 9 144q-82 -20 -185 -21q-242 0 -391 127t-149 377zM592 389q0 -211 129 -295q0 117 76.5 170t148.5 53q82 0 126 -47t75 -135q106 74 184 212t112 281.5t49 240 t15 141.5q0 162 -71 252q-82 96 -222 96q-102 0 -216.5 -63.5t-204.5 -204.5q-90 -143 -145.5 -364.5t-55.5 -336.5zM795 113q0 -66 94 -66t168 37q0 86 -24.5 123t-84 37t-106.5 -40t-47 -91z" />
<glyph unicode="R" horiz-adv-x="1759" d="M131 37q0 29 12.5 42t24.5 15t35 2h45q33 0 82 4q27 2 34 6.5t13 26.5l293 1172q-49 4 -101 4h-45q-66 0 -65 37q0 29 12 42t24.5 15t34.5 2h676q121 0 223.5 -25.5t181.5 -98.5t79 -185q0 -137 -116 -247t-298 -155q166 -72 166 -221q0 -20 -15 -102q-27 -168 -26 -217 q0 -35 3 -55.5t21.5 -40t53.5 -19.5q45 0 82.5 42t62.5 118q8 29 18.5 35t40.5 6q57 0 58 -37q0 -14 -14.5 -49t-44 -79t-87 -77t-129.5 -33q-45 0 -88 5t-113.5 24.5t-114.5 71t-44 129.5q0 35 31 157q31 111 30 154q0 160 -172 160h-217l-141 -566q6 0 47 -2t53 -2h45 q63 0 64 -37q0 -27 -12.5 -41t-21.5 -16t-24 -2q-49 0 -153.5 3t-155.5 3t-152.5 -3t-150.5 -3q-45 0 -45 37zM797 739h202q188 0 293 86q55 47 85 158t30 166q0 39 -12.5 67.5t-40 45t-52 26.5t-71.5 14.5t-75 5.5t-81 1h-92q-33 0 -40 -4.5t-13 -28.5z" />
<glyph unicode="S" horiz-adv-x="1331" d="M184 -6l4 24l103 410q8 29 16 34t45 5q55 0 56 -29l-2 -18q-12 -45 -13 -94q0 -100 57.5 -163t127 -82.5t149.5 -19.5q154 0 235.5 111t81.5 215q0 51 -14 85t-45 53.5t-54.5 28.5t-62.5 17q-45 12 -131 33q-63 16 -97 26.5t-76 37t-72 67.5q-63 88 -64 199q0 76 33 161 t95 163.5t167.5 130t234.5 51.5q178 0 285 -101l10 -8l107 90q23 18 41 19q39 0 39 -31q0 -2 -8 -37l-99 -393q-8 -31 -16 -36t-45 -5q-20 0 -30.5 1t-19 8t-8.5 22q0 2 2.5 17t4.5 39t2 42q0 145 -73 215t-196 70q-78 0 -141 -32t-97 -79t-51.5 -93t-17.5 -85 q0 -131 141 -164l140 -35q82 -20 114.5 -30.5t72.5 -33t71 -59.5q76 -92 76 -227q0 -88 -35 -181t-99.5 -177t-172 -137.5t-236.5 -53.5q-233 0 -346 113q-43 -35 -61.5 -52.5t-17.5 -16.5t-5 -4l-27 -21q-20 -18 -41 -19q-37 0 -37 29z" />
<glyph unicode="T" horiz-adv-x="1630" d="M371 37q0 29 12 42t24.5 15t34.5 2h93q127 0 167 10l293 1178q-33 2 -86 2q-100 0 -162.5 -14.5t-109.5 -59.5t-77 -105t-68 -175q-10 -31 -20.5 -37t-41.5 -6q-57 0 -57 37q0 12 39 123l102 294q10 29 20.5 34t47.5 5h1138q23 0 33 -1t21.5 -10t11.5 -28l-4 -30 l-58 -371q-6 -37 -17 -45t-44 -8q-57 0 -57 39l4 28q16 82 16 164q0 98 -49 132t-197 34h-71q-25 -2 -30 -6t-11 -27l-287 -1151q61 -6 145 -6h91q66 0 65 -37q0 -27 -11 -41t-21.5 -16t-30.5 -2l-404 6l-395 -6q-49 0 -49 37z" />
<glyph unicode="U" horiz-adv-x="1804" d="M446 354q0 68 15 119l209 832q-49 4 -101 4h-45q-66 0 -65 37q0 27 12 41t21.5 16t25.5 2q51 0 156.5 -3t159.5 -3q51 0 154.5 3t152.5 3q45 0 45 -37q0 -29 -11.5 -42t-23.5 -15t-35 -2l-127 -2q-29 -2 -36 -8.5t-13 -28.5l-207 -830q-25 -104 -24 -168q0 -109 65 -161 q63 -49 174 -50q178 0 316.5 105.5t189.5 310.5l203 811q-51 20 -144 21q-63 0 -63 37q0 59 55 59q39 0 121 -3t123 -3q39 0 118 3t115 3q41 0 41 -37q0 -27 -11 -41t-21.5 -16t-30.5 -2q-70 0 -117 -11q-43 -8 -53 -16t-16 -33l-199 -798q-20 -84 -68.5 -165t-124 -155 t-191.5 -120t-253 -46q-227 0 -359.5 102.5t-132.5 286.5z" />
<glyph unicode="V" horiz-adv-x="1773" d="M446 1346q0 59 58 59q43 0 135 -3t137 -3q51 0 151.5 3t149.5 3q45 0 45 -37q0 -29 -12 -42t-24.5 -15t-38.5 -2q-84 0 -134 -11l134 -964l608 954q-55 20 -119 21q-53 0 -53 37q0 59 55 59q37 0 117 -3t119 -3q33 0 97 3t95 3q18 0 28.5 -11.5t10.5 -25.5 q0 -27 -11.5 -41t-22.5 -16t-29 -2q-131 0 -168 -54q-6 -6 -19 -24l-780 -1219q-20 -33 -38.5 -40t-57.5 -7q-47 0 -58.5 10.5t-17.5 53.5l-172 1243q-2 23 -7.5 27t-25.5 8q-20 2 -63 2h-23q-66 0 -66 37z" />
<glyph unicode="W" horiz-adv-x="2375" d="M444 1346q0 59 58 59q41 0 130 -3t132 -3q49 0 149.5 3t147.5 3q45 0 45 -37q0 -41 -18.5 -50t-61.5 -9q-84 0 -133 -11l84 -919l424 719l-19 207q-53 4 -84 4h-14q-66 0 -65 37q0 27 12 41t21.5 16t23.5 2q41 0 129 -3t131 -3q49 0 149.5 3t149.5 3q18 0 29.5 -9.5 t11.5 -19.5l2 -8q0 -41 -18.5 -50t-61.5 -9q-68 0 -133 -11l84 -919l537 905v2q-63 23 -148 23q-51 0 -51 37q0 59 57 59q39 0 122 -3t124 -3q31 0 91.5 3t88.5 3q18 0 28.5 -12.5t10.5 -24.5q0 -39 -17.5 -49t-47.5 -10q-80 -2 -114 -20.5t-54 -55.5l-717 -1215 q-20 -35 -38.5 -44t-53.5 -9q-39 0 -51.5 9.5t-16.5 50.5l-82 895l-534 -906q-14 -23 -29.5 -34t-27 -13t-33.5 -2q-43 0 -52.5 11.5t-13.5 52.5l-117 1276q-39 4 -86 4h-14q-66 0 -66 37z" />
<glyph unicode="X" horiz-adv-x="1773" d="M135 37q0 29 12.5 42t24.5 15t37 2q174 2 246 78l475 516l-238 586q-8 18 -14 23.5t-29 7.5q-18 2 -67 2h-25q-66 0 -65 37q0 59 57 59q45 0 137 -3t139 -3q51 0 153.5 3t151.5 3q45 0 46 -37q0 -27 -11.5 -41t-20.5 -16t-24 -2q-59 0 -129 -15l152 -374l338 366 q-57 23 -123 23q-53 0 -53 37q0 27 12 41t21.5 16t23.5 2q43 0 133 -3t135 -3q39 0 115 3t113 3q41 0 40 -37q0 -29 -11 -42t-22.5 -15t-35.5 -2q-178 0 -250 -78l-391 -424l274 -678q8 -18 14.5 -23.5t28.5 -7.5q18 -2 68 -2h24q66 0 66 -37q0 -27 -11.5 -41t-20.5 -16 t-25 -2q-45 0 -137.5 3t-139.5 3q-51 0 -153.5 -3t-151.5 -3q-45 0 -45 37q0 59 55.5 59t128.5 15l-188 464l-420 -456q59 -23 129 -23q45 0 45 -37q0 -27 -11 -41t-20.5 -16t-25.5 -2q-45 0 -135.5 3t-133.5 3q-39 0 -114.5 -3t-112.5 -3q-41 0 -41 37z" />
<glyph unicode="Y" horiz-adv-x="1773" d="M434 1346q0 59 58 59q45 0 140 -3t142 -3q51 0 155.5 3t153.5 3q45 0 45 -37q0 -27 -11 -41t-22.5 -16t-29.5 -2q-59 0 -125 -9l211 -581l494 573q-43 16 -103 17q-53 0 -53 37q0 59 57 59q37 0 117 -3t119 -3q33 0 99.5 3t96.5 3q18 0 28.5 -11.5t10.5 -25.5 q0 -59 -61 -59q-70 0 -116 -13.5t-62.5 -27t-40.5 -41.5l-576 -666l-114 -461q49 -4 100 -4h45q66 0 65 -37q0 -27 -12 -41t-21.5 -16t-25.5 -2q-49 0 -153.5 3t-155.5 3t-152.5 -3t-150.5 -3q-45 0 -45 37q0 29 12 42t24.5 15t34.5 2h45q59 0 82 2q29 4 36 9.5t13 27.5 l107 426l-262 715q-8 18 -14.5 23.5t-26.5 7.5q-18 2 -68 2h-24q-66 0 -66 37z" />
<glyph unicode="Z" horiz-adv-x="1452" d="M193 29q0 37 32 73l1053 1207h-227q-190 0 -303 -83t-175 -263q-12 -37 -21 -44.5t-42 -7.5q-57 0 -57 37l10 37l112 379q8 29 21.5 35t48.5 6h909q55 0 56 -29q0 -37 -27 -67l-1053 -1205h242q106 0 188 26t133.5 61.5t93.5 99t61.5 113t45.5 126.5q12 37 21.5 44.5 t42.5 7.5q57 0 57 -37q0 -12 -6 -31l-149 -471q-10 -31 -22.5 -37t-47.5 -6h-940q-33 0 -45 4.5t-12 24.5z" />
<glyph unicode="[" horiz-adv-x="729" d="M182 -475q0 2 6 33l484 1931q8 33 20.5 40t48.5 7h187q66 0 65 -37q0 -8 -7 -35.5t-11 -31.5q-10 -20 -60 -21h-135l-450 -1798h116q66 0 66 -37q0 -29 -16 -70q-10 -18 -62 -18h-186q-66 0 -66 37z" />
<glyph unicode="\" horiz-adv-x="1177" d="M500 1473q8 29 30.5 46t47.5 17q20 0 31.5 -10t13.5 -18.5t6 -32.5l301 -1883q4 -33 2 -41q-8 -29 -30.5 -46t-45.5 -17q-45 0 -53 61l-301 1883q-4 33 -2 41z" />
<glyph unicode="]" horiz-adv-x="729" d="M-8 -475q0 8 7 35.5t11 31.5q10 20 60 21h135l450 1798h-116q-66 0 -66 37q0 29 16 70q10 18 62 18h186q66 0 66 -37q0 -2 -6 -33l-484 -1931q-8 -33 -19 -40t-50 -7h-187q-65 0 -65 37z" />
<glyph unicode="^" horiz-adv-x="1138" d="M289 1196l661 328l498 -328l-35 -45l-495 252l-617 -252z" />
<glyph unicode="_" horiz-adv-x="1773" d="M-121 -256q6 23 26.5 40t45.5 17h1771q25 0 37.5 -17t6 -40t-27 -40t-44.5 -17h-1772q-25 0 -37 17t-6 40z" />
<glyph unicode="`" d="M657 1333q20 43 63.5 71t82.5 28q31 0 46 -14.5t34 -49.5l133 -233q14 -18 6 -39q-6 -14 -38 -41t-54 -27q-10 0 -27 12l-221 183q-58 47 -25 110z" />
<glyph unicode="a" d="M217 311q0 141 63.5 280.5t192.5 237t293 97.5q123 0 199 -78q43 43 96 43q41 0 66.5 -24.5t25.5 -61.5q0 -12 -8 -43l-137 -553q-12 -49 -13 -88q0 -63 39 -64q70 0 123 222q10 39 19.5 46t46.5 7q57 0 57 -29q0 -14 -22.5 -83.5t-57.5 -125.5q-72 -111 -174 -110 q-66 0 -125 26.5t-86 77.5q-131 -104 -270 -104q-135 0 -231.5 79.5t-96.5 247.5zM436 203q0 -78 36 -112t81 -34q127 0 238 148q4 27 6 37l121 483q-35 127 -152 127q-57 0 -124 -49t-112 -180q-23 -59 -58.5 -202.5t-35.5 -217.5z" />
<glyph unicode="b" horiz-adv-x="1089" d="M229 307q0 74 19 148l211 850q-49 4 -86 4q-55 0 -56 37q0 20 5.5 33.5t18.5 18.5t19.5 6t20.5 3l252 12q6 0 12 1q54 0 53 -36q0 -2 -6 -32l-121 -484q92 57 201 58q135 0 231.5 -80t96.5 -248q0 -141 -62.5 -279.5t-192.5 -236.5t-296 -98q-131 0 -225.5 76.5 t-94.5 246.5zM426 219q0 -162 127 -162q31 0 63.5 11.5t85 66.5t84.5 152q23 59 59 202.5t36 217.5q0 78 -36 111.5t-81 33.5q-119 0 -213 -117q-18 -20 -35 -80q-6 -29 -21.5 -89t-23.5 -99q-45 -172 -45 -248z" />
<glyph unicode="c" horiz-adv-x="1089" d="M219 328q0 102 41 205.5t115 192.5t192.5 144.5t257.5 55.5q123 0 191.5 -54.5t68.5 -134.5q0 -68 -42 -113.5t-105 -45.5q-57 0 -79.5 30.5t-22.5 63.5q0 12 3 30.5t29.5 54.5t71.5 52q-41 43 -117 43q-63 0 -139 -40t-129 -138q-39 -76 -76 -224.5t-37 -211.5 q0 -88 46.5 -134.5t129.5 -46.5q238 0 390 170q14 14 28.5 14.5t38 -26.5t23.5 -39q0 -23 -57.5 -71t-133.5 -76q-121 -45 -291 -45q-209 0 -303 99.5t-94 244.5z" />
<glyph unicode="d" d="M217 311q0 141 63.5 280.5t192.5 237t293 97.5q111 0 186 -66l109 445q-49 4 -86 4q-55 0 -55 37q0 20 5 33.5t18 18.5t19.5 6t20.5 3l252 12q6 0 12 1q54 0 53 -36q0 -2 -6 -32l-286 -1143q-12 -49 -13 -88q0 -63 39 -64q70 0 123 222q10 39 19.5 46t46.5 7q57 0 57 -29 q0 -14 -22.5 -83.5t-57.5 -125.5q-72 -111 -174 -110q-66 0 -125 26.5t-86 77.5q-131 -104 -270 -104q-135 0 -231.5 79.5t-96.5 247.5zM436 203q0 -78 36 -112t81 -34q127 0 238 148q4 27 6 37l121 483q-35 127 -152 127q-57 0 -124 -49t-112 -180q-23 -59 -58.5 -202.5 t-35.5 -217.5z" />
<glyph unicode="e" horiz-adv-x="1089" d="M225 342q0 242 169 413t429 171q117 0 192 -53.5t75 -143.5q0 -283 -529 -283h-82q-33 -123 -33 -200q0 -188 175 -189q236 0 387 170q14 14 28.5 14.5t38 -26.5t23.5 -39q0 -23 -57.5 -71t-133.5 -76q-121 -45 -289 -45q-190 0 -291.5 95t-101.5 263zM498 520 q459 0 458 211q0 51 -35.5 86t-97.5 35q-133 0 -217 -102q-41 -45 -62 -93.5t-46 -136.5z" />
<glyph unicode="f" horiz-adv-x="819" d="M-39 -252q0 66 44 110t101 44q45 0 74 -27t29 -68q0 -88 -84 -131q18 -10 39 -12l22 -4q74 0 103 139q27 100 51 234l143 780h-176q-66 0 -65 37q0 29 12 42t24.5 15t34.5 2h189l37 201q57 328 331 328q102 0 167 -45t65 -117q0 -66 -44 -110t-102 -44q-45 0 -73.5 27 t-28.5 68q0 86 82 131q-33 16 -66 16q-49 0 -69 -51q-16 -35 -80 -404h213q66 0 65 -37q0 -29 -12 -42t-24.5 -15t-34.5 -2h-226l-122 -663q-18 -102 -54 -218q-27 -86 -65.5 -151.5t-74.5 -101t-77 -58t-69.5 -29t-55.5 -6.5q-94 0 -158.5 44t-64.5 118z" />
<glyph unicode="g" horiz-adv-x="1089" d="M121 -270q0 66 44 108.5t101 42.5q47 0 75 -27.5t28 -66.5q0 -68 -58 -115q49 -12 127 -12q94 0 168 58.5t109 191.5l35 145q-98 -55 -199 -55q-145 0 -238.5 84t-93.5 240q0 137 61.5 272t191.5 232.5t294 97.5q117 0 199 -76q41 41 96 41q41 0 66.5 -24.5t25.5 -61.5 l-8 -49l-221 -887q-33 -131 -167 -207t-323 -76q-66 0 -115 5.5t-97 18.5t-74.5 44t-26.5 76zM440 219q0 -145 119 -145q72 0 147.5 55t90.5 111l121 489q-33 123 -152 123q-55 0 -117.5 -44t-107.5 -157q-27 -70 -64 -213t-37 -219z" />
<glyph unicode="h" d="M156 72q0 14 8 45l295 1188q-49 4 -86 4q-55 0 -56 37q0 20 5.5 33.5t18.5 18.5t19.5 6t20.5 3l252 12q6 0 12 1q54 0 53 -36q0 -2 -6 -32l-133 -531q129 104 275 105q283 0 282 -232q0 -115 -121 -434q-47 -123 -47 -166q0 -37 29 -37q113 0 188 248q6 18 16.5 22.5 t41.5 4.5q57 0 57 -29q0 -20 -20.5 -68.5t-55.5 -106.5t-99.5 -101t-137.5 -43q-88 0 -151.5 50t-63.5 132q0 35 24 102q131 328 131 467q0 117 -88 117q-121 0 -210 -91t-105 -159l-127 -510q-10 -45 -39 -71.5t-49.5 -31.5t-38.5 -5q-41 0 -67.5 24.5t-26.5 63.5z" />
<glyph unicode="i" horiz-adv-x="729" d="M158 606q0 20 20.5 68.5t55 107t99 101.5t138.5 43q88 0 151.5 -50.5t63.5 -132.5q0 -31 -18 -79l-185 -488q-16 -33 -16 -82q0 -37 29 -37q113 0 188 248q6 18 15.5 22.5t41.5 4.5q57 0 58 -29q0 -20 -20.5 -68.5t-55.5 -106.5t-99.5 -101t-138.5 -43q-88 0 -151.5 50 t-63.5 132q0 31 19 80l184 487q16 33 16 82q0 37 -28 37q-113 0 -189 -248q-6 -18 -16 -22t-41 -4q-57 -1 -57 28zM518 1202q0 68 56.5 123t125.5 55q59 0 93 -37.5t34 -85.5q0 -68 -55 -123t-127 -55q-57 0 -92 36t-35 87z" />
<glyph unicode="j" horiz-adv-x="729" d="M-59 -266q0 59 43 103t102 44q47 0 74.5 -27.5t27.5 -66.5q0 -33 -19 -68.5t-50 -54.5q0 -4 31 -4q43 0 79.5 27.5t61 72.5t38 79t21.5 65l199 796q12 49 12 88q0 41 -12 52.5t-31 11.5q-53 0 -117.5 -52t-121.5 -188q-12 -25 -21.5 -29.5t-42.5 -4.5q-57 0 -57 28 q0 12 15 46t48 81t75 90t104.5 73t127.5 30q98 0 169 -53.5t71 -145.5q0 -27 -8 -59l-193 -774q-33 -131 -156.5 -219.5t-260.5 -88.5q-92 0 -150.5 40t-58.5 108zM518 1202q0 68 56.5 123t125.5 55q59 0 93 -37.5t34 -85.5q0 -68 -55 -123t-127 -55q-57 0 -92 36t-35 87z " />
<glyph unicode="k" horiz-adv-x="1089" d="M156 72q0 14 8 45l295 1188q-49 4 -86 4q-55 0 -56 37q0 20 5.5 33.5t18.5 18.5t19.5 6t20.5 3l252 12q6 0 12 1q54 0 53 -36q0 -2 -6 -32l-198 -791q68 43 165 146q106 113 185.5 166t161.5 53q78 0 111.5 -51.5t33.5 -110.5q0 -92 -47 -135t-103 -43q-47 0 -74.5 27.5 t-27.5 66.5q0 53 38 96t99 51q-6 25 -37 25q-121 0 -305 -207l-22 -22q-20 -20 -56 -53t-69 -56q324 -37 323 -219q0 -20 -8 -62l-16 -106q0 -70 45 -70q90 0 145 219q10 41 19.5 48.5t46.5 7.5q57 0 57 -29q0 -12 -15.5 -58t-45 -106.5t-88 -107.5t-129.5 -47 q-102 0 -172 59t-70 150q0 25 6 51q6 23 6 43q0 121 -188 151l-92 -370q-16 -41 -51 -62.5t-70 -21.5q-41 0 -67.5 24.5t-26.5 63.5z" />
<glyph unicode="l" horiz-adv-x="608" d="M186 182q0 27 9 60l264 1063q-49 4 -86 4q-55 0 -56 37q0 20 5.5 33.5t18.5 18.5t19.5 6t20.5 3l252 12q6 0 12 1q54 0 53 -36q0 -2 -6 -32l-286 -1143q-12 -49 -13 -88q0 -63 39 -64q70 0 123 222q10 39 19.5 46t46.5 7q57 0 57 -29q0 -14 -22.5 -83.5t-57.5 -125.5 q-72 -111 -174 -110q-94 0 -166 53t-72 145z" />
<glyph unicode="m" horiz-adv-x="1933" d="M158 606q0 14 22.5 84t57.5 125q72 111 174 111q41 0 80.5 -10.5t85 -44t63.5 -87.5q135 141 313 142q229 0 275 -156q45 45 81 73.5t103.5 55.5t142.5 27q283 0 283 -232q0 -115 -121 -434q-47 -123 -47 -166q0 -37 29 -37q113 0 188 248q6 18 15.5 22.5t42.5 4.5 q57 0 57 -29q0 -20 -20.5 -68.5t-55.5 -106.5t-99.5 -101t-137.5 -43q-88 0 -151.5 50t-63.5 132q0 35 24 102q131 328 131 467q0 117 -88 117q-121 0 -210 -91t-105 -159l-125 -504q-12 -47 -41 -74.5t-50.5 -33.5t-39.5 -6q-37 0 -64.5 22.5t-27.5 65.5q0 14 32 145 l86 344q31 121 31 174q0 117 -88 117q-84 0 -158.5 -52t-111.5 -106.5t-45 -91.5l-127 -508q-10 -37 -28.5 -61.5t-41 -33.5t-36 -12t-23.5 -3q-37 0 -65 22.5t-28 65.5q0 14 9 45l145 583q12 49 12 88q0 63 -39 64q-70 0 -122 -221q-10 -39 -19.5 -46t-46.5 -7 q-57 -1 -57 28z" />
<glyph unicode="n" horiz-adv-x="1331" d="M158 606q0 14 22.5 84t57.5 125q72 111 174 111q41 0 80.5 -10.5t85 -44t63.5 -87.5q135 141 313 142q283 0 283 -232q0 -115 -121 -434q-47 -123 -47 -166q0 -37 29 -37q113 0 188 248q6 18 15.5 22.5t41.5 4.5q57 0 58 -29q0 -20 -20.5 -68.5t-55.5 -106.5t-99.5 -101 t-138.5 -43q-88 0 -151.5 50t-63.5 132q0 35 25 102q131 328 131 467q0 117 -88 117q-84 0 -158.5 -52t-111.5 -106.5t-45 -91.5l-127 -508q-10 -37 -28.5 -61.5t-41 -33.5t-36 -12t-23.5 -3q-37 0 -65 22.5t-28 65.5q0 14 9 45l145 583q12 49 12 88q0 63 -39 64 q-70 0 -122 -221q-10 -39 -19.5 -46t-46.5 -7q-57 -1 -57 28z" />
<glyph unicode="o" d="M219 328q0 98 40 201.5t112.5 192.5t192.5 146.5t265 57.5q182 0 286 -92.5t104 -251.5q0 -100 -40 -203t-113 -193t-192.5 -146t-265.5 -56q-182 0 -285.5 92t-103.5 252zM442 238q0 -98 51.5 -139.5t118.5 -41.5q82 0 159 51.5t120 145.5q37 78 70.5 216t33.5 202 q0 98 -51 139t-119 41q-82 0 -158.5 -51t-119.5 -146q-37 -78 -71 -216t-34 -201z" />
<glyph unicode="p" d="M51 -360q0 27 11.5 41t22.5 16t32 2q45 0 55 5t16 28l242 968q12 49 12 88q0 63 -39 64q-70 0 -122 -221q-10 -39 -19.5 -46t-46.5 -7q-57 0 -57 28q0 14 22.5 84t57.5 125q72 111 174 111q66 0 125 -27t86 -78q131 104 270 105q135 0 231.5 -80t96.5 -248 q0 -141 -63.5 -280.5t-192.5 -236.5t-293 -97q-111 0 -187 65l-86 -348q27 -2 88 -2q55 0 56 -37q0 -59 -56 -59q-35 0 -106.5 3t-108.5 3q-31 0 -92 -3t-90 -3q-39 0 -39 37zM520 184q35 -127 152 -127q57 0 123.5 49.5t111.5 180.5q23 59 58.5 202.5t35.5 217.5 q0 78 -35.5 111.5t-80.5 33.5q-127 0 -238 -147q-4 -27 -6 -37z" />
<glyph unicode="q" horiz-adv-x="1089" d="M217 311q0 141 63.5 280.5t192.5 237t293 97.5q123 0 199 -78q37 33 104 55l70 23q37 0 37 -37q0 -12 -5 -29l-290 -1159q27 -2 88 -2q55 0 55 -37q0 -59 -55 -59q-35 0 -110 3t-111 3q-35 0 -107 -3t-106 -3q-41 0 -41 37q0 29 12 42t24.5 15t36.5 2l70 2q18 2 23.5 7 t9.5 26l75 307q-92 -57 -200 -57q-135 0 -231.5 79.5t-96.5 247.5zM436 203q0 -78 36 -112t81 -34q74 0 149.5 55.5t90.5 112.5l125 500q-35 127 -152 127q-57 0 -124 -49t-112 -180q-23 -59 -58.5 -202.5t-35.5 -217.5z" />
<glyph unicode="r" horiz-adv-x="1028" d="M158 606q0 14 22.5 84t57.5 125q72 111 174 111q74 0 132 -31t85 -80q111 111 262 111q113 0 186.5 -51.5t73.5 -131.5q0 -68 -44 -112.5t-103 -44.5q-47 0 -75 27.5t-28 66.5q0 12 3 30.5t26.5 53.5t66.5 53q-43 35 -112 35q-94 0 -164 -72.5t-84 -128.5l-139 -557 q-10 -37 -28.5 -61.5t-41 -33.5t-36 -12t-23.5 -3q-37 0 -65 22.5t-28 65.5q0 14 9 45l145 583q12 49 12 88q0 63 -39 64q-70 0 -122 -221q-10 -39 -19.5 -46t-46.5 -7q-57 -1 -57 28z" />
<glyph unicode="s" horiz-adv-x="997" d="M174 186q0 72 44 116t104 44q37 0 68.5 -21.5t31.5 -72.5q0 -96 -100 -139q68 -55 190 -56q98 0 162.5 31t87 68t29.5 67l6 31q0 33 -16.5 56.5t-53.5 39t-64.5 22.5t-80.5 17q-240 47 -240 221q0 51 30.5 120t78.5 110q102 86 268 86q123 0 199.5 -48.5t76.5 -132.5 q0 -68 -41 -104.5t-86 -36.5q-39 0 -64.5 23.5t-25.5 60.5q0 80 78 115q-47 49 -141 49q-74 0 -124 -24.5t-67.5 -55.5t-21.5 -55l-4 -25q0 -35 26.5 -58.5t51 -30.5t67.5 -15q92 -18 135 -31.5t84 -46.5q90 -70 90 -174q0 -61 -37.5 -141t-109.5 -132q-113 -80 -299 -79 q-152 0 -242 53t-90 149z" />
<glyph unicode="t" horiz-adv-x="788" d="M186 850q0 29 11.5 42t23.5 15t37 2h166l74 299q10 43 38.5 70t50 33t40.5 6q41 0 66.5 -24.5t25.5 -61.5q0 -23 -37 -160l-39 -162h145q63 0 64 -37q0 -29 -11.5 -42t-23.5 -15t-35 -2h-164l-151 -604q-12 -49 -12 -88q0 -41 12 -52.5t31 -11.5q53 0 117.5 52.5 t121.5 187.5q12 25 21.5 30t42.5 5q57 0 57 -29q0 -12 -15.5 -46t-48 -81t-74.5 -90t-104.5 -72.5t-128.5 -29.5q-98 0 -168.5 53t-70.5 145q0 27 8 60l143 571h-147q-66 0 -66 37z" />
<glyph unicode="u" horiz-adv-x="1271" d="M158 606q0 20 20.5 68.5t55 107t99 101.5t138.5 43q88 0 151.5 -50.5t63.5 -132.5q0 -31 -29 -110q-119 -311 -118 -434q0 -141 106 -142q78 0 141 60q41 41 51.5 57t16.5 45l141 576q10 47 39 74.5t50.5 33.5t41.5 6q37 0 65 -22.5t28 -65.5q0 -14 -9 -45l-141 -567 q-12 -49 -12 -88q0 -63 39 -64q70 0 123 222q10 39 19 46t46 7q57 0 57 -29q0 -14 -22.5 -83.5t-56.5 -125.5q-72 -111 -175 -110q-66 0 -125 26.5t-85 77.5q-111 -104 -244 -104q-137 0 -220 62.5t-83 195.5q0 53 20.5 134t37.5 129l65 175q37 86 36 135q0 37 -28 37 q-113 0 -189 -248q-6 -18 -16 -22t-41 -4q-57 -1 -57 28z" />
<glyph unicode="v" horiz-adv-x="1089" d="M158 606q0 20 20.5 68.5t55 107t99 101.5t138.5 43q88 0 151.5 -50.5t63.5 -132.5q0 -37 -29 -108q-117 -307 -116 -424q0 -154 131 -154q80 0 145.5 76t99 174.5t52 170t18.5 83.5q0 78 -80 133q-49 39 -49 86q0 55 47 101.5t101 46.5q18 0 37.5 -7.5t42 -25.5t37 -56 t14.5 -91q0 -39 -14.5 -120t-50.5 -195t-88 -212t-138 -167.5t-189 -69.5q-57 0 -106 10t-102.5 35.5t-85 82t-31.5 138.5q0 72 26.5 161t94.5 269q37 86 36 135q0 37 -28 37q-113 0 -189 -248q-6 -18 -16 -22t-41 -4q-57 -1 -57 28z" />
<glyph unicode="w" horiz-adv-x="1572" d="M158 606q0 20 20.5 68.5t55 107t99 101.5t138.5 43q88 0 151.5 -50.5t63.5 -132.5q0 -37 -24 -96l-63 -171q-17 -48 -36.5 -127t-19.5 -132q0 -160 145 -160q96 0 160 144q-4 18 -4 49q0 53 49 250l70 278q27 131 133 131q37 0 64.5 -22.5t27.5 -65.5q0 -25 -31 -137 q-104 -401 -104 -473q0 -154 131 -154q117 0 190 170q33 74 64.5 191t31.5 143q0 78 -79 133q-49 39 -50 86q0 55 47.5 101.5t100.5 46.5q18 0 37.5 -7.5t42 -25.5t37 -56t14.5 -91q0 -76 -40 -234t-87 -264q-117 -266 -322 -266q-197 0 -278 104q-82 -104 -217 -104 q-61 0 -115.5 11t-109 37.5t-87 84t-32.5 137.5q0 72 27.5 162t93.5 264q37 86 36 135q0 37 -28 37q-113 0 -189 -248q-6 -18 -16 -22t-41 -4q-57 -1 -57 28z" />
<glyph unicode="x" horiz-adv-x="1148" d="M139 164q0 70 44 115t104 45q47 0 74.5 -28t27.5 -67q0 -100 -104 -139q31 -33 82 -33q113 0 163 205l66 266q45 180 45 224q0 100 -104 100q-72 0 -149 -62.5t-114 -183.5q-8 -20 -17 -24t-42 -4q-57 0 -57 28.5t26.5 78.5t71.5 105.5t124 95.5t167 40q180 0 258 -109 q92 109 209 109q92 0 157.5 -50.5t65.5 -130.5q0 -70 -44 -114.5t-103 -44.5q-47 0 -75 27.5t-28 66.5q0 100 105 139q-33 33 -84 33q-55 0 -98.5 -57.5t-59.5 -124.5l-111 -455q-6 -25 -6 -57q0 -100 105 -101q74 0 150.5 63.5t113.5 182.5q8 20 17 24.5t42 4.5 q57 0 57.5 -29t-26.5 -79t-73 -105.5t-123.5 -95t-168.5 -39.5q-182 0 -256 108q-92 -109 -209 -108q-94 0 -158.5 50t-64.5 130z" />
<glyph unicode="y" horiz-adv-x="1150" d="M158 606q0 20 20.5 68.5t55 107t99 101.5t138.5 43q88 0 151.5 -50.5t63.5 -132.5q0 -31 -29 -110q-119 -311 -118 -434q0 -141 106 -142q74 0 129 49q61 51 76 107l147 586q12 49 44 75.5t50.5 30.5t34.5 4q37 0 65 -22.5t28 -65.5q0 -14 -9 -45l-196 -790 q-39 -156 -193.5 -278t-341.5 -122q-115 0 -187.5 49.5t-72.5 128.5q0 66 43 111t105 45q37 0 68.5 -21.5t31.5 -72.5q0 -92 -92 -135q43 -31 106 -31q113 0 203 111.5t121 261.5q-74 -49 -172 -49q-137 0 -220 62.5t-83 195.5q0 53 20.5 134t37.5 129l65 175q37 86 36 135 q0 37 -28 37q-113 0 -189 -248q-6 -18 -16 -22t-41 -4q-57 -1 -57 28z" />
<glyph unicode="z" horiz-adv-x="1005" d="M131 12q0 27 70.5 112t154.5 169q68 66 240 203q154 127 240 217h-43q-14 0 -69.5 -2t-72.5 -2h-145q-78 -4 -94 -33q-8 -18 -17.5 -21.5t-40.5 -3.5q-57 0 -57 29q0 61 86 153.5t205 92.5q74 0 162 -68q88 -72 137 -72q27 0 104 117q10 16 18.5 19.5t39.5 3.5 q20 0 30.5 -1t18.5 -7.5t8 -20.5q0 -25 -68.5 -108.5t-156.5 -172.5q-68 -66 -240 -202q-154 -127 -240 -217h99l139 4q156 2 224.5 20.5t99.5 95.5q10 23 57 23q57 0 57 -31q0 -29 -26.5 -81t-71.5 -107t-119 -96t-153 -41q-76 0 -175 77q-82 61 -129 62q-80 0 -159 -119 q-10 -14 -17.5 -17t-38.5 -3q-20 0 -30.5 1t-18.5 7t-8 20z" />
<glyph unicode="{" horiz-adv-x="1177" d="M289 512q4 16 12 24.5t15.5 9.5t25.5 3q129 6 221 76q59 41 79 82t46 147l107 422q31 119 178 189.5t364 70.5q27 0 36 -1t18.5 -9t-0.5 -27q-4 -16 -12.5 -24.5t-15.5 -9.5t-26 -3q-115 -6 -202 -57q-45 -27 -72 -60.5t-35 -53t-14 -50.5l-109 -430q-12 -49 -24.5 -79 t-44 -78t-94 -83.5t-154.5 -58.5q115 -33 157.5 -98.5t26.5 -139.5l-123 -485q-12 -51 -10 -72q12 -141 233 -155q33 -2 25 -37q-6 -25 -19.5 -31t-52.5 -6q-53 0 -102 4t-117.5 21.5t-114 46t-69 84t-4.5 129.5l108 430q20 84 21 96q0 66 -54.5 118t-179.5 58q-34 2 -24 37 z" />
<glyph unicode="|" horiz-adv-x="653" d="M160 -422l467 1868q18 90 86 90q18 0 28.5 -7t14.5 -15.5t3 -24.5t-2 -21.5t-5 -21.5l-467 -1868q-25 -90 -86 -90q-66 0 -39 90z" />
<glyph unicode="}" horiz-adv-x="1177" d="M41 -475q4 16 12 24.5t15.5 9.5t27.5 3q115 6 209 61q41 27 67.5 58.5t34 50t15.5 51.5l106 430q12 51 24.5 80t45.5 77t95.5 83.5t154.5 58.5q-115 35 -158 100.5t-26 137.5l120 485q12 51 13 72q-4 66 -61.5 107.5t-174.5 47.5q-35 2 -26 37q6 25 21 31t52 6 q78 0 145.5 -10t142.5 -37t108.5 -88.5t11.5 -149.5l-109 -430q-20 -88 -18 -100q4 -82 65.5 -125t163.5 -47q35 -2 27 -37q-4 -16 -13.5 -24.5t-16.5 -9.5t-25 -3q-133 -8 -218 -74q-61 -45 -80.5 -83.5t-46.5 -147.5l-106 -422q-31 -115 -174 -187.5t-369 -72.5 q-27 0 -37 1t-16 9.5t-2 26.5z" />
<glyph unicode="~" horiz-adv-x="1138" d="M106 430l134 90q49 33 135 72q92 37 160 37q84 0 186 -70q41 -27 61.5 -39t57.5 -24.5t75 -12.5q137 0 351 146l18 -35l-133 -90q-45 -33 -133 -72q-92 -37 -160 -37q-88 0 -186 70q-113 76 -195 76q-141 0 -350 -146z" />
<glyph unicode="&#xa2;" horiz-adv-x="1089" d="M219 328q0 211 154.5 395t408.5 201l21 84q4 20 22.5 34.5t39 14.5t30.5 -14.5t6 -34.5l-22 -86q98 -12 152 -63.5t54 -121.5q0 -68 -42 -113.5t-105 -45.5q-57 0 -79.5 30.5t-22.5 63.5q0 12 3 30.5t29.5 54.5t71.5 52q-29 29 -80 41l-196 -791q209 16 344 168 q14 14 28.5 14.5t38 -26.5t23.5 -39q0 -23 -57.5 -71t-133.5 -76q-109 -39 -262 -45l-20 -82q-6 -20 -23.5 -34.5t-38 -14.5t-32 14t-5.5 35l21 86q-170 16 -249 112.5t-79 227.5zM442 238q0 -150 123 -175l197 781q-135 -33 -207 -170q-39 -76 -76 -224.5t-37 -211.5z" />
<glyph unicode="&#xa3;" horiz-adv-x="1779" d="M207 82q0 74 85 138.5t222 64.5l109 -11l100 390h-94q-59 0 -60 28q0 33 17 53q8 14 51 15h108l80 319q37 150 168 258.5t324 108.5q141 0 216 -87t75 -204q0 -94 -40 -151.5t-114 -57.5q-47 0 -74.5 27.5t-27.5 66.5q0 45 33.5 92.5t107.5 53.5q-6 84 -51 135t-125 51 q-193 0 -266 -272l-86 -340h155q23 0 32 -1t17.5 -8.5t8.5 -21.5q0 -29 -15 -53q-8 -12 -53 -12h-168l-84 -330q-8 -47 -53 -119q207 -94 325 -94q20 0 44 3t73 17.5t92 53t64 98.5q8 20 57 20q57 0 58 -28q0 -82 -127 -191.5t-324 -109.5q-78 0 -143.5 19.5t-231.5 84.5 q-135 -104 -319 -104q-166 0 -166 98zM340 84q0 -27 39 -27q94 0 168 78q-49 12 -96 12q-45 0 -78 -18t-33 -45z" />
<glyph unicode="&#xa5;" horiz-adv-x="1773" d="M385 350q6 25 27.5 41.5t44.5 16.5h399l39 153l-21 55h-366q-23 0 -36 16.5t-7 41.5q6 23 27.5 40t44.5 17h297l-201 545q-8 18 -14.5 23.5t-26.5 7.5q-18 2 -68 2h-24q-66 0 -66 37q0 59 58 59q45 0 140 -3t142 -3q51 0 155.5 3t153.5 3q45 0 45 -37q0 -27 -11 -41 t-22.5 -16t-29.5 -2q-59 0 -125 -9l207 -569h14l484 561q-43 16 -103 17q-53 0 -53 37q0 59 57 59q37 0 117 -3t119 -3q33 0 99.5 3t96.5 3q18 0 28.5 -11.5t10.5 -25.5q0 -59 -61 -59q-70 0 -116 -13.5t-62.5 -27t-40.5 -41.5l-428 -496h290q25 0 37.5 -17.5t5.5 -39.5 q-6 -25 -26.5 -41.5t-44.5 -16.5h-363l-47 -55l-39 -153h398q25 0 37 -16.5t6 -41.5q-6 -23 -26.5 -40t-45.5 -17h-397l-47 -193q49 -4 100 -4h45q66 0 65 -37q0 -27 -12 -41t-21.5 -16t-25.5 -2q-49 0 -153.5 3t-155.5 3t-152.5 -3t-150.5 -3q-45 0 -45 37q0 29 12 42 t24.5 15t34.5 2h45q59 0 82 2q29 4 36 9.5t13 27.5l39 158h-399q-23 0 -36 17t-7 40z" />
<glyph unicode="&#xa8;" d="M522 1206q0 59 51.5 109.5t114.5 50.5q53 0 83 -34t30 -77q0 -61 -49.5 -110t-112.5 -49q-51 0 -83 31.5t-34 78.5zM1024 1206q0 59 51 109.5t115 50.5q53 0 83 -34t30 -77q0 -61 -49.5 -110t-112.5 -49q-51 0 -83 31.5t-34 78.5z" />
<glyph unicode="&#xa9;" horiz-adv-x="1404" d="M0 702.5q0 290.5 206 496.5t496 206q293 0 498 -205t205 -498q0 -291 -206 -496.5t-496.5 -205.5t-496.5 206t-206 496.5zM123 702.5q0 -239.5 170 -409.5t409.5 -170t409.5 170t170 409.5t-170 409.5t-409.5 170t-409.5 -170t-170 -409.5zM344 608q0 166 124 303.5 t325 137.5q100 0 159 -66l84 66q25 0 25 -15l-4 -18l-53 -215q-2 -14 -7.5 -16.5t-23.5 -2.5q-29 0 -29 15l2 12v29q0 72 -36 119t-103 47q-137 0 -223 -105q-55 -68 -82 -172t-27 -160q0 -80 43 -121q49 -45 133 -45q70 0 142.5 49.5t105.5 151.5q2 8 27 8q27 0 26 -12 q0 -16 -25.5 -67.5t-76.5 -92.5q-104 -82 -221 -82q-121 0 -203 61.5t-82 190.5z" />
<glyph unicode="&#xab;" horiz-adv-x="1331" d="M422 463q-14 23 10 41q236 186 393 444q10 18 31 19h16q14 0 19.5 -10.5t1.5 -22.5q-106 -246 -256 -451q47 -205 31 -450q-2 -12 -12.5 -22.5t-24.5 -10.5h-17q-18 0 -22 18q-25 252 -170 445zM791 463q-14 23 10 41q236 186 393 444q10 18 31 19h16q14 0 19.5 -10.5 t1.5 -22.5q-106 -246 -256 -451q47 -205 30 -450q-2 -12 -12 -22.5t-25 -10.5h-16q-18 0 -22 18q-25 252 -170 445z" />
<glyph unicode="&#xad;" horiz-adv-x="847" d="M188 397q0 4 11.5 50.5t11.5 52.5q10 37 19.5 44t52.5 7h444q66 0 66 -37q0 -2 -25 -100q-10 -39 -20.5 -47.5t-55.5 -8.5h-436q-68 0 -68 39z" />
<glyph unicode="&#xae;" horiz-adv-x="1404" d="M0 702.5q0 290.5 206 496.5t496 206q293 0 498 -205t205 -498q0 -291 -206 -496.5t-496.5 -205.5t-496.5 206t-206 496.5zM123 702.5q0 -239.5 170 -409.5t409.5 -170t409.5 170t170 409.5t-170 409.5t-409.5 170t-409.5 -170t-170 -409.5zM365 399q0 27 32 27h23 q4 0 18.5 1t20.5 1q16 2 20 16l137 549q-4 0 -22.5 1t-24.5 1h-20q-31 0 -31 17q0 29 35 28h315q92 0 160 -33.5t68 -111.5q0 -66 -54.5 -116t-140.5 -72q78 -33 78 -103q0 -10 -6 -49q-12 -78 -12 -102q0 -53 36 -54q45 0 68 76q6 18 29 19q27 0 26 -17q0 -25 -33.5 -68.5 t-95.5 -43.5q-170 0 -170 108q0 14 15 74q14 43 14 71q0 76 -80 76h-102l-66 -266q2 0 21.5 -1t25.5 -1h21q31 0 30 -16q0 -29 -26 -29q-23 0 -72 2t-74 2q-23 0 -70.5 -2t-72.5 -2q-20 0 -20 18zM676 727h96q86 0 137 41q25 23 39.5 74t14.5 77.5t-12.5 43t-39 23.5t-46 8 t-58.5 1h-43q-20 0 -25 -16z" />
<glyph unicode="&#xb4;" d="M737 1096q0 18 25 39l250 233q68 63 112 64q39 0 68 -28t29 -71q0 -66 -80 -110l-314 -183q-20 -12 -32 -12q-20 0 -39 27t-19 41z" />
<glyph unicode="&#xb8;" horiz-adv-x="1089" d="M186 -352q6 23 28 40t44 17q295 0 305 39q2 12 -12 20.5t-48 11.5t-58.5 4t-69.5 1l57 229h230l-29 -114q86 0 140 -41t36 -111q-10 -45 -54 -74.5t-93.5 -45t-137.5 -24t-142 -9.5t-153 -1q-23 0 -35 17.5t-8 40.5z" />
<glyph unicode="&#xbb;" horiz-adv-x="1331" d="M313 33q104 242 254 450q-45 209 -28 451q2 12 12 22.5t24 10.5h17q18 0 22 -19q25 -252 170 -444q14 -18 -10 -41q-236 -186 -393 -445q-10 -18 -31 -18h-16q-14 0 -19.5 10.5t-1.5 22.5zM682 33q104 242 254 450q-45 209 -29 451q2 12 12.5 22.5t24.5 10.5h17 q18 0 22 -19q25 -252 170 -444q14 -18 -10 -41q-236 -186 -393 -445q-10 -18 -31 -18h-17q-14 0 -19 10.5t-1 22.5z" />
<glyph unicode="&#xc0;" horiz-adv-x="1773" d="M150 37q0 27 11 41t21.5 16t30.5 2q70 0 112 13.5t54 25.5t27 37l747 1233q20 35 38.5 43t57.5 8q45 0 57.5 -9t16.5 -50l135 -1262q2 -23 7 -28t24 -9q16 -2 67 -2h27q66 0 66 -37q0 -27 -11.5 -41t-20.5 -16t-26 -2q-47 0 -141 3t-139 3q-51 0 -151.5 -3t-149.5 -3 q-20 0 -31.5 9t-11.5 20l-2 8q0 41 18 50t61 9q84 0 134 10l-31 287h-475l-166 -276q31 -12 76 -17l47 -4q53 0 53 -37q0 -59 -57 -59q-37 0 -117 3t-119 3q-33 0 -101.5 -3t-99.5 -3q-16 0 -26 9t-10 20zM731 489h406l-62 570zM1008 1763q16 49 60 83t95 34q35 0 80 -45 l195 -186q18 -18 12 -35q-4 -14 -31.5 -44t-50.5 -32q-16 0 -33 6l-276 125q-71 26 -51 94z" />
<glyph unicode="&#xc2;" horiz-adv-x="1773" d="M150 37q0 27 11 41t21.5 16t30.5 2q70 0 112 13.5t54 25.5t27 37l747 1233q20 35 38.5 43t57.5 8q45 0 57.5 -9t16.5 -50l135 -1262q2 -23 7 -28t24 -9q16 -2 67 -2h27q66 0 66 -37q0 -27 -11.5 -41t-20.5 -16t-26 -2q-47 0 -141 3t-139 3q-51 0 -151.5 -3t-149.5 -3 q-20 0 -31.5 9t-11.5 20l-2 8q0 41 18 50t61 9q84 0 134 10l-31 287h-475l-166 -276q31 -12 76 -17l47 -4q53 0 53 -37q0 -59 -57 -59q-37 0 -117 3t-119 3q-33 0 -101.5 -3t-99.5 -3q-16 0 -26 9t-10 20zM731 489h406l-62 570zM922 1569l405 284l309 -284l-39 -51l-309 114 l-346 -114z" />
<glyph unicode="&#xc6;" horiz-adv-x="2095" d="M150 37q0 27 12 41t21.5 16t23.5 2q74 0 117 13.5t55 25.5t31 39l708 1135h-82q-66 0 -65 37q0 29 12 42t24.5 15t34.5 2h1088q29 0 40 -2t19.5 -17.5t3.5 -46.5l-43 -372q-4 -37 -14 -46.5t-45 -9.5q-57 0 -57 43q0 18 6 50q6 57 6 98q0 59 -15.5 99t-37 61.5t-71.5 32 t-90 12.5t-122 2h-92q-37 0 -45 -5.5t-14 -27.5l-138 -553h103q115 0 161 40t76 152q10 31 19.5 39.5t42.5 8.5q57 0 57 -37q0 -2 -6 -33l-115 -459q-8 -33 -19 -40t-42 -7q-57 0 -58 37q0 8 5 27q16 57 16 94q0 47 -29.5 64.5t-113.5 17.5h-121l-131 -529q14 -2 47 -2h164 q92 0 163.5 21.5t117.5 51.5t89 91.5t67.5 109.5t61.5 136q18 41 27.5 48t42.5 7q57 0 57 -37q0 -8 -10 -35l-195 -454q-10 -25 -21 -30t-46 -5h-946q-66 0 -66 37q0 29 12.5 42t24.5 15t35 2h16q49 0 65.5 2t21.5 4t8.5 8.5t7.5 20.5l123 496h-308l-317 -510 q53 -20 121 -21q53 0 53 -37q0 -27 -11.5 -41t-20.5 -16t-23 -2q-39 0 -119 3t-119 3q-33 0 -100.5 -3t-100.5 -3q-18 0 -28 11.5t-10 25.5zM885 723h272l143 580q-14 2 -53 2z" />
<glyph unicode="&#xc7;" horiz-adv-x="1693" d="M334 502q0 131 41 264t123 254t194.5 215t268 149.5t329.5 55.5q211 0 340 -140l176 140q55 0 56 -29l-9 -39l-114 -459q-8 -31 -17.5 -36t-48.5 -5q-25 0 -36 1t-19 8.5t-8 21.5q0 2 3 26.5t3 61.5q0 154 -76 253t-221 99q-121 0 -251 -52t-226 -171 q-117 -143 -174.5 -366.5t-57.5 -339.5q0 -170 95 -256q102 -96 284 -97q90 0 186.5 37t195.5 139.5t145 251.5q6 18 55 19q57 0 57 -29q0 -37 -54 -144.5t-165 -195.5q-174 -139 -371 -166l-18 -77q86 0 139 -41t35 -111q-8 -37 -36 -64.5t-79 -44t-95 -25.5t-121 -13.5 t-121 -5.5t-126 -1q-23 0 -36 17.5t-6.5 40t28 40t43.5 17.5q295 0 303 39q4 12 -10 20.5t-49 11.5t-59.5 4t-67.5 1l49 192q-211 31 -344 161t-133 368z" />
<glyph unicode="&#xc8;" horiz-adv-x="1550" d="M131 37q0 29 12.5 42t24.5 15t35 2h45q33 0 82 4q27 2 34 6.5t13 26.5l289 1159q-6 0 -47 2t-54 2h-45q-63 0 -63 37q0 29 11 42.5t23.5 15.5t34.5 2h1057q61 0 66 -35l-47 -406q-2 -23 -5.5 -32t-15.5 -15t-39 -6q-57 0 -57 39q0 18 6 43q6 53 6 98q0 53 -9 91t-36 61.5 t-50.5 37t-78.5 19.5t-92 7t-117 1q-139 0 -168 -4l-129 -522h86q117 0 162 41t74 154q8 29 18 37t43 8q57 0 57 -37q0 -6 -6 -27l-114 -463q-8 -35 -19.5 -42t-42.5 -7q-57 0 -57 37l6 29q14 66 14 92q0 47 -28.5 64.5t-112.5 17.5h-104l-144 -576q14 -2 47 -2h205 q121 0 206 25.5t145.5 87t96 124t83.5 173.5q18 41 27 48t42 7q57 0 58 -37q0 -8 -11 -35l-194 -454q-10 -25 -21.5 -30t-46.5 -5h-1089q-66 0 -66 37zM895 1763q16 49 60 83t96 34q35 0 79 -45l195 -186q18 -18 12 -35q-4 -14 -31.5 -44t-50.5 -32q-18 0 -32 6l-277 125 q-71 26 -51 94z" />
<glyph unicode="&#xc9;" horiz-adv-x="1550" d="M131 37q0 29 12.5 42t24.5 15t35 2h45q33 0 82 4q27 2 34 6.5t13 26.5l289 1159q-6 0 -47 2t-54 2h-45q-63 0 -63 37q0 29 11 42.5t23.5 15.5t34.5 2h1057q61 0 66 -35l-47 -406q-2 -23 -5.5 -32t-15.5 -15t-39 -6q-57 0 -57 39q0 18 6 43q6 53 6 98q0 53 -9 91t-36 61.5 t-50.5 37t-78.5 19.5t-92 7t-117 1q-139 0 -168 -4l-129 -522h86q117 0 162 41t74 154q8 29 18 37t43 8q57 0 57 -37q0 -6 -6 -27l-114 -463q-8 -35 -19.5 -42t-42.5 -7q-57 0 -57 37l6 29q14 66 14 92q0 47 -28.5 64.5t-112.5 17.5h-104l-144 -576q14 -2 47 -2h205 q121 0 206 25.5t145.5 87t96 124t83.5 173.5q18 41 27 48t42 7q57 0 58 -37q0 -8 -11 -35l-194 -454q-10 -25 -21.5 -30t-46.5 -5h-1089q-66 0 -66 37zM1018 1614q2 16 31 35l286 186q70 45 105 45q49 0 76.5 -34t19.5 -83q-12 -66 -98 -94l-340 -125q-18 -6 -35 -6 q-20 2 -33.5 32t-11.5 44z" />
<glyph unicode="&#xca;" horiz-adv-x="1550" d="M131 37q0 29 12.5 42t24.5 15t35 2h45q33 0 82 4q27 2 34 6.5t13 26.5l289 1159q-6 0 -47 2t-54 2h-45q-63 0 -63 37q0 29 11 42.5t23.5 15.5t34.5 2h1057q61 0 66 -35l-47 -406q-2 -23 -5.5 -32t-15.5 -15t-39 -6q-57 0 -57 39q0 18 6 43q6 53 6 98q0 53 -9 91t-36 61.5 t-50.5 37t-78.5 19.5t-92 7t-117 1q-139 0 -168 -4l-129 -522h86q117 0 162 41t74 154q8 29 18 37t43 8q57 0 57 -37q0 -6 -6 -27l-114 -463q-8 -35 -19.5 -42t-42.5 -7q-57 0 -57 37l6 29q14 66 14 92q0 47 -28.5 64.5t-112.5 17.5h-104l-144 -576q14 -2 47 -2h205 q121 0 206 25.5t145.5 87t96 124t83.5 173.5q18 41 27 48t42 7q57 0 58 -37q0 -8 -11 -35l-194 -454q-10 -25 -21.5 -30t-46.5 -5h-1089q-66 0 -66 37zM809 1569l405 284l310 -284l-39 -51l-309 114l-347 -114z" />
<glyph unicode="&#xcb;" horiz-adv-x="1550" d="M131 37q0 29 12.5 42t24.5 15t35 2h45q33 0 82 4q27 2 34 6.5t13 26.5l289 1159q-6 0 -47 2t-54 2h-45q-63 0 -63 37q0 29 11 42.5t23.5 15.5t34.5 2h1057q61 0 66 -35l-47 -406q-2 -23 -5.5 -32t-15.5 -15t-39 -6q-57 0 -57 39q0 18 6 43q6 53 6 98q0 53 -9 91t-36 61.5 t-50.5 37t-78.5 19.5t-92 7t-117 1q-139 0 -168 -4l-129 -522h86q117 0 162 41t74 154q8 29 18 37t43 8q57 0 57 -37q0 -6 -6 -27l-114 -463q-8 -35 -19.5 -42t-42.5 -7q-57 0 -57 37l6 29q14 66 14 92q0 47 -28.5 64.5t-112.5 17.5h-104l-144 -576q14 -2 47 -2h205 q121 0 206 25.5t145.5 87t96 124t83.5 173.5q18 41 27 48t42 7q57 0 58 -37q0 -8 -11 -35l-194 -454q-10 -25 -21.5 -30t-46.5 -5h-1089q-66 0 -66 37zM750 1628q0 59 50 109.5t113 50.5q53 0 84 -34t31 -77q0 -61 -50 -110t-114 -49q-51 0 -81.5 31.5t-32.5 78.5z M1346 1628q0 59 50 109.5t113 50.5q53 0 84 -34t31 -77q0 -61 -50 -110t-114 -49q-51 0 -81.5 31.5t-32.5 78.5z" />
<glyph unicode="&#xce;" horiz-adv-x="966" d="M121 37q0 29 11 42t23.5 15t37.5 2h49q61 0 84 2q31 2 38 7.5t13 27.5l291 1172q-12 0 -56.5 2t-48.5 2h-49q-66 0 -65 37q0 27 11 41t21.5 16t26.5 2q53 0 161.5 -3t164.5 -3q53 0 160.5 3t158.5 3q45 0 45 -37q0 -29 -12 -42t-24.5 -15t-35.5 -2h-51q-35 0 -84 -4 q-31 -2 -38 -7.5t-13 -27.5l-291 -1170l105 -4h51q66 0 65 -37q0 -59 -61 -59q-53 0 -161.5 3t-164.5 3q-53 0 -159.5 -3t-157.5 -3q-45 0 -45 37zM518 1569l406 284l309 -284l-39 -51l-309 114l-346 -114z" />
<glyph unicode="&#xcf;" horiz-adv-x="966" d="M121 37q0 29 11 42t23.5 15t37.5 2h49q61 0 84 2q31 2 38 7.5t13 27.5l291 1172q-12 0 -56.5 2t-48.5 2h-49q-66 0 -65 37q0 27 11 41t21.5 16t26.5 2q53 0 161.5 -3t164.5 -3q53 0 160.5 3t158.5 3q45 0 45 -37q0 -29 -12 -42t-24.5 -15t-35.5 -2h-51q-35 0 -84 -4 q-31 -2 -38 -7.5t-13 -27.5l-291 -1170l105 -4h51q66 0 65 -37q0 -59 -61 -59q-53 0 -161.5 3t-164.5 3q-53 0 -159.5 -3t-157.5 -3q-45 0 -45 37zM459 1628q0 59 50 109.5t114 50.5q53 0 83.5 -34t30.5 -77q0 -61 -50 -110t-114 -49q-51 0 -81.5 31.5t-32.5 78.5z M1055 1628q0 59 50 109.5t114 50.5q53 0 83.5 -34t30.5 -77q0 -61 -50 -110t-114 -49q-51 0 -81.5 31.5t-32.5 78.5z" />
<glyph unicode="&#xd4;" horiz-adv-x="1751" d="M328 469q0 125 36.5 259t113.5 261t182.5 227.5t255 162t319.5 61.5q231 0 384 -126t153 -386q0 -166 -61.5 -334t-172.5 -309.5t-286 -230.5t-384 -89q-242 0 -391 127t-149 377zM608 395q0 -160 68 -248q78 -96 213 -96q227 0 399 252q88 129 150.5 362.5t62.5 360.5 q0 41 -5 80t-23.5 86t-48 82t-84 59.5t-126.5 24.5q-102 0 -215.5 -62.5t-203.5 -210.5q-78 -129 -132.5 -347t-54.5 -343zM909 1569l406 284l309 -284l-39 -51l-309 114l-346 -114z" />
<glyph unicode="&#xd9;" horiz-adv-x="1804" d="M446 354q0 68 15 119l209 832q-49 4 -101 4h-45q-66 0 -65 37q0 27 12 41t21.5 16t25.5 2q51 0 156.5 -3t159.5 -3q51 0 154.5 3t152.5 3q45 0 45 -37q0 -29 -11.5 -42t-23.5 -15t-35 -2l-127 -2q-29 -2 -36 -8.5t-13 -28.5l-207 -830q-25 -104 -24 -168q0 -109 65 -161 q63 -49 174 -50q178 0 316.5 105.5t189.5 310.5l203 811q-51 20 -144 21q-63 0 -63 37q0 59 55 59q39 0 121 -3t123 -3q39 0 118 3t115 3q41 0 41 -37q0 -27 -11 -41t-21.5 -16t-30.5 -2q-70 0 -117 -11q-43 -8 -53 -16t-16 -33l-199 -798q-20 -84 -68.5 -165t-124 -155 t-191.5 -120t-253 -46q-227 0 -359.5 102.5t-132.5 286.5zM1077 1763q16 49 60.5 83t95.5 34q35 0 80 -45l194 -186q18 -18 13 -35q-4 -14 -32 -44t-50 -32q-16 0 -33 6l-277 125q-71 26 -51 94z" />
<glyph unicode="&#xdb;" horiz-adv-x="1804" d="M446 354q0 68 15 119l209 832q-49 4 -101 4h-45q-66 0 -65 37q0 27 12 41t21.5 16t25.5 2q51 0 156.5 -3t159.5 -3q51 0 154.5 3t152.5 3q45 0 45 -37q0 -29 -11.5 -42t-23.5 -15t-35 -2l-127 -2q-29 -2 -36 -8.5t-13 -28.5l-207 -830q-25 -104 -24 -168q0 -109 65 -161 q63 -49 174 -50q178 0 316.5 105.5t189.5 310.5l203 811q-51 20 -144 21q-63 0 -63 37q0 59 55 59q39 0 121 -3t123 -3q39 0 118 3t115 3q41 0 41 -37q0 -27 -11 -41t-21.5 -16t-30.5 -2q-70 0 -117 -11q-43 -8 -53 -16t-16 -33l-199 -798q-20 -84 -68.5 -165t-124 -155 t-191.5 -120t-253 -46q-227 0 -359.5 102.5t-132.5 286.5zM991 1569l406 284l309 -284l-39 -51l-309 114l-346 -114z" />
<glyph unicode="&#xdc;" horiz-adv-x="1804" d="M446 354q0 68 15 119l209 832q-49 4 -101 4h-45q-66 0 -65 37q0 27 12 41t21.5 16t25.5 2q51 0 156.5 -3t159.5 -3q51 0 154.5 3t152.5 3q45 0 45 -37q0 -29 -11.5 -42t-23.5 -15t-35 -2l-127 -2q-29 -2 -36 -8.5t-13 -28.5l-207 -830q-25 -104 -24 -168q0 -109 65 -161 q63 -49 174 -50q178 0 316.5 105.5t189.5 310.5l203 811q-51 20 -144 21q-63 0 -63 37q0 59 55 59q39 0 121 -3t123 -3q39 0 118 3t115 3q41 0 41 -37q0 -27 -11 -41t-21.5 -16t-30.5 -2q-70 0 -117 -11q-43 -8 -53 -16t-16 -33l-199 -798q-20 -84 -68.5 -165t-124 -155 t-191.5 -120t-253 -46q-227 0 -359.5 102.5t-132.5 286.5zM932 1628q0 59 50 109.5t114 50.5q53 0 83.5 -34t30.5 -77q0 -61 -50 -110t-113 -49q-51 0 -82 31.5t-33 78.5zM1528 1628q0 59 50 109.5t114 50.5q53 0 83.5 -34t30.5 -77q0 -61 -50 -110t-114 -49 q-51 0 -81.5 31.5t-32.5 78.5z" />
<glyph unicode="&#xe0;" d="M217 311q0 141 63.5 280.5t192.5 237t293 97.5q123 0 199 -78q43 43 96 43q41 0 66.5 -24.5t25.5 -61.5q0 -12 -8 -43l-137 -553q-12 -49 -13 -88q0 -63 39 -64q70 0 123 222q10 39 19.5 46t46.5 7q57 0 57 -29q0 -14 -22.5 -83.5t-57.5 -125.5q-72 -111 -174 -110 q-66 0 -125 26.5t-86 77.5q-131 -104 -270 -104q-135 0 -231.5 79.5t-96.5 247.5zM436 203q0 -78 36 -112t81 -34q127 0 238 148q4 27 6 37l121 483q-35 127 -152 127q-57 0 -124 -49t-112 -180q-23 -59 -58.5 -202.5t-35.5 -217.5zM657 1333q20 43 63.5 71t82.5 28 q31 0 46 -14.5t34 -49.5l133 -233q14 -18 6 -39q-6 -14 -38 -41t-54 -27q-10 0 -27 12l-221 183q-58 47 -25 110z" />
<glyph unicode="&#xe2;" d="M217 311q0 141 63.5 280.5t192.5 237t293 97.5q123 0 199 -78q43 43 96 43q41 0 66.5 -24.5t25.5 -61.5q0 -12 -8 -43l-137 -553q-12 -49 -13 -88q0 -63 39 -64q70 0 123 222q10 39 19.5 46t46.5 7q57 0 57 -29q0 -14 -22.5 -83.5t-57.5 -125.5q-72 -111 -174 -110 q-66 0 -125 26.5t-86 77.5q-131 -104 -270 -104q-135 0 -231.5 79.5t-96.5 247.5zM436 203q0 -78 36 -112t81 -34q127 0 238 148q4 27 6 37l121 483q-35 127 -152 127q-57 0 -124 -49t-112 -180q-23 -59 -58.5 -202.5t-35.5 -217.5zM512 1063l424 379l299 -379l-47 -45 l-289 203l-356 -203z" />
<glyph unicode="&#xe6;" horiz-adv-x="1693" d="M182 217q0 33 11.5 80t72 138t162.5 165q184 135 533 238q27 88 110 88q72 0 84 -68q125 68 275 68q113 0 188.5 -52.5t75.5 -144.5q0 -283 -545 -283h-92q-27 -111 -27 -180q0 -111 52.5 -160t136.5 -49q184 0 331 166q14 20 31 21q14 0 39 -25.5t25 -40.5 q0 -12 -28 -42t-77 -65.5t-136 -61t-187 -25.5q-158 0 -256 82q-29 -82 -109 -82q-74 0 -82 73q-109 -74 -231 -73q-164 0 -260.5 62t-96.5 171zM414 156q0 -98 137 -99q90 0 169 66.5t93 126.5l125 500q-223 -86 -358 -238q-57 -61 -95.5 -127t-51.5 -118t-16 -74.5 t-3 -36.5zM1075 520h43q442 0 443 211q0 49 -34 85t-102 36q-131 0 -231 -100q-82 -87 -119 -232z" />
<glyph unicode="&#xe7;" horiz-adv-x="1089" d="M219 328q0 102 41 205.5t115 192.5t192.5 144.5t257.5 55.5q123 0 191.5 -54.5t68.5 -134.5q0 -68 -42 -113.5t-105 -45.5q-57 0 -79.5 30.5t-22.5 63.5q0 12 3 30.5t29.5 54.5t71.5 52q-41 43 -117 43q-63 0 -139 -40t-129 -138q-39 -76 -76 -224.5t-37 -211.5 q0 -88 46.5 -134.5t129.5 -46.5q238 0 390 170q14 14 28.5 14.5t38 -26.5t23.5 -39q0 -23 -57.5 -71t-133.5 -76.5t-196 -40.5l-23 -92q86 0 139.5 -41t34.5 -111q-8 -37 -35.5 -64.5t-79 -44t-95.5 -25.5t-120.5 -13.5t-120.5 -5.5t-126 -1q-23 0 -36 17.5t-7 40t27.5 40 t43.5 17.5q295 0 303 39q4 12 -10 20.5t-49 11.5t-59.5 4t-67.5 1l53 217q-137 31 -200.5 121t-63.5 209z" />
<glyph unicode="&#xe8;" horiz-adv-x="1089" d="M225 342q0 242 169 413t429 171q117 0 192 -53.5t75 -143.5q0 -283 -529 -283h-82q-33 -123 -33 -200q0 -188 175 -189q236 0 387 170q14 14 28.5 14.5t38 -26.5t23.5 -39q0 -23 -57.5 -71t-133.5 -76q-121 -45 -289 -45q-190 0 -291.5 95t-101.5 263zM498 520 q459 0 458 211q0 51 -35.5 86t-97.5 35q-133 0 -217 -102q-41 -45 -62 -93.5t-46 -136.5zM598 1333q20 43 63.5 71t81.5 28q31 0 46.5 -14.5t33.5 -49.5l133 -233q14 -18 7 -39q-6 -14 -38 -41t-55 -27q-10 0 -26 12l-221 183q-58 47 -25 110z" />
<glyph unicode="&#xe9;" horiz-adv-x="1089" d="M225 342q0 242 169 413t429 171q117 0 192 -53.5t75 -143.5q0 -283 -529 -283h-82q-33 -123 -33 -200q0 -188 175 -189q236 0 387 170q14 14 28.5 14.5t38 -26.5t23.5 -39q0 -23 -57.5 -71t-133.5 -76q-121 -45 -289 -45q-190 0 -291.5 95t-101.5 263zM498 520 q459 0 458 211q0 51 -35.5 86t-97.5 35q-133 0 -217 -102q-41 -45 -62 -93.5t-46 -136.5zM678 1096q0 18 24 39l250 233q68 63 113 64q39 0 67.5 -28t28.5 -71q0 -66 -80 -110l-313 -183q-20 -12 -33 -12q-23 0 -40 27t-17 41z" />
<glyph unicode="&#xea;" horiz-adv-x="1089" d="M225 342q0 242 169 413t429 171q117 0 192 -53.5t75 -143.5q0 -283 -529 -283h-82q-33 -123 -33 -200q0 -188 175 -189q236 0 387 170q14 14 28.5 14.5t38 -26.5t23.5 -39q0 -23 -57.5 -71t-133.5 -76q-121 -45 -289 -45q-190 0 -291.5 95t-101.5 263zM453 1063l424 379 l299 -379l-48 -45l-288 203l-357 -203zM498 520q459 0 458 211q0 51 -35.5 86t-97.5 35q-133 0 -217 -102q-41 -45 -62 -93.5t-46 -136.5z" />
<glyph unicode="&#xeb;" horiz-adv-x="1089" d="M225 342q0 242 169 413t429 171q117 0 192 -53.5t75 -143.5q0 -283 -529 -283h-82q-33 -123 -33 -200q0 -188 175 -189q236 0 387 170q14 14 28.5 14.5t38 -26.5t23.5 -39q0 -23 -57.5 -71t-133.5 -76q-121 -45 -289 -45q-190 0 -291.5 95t-101.5 263zM463 1206 q0 59 51 109.5t115 50.5q53 0 82.5 -34t29.5 -77q0 -61 -49 -110t-112 -49q-51 0 -83 31.5t-34 78.5zM498 520q459 0 458 211q0 51 -35.5 86t-97.5 35q-133 0 -217 -102q-41 -45 -62 -93.5t-46 -136.5zM965 1206q0 59 51 109.5t114 50.5q53 0 83 -34t30 -77q0 -61 -49 -110 t-113 -49q-51 0 -82.5 31.5t-33.5 78.5z" />
<glyph unicode="&#xee;" horiz-adv-x="729" d="M158 606q0 20 20.5 68.5t55 107t99 101.5t138.5 43q88 0 151.5 -50.5t63.5 -132.5q0 -31 -18 -79l-185 -488q-16 -33 -16 -82q0 -37 29 -37q113 0 188 248q6 18 15.5 22.5t41.5 4.5q57 0 58 -29q0 -20 -20.5 -68.5t-55.5 -106.5t-99.5 -101t-138.5 -43q-88 0 -151.5 50 t-63.5 132q0 31 19 80l184 487q16 33 16 82q0 37 -28 37q-113 0 -189 -248q-6 -18 -16 -22t-41 -4q-57 -1 -57 28zM270 1063l424 379l299 -379l-47 -45l-289 203l-356 -203z" />
<glyph unicode="&#xef;" horiz-adv-x="729" d="M158 606q0 20 20.5 68.5t55 107t99 101.5t138.5 43q88 0 151.5 -50.5t63.5 -132.5q0 -31 -18 -79l-185 -488q-16 -33 -16 -82q0 -37 29 -37q113 0 188 248q6 18 15.5 22.5t41.5 4.5q57 0 58 -29q0 -20 -20.5 -68.5t-55.5 -106.5t-99.5 -101t-138.5 -43q-88 0 -151.5 50 t-63.5 132q0 31 19 80l184 487q16 33 16 82q0 37 -28 37q-113 0 -189 -248q-6 -18 -16 -22t-41 -4q-57 -1 -57 28zM281 1206q0 59 51 109.5t114 50.5q53 0 83 -34t30 -77q0 -61 -49 -110t-113 -49q-51 0 -82.5 31.5t-33.5 78.5zM782 1206q0 59 51.5 109.5t114.5 50.5 q53 0 83 -34t30 -77q0 -61 -49 -110t-113 -49q-51 0 -83 31.5t-34 78.5z" />
<glyph unicode="&#xf4;" d="M219 328q0 98 40 201.5t112.5 192.5t192.5 146.5t265 57.5q182 0 286 -92.5t104 -251.5q0 -100 -40 -203t-113 -193t-192.5 -146t-265.5 -56q-182 0 -285.5 92t-103.5 252zM442 238q0 -98 51.5 -139.5t118.5 -41.5q82 0 159 51.5t120 145.5q37 78 70.5 216t33.5 202 q0 98 -51 139t-119 41q-82 0 -158.5 -51t-119.5 -146q-37 -78 -71 -216t-34 -201zM512 1063l424 379l299 -379l-47 -45l-289 203l-356 -203z" />
<glyph unicode="&#xf9;" horiz-adv-x="1271" d="M158 606q0 20 20.5 68.5t55 107t99 101.5t138.5 43q88 0 151.5 -50.5t63.5 -132.5q0 -31 -29 -110q-119 -311 -118 -434q0 -141 106 -142q78 0 141 60q41 41 51.5 57t16.5 45l141 576q10 47 39 74.5t50.5 33.5t41.5 6q37 0 65 -22.5t28 -65.5q0 -14 -9 -45l-141 -567 q-12 -49 -12 -88q0 -63 39 -64q70 0 123 222q10 39 19 46t46 7q57 0 57 -29q0 -14 -22.5 -83.5t-56.5 -125.5q-72 -111 -175 -110q-66 0 -125 26.5t-85 77.5q-111 -104 -244 -104q-137 0 -220 62.5t-83 195.5q0 53 20.5 134t37.5 129l65 175q37 86 36 135q0 37 -28 37 q-113 0 -189 -248q-6 -18 -16 -22t-41 -4q-57 -1 -57 28zM688 1333q20 43 63.5 71t82.5 28q31 0 46 -14.5t33 -49.5l134 -233q14 -18 6 -39q-6 -14 -38 -41t-54 -27q-10 0 -27 12l-221 183q-58 47 -25 110z" />
<glyph unicode="&#xfb;" horiz-adv-x="1271" d="M158 606q0 20 20.5 68.5t55 107t99 101.5t138.5 43q88 0 151.5 -50.5t63.5 -132.5q0 -31 -29 -110q-119 -311 -118 -434q0 -141 106 -142q78 0 141 60q41 41 51.5 57t16.5 45l141 576q10 47 39 74.5t50.5 33.5t41.5 6q37 0 65 -22.5t28 -65.5q0 -14 -9 -45l-141 -567 q-12 -49 -12 -88q0 -63 39 -64q70 0 123 222q10 39 19 46t46 7q57 0 57 -29q0 -14 -22.5 -83.5t-56.5 -125.5q-72 -111 -175 -110q-66 0 -125 26.5t-85 77.5q-111 -104 -244 -104q-137 0 -220 62.5t-83 195.5q0 53 20.5 134t37.5 129l65 175q37 86 36 135q0 37 -28 37 q-113 0 -189 -248q-6 -18 -16 -22t-41 -4q-57 -1 -57 28zM543 1063l424 379l299 -379l-47 -45l-289 203l-357 -203z" />
<glyph unicode="&#xfc;" horiz-adv-x="1271" d="M158 606q0 20 20.5 68.5t55 107t99 101.5t138.5 43q88 0 151.5 -50.5t63.5 -132.5q0 -31 -29 -110q-119 -311 -118 -434q0 -141 106 -142q78 0 141 60q41 41 51.5 57t16.5 45l141 576q10 47 39 74.5t50.5 33.5t41.5 6q37 0 65 -22.5t28 -65.5q0 -14 -9 -45l-141 -567 q-12 -49 -12 -88q0 -63 39 -64q70 0 123 222q10 39 19 46t46 7q57 0 57 -29q0 -14 -22.5 -83.5t-56.5 -125.5q-72 -111 -175 -110q-66 0 -125 26.5t-85 77.5q-111 -104 -244 -104q-137 0 -220 62.5t-83 195.5q0 53 20.5 134t37.5 129l65 175q37 86 36 135q0 37 -28 37 q-113 0 -189 -248q-6 -18 -16 -22t-41 -4q-57 -1 -57 28zM553 1206q0 59 51 109.5t115 50.5q53 0 82.5 -34t29.5 -77q0 -61 -49 -110t-112 -49q-51 0 -83 31.5t-34 78.5zM1055 1206q0 59 51 109.5t115 50.5q53 0 82.5 -34t29.5 -77q0 -61 -49 -110t-113 -49 q-51 0 -82.5 31.5t-33.5 78.5z" />
<glyph unicode="&#xff;" horiz-adv-x="1150" d="M158 606q0 20 20.5 68.5t55 107t99 101.5t138.5 43q88 0 151.5 -50.5t63.5 -132.5q0 -31 -29 -110q-119 -311 -118 -434q0 -141 106 -142q74 0 129 49q61 51 76 107l147 586q12 49 44 75.5t50.5 30.5t34.5 4q37 0 65 -22.5t28 -65.5q0 -14 -9 -45l-196 -790 q-39 -156 -193.5 -278t-341.5 -122q-115 0 -187.5 49.5t-72.5 128.5q0 66 43 111t105 45q37 0 68.5 -21.5t31.5 -72.5q0 -92 -92 -135q43 -31 106 -31q113 0 203 111.5t121 261.5q-74 -49 -172 -49q-137 0 -220 62.5t-83 195.5q0 53 20.5 134t37.5 129l65 175q37 86 36 135 q0 37 -28 37q-113 0 -189 -248q-6 -18 -16 -22t-41 -4q-57 -1 -57 28zM492 1206q0 59 51 109.5t114 50.5q53 0 83 -34t30 -77q0 -61 -49 -110t-113 -49q-51 0 -82.5 31.5t-33.5 78.5zM993 1206q0 59 51.5 109.5t114.5 50.5q53 0 83 -34t30 -77q0 -61 -49 -110t-113 -49 q-51 0 -83 31.5t-34 78.5z" />
<glyph unicode="&#x152;" horiz-adv-x="2336" d="M369 479q0 162 63.5 329t177 309.5t295.5 232.5t398 90q66 0 188 -19q115 -16 170 -16h711q29 0 40 -2t19 -17.5t4 -46.5l-43 -372q-4 -37 -14.5 -46.5t-44.5 -9.5q-57 0 -58 43q0 2 5.5 50.5t5.5 89.5q0 63 -16.5 104t-38 63.5t-78 33t-97.5 12.5t-135 2h-102 q-41 0 -50.5 -5.5t-15.5 -27.5l-123 -498h156q123 0 176 38t84 151q10 35 19.5 43t43.5 8q57 0 58 -37q0 -4 -6 -27l-115 -462q-8 -35 -19.5 -42.5t-41.5 -7.5q-57 0 -58 37l4 21q12 74 13 90q0 49 -31 70.5t-133 21.5h-174l-146 -584q14 -2 47 -2h195q96 0 170 20.5 t122 50.5t91 89t68.5 110.5t64.5 139.5q18 41 27.5 48t42.5 7q57 0 57 -37q0 -8 -10 -35l-195 -454q-10 -25 -21.5 -30t-45.5 -5h-762q-70 0 -185 -16q-133 -18 -192 -19q-109 0 -204 26.5t-179 83t-133 160t-49 244.5zM647 440q0 -193 84 -297t232 -104q59 0 98 9t82 41 t75.5 98.5t59.5 172.5l170 684q27 100 27 183q0 70 -36 104.5t-147 34.5q-150 0 -276.5 -92t-204.5 -234.5t-121 -300.5t-43 -299z" />
<glyph unicode="&#x153;" horiz-adv-x="1693" d="M217 307q0 145 63.5 286.5t194.5 241t297 99.5q186 0 277 -141q158 133 381 133q113 0 188.5 -52.5t75.5 -144.5q0 -283 -535 -283h-90q-29 -117 -29 -188q0 -201 179 -201q184 0 331 166q14 20 31 21q14 0 39 -25.5t25 -40.5q0 -18 -43 -61t-149.5 -88t-238.5 -45 q-119 0 -199.5 42t-115.5 101q-160 -152 -352 -152q-133 0 -231.5 78t-98.5 254zM434 197q0 -66 31 -107t88 -41q31 0 66.5 13.5t87 64.5t86.5 135q31 74 66.5 219.5t35.5 214.5q0 84 -36 124t-91 40q-68 0 -132.5 -56t-109.5 -186q-92 -302 -92 -421zM1087 520q53 0 87 1 t99.5 6t107.5 19.5t87 36t69 59.5t24 89q0 49 -34 85t-102 36q-125 0 -217 -92q-78 -82 -121 -240z" />
<glyph unicode="&#x178;" horiz-adv-x="1773" d="M434 1346q0 59 58 59q45 0 140 -3t142 -3q51 0 155.5 3t153.5 3q45 0 45 -37q0 -27 -11 -41t-22.5 -16t-29.5 -2q-59 0 -125 -9l211 -581l494 573q-43 16 -103 17q-53 0 -53 37q0 59 57 59q37 0 117 -3t119 -3q33 0 99.5 3t96.5 3q18 0 28.5 -11.5t10.5 -25.5 q0 -59 -61 -59q-70 0 -116 -13.5t-62.5 -27t-40.5 -41.5l-576 -666l-114 -461q49 -4 100 -4h45q66 0 65 -37q0 -27 -12 -41t-21.5 -16t-25.5 -2q-49 0 -153.5 3t-155.5 3t-152.5 -3t-150.5 -3q-45 0 -45 37q0 29 12 42t24.5 15t34.5 2h45q59 0 82 2q29 4 36 9.5t13 27.5 l107 426l-262 715q-8 18 -14.5 23.5t-26.5 7.5q-18 2 -68 2h-24q-66 0 -66 37zM862 1628q0 59 50.5 109.5t113.5 50.5q53 0 84 -34t31 -77q0 -61 -50.5 -110t-113.5 -49q-51 0 -82 31.5t-33 78.5zM1458 1628q0 59 50.5 109.5t113.5 50.5q53 0 84 -34t31 -77 q0 -61 -50.5 -110t-113.5 -49q-51 0 -82 31.5t-33 78.5z" />
<glyph unicode="&#x2c6;" d="M512 1063l424 379l299 -379l-47 -45l-289 203l-356 -203z" />
<glyph unicode="&#x2da;" horiz-adv-x="1943" d="M1044 1229q0 82 77 145.5t210 63.5q96 0 148.5 -36t52.5 -99q0 -80 -76 -144.5t-211 -64.5q-94 0 -147.5 34.5t-53.5 100.5zM1171 1227q0 -49 97 -49q80 0 106 30q31 39 31 97q0 49 -96 49q-78 0 -107 -31q-31 -37 -31 -96z" />
<glyph unicode="&#x2dc;" d="M530 1145q0 31 117 119q113 88 184 88q68 0 125 -66q51 -59 86 -59q57 0 175 98q27 27 43 27q14 0 25 -10.5t11 -26.5q0 -25 -125 -127q-100 -80 -176 -80q-66 0 -139 80q-35 45 -72 45q-59 0 -180 -105q-20 -20 -37 -20q-18 0 -27.5 12.5t-9.5 24.5z" />
<glyph unicode="&#x2000;" horiz-adv-x="940" />
<glyph unicode="&#x2001;" horiz-adv-x="1880" />
<glyph unicode="&#x2002;" horiz-adv-x="940" />
<glyph unicode="&#x2003;" horiz-adv-x="1880" />
<glyph unicode="&#x2004;" horiz-adv-x="626" />
<glyph unicode="&#x2005;" horiz-adv-x="468" />
<glyph unicode="&#x2006;" horiz-adv-x="313" />
<glyph unicode="&#x2007;" horiz-adv-x="313" />
<glyph unicode="&#x2008;" horiz-adv-x="233" />
<glyph unicode="&#x2009;" horiz-adv-x="374" />
<glyph unicode="&#x200a;" horiz-adv-x="104" />
<glyph unicode="&#x2010;" horiz-adv-x="847" d="M188 397q0 4 11.5 50.5t11.5 52.5q10 37 19.5 44t52.5 7h444q66 0 66 -37q0 -2 -25 -100q-10 -39 -20.5 -47.5t-55.5 -8.5h-436q-68 0 -68 39z" />
<glyph unicode="&#x2011;" horiz-adv-x="847" d="M188 397q0 4 11.5 50.5t11.5 52.5q10 37 19.5 44t52.5 7h444q66 0 66 -37q0 -2 -25 -100q-10 -39 -20.5 -47.5t-55.5 -8.5h-436q-68 0 -68 39z" />
<glyph unicode="&#x2012;" horiz-adv-x="847" d="M188 397q0 4 11.5 50.5t11.5 52.5q10 37 19.5 44t52.5 7h444q66 0 66 -37q0 -2 -25 -100q-10 -39 -20.5 -47.5t-55.5 -8.5h-436q-68 0 -68 39z" />
<glyph unicode="&#x2013;" d="M205 561q0 37 63 37h955q63 0 63 -37t-63 -37h-955q-63 0 -63 37z" />
<glyph unicode="&#x2014;" horiz-adv-x="2420" d="M268 561q0 37 64 37h2038q63 0 63 -37t-63 -37h-2038q-64 0 -64 37z" />
<glyph unicode="&#x2018;" horiz-adv-x="729" d="M416 891q0 121 78.5 251t160.5 204.5t113 74.5q14 0 25.5 -13t11.5 -28q0 -12 -29 -34q-197 -137 -268 -355q45 33 106 33q66 0 95.5 -37t29.5 -82q0 -66 -52 -124t-132 -58q-74 0 -106.5 51t-32.5 117z" />
<glyph unicode="&#x2019;" horiz-adv-x="729" d="M463 764q0 16 24 31q205 143 273 360q-41 -35 -107 -35q-59 0 -92 34t-33 85q0 68 52.5 125t132.5 57q57 0 97 -40t40 -130q0 -94 -48 -194.5t-109.5 -171t-117 -116.5t-75.5 -46q-16 0 -26.5 14.5t-10.5 26.5z" />
<glyph unicode="&#x201a;" horiz-adv-x="729" d="M164 -362q0 16 24 30q205 143 273 361q-41 -35 -107 -35q-59 0 -92 33.5t-33 85.5q0 68 52.5 125t132.5 57q57 0 97 -40t40 -130q0 -94 -48 -194.5t-109.5 -171t-117 -116.5t-75.5 -46q-16 0 -26.5 14.5t-10.5 26.5z" />
<glyph unicode="&#x201c;" horiz-adv-x="1208" d="M416 891q0 121 78.5 251t160.5 204.5t113 74.5q14 0 25.5 -13t11.5 -28q0 -12 -29 -34q-197 -137 -268 -355q45 33 106 33q66 0 95.5 -37t29.5 -82q0 -66 -52 -124t-132 -58q-74 0 -106.5 51t-32.5 117zM897 891q0 121 79 251t161 204.5t112 74.5q14 0 25.5 -13t11.5 -28 q0 -12 -29 -34q-197 -137 -268 -355q45 33 107 33q66 0 95.5 -37t29.5 -82q0 -66 -52.5 -124t-132.5 -58q-74 0 -106.5 51t-32.5 117z" />
<glyph unicode="&#x201d;" horiz-adv-x="1208" d="M461 764q0 16 24 31q205 143 273 360q-41 -35 -107 -35q-57 0 -91 34t-34 85q0 68 52.5 125t132.5 57q57 0 97 -40t40 -130q0 -94 -48 -194.5t-109.5 -171t-117 -116.5t-75.5 -46q-16 0 -26.5 14.5t-10.5 26.5zM942 764q0 16 25 31q205 143 272 360q-41 -35 -106 -35 q-59 0 -92 34t-33 85q0 68 52 125t132 57q57 0 97 -40t40 -130q0 -94 -48 -194.5t-109.5 -171t-117 -116.5t-75.5 -46q-16 0 -26.5 14.5t-10.5 26.5z" />
<glyph unicode="&#x201e;" horiz-adv-x="1208" d="M178 -362q0 16 25 30q205 143 272 361q-41 -35 -106 -35q-57 0 -91 33.5t-34 85.5q0 68 52 125t132 57q57 0 97 -40t40 -130q0 -94 -48 -194.5t-109.5 -171t-116.5 -116.5t-76 -46q-16 0 -26.5 14.5t-10.5 26.5zM659 -362q0 16 25 30q205 143 272 361q-41 -35 -106 -35 q-59 0 -92 33.5t-33 85.5q0 68 52 125t132 57q57 0 97.5 -40t40.5 -130q0 -94 -48.5 -194.5t-110 -171t-116.5 -116.5t-76 -46q-16 0 -26.5 14.5t-10.5 26.5z" />
<glyph unicode="&#x2026;" horiz-adv-x="1724" d="M248 121q0 74 58.5 127t123.5 53q55 0 90 -34t35 -87q0 -72 -57.5 -126t-126.5 -54q-49 0 -86 31t-37 90zM745 121q0 74 58.5 127t124.5 53q55 0 90 -34t35 -87q0 -72 -57.5 -126t-127.5 -54q-49 0 -86 31t-37 90zM1243 121q0 74 58.5 127t123.5 53q55 0 90 -34t35 -87 q0 -72 -57 -126t-127 -54q-49 0 -86 31t-37 90z" />
<glyph unicode="&#x202f;" horiz-adv-x="374" />
<glyph unicode="&#x2039;" horiz-adv-x="837" d="M358 463q-14 23 11 41q236 186 393 444q10 18 31 19h16q14 0 19.5 -10.5t0.5 -22.5q-106 -246 -256 -451q47 -205 31 -450q-2 -12 -12 -22.5t-25 -10.5h-16q-18 0 -23 18q-25 252 -170 445z" />
<glyph unicode="&#x203a;" horiz-adv-x="837" d="M250 33q104 242 254 450q-45 209 -29 451q2 12 12.5 22.5t24.5 10.5h16q18 0 23 -19q25 -252 170 -444q14 -18 -10 -41q-236 -186 -394 -445q-10 -18 -30 -18h-17q-14 0 -19 10.5t-1 22.5z" />
<glyph unicode="&#x205f;" horiz-adv-x="468" />
<glyph unicode="&#x20ac;" horiz-adv-x="1359" d="M253 529.5q-5 11.5 1 25.5l22 41q10 20 33 20h90q6 43 19 86q8 43 24 86h-102q-14 0 -19.5 11.5t1.5 25.5l22 41q10 20 33 21h102q88 211 240 350q221 203 504 203q123 0 207 -68l102 62q6 6 18 6h21q27 0 20 -29l-71 -293q-8 -29 -37 -28h-70q-27 0 -22 24 q12 94 -29 160.5t-125 66.5q-88 0 -175 -44t-151 -119q-94 -113 -149 -291h532q14 0 20.5 -11.5t-1.5 -25.5l-21 -41q-10 -20 -32 -21h-527l-20 -86l-23 -86h461q14 0 20.5 -11t-2.5 -25l-22 -41q-10 -20 -33 -21h-444q-33 -182 4 -291q27 -76 91 -120t153 -44 q84 0 158.5 67t109.5 161q6 25 35 24h69q10 0 16.5 -8t4.5 -20l-74 -293q-8 -29 -35 -29h-20q-10 0 -17 6l-69 64q-117 -70 -242 -70q-133 0 -238.5 52.5t-162.5 150.5q-82 139 -66 350h-115q-14 0 -19 11.5z" />
<glyph unicode="&#x2122;" horiz-adv-x="2295" d="M367 598q0 35 43 35h55q27 0 50.5 1t37.5 3l12 2l176 707q-20 2 -51 2q-117 0 -162 -41t-90 -172q-6 -18 -11 -21.5t-26 -3.5q-35 0 -34 20l24 74l62 178q6 16 12 19.5t29 3.5h682q39 0 38 -23l-2 -18l-34 -223q-2 -14 -7.5 -21.5t-10.5 -8.5t-19 -1q-33 0 -33 23l2 16 q10 61 10 98q0 59 -29.5 80t-117.5 21h-43q-14 -2 -18.5 -4.5t-6.5 -16.5l-172 -690q49 -4 86 -4h55q39 0 39 -21q0 -37 -39 -37l-241 5l-238 -5q-28 0 -28 23zM1116 598q0 35 43 35q27 0 70 6q25 6 30 11t9 20l172 688q-29 4 -60 4h-28q-39 0 -39 20q0 37 43 37h237 q27 0 35 -5t10 -30l103 -636l426 643q18 29 55 28h227q39 0 39 -22.5t-10 -28.5t-33 -6l-75 -2q-16 -2 -20.5 -5t-8.5 -18l-174 -700q2 0 27.5 -2t31.5 -2h27q39 0 39 -21q0 -37 -35 -37q-29 0 -90.5 2.5t-90 2.5t-87 -2.5t-86.5 -2.5q-27 0 -27 23q0 35 43 35h27q20 0 49 4 q25 0 28 18l170 684h-2l-483 -733q-20 -31 -49 -31q-18 0 -25.5 8.5t-11.5 28.5l-113 709h-2l-168 -676q29 -12 84 -12q39 0 39 -21q0 -37 -32 -37q-23 0 -73 2.5t-75 2.5t-72 -2.5t-69 -2.5q-25 0 -25 23z" />
<glyph unicode="&#xe000;" horiz-adv-x="925" d="M0 925h925v-925h-925v925z" />
<glyph unicode="&#xfb01;" horiz-adv-x="1380" d="M-39 -252q0 66 44 110t101 44q45 0 74 -27t29 -68q0 -39 -22.5 -76.5t-65.5 -56.5q14 -8 35 -10l18 -4q61 0 94 145q25 109 49 236l142 772h-176q-66 0 -66 37q0 29 12.5 42t24.5 15t35 2h188q20 119 34.5 180.5t52.5 135t98 121.5q51 41 123.5 63.5t124 25.5t134.5 3 q72 0 120 -4t121 -18.5t112 -53.5t39 -98q0 -72 -46.5 -115t-99.5 -43q-45 0 -73.5 26.5t-28.5 67.5q0 86 82 131q-74 33 -223 33q-53 0 -89 -2t-69 -14.5t-52.5 -20.5t-39 -41t-29.5 -55.5t-24.5 -83t-22.5 -102l-25 -136.5h590q57 0 57 -28q0 -14 -4 -27l-161 -643 q-12 -43 -13 -90q0 -63 39 -64q70 0 123 222q10 39 19.5 46t46.5 7q57 0 57 -29q0 -14 -22.5 -83.5t-57.5 -125.5q-72 -111 -174 -110q-94 0 -166 53t-72 145q0 27 9 60l143 571h-432l-119 -647q-37 -188 -84 -311q-49 -123 -133 -196t-172 -73q-86 0 -147.5 44t-61.5 118z " />
<glyph unicode="&#xfb02;" horiz-adv-x="1441" d="M-39 -252q0 66 44 110t101 44q45 0 74 -27t29 -68q0 -55 -32 -89.5t-56 -45.5q18 -12 53 -12q59 0 94 143q23 92 45 213l148 797h-178q-63 0 -64 37q0 29 11.5 42t23.5 15t35 2h188l31 164q16 86 46 150.5t72 102.5t82 62.5t94 34t88 12.5t83 3q305 0 311 -162h2l23 88 q10 41 19 49t46 8h103q57 0 57 -28l-8 -37l-287 -1147q-12 -49 -12 -88q0 -63 39 -64q70 0 123 222q10 39 19 46t46 7q57 0 57 -29q0 -14 -22.5 -83.5t-56.5 -125.5q-72 -111 -175 -110q-94 0 -165.5 53t-71.5 145q0 27 8 60l143 571h-493l-119 -649q-12 -68 -49 -203 q-33 -117 -80 -197.5t-97 -115.5t-89 -48.5t-74 -13.5q-86 0 -147.5 44t-61.5 118zM696 909h500l70 285h-2q-4 -10 -17.5 -24.5t-44.5 -31t-63 -16.5q-45 0 -74 27t-29 68q0 80 72 124q-51 23 -129 23q-61 0 -102 -11.5t-63.5 -33t-31 -36.5t-16.5 -42q-27 -78 -70 -332z " />
<glyph unicode="&#xfb03;" horiz-adv-x="2140" d="M-39 -252q0 66 44 110t101 44q45 0 74 -27t29 -68q0 -39 -22.5 -76.5t-65.5 -56.5q14 -8 35 -10l18 -4q61 0 94 147q35 150 45 213l146 793h-176q-66 0 -66 37q0 29 12.5 42t24.5 15t35 2h188l29 158q18 98 56 169t81 109.5t103.5 60t108.5 27t112 5.5q309 0 309 -162 q0 -66 -44 -110t-102 -44q-45 0 -73.5 27t-28.5 68q0 82 74 124q-51 23 -127 23q-68 0 -111 -13.5t-66.5 -46t-32.5 -58t-22 -83.5l-47 -254h510l27 142q16 92 50 161.5t85 110.5t96 65.5t115 35t107.5 12.5t105.5 2q80 0 132 -4t124 -18.5t109.5 -53.5t37.5 -98 q0 -72 -46 -115t-99 -43q-45 0 -73.5 26.5t-28.5 67.5q0 86 82 131q-76 33 -238 33q-45 0 -78 -1t-63.5 -9t-51 -12.5t-40.5 -23.5l-32 -31q-11 -11 -25 -47l-20 -56q-7 -20 -19 -75l-18 -89q-7 -35 -20 -111h621q57 0 57 -28q0 -14 -4 -27l-162 -643q-12 -43 -12 -90 q0 -63 39 -64q70 0 123 222q10 39 19.5 46t45.5 7q57 0 58 -29q0 -14 -22.5 -83.5t-57.5 -125.5q-72 -111 -174 -110q-94 0 -166 53t-72 145q0 27 8 60l144 571h-461l-127 -676q-18 -104 -63 -227q-35 -96 -92.5 -165t-121 -100.5t-115.5 -45t-97 -13.5q-102 0 -177 41 t-75 123q0 63 43 107.5t102 44.5q45 0 73.5 -27t28.5 -68q0 -86 -77 -129q25 -12 55 -14l31 -4q59 0 115.5 49t74.5 103q35 92 72 292l131 709h-512l-117 -637q-4 -25 -18.5 -90.5t-49 -173t-73.5 -164.5q-37 -57 -102.5 -109.5t-147.5 -52.5q-88 0 -148.5 45t-60.5 117z " />
<glyph unicode="&#xfb04;" horiz-adv-x="2168" d="M-39 -252q0 66 44 110t101 44q45 0 74 -27t29 -68q0 -39 -22.5 -76.5t-65.5 -56.5q25 -14 53 -14q59 0 94 152l45 213l146 788h-176q-66 0 -66 37q0 29 11.5 42t23.5 15t35 2h190l31 172q37 203 147.5 280t284.5 77q143 0 210 -47.5t67 -116.5q0 -61 -44.5 -106.5 t-101.5 -45.5q-45 0 -73.5 27t-28.5 68q0 84 75 126q-41 20 -98 21q-102 0 -153 -55q-29 -29 -54 -166l-45 -234h512l19 103q6 33 19 90t26 85l33 70q20 43 43.5 63.5t58.5 48.5t77 39t97 20.5t121 9.5q305 0 311 -162h2l23 88q10 41 19 49t46 8h103q57 0 57 -28l-8 -37 l-287 -1147q-12 -49 -12 -88q0 -63 39 -64q70 0 123 222q10 39 19 46t46 7q57 0 57 -29q0 -14 -22.5 -83.5t-56.5 -125.5q-72 -111 -174 -110q-94 0 -166 53t-72 145q0 27 8 60l143 571h-491l-123 -663q-4 -25 -18.5 -85.5t-53 -163t-86.5 -155.5q-141 -160 -335 -160 q-100 0 -176 41t-76 123q0 63 43 107.5t102 44.5q45 0 73.5 -27t28.5 -68q0 -86 -77 -129q37 -18 86 -18q72 0 133 68q35 35 48 60.5t30 88.5q31 113 53 232l129 704h-510l-115 -623q-2 -12 -37 -167q-27 -104 -53 -173q-53 -129 -136 -196.5t-167 -67.5q-86 0 -147.5 44 t-61.5 118zM1425 909h498l70 285h-2q-4 -10 -17.5 -24.5t-44.5 -31t-63 -16.5q-45 0 -74 27t-29 68q0 80 72 124q-51 23 -129 23q-166 0 -205 -104q-27 -75 -76 -351z" />
</font>
</defs>
</svg>
