<?xml version="1.0" standalone="no"?>
<!DOCTYPE svg PUBLIC "-//W3C//DTD SVG 1.1//EN" "http://www.w3.org/Graphics/SVG/1.1/DTD/svg11.dtd" >
<svg xmlns="http://www.w3.org/2000/svg">
<metadata>
This is a custom SVG webfont generated by Font Squirrel.
Copyright   : Copyright 2003 2008 B Jackowski and J M Nowacki on behalf of TeX users groups This work is released under the GUST Font License   see httptugorgfontslicensesGUSTFONTLICENSEtxt for details
</metadata>
<defs>
<font id="webfontnNNWz6Q5" horiz-adv-x="1046" >
<font-face units-per-em="2048" ascent="1651" descent="-397" />
<missing-glyph horiz-adv-x="733" />
<glyph unicode=" "  horiz-adv-x="733" />
<glyph unicode="&#x09;" horiz-adv-x="733" />
<glyph unicode="&#xa0;" horiz-adv-x="733" />
<glyph unicode="!" horiz-adv-x="628" d="M231 88q0 51 41 90t90 39q43 0 68 -26.5t25 -61.5q0 -49 -41 -89t-92 -40q-39 0 -65 24.5t-26 63.5zM385 408l4 24l154 911q8 53 43 84t55.5 35t34.5 4q43 0 67.5 -25.5t24.5 -58.5q0 -14 -10 -43l-305 -921q-10 -25 -15.5 -30t-21.5 -5q-31 0 -31 25z" />
<glyph unicode="&#x22;" horiz-adv-x="821" d="M500 866l94 512q4 27 28.5 46.5t53.5 19.5t43 -19.5t6 -46.5l-164 -512h-61zM692 866l94 512q4 27 29 46.5t53.5 19.5t43 -19.5t6.5 -46.5l-164 -512h-62z" />
<glyph unicode="#" horiz-adv-x="1675" d="M236 313q0 41 69 41h322l155 316h-379q-68 0 -67.5 41t67.5 41h422l326 657q12 12 31 12q41 0 41 -41q0 -8 -11 -34l-294 -594h337l326 657q12 12 31 12q41 0 41 -41q0 -8 -11 -34l-294 -594h278q70 0 70 -41t-70 -41h-321l-156 -316h379q68 0 67.5 -41t-67.5 -41h-422 l-326 -657q-12 -12 -30 -12q-41 0 -41 41q0 8 10 34l295 594h-338l-326 -657q-12 -12 -31 -12q-41 0 -40 41q0 8 10 34l295 594h-279q-69 0 -69 41zM719 354h338l155 316h-338z" />
<glyph unicode="$" horiz-adv-x="1024" d="M195 295q18 174 127 174q29 0 54 -19.5t23 -62.5q-4 -41 -35.5 -73.5t-82.5 -32.5q-23 0 -35 6q-6 -115 62.5 -177.5t180.5 -68.5l154 612q-84 23 -126 42.5t-81 64.5q-80 88 -69 229q12 145 133 283.5t329 169.5q10 2 13 10q2 4 4 13.5t2 13.5l14 57h64l-21 -94 q143 -6 219 -86t66 -209q-20 -166 -127 -166q-35 0 -57.5 20.5t-20.5 59.5q4 45 38 76.5t79 31.5q20 0 35 -6q0 104 -71 158.5t-179 58.5l-139 -557q57 -14 82.5 -22t60.5 -30.5t65 -59.5q72 -109 62 -242q-16 -184 -158.5 -329.5t-322.5 -159.5l-23 -95h-63l22 95 q-129 6 -209.5 84.5t-68.5 230.5zM489 1069q-14 -180 199 -229l135 538q-131 -14 -227.5 -106t-106.5 -203zM555 43q137 18 234.5 123.5t107.5 224.5q8 111 -48 169t-147 77z" />
<glyph unicode="%" horiz-adv-x="1675" d="M297 -74q0 14 22 41l1174 1362v2q-129 -59 -250 -59q-158 0 -268 86q6 -29 6 -80q0 -201 -116.5 -384t-250.5 -183q-86 0 -140 73.5t-54 198.5q0 199 125 376t264 177q76 0 123 -66q113 -154 313 -153q113 0 221.5 51t175.5 131q31 37 52 37q16 0 27.5 -12.5t11.5 -28.5 q0 -14 -23 -43l-1329 -1540q-23 -27 -43 -27q-16 0 -28.5 12.5t-12.5 28.5zM524 920q0 -164 94 -164q100 0 201 174t101 358q0 82 -27 142.5t-84 60.5q-61 0 -117.5 -67.5t-91.5 -163t-55.5 -188.5t-20.5 -152zM1051 158q0 197 123.5 375t267.5 178q90 0 131 -81t41 -177 q0 -193 -116 -380.5t-253 -187.5q-88 0 -141 77t-53 196zM1155 94q0 -164 94 -164q63 0 134 79t119 205t48 249q0 90 -28.5 146.5t-79.5 56.5q-84 0 -153.5 -117t-101.5 -246t-32 -209z" />
<glyph unicode="&#x26;" horiz-adv-x="1570" d="M258 360q0 76 46 197t145 227l6 13l-4 14q-18 57 -19 123q0 195 136.5 363.5t299.5 168.5q102 0 159.5 -68.5t57.5 -166.5q0 -162 -108 -162q-37 0 -54.5 20.5t-17.5 45.5l4 24q2 25 32 50.5t81 25.5q-2 100 -48 143t-106 43q-90 0 -164.5 -94t-111.5 -217t-41 -236 q104 70 201 70q57 0 93 -32.5t36 -90.5q0 -72 -59.5 -129t-137.5 -57q-100 0 -166 65q-37 -68 -70.5 -183.5t-33.5 -197.5q0 -88 33.5 -153.5t91 -100t119 -50t126.5 -15.5q152 0 273 50t190.5 124t114.5 165t60.5 162.5t15.5 129.5q0 150 -107 287q-160 -98 -212 -149.5 t-52 -133.5q0 -29 6 -45q25 66 92 65q66 0 66 -63q0 -39 -27.5 -67.5t-70.5 -28.5q-55 0 -92 39.5t-37 105.5t43 127t83.5 91t110.5 73t113 74.5t104.5 102.5t93.5 153q-70 4 -69 63q0 43 30.5 69.5t65.5 26.5q27 0 47.5 -16t20.5 -47q0 -51 -67 -181t-194 -221 q117 -154 117 -319q0 -70 -19.5 -150.5t-71.5 -177t-129 -173.5t-208 -129t-293 -52q-244 0 -384 118.5t-140 286.5zM565 776q35 -96 123 -96q55 0 93 47t38 104q0 68 -67 68q-93 0 -187 -123z" />
<glyph unicode="'" horiz-adv-x="628" d="M500 866l94 512q4 27 28.5 46.5t53.5 19.5t43 -19.5t6 -46.5l-164 -512h-61z" />
<glyph unicode="(" horiz-adv-x="837" d="M311 96q0 201 67.5 466t221.5 517q115 188 260.5 322.5t175.5 134.5q20 0 21 -20q0 -6 -31 -37q-172 -147 -301 -360.5t-191.5 -425.5t-91 -380t-28.5 -290q0 -293 127 -486l14 -29q0 -20 -20 -20q-23 0 -77.5 79t-90.5 177q-56 153 -56 352z" />
<glyph unicode=")" horiz-adv-x="837" d="M37 -492q0 6 31 37q172 147 301 360.5t191.5 425.5t91 380t28.5 290q0 293 -127 486l-14 29q0 20 20 20q23 0 77 -79t91 -177q55 -154 55 -352q0 -201 -67.5 -466t-220.5 -517q-115 -188 -260.5 -322.5t-176.5 -134.5q-20 0 -20 20z" />
<glyph unicode="*" d="M399 891q0 39 50 61l307 144l-232 141q-29 18 -28 37q0 25 20.5 45t44.5 20q16 0 39 -22l184 -180l56 329q10 70 67 70q16 0 28.5 -10t12.5 -27l-8 -33l-109 -329l287 190q18 12 35 12q41 0 41 -41t-49 -61l-307 -143l231 -140q31 -18 31 -39q0 -25 -21.5 -45t-44.5 -20 q-18 0 -41 22l-184 181l-55 -330q-8 -70 -66 -70q-43 0 -43 37l8 33l111 330l-289 -191q-20 -12 -35 -12q-41 0 -41 41z" />
<glyph unicode="+" horiz-adv-x="1570" d="M287 512q0 41 67 41h529l133 537q12 51 45 51q18 0 29.5 -12.5t11.5 -28.5q0 -10 -8 -39l-127 -508h506q68 0 67.5 -41t-67.5 -41h-527l-133 -537q-14 -51 -45 -51q-41 0 -41 43l8 39l127 506h-508q-67 0 -67 41z" />
<glyph unicode="," horiz-adv-x="628" d="M150 -375q0 8 26 35q188 160 230 371q-39 -31 -84 -31q-90 0 -91 86q0 49 38 90t96 41q94 0 94 -121q0 -111 -65.5 -231.5t-133 -190t-90.5 -69.5q-20 0 -20 20z" />
<glyph unicode="-" horiz-adv-x="733" d="M176 410q0 18 14 61q6 18 14.5 22.5t39.5 4.5h399q20 0 28.5 -1t15.5 -6.5t7 -17.5q0 -16 -16 -65q-4 -16 -13.5 -20.5t-41.5 -4.5h-394q-23 0 -32 1t-15 7.5t-6 18.5z" />
<glyph unicode="." horiz-adv-x="628" d="M231 88q0 49 42 89t92 40q41 0 65.5 -26.5t24.5 -61.5q0 -47 -41 -88t-92 -41q-41 0 -66 24.5t-25 63.5z" />
<glyph unicode="/" d="M41 -471l14 39l1121 1931q23 37 47 37q16 0 27.5 -12.5t11.5 -28.5l-15 -39l-1120 -1931q-23 -37 -47 -37q-16 0 -27.5 12.5t-11.5 28.5z" />
<glyph unicode="0" d="M240 303q0 139 57 365.5t131 365.5q88 168 201.5 249t232.5 81q76 0 130.5 -29.5t81 -68.5t41.5 -93.5t18.5 -87t3.5 -69.5q0 -123 -49.5 -330t-112.5 -350q-90 -203 -215 -292t-246 -89q-66 0 -116 20.5t-77.5 57.5t-46 71.5t-24.5 81.5t-8 68.5t-2 48.5zM371 201 q0 -109 46 -155t107 -46q76 0 146.5 60.5t107.5 140.5q66 145 149 478t83 447q0 94 -45 143.5t-113 49.5q-63 0 -134 -47t-122 -152q-55 -115 -140 -455.5t-85 -463.5z" />
<glyph unicode="1" d="M240 25q0 27 13 32.5t44 5.5h16q115 0 148 16.5t45 70.5l242 970q-113 -84 -228 -84q-33 0 -33 25q0 33 33 39q203 20 361 231q27 33 39 33q25 0 24 -25l-6 -26l-293 -1170q-6 -25 -6 -39q0 -20 10 -26t47 -10q53 -4 88 -5h17q20 0 29.5 -1t16.5 -6t7 -17q0 -39 -41 -39 q-45 0 -137 3t-137 3q-43 0 -133.5 -3t-135.5 -3q-30 0 -30 25z" />
<glyph unicode="2" d="M172 -25l8 41q10 41 52 121t106 156q41 49 91 92t79 61.5l94 57.5q176 104 278.5 244.5t102.5 345.5q0 117 -53 171t-127 54q-115 0 -213 -104.5t-144.5 -221t-46.5 -192.5q0 -68 45 -68q82 0 141.5 105.5t59.5 171.5q0 35 -20 75l-2 13q0 23 22 22q18 0 31.5 -38 t13.5 -70q0 -47 -26.5 -119t-87 -138.5t-134.5 -66.5q-104 0 -104 129q0 43 19.5 108.5t59.5 141.5t94 142.5t133 110.5t165 44q131 0 225 -90t94 -256q0 -96 -30.5 -173t-104 -145.5t-152.5 -121t-214 -129.5q-215 -125 -316 -297q12 6 45 6q61 0 217 -35q98 -25 170 -25 q92 0 155 70t91 151q6 25 11.5 30t23.5 5q31 0 31 -20q0 -14 -19.5 -69.5t-55.5 -127t-104.5 -127t-150.5 -55.5q-80 0 -199 82q-111 76 -174 76q-78 0 -114 -131q-4 -16 -10.5 -21.5t-24.5 -5.5q-31 0 -31 20z" />
<glyph unicode="3" d="M195 217q0 160 108 160q33 0 51.5 -19.5t18.5 -46.5q0 -33 -29 -68.5t-86 -29.5q2 -106 63.5 -159.5t145.5 -53.5q143 0 244 121q68 78 96.5 190.5t28.5 171.5q0 170 -158 170h-57q-20 0 -29.5 1t-16 5.5t-6.5 14.5q0 20 7.5 29.5t16.5 11.5t30 2h47q94 0 165.5 41 t106.5 95t56.5 121.5t25.5 103.5t4 57q0 100 -52 142t-122 42q-145 0 -265 -114.5t-120 -239.5q0 -76 53 -76q47 0 86 38t39 89q0 18 -8 39l-8 20q-8 16 -8 23q0 23 22 22q16 0 31.5 -35.5t15.5 -66.5q0 -74 -54 -124t-116 -50q-55 0 -84.5 37t-29.5 94q0 137 137 263 t313 126q125 0 209 -73.5t84 -200.5q0 -123 -89 -243t-243 -171q164 -76 164 -260q0 -182 -159.5 -321.5t-356.5 -139.5q-125 0 -198.5 75.5t-73.5 186.5z" />
<glyph unicode="4" d="M90 37q0 20 28.5 41.5t51.5 32.5q20 16 60 51t130.5 139.5t161.5 220.5q190 309 303 740q10 37 16.5 53t24 32.5t45.5 16.5q55 0 56 -53l-17 -72q-14 -72 -61 -196.5t-117 -270t-195.5 -319.5t-281.5 -318q27 2 55 2q80 0 156 -22q20 -6 29.5 -11.5t95.5 -35.5l86 340 q20 88 82 88q8 0 18 -2t23.5 -15.5t13.5 -38.5q0 -10 -8 -41l-90 -364q10 -2 32 -2q66 0 123 22l29 8q12 0 21.5 -12t9.5 -22q0 -23 -70 -41.5t-121 -18.5q-29 0 -41 2l-75 -299q-18 -70 -78 -69q-55 0 -56 53q0 12 9 43l75 305l-120 47q-72 23 -150 23q-123 0 -158 -31 q-55 -41 -65 -41t-20.5 13.5t-10.5 21.5z" />
<glyph unicode="5" d="M219 240q0 186 119 186q35 0 54.5 -19.5t19.5 -50.5q0 -39 -30 -72.5t-79 -33.5q-14 0 -20 2q2 -133 64.5 -186.5t135.5 -53.5q70 0 148 49.5t139 161.5q35 66 68.5 197t33.5 213q0 182 -124 182q-156 0 -277 -141q-20 -20 -33 -21q-27 0 -26 25l4 27l155 622 q10 35 25 35q8 0 29 -10q96 -53 229 -54q135 0 264 58q16 6 25 6q18 0 18 -18.5t-52 -64.5t-151.5 -91t-201.5 -45q-78 0 -127 18l-27 6l-10 -24l-94 -377q121 94 254 94q127 0 197.5 -93t70.5 -224q0 -229 -168 -408.5t-369 -179.5q-125 0 -194.5 83t-69.5 202z" />
<glyph unicode="6" d="M246 324q0 145 51 347.5t168 366.5q111 156 242 241t258 85q92 0 145 -43t53 -119q0 -59 -27.5 -97t-78.5 -38q-37 0 -53.5 19.5t-16.5 46.5q0 14 5 32.5t32 42t72 23.5q-23 82 -133 82q-156 0 -297 -178q-117 -150 -191 -441q121 178 277 178q82 0 141 -34.5t89 -88 t43 -102.5t13 -94q0 -229 -161.5 -413.5t-356.5 -184.5q-78 0 -134 35t-81.5 78t-40 104t-16.5 90t-2 62zM379 199q0 -66 32.5 -126.5t112.5 -60.5q152 0 254 185q31 61 72 222t41 230q0 80 -37 129q-35 49 -109 49q-96 0 -170.5 -73.5t-114.5 -181t-60.5 -205.5t-20.5 -168 z" />
<glyph unicode="7" d="M295 885l12 30l197 418q10 23 16 27t23 4q31 0 30 -21l-47 -108q135 129 275 129q39 0 61.5 -21.5t27.5 -45t11 -72.5q4 -57 15.5 -79t41.5 -22q104 0 236 193l31 41q8 6 26 6q29 0 29 -21l-18 -34q-158 -242 -258 -459q-162 -344 -269 -760q-10 -43 -19 -67.5t-34 -46 t-61 -21.5q-29 0 -50.5 17.5t-21.5 50.5q0 12 15.5 72.5t70.5 211t139 316.5q70 139 277 479q-45 -23 -93 -23q-61 0 -100 70q-29 45 -42 58.5t-42 13.5q-35 0 -77 -12.5t-99 -45.5t-121.5 -105.5t-118.5 -176.5q-10 -16 -32 -17q-31 1 -31 21z" />
<glyph unicode="8" d="M199 236q0 43 13 89t49 110.5t119 131t206 123.5q-94 84 -107 101q-49 63 -49 157q0 156 132 286t298 130q115 0 195 -64.5t80 -177t-84 -212t-238 -173.5q127 -111 139 -125q59 -80 60 -186q0 -178 -151.5 -324.5t-344.5 -146.5q-135 0 -226 78t-91 203zM301 231 q0 -98 61.5 -158.5t159.5 -60.5q141 0 255 102.5t114 225.5q0 43 -16.5 78t-32 51t-49.5 47l-168 141q-147 -70 -235.5 -189.5t-88.5 -236.5zM543 1042q0 -78 57 -124l156 -132l18 -14q8 0 48 26.5t90.5 69.5t90 114t39.5 144q0 88 -52 137.5t-136 49.5q-119 0 -215 -84.5 t-96 -186.5z" />
<glyph unicode="9" d="M213 119q0 57 27.5 95t78.5 38q37 0 53.5 -19.5t16.5 -46.5q0 -12 -4 -29.5t-29.5 -42t-70.5 -28.5q33 -74 153 -74q139 0 269 160q121 154 194 455q-117 -178 -276 -178q-68 0 -120 24.5t-83 61t-50.5 83t-26.5 83t-7 69.5q0 227 164 410.5t364 183.5q76 0 130.5 -34 t80 -77t38.5 -103t15.5 -89t2.5 -62q0 -70 -13.5 -169t-71 -270t-149.5 -302q-86 -123 -209 -213t-256 -90q-98 0 -159.5 42t-61.5 122zM485 672q0 -178 146 -178q98 0 175 76.5t116 186t58 207t19 162.5q0 78 -32.5 132.5t-104.5 54.5q-66 0 -126 -40t-86.5 -75t-45.5 -70 q-41 -72 -80 -231t-39 -225z" />
<glyph unicode=":" horiz-adv-x="628" d="M231 88q0 49 42 89t92 40q41 0 65.5 -26.5t24.5 -61.5q0 -47 -41 -88t-92 -41q-41 0 -66 24.5t-25 63.5zM397 754q0 49 41 89t92 40q41 0 66 -26t25 -62q0 -49 -41 -89t-93 -40q-41 0 -65.5 25.5t-24.5 62.5z" />
<glyph unicode=";" horiz-adv-x="628" d="M150 -373q0 12 14 21q176 170 225 370q-37 -18 -67 -18q-90 0 -91 86q0 49 38 90t96 41q82 0 81 -108q0 -86 -37.5 -181.5t-87 -164t-93.5 -113.5t-58 -45q-20 -1 -20 22zM397 754q0 49 41 89t92 40q41 0 66 -26t25 -62q0 -49 -41 -89t-93 -40q-41 0 -65.5 25.5 t-24.5 62.5z" />
<glyph unicode="&#x3c;" horiz-adv-x="1593" d="M299 512q6 27 49 45l1268 535q31 14 41 14q16 0 25.5 -12.5t5.5 -28.5q-6 -25 -50 -45l-1202 -508l948 -508q33 -20 27 -45q-4 -16 -19.5 -28.5t-31.5 -12.5q-10 0 -33 14l-1001 535q-33 16 -27 45z" />
<glyph unicode="=" horiz-adv-x="1570" d="M236 313q0 41 69 41h1118q68 0 68 -41t-68 -41h-1118q-69 0 -69 41zM336 711q0 41 67 41h1119q70 0 69.5 -41t-69.5 -41h-1119q-67 0 -67 41z" />
<glyph unicode="&#x3e;" horiz-adv-x="1593" d="M160 -41q6 25 51 45l1202 508l-948 508q-35 18 -29 45q4 16 19.5 28.5t31.5 12.5q10 0 33 -14l1002 -535q35 -18 28.5 -45t-51.5 -45l-1268 -535q-31 -14 -41 -14q-16 0 -25 12.5t-5 28.5z" />
<glyph unicode="?" d="M397 948q0 29 19.5 87.5t61.5 133t97.5 141t137.5 111.5t170 45q111 0 178 -71.5t67 -182.5q0 -70 -21.5 -130t-62 -108t-68.5 -75t-73 -61l-160 -129q-109 -84 -138.5 -120t-29.5 -91q0 -70 52 -70q49 0 96 39t68 100q6 20 11 25.5t23 5.5q31 0 31 -20q0 -49 -68.5 -122 t-160.5 -73q-59 0 -91 43t-32 100q0 59 28.5 112.5t49 74t63.5 55.5l248 195q45 39 71.5 64.5t59.5 86t33 127.5q0 86 -50.5 133t-123.5 47q-121 0 -228.5 -106.5t-165.5 -265.5q78 0 78 -66q0 -41 -29.5 -70.5t-70.5 -29.5q-70 -1 -70 65zM440 88q0 51 41 90t90 39 q43 0 68 -26.5t25 -61.5q0 -49 -41 -89t-93 -40q-39 0 -64.5 24.5t-25.5 63.5z" />
<glyph unicode="@" horiz-adv-x="1570" d="M309 508q0 174 73 346t188.5 301t267 209t303.5 80q203 0 339 -143.5t136 -389.5q0 -154 -88 -417q-84 -231 -242 -232q-29 0 -58.5 8.5t-61 40t-33.5 84.5q-139 -133 -279 -133q-121 0 -202 88t-81 236q0 217 157 395t341 178q162 0 231 -174h54q20 0 27.5 -1t13.5 -5 t6 -14l-4 -27l-133 -539q-6 -37 -7 -41q0 -51 37 -51q63 0 116.5 80t83.5 189.5t45 202.5t15 139q0 209 -113.5 345t-301.5 136q-180 0 -358.5 -126t-293 -336t-114.5 -433q0 -207 110.5 -344t313.5 -137q260 0 528 122q33 14 70 15q23 0 32 -1t14 -5t5 -15q0 -20 -117 -60 t-186 -56q-178 -45 -348 -46q-231 0 -358.5 155t-127.5 376zM696 553q0 -90 39 -168t125 -78q94 0 192.5 88t114.5 154l82 332l6 28q0 16 -8 45t-26.5 67t-58.5 65.5t-93 27.5q-131 0 -252 -180t-121 -381z" />
<glyph unicode="A" horiz-adv-x="1521" d="M121 25l2 8q0 10 6 20t16 10q35 2 58.5 7.5t58.5 19.5t67.5 50t63.5 91l680 1199q20 37 53 36q25 0 30 -8t7 -43l88 -1282q4 -43 22.5 -56.5t94.5 -13.5q20 0 28.5 -1t14.5 -7t6 -18q0 -37 -37 -37q-35 0 -106.5 3t-108.5 3q-39 0 -118.5 -3t-116.5 -3q-31 0 -31 25 q0 39 47 38q137 0 137 66l-22 340h-467l-148 -258q-29 -53 -28 -78q0 -55 86 -70q33 -4 33 -24q0 -39 -37 -39q-31 0 -94.5 3t-96.5 3q-27 0 -83 -3t-80.5 -3t-24.5 25zM629 532h428l-47 670z" />
<glyph unicode="B" horiz-adv-x="1441" d="M133 25q0 27 12.5 32.5t42.5 5.5q100 0 128 15.5t40 71.5l277 1112q8 29 8 38q0 23 -28.5 29t-90.5 6q-23 0 -32 1t-16 6.5t-7 17.5q0 27 12.5 33t42.5 6h637q160 0 252 -81t92 -198q0 -123 -110.5 -235.5t-290.5 -153.5q121 -14 202.5 -88t81.5 -194 q0 -166 -157.5 -307.5t-368.5 -141.5h-676q-20 0 -28.5 1t-15.5 6.5t-7 17.5zM498 84q0 -8 2 -12t16 -6.5t45 -2.5h254q162 0 275.5 128t113.5 284q0 31 -6 60.5t-23.5 72.5t-62.5 70t-111 27h-352l-143 -576q0 -2 -4 -19.5t-4 -25.5zM662 750h270q166 0 278.5 121.5 t112.5 261.5q0 31 -6 59.5t-24.5 64t-60.5 57t-102 21.5h-241q-53 0 -70.5 -10t-30.5 -63z" />
<glyph unicode="C" horiz-adv-x="1466" d="M307 502q0 233 127 454.5t328 354.5t407 133q201 0 310 -174l129 151q12 14 22 19l10 4q20 0 23 -21q0 -12 -4 -28l-125 -498q-6 -25 -12 -31t-25 -6q-31 0 -31 21q0 2 2 22l6 50q3 30 3 53q0 154 -71 264t-220 110q-123 0 -254 -72.5t-232 -209.5q-109 -150 -162 -348.5 t-53 -325.5q0 -203 103.5 -304.5t249.5 -101.5q150 0 304 120t226 358q6 16 33 16q31 0 31 -20q0 -43 -43 -127t-117 -177.5t-199 -163t-264 -69.5q-217 0 -359.5 149.5t-142.5 397.5z" />
<glyph unicode="D" horiz-adv-x="1546" d="M129 25q0 27 12.5 32.5t42.5 5.5q100 0 128 15.5t40 71.5l277 1112q8 29 8 38q0 23 -28.5 29t-90.5 6q-23 0 -32 1t-16 6.5t-7 17.5q0 27 12 33t43 6h639q197 0 313.5 -139.5t116.5 -362.5q0 -225 -112.5 -434t-294 -336t-371.5 -127h-629q-20 0 -28.5 1t-15.5 6.5 t-7 17.5zM500 84q0 -8 2 -12t16 -6.5t45 -2.5h211q236 0 410 203q115 135 174 356.5t59 352.5q0 186 -94 273t-233 87h-199q-53 0 -70.5 -11t-29.5 -62l-283 -1133q0 -2 -4 -19.5t-4 -25.5z" />
<glyph unicode="E" horiz-adv-x="1388" d="M127 25q0 27 12.5 32.5t42.5 5.5q100 0 128 15.5t40 71.5l275 1097l8 47q0 12 -4 18.5t-32 11.5t-83 5q-25 0 -34 1t-15 7t-6 19q0 25 12 31t43 6h956q20 0 26.5 -1t16.5 -7q8 -4 8 -10q0 -2 -1 -14t0 -22l-47 -362q-2 -20 -4.5 -28.5t-9.5 -12.5t-21 -4q-31 0 -31 24 q0 14 4 35q10 82 10 131q0 115 -56 161t-216 46h-256q-53 0 -69.5 -10t-28.5 -59l-125 -504h166q121 0 167 39t76 151q0 2 2 8q8 29 13.5 35t23.5 6q33 0 33 -24l-6 -27l-113 -450q-6 -27 -12 -34t-25 -7q-33 0 -32 24l4 23q18 68 18 104q0 47 -28.5 67.5t-125.5 20.5h-178 l-141 -563q0 -2 -4 -19.5t-4 -25.5t2 -12t16.5 -6.5t44.5 -2.5h250q96 0 168 18.5t120 45.5t90 85t69.5 113.5t68.5 153.5q14 35 20.5 42t22.5 7q31 0 31 -22l-8 -25l-182 -448q-10 -23 -18.5 -28t-39.5 -5h-981q-20 0 -28.5 1t-15.5 6.5t-7 17.5z" />
<glyph unicode="F" horiz-adv-x="1337" d="M127 25q0 27 12.5 32.5t42.5 5.5q100 0 128 15.5t40 71.5l275 1097l8 47q0 12 -4 18.5t-32 11.5t-83 5q-25 0 -34 1t-15 7t-6 19q0 25 12 31t43 6h932q20 0 26.5 -1t16.5 -7q8 -4 8 -10q0 -2 -1.5 -14t-0.5 -22l-47 -362q-2 -20 -4 -28.5t-9.5 -12.5t-21.5 -4 q-31 0 -31 24l2 33q12 94 13 135q0 113 -53.5 159t-210.5 46h-240q-53 0 -69.5 -10t-28.5 -59l-131 -531h159q121 0 166 40t74 157q8 29 14 36t25 7q31 0 31 -23q0 -12 -5 -28l-112 -451q-8 -29 -14.5 -35t-24.5 -6q-31 0 -31 25q0 8 6 28q16 66 17 101q0 45 -29 65.5 t-123 20.5h-170l-129 -516q-8 -31 -8 -44q0 -16 5 -23t39 -13.5t105 -6.5h21q20 0 28.5 -1t15.5 -6t7 -17q0 -39 -43 -39q-45 0 -140 3t-142 3q-41 0 -125 -3t-125 -3q-29 0 -29 25z" />
<glyph unicode="G" horiz-adv-x="1585" d="M307 502q0 233 127 454.5t328 354.5t407 133q201 0 310 -174l129 151q12 14 22 19l10 4q20 0 23 -21q0 -12 -4 -28l-125 -498q-6 -25 -12 -31t-25 -6q-31 0 -31 21q0 2 2 22l6 50q3 30 3 53q0 154 -71 264t-220 110q-123 0 -254 -72.5t-232 -209.5q-111 -152 -163 -349.5 t-52 -322.5q0 -195 103.5 -301.5t259.5 -106.5q164 0 278 105q45 41 60.5 79t50.5 183q16 57 16 70q0 14 -7 21t-16 9t-36 7q-53 4 -88 4h-16q-53 0 -54 22q0 41 43 41t133.5 -3t135.5 -3q33 0 100.5 3t97.5 3q27 0 27 -27q0 -25 -12.5 -30.5t-36.5 -5.5q-43 0 -65.5 -8.5 t-28 -19.5t-13.5 -40l-98 -391q-10 -35 -25 -35q-16 0 -43.5 41t-42.5 82q-51 -66 -159.5 -118t-237.5 -52q-221 0 -362.5 150.5t-141.5 396.5z" />
<glyph unicode="H" horiz-adv-x="1521" d="M127 25q0 27 12.5 32.5t42.5 5.5q100 0 128 15.5t40 71.5l277 1112q8 29 8 38q0 23 -28.5 29t-90.5 6q-23 0 -32 1t-16 6.5t-7 17.5q0 39 39 39t122 -3t123.5 -3t121.5 3t120 3q29 0 29 -27q0 -25 -12.5 -31t-49.5 -6q-94 0 -121.5 -15t-39.5 -67l-123 -493h561l125 502 q8 29 8 38q0 23 -28.5 29t-90.5 6q-23 0 -32 1t-16 6.5t-7 17.5q0 39 39 39t122 -3t124 -3t121.5 3t119.5 3q29 0 29 -27q0 -25 -12.5 -31t-49.5 -6q-94 0 -121.5 -15t-39.5 -67l-277 -1108l-8 -47q0 -12 4 -18t31.5 -11.5t83.5 -5.5q25 0 34 -1t15 -7t6 -18q0 -37 -39 -37 t-122 3t-124 3t-121.5 -3t-119.5 -3q-29 0 -29 25q0 27 12.5 32.5t42.5 5.5q100 0 128 15.5t40 71.5l135 546h-561l-137 -557q-8 -29 -8 -41t4 -18t31.5 -11.5t83.5 -5.5q25 0 34 -1t15 -7t6 -18q0 -37 -39 -37t-122 3t-124 3t-121.5 -3t-119.5 -3q-29 0 -29 25z" />
<glyph unicode="I" horiz-adv-x="790" d="M117 27q0 25 12 30.5t49 5.5q100 0 130 15.5t42 68.5l279 1115q6 18 6 38q0 23 -31 29t-98 6q-25 0 -34 1t-15 7.5t-6 18.5q0 37 38 37q43 0 129.5 -3t126.5 -3q43 0 127 3t125 3q29 0 29 -25q0 -27 -13.5 -33t-49.5 -6q-100 0 -129 -15t-41 -69l-277 -1106l-8 -45 q0 -14 4 -20t33.5 -11.5t89.5 -5.5q25 0 34 -1t16 -6t7 -17q0 -39 -41 -39t-126 3t-128 3t-127 -3t-125 -3q-28 0 -28 27z" />
<glyph unicode="J" horiz-adv-x="1075" d="M193 176q0 45 13 77t29.5 47t38 23.5t30.5 9.5t15 1q35 0 59.5 -21.5t24.5 -58.5q0 -43 -33.5 -82t-88.5 -39q-18 0 -23 2q12 -61 60.5 -98t111.5 -37q82 0 160 89t108 208l238 954q8 29 8 41q0 20 -11 26.5t-50 12.5q-37 4 -95 4h-24q-20 0 -28.5 1t-15.5 6.5t-7 17.5 q0 39 43 39q45 0 138 -3t140 -3q35 0 106.5 3t104.5 3q29 0 29 -25q0 -27 -12.5 -33t-40.5 -6q-66 0 -88.5 -14t-32.5 -59l-240 -967q-35 -141 -158.5 -240.5t-267.5 -99.5q-102 0 -171.5 60.5t-69.5 160.5z" />
<glyph unicode="K" horiz-adv-x="1574" d="M127 25q0 27 12.5 32.5t42.5 5.5q100 0 128 15.5t40 71.5l277 1112q8 29 8 38q0 23 -28.5 29t-90.5 6q-23 0 -32 1t-16 6.5t-7 17.5q0 39 39 39t122 -3t123.5 -3t121.5 3t120 3q29 0 29 -27q0 -25 -12.5 -31t-49.5 -6q-94 0 -121.5 -15t-39.5 -67l-162 -653l721 600 q68 55 67 94q0 37 -53 41q-29 0 -29 25q0 39 39 39q35 0 109 -3t110 -3q25 0 73 3t69 3q23 0 22 -25q0 -35 -37 -39q-133 -12 -321 -168l-377 -313l268 -711q18 -47 43 -62t80 -18q37 0 37 -24q0 -39 -35 -39q-29 0 -92 3t-94 3q-39 0 -116 -3t-114 -3q-29 0 -28 27 q0 37 39 36q104 0 104 68q0 10 -12 41l-213 571l-285 -235l-71 -295q-27 -96 -27 -115q0 -12 4 -18t31.5 -11.5t83.5 -5.5q25 0 34 -1t15 -7t6 -18q0 -37 -39 -37t-122 3t-124 3t-121.5 -3t-119.5 -3q-29 0 -29 25z" />
<glyph unicode="L" horiz-adv-x="1284" d="M127 25q0 27 12.5 32.5t42.5 5.5q100 0 128 15.5t40 71.5l277 1112q8 29 8 38q0 23 -28.5 29t-90.5 6q-23 0 -32 1t-16 6.5t-7 17.5q0 39 39 39q41 0 125 -3t127 -3q47 0 142 3t140 3q31 0 31 -25q0 -27 -12.5 -33t-44.5 -6h-21q-119 0 -150.5 -17.5t-45.5 -74.5 l-279 -1114q0 -2 -4 -19.5t-4 -25.5t2 -12t16.5 -6.5t44.5 -2.5h166q92 0 166 29t119 65t86 102.5t58.5 108.5t43.5 115q12 31 17.5 38t23.5 7q31 0 31 -24l-8 -27l-156 -440q-10 -27 -18.5 -32t-40.5 -5h-877q-20 0 -28.5 1t-15.5 6.5t-7 17.5z" />
<glyph unicode="M" horiz-adv-x="1837" d="M135 25q0 39 39 38q80 4 129 34t70 110l262 1055q8 29 8 38q0 23 -28.5 29t-90.5 6q-23 0 -32 1t-16 6.5t-7 17.5q0 27 12.5 33t42.5 6h273q39 0 47 -6.5t10 -38.5l115 -1149l696 1157q16 27 27.5 32t46.5 5h262q20 0 29.5 -1t15.5 -7.5t6 -18.5q0 -25 -12 -31t-49 -6 q-94 0 -122 -15t-40 -67l-277 -1108l-8 -47q0 -12 4 -18t32 -11.5t83 -5.5q25 0 34 -1t15 -7t6 -18q0 -37 -39 -37q-37 0 -117.5 3t-119.5 3t-118 -3t-116 -3q-29 0 -28 25q0 27 12 32.5t43 5.5q100 0 128 15.5t40 71.5l289 1159h-2l-764 -1272q-20 -37 -49 -37 q-14 0 -21.5 6t-9.5 13.5t-4 29.5l-125 1241h-2l-273 -1087q-8 -33 -8 -51q0 -16 3 -27.5t13.5 -26t37 -23.5t67.5 -12q39 0 39 -26q0 -37 -37 -37q-31 0 -99.5 3t-101 3t-98 -3t-96.5 -3q-27 0 -27 25z" />
<glyph unicode="N" horiz-adv-x="1521" d="M127 25q0 39 39 38q164 6 199 144l270 1085l6 27q0 16 -125 16q-23 0 -32 1t-16 6.5t-7 17.5q0 27 12 33t43 6h256q33 0 40 -5t17 -30l383 -1065l226 899q8 33 8 49q0 84 -123 88q-37 0 -37 25q0 39 37 39q31 0 98.5 -3t100 -3t99.5 3t97 3q27 0 27 -27q0 -37 -31 -37 q-174 -6 -207 -139l-286 -1155q-8 -27 -15.5 -34t-25.5 -7q-20 0 -26.5 5t-14.5 30l-441 1222l-264 -1054q-8 -33 -8 -51q0 -16 3 -27.5t13.5 -26t37 -23.5t67.5 -12q39 0 39 -26q0 -37 -37 -37q-31 0 -99.5 3t-101.5 3t-98.5 -3t-95.5 -3q-27 0 -27 25z" />
<glyph unicode="O" horiz-adv-x="1570" d="M303 483q0 231 122 455.5t319.5 365t402.5 140.5q201 0 334 -144.5t133 -390.5q0 -240 -124 -463t-318.5 -357t-397.5 -134q-209 0 -340 147.5t-131 380.5zM487 420q0 -184 81 -298t220 -114q119 0 246 91t223 257q80 137 131.5 319.5t51.5 319.5q0 195 -89 296.5 t-218 101.5q-131 0 -260.5 -96.5t-213.5 -245.5q-94 -164 -133 -343t-39 -288z" />
<glyph unicode="P" horiz-adv-x="1388" d="M129 25q0 27 12.5 32.5t42.5 5.5q100 0 128 15.5t40 71.5l277 1112q8 29 8 38q0 23 -28.5 29t-90.5 6q-23 0 -32 1t-16 6.5t-7 17.5q0 27 12 33t43 6h615q164 0 263 -86t99 -217q0 -176 -168 -312.5t-366 -136.5h-318l-125 -508q-8 -29 -8 -41t4 -18t31.5 -11.5 t83.5 -5.5q25 0 34 -1t15 -7t6 -18q0 -37 -39 -37t-122 3t-124 3t-121.5 -3t-119.5 -3q-29 0 -29 25zM651 700h258q190 0 297 119q51 59 80 170t29 162q0 94 -66.5 139t-181.5 45h-176q-55 0 -71.5 -10t-28.5 -63z" />
<glyph unicode="Q" horiz-adv-x="1570" d="M303 483q0 231 122 455.5t319.5 365t402.5 140.5q201 0 334 -144.5t133 -390.5q0 -276 -167 -531t-419 -366q2 -129 33 -173t90 -44q63 0 127.5 50.5t97.5 150.5q8 27 25 27q23 0 22 -25l-18 -61q-18 -61 -52 -136t-101.5 -136.5t-149.5 -61.5q-162 0 -162 188 q0 61 21 195q-92 -31 -187 -31q-209 0 -340 147.5t-131 380.5zM477 414q0 -125 46 -230.5t147 -152.5q-10 27 -11 57q0 78 58.5 146.5t140.5 68.5q150 0 164 -217q115 74 203 201t132 261t64.5 244.5t20.5 190.5q0 184 -84 297t-225 113q-115 0 -237 -81t-214 -222 q-102 -158 -153.5 -353.5t-51.5 -322.5zM705 88q0 -82 83 -82q86 0 181 47q2 16 2 57.5t-3 66t-30 53t-78 28.5q-63 0 -109 -55.5t-46 -114.5z" />
<glyph unicode="R" horiz-adv-x="1492" d="M129 25q0 27 12.5 32.5t42.5 5.5q100 0 128 15.5t40 71.5l277 1112q8 29 8 38q0 23 -28.5 29t-90.5 6q-23 0 -32 1t-16 6.5t-7 17.5q0 27 12 33t43 6h541q186 0 298.5 -88t112.5 -215q0 -121 -111.5 -234.5t-318.5 -167.5q80 -29 128.5 -91t48.5 -146q0 -55 -17 -181 q-12 -106 -12 -155q0 -39 4 -61.5t19.5 -41t43.5 -18.5q49 0 91.5 48t68.5 132l6 20.5t9.5 10.5t19.5 4q31 0 31 -27q0 -18 -20.5 -68t-78 -107.5t-135.5 -57.5q-106 0 -180 55.5t-74 161.5q0 33 31 164q35 139 35 162q0 100 -56.5 140t-136.5 40h-221l-133 -539 q-8 -29 -8 -41t4 -18t31.5 -11.5t83.5 -5.5q25 0 34 -1t15 -7t6 -18q0 -37 -39 -37q-41 0 -123 3t-121 3t-118.5 -3t-118.5 -3q-29 0 -29 25zM657 723h207q193 0 303 106q49 49 79 129t35 121t5 64q0 55 -23.5 94t-53 57.5t-83 28.5t-85 11t-87.5 1q-104 0 -118 -4 q-31 -8 -45 -69z" />
<glyph unicode="S" horiz-adv-x="1150" d="M152 -25q0 6 6 27l106 428q6 23 12.5 29t24.5 6q31 0 31 -23l-2 -12q-16 -59 -17 -125q0 -147 89.5 -217t218.5 -70q133 0 237.5 124t104.5 268q0 90 -45 147q-25 27 -50.5 38t-107.5 36l-101 28q-74 20 -88 27q-164 76 -163 270q0 180 145 334t329.5 154t266.5 -139 l92 114q20 25 31 25q20 0 22 -21q0 -12 -4 -28l-106 -424q-6 -25 -12.5 -31t-24.5 -6q-31 0 -31 20l2 29q10 57 10 113q0 129 -58 209.5t-191 80.5q-129 0 -230.5 -110.5t-101.5 -239.5q0 -135 104 -180q23 -8 113 -33q154 -45 193.5 -63.5t76.5 -63.5q68 -84 68 -209 q0 -199 -147.5 -365.5t-338.5 -166.5q-217 0 -313 141q-55 -74 -96 -116q-20 -25 -33 -25q-22 0 -22 20z" />
<glyph unicode="T" horiz-adv-x="1466" d="M358 948l11 35l120 367q8 27 17.5 31.5t42.5 4.5h1050q20 0 28.5 -1t16 -6t7.5 -17q0 -18 -2 -27l-62 -366q-4 -29 -10 -36t-27 -7q-31 0 -30 26l4 31q20 121 20 184q0 96 -50 126t-210 30q-90 0 -106 -4q-33 -4 -48 -68l-274 -1101q-8 -29 -8 -39q0 -23 12 -31t55 -12 l41 -2l62 -3h31q51 0 51 -22q0 -41 -43 -41q-51 0 -160 3t-162 3q-51 0 -157.5 -3t-159.5 -3q-35 0 -35 25q0 27 13.5 32.5t43.5 5.5h33q129 0 166 17.5t51 75.5l275 1099q8 25 8 45q0 8 -2 12.5t-12.5 7.5t-32.5 3h-70q-199 0 -272.5 -58.5t-145.5 -273.5q-20 -53 -26 -59 t-23 -6q-31 -1 -31 22z" />
<glyph unicode="U" horiz-adv-x="1521" d="M414 340q0 66 16 131l197 791q8 29 8 38q0 23 -28.5 29t-90.5 6q-23 0 -32 1t-16 6.5t-7 17.5q0 39 39 39t122 -3t123.5 -3t121.5 3t120 3q29 0 29 -27q0 -25 -12.5 -31t-49.5 -6q-94 0 -121.5 -15t-39.5 -67l-205 -823q-20 -90 -21 -156q0 -129 64.5 -192.5t154.5 -63.5 q147 0 287.5 128t188.5 323l182 729q8 33 8 49q0 84 -123 88q-37 0 -37 25q0 39 37 39q31 0 97.5 -3t99.5 -3t97.5 3t94.5 3q27 0 27 -27q0 -37 -31 -37q-174 -6 -207 -139l-186 -750q-45 -182 -201.5 -336.5t-341.5 -154.5q-152 0 -258 104.5t-106 280.5z" />
<glyph unicode="V" horiz-adv-x="1521" d="M428 1360q0 39 37 39q33 0 103.5 -3t105.5 -3q39 0 118.5 3t116.5 3q29 0 29 -25q0 -27 -12.5 -33t-38.5 -6q-129 0 -129 -63l104 -1073l592 989q31 53 31 82q0 61 -82 65q-33 4 -33 25q0 39 37 39q29 0 93.5 -3t94.5 -3q27 0 79 3t77 3q14 0 21 -10l6 -13q0 -37 -35 -41 h-4q-68 -6 -121 -38.5t-109 -127.5l-702 -1175q-16 -27 -26.5 -33t-30.5 -6q-23 0 -29 9t-10 40l-123 1262q-2 31 -8.5 42t-29 19t-73.5 8q-49 0 -49 25z" />
<glyph unicode="W" horiz-adv-x="2045" d="M426 1360q0 39 37 39q31 0 99.5 -3t101.5 -3q37 0 114.5 3t116.5 3q29 0 29 -25q0 -27 -12.5 -33t-39.5 -6q-49 0 -78.5 -8t-40 -25.5t-13.5 -28.5t-1 -34l45 -1001l478 876q12 20 12 41l-8 137q-4 25 -20.5 34t-78.5 9q-43 0 -43 25q0 39 37 39q31 0 99.5 -3t101.5 -3 q39 0 116.5 3t114.5 3q29 0 29 -23q0 -18 -8 -28.5t-14.5 -11.5t-18.5 -1q-90 -2 -117.5 -22.5t-27.5 -52.5l2 -15l45 -1007l518 954q23 41 22 65q0 72 -104 78q-33 0 -33 25q0 39 39 39q33 0 101.5 -3t101.5 -3q25 0 76 3t73 3q16 0 21 -10l4 -13q0 -39 -29 -41 q-76 -6 -121 -39.5t-96 -128.5l-641 -1175q-20 -37 -53 -37q-12 0 -19.5 2t-11.5 10t-5 14.5t-1 24.5l-45 1020l-563 -1030q-14 -25 -22.5 -33t-31 -8t-28.5 9t-8 42l-58 1264q-2 29 -5 40t-23.5 18t-65.5 7q-49 0 -49 25z" />
<glyph unicode="X" horiz-adv-x="1521" d="M104 25l2 8q0 10 6.5 20t16.5 10q51 4 85 9.5t98.5 41.5t119.5 99l426 485l-211 572q-10 27 -18 38t-36 19t-81 8q-49 0 -49 25q0 39 39 39q33 0 103.5 -3t105.5 -3q41 0 120.5 3t118.5 3q29 0 29 -27q0 -37 -33 -37q-51 -4 -84 -24.5t-33 -34.5l9 -25l149 -407l303 348 q43 51 43 82q0 51 -73 61q-25 0 -25 25q0 39 37 39q33 0 105.5 -3t107.5 -3q31 0 90 3t88 3q27 0 27 -24.5t-10.5 -31t-32.5 -8.5q-72 -4 -133.5 -33.5t-86 -52t-61.5 -61.5l-25 -21l-333 -383l243 -659q8 -25 16.5 -35t36 -18.5t80.5 -8.5q20 0 28.5 -1t15 -7t6.5 -18 q0 -37 -37 -37q-33 0 -104.5 3t-106.5 3q-39 0 -119 -3t-119 -3q-31 0 -30 25q0 35 32 38q51 2 84 22.5t33 39.5l-6 25l-180 489l-394 -449l-2 -4q-4 -8 -8 -12q-16 -23 -16 -49q0 -55 71 -62q27 0 27 -22q0 -41 -39 -41q-33 0 -104.5 3t-106.5 3q-31 0 -91 -3t-89 -3 q-25 0 -25 25z" />
<glyph unicode="Y" horiz-adv-x="1521" d="M414 1360q0 39 39 39q33 0 105.5 -3t107.5 -3q41 0 120.5 3t118.5 3q29 0 29 -25q0 -27 -11.5 -33t-33.5 -6q-115 0 -115 -49l8 -26l195 -615l448 547q4 0 28 37t24 59q0 43 -64 47q-31 0 -31 25q0 39 37 39q31 0 94.5 -3t96.5 -3q27 0 79 3t76 3q16 0 21 -10l4 -13 q0 -27 -9 -33t-30 -8q-76 -6 -139.5 -44t-132.5 -124l-484 -587q-12 -14 -24 -56l-64 -252q-39 -162 -39 -174q0 -23 29 -29t90 -6q23 0 32 -1t16 -6t7 -17q0 -39 -38.5 -39t-120.5 3t-123 3q-39 0 -119 -3t-119 -3q-29 0 -28 25q0 27 12 32.5t39 5.5q113 2 136.5 18.5 t43.5 102.5q94 358 94 375q0 10 -8 31l-217 684q-10 37 -36 49t-95 12q-49 0 -49 25z" />
<glyph unicode="Z" horiz-adv-x="1255" d="M164 18q0 25 22 52l1059 1265h-287q-117 0 -199.5 -27.5t-133 -85t-78 -110.5t-53.5 -137v-2q-8 -23 -14.5 -29t-22.5 -6q-31 0 -31 23l6 26l111 371q10 29 18 35t41 6h793q20 0 28.5 -1t13.5 -5t5 -13q0 -25 -25 -53l-1055 -1257h302q104 0 182 23.5t126 56t87 96 t58.5 113t47.5 137.5q12 37 18.5 44t22.5 7q33 0 33 -25l-10 -33l-139 -452q-8 -27 -16.5 -32t-43.5 -5h-819q-47 0 -47 18z" />
<glyph unicode="[" horiz-adv-x="628" d="M150 -487l6 26l489 1958q8 29 15.5 34t41.5 5h158q20 0 29.5 -1t16.5 -6t7 -18l-14 -47q-10 -10 -47 -10h-133l-471 -1884h121q20 0 29.5 -1t16.5 -6t7 -18l-14 -47q-10 -10 -48 -10h-157q-20 0 -29.5 1t-16.5 6.5t-7 17.5z" />
<glyph unicode="\" horiz-adv-x="1024" d="M489 1458v37q2 16 18.5 28.5t33.5 12.5q29 0 32 -45l215 -1925l3 -37q-4 -16 -19.5 -28.5t-32.5 -12.5q-31 0 -34 45z" />
<glyph unicode="]" horiz-adv-x="628" d="M-29 -487l15 47q10 10 47 10h133l471 1884h-121q-20 0 -29.5 1t-16.5 6t-7 18l14 47q10 10 47 10h158q20 0 29.5 -1t16.5 -6t7 -18l-6 -26l-489 -1958q-8 -29 -15.5 -34t-42.5 -5h-157q-20 0 -29.5 1t-17 6.5t-7.5 17.5z" />
<glyph unicode="^" horiz-adv-x="1138" d="M289 1196l661 328l498 -328l-35 -45l-495 252l-617 -252z" />
<glyph unicode="_" horiz-adv-x="1521" d="M-94 -256q8 31 39 31h1521q12 0 19.5 -9.5t3.5 -21.5q-8 -31 -39 -31h-1522q-12 0 -19 9.5t-3 21.5z" />
<glyph unicode="`" d="M627 1368q12 27 38.5 42t47.5 15q29 0 47 -34l145 -291q10 -20 4 -31q-6 -12 -22.5 -23.5t-26.5 -11.5t-20 17l-205 252q-26 26 -8 65z" />
<glyph unicode="a" d="M221 295q0 223 149.5 416.5t319.5 193.5q117 0 170 -121q16 80 82 80q55 0 55 -53q0 -14 -8 -43l-139 -557q-14 -57 -14 -105q0 -84 53 -83q76 0 137 243q8 33 14.5 40t24.5 7q31 0 31 -20l-19 -76q-20 -76 -43 -125q-55 -115 -149 -115q-59 0 -106.5 36t-63.5 108 q-117 -143 -246 -144q-113 0 -180.5 91.5t-67.5 226.5zM360 205q0 -68 25 -125t88 -57q76 0 159 85t97 146l96 387l6 27q0 72 -38.5 132t-102.5 60q-61 0 -125.5 -65.5t-103.5 -161.5q-31 -72 -66 -214t-35 -214z" />
<glyph unicode="b" horiz-adv-x="942" d="M236 289q0 100 22 168l203 809q6 0 6 34q0 12 -4 18.5t-27.5 11.5t-70.5 5q-49 0 -50 23q0 18 7.5 27.5t15.5 11.5t24 4l203 16q12 4 33 4q29 0 29 -24l-6 -27l-144 -573q115 109 217 108q100 0 173 -83t73 -236q0 -225 -148.5 -417t-320.5 -192q-109 0 -172 89.5 t-63 222.5zM352 219q0 -104 36 -150t83 -46q68 0 127 65.5t90 128.5q43 94 79 243.5t36 217t-25.5 125t-87.5 57.5q-104 0 -215 -151q-29 -39 -45 -95q-78 -305 -78 -395z" />
<glyph unicode="c" horiz-adv-x="942" d="M225 315q0 223 163 406.5t355 183.5q96 0 158 -50t62 -126q0 -55 -31 -89t-74 -34q-33 0 -51.5 19.5t-18.5 46.5l3 22q4 23 29.5 47.5t70.5 30.5q-33 88 -146 88q-72 0 -143.5 -53t-124.5 -152q-39 -74 -73.5 -207t-34.5 -215q0 -94 41 -152t120 -58q35 0 79 7t133 57 t157 136q18 23 27 23q12 0 22 -12.5t10 -20.5q0 -20 -50 -73.5t-156.5 -108t-225.5 -54.5q-135 0 -218 93t-83 245z" />
<glyph unicode="d" d="M221 295q0 223 149.5 416.5t319.5 193.5q115 0 172 -119l119 480q6 0 6 34q0 12 -4 18.5t-27.5 11.5t-70.5 5q-49 0 -49 23q0 18 7 27.5t15 11.5t25 4l202 16q12 4 33 4q29 0 29 -24l-6 -27l-293 -1169q-12 -49 -12 -95q0 -84 53 -83q76 0 137 243q8 33 14.5 40t24.5 7 q31 0 31 -20l-19 -76q-20 -76 -43 -125q-55 -115 -149 -115q-59 0 -106.5 36t-63.5 108q-117 -143 -246 -144q-113 0 -180.5 91.5t-67.5 226.5zM360 205q0 -68 25 -125t88 -57q76 0 158 83.5t96 143.5l98 393q6 18 6 27q0 66 -40 131q-39 59 -100.5 59t-126 -65.5 t-103.5 -161.5q-31 -72 -66 -214t-35 -214z" />
<glyph unicode="e" horiz-adv-x="942" d="M233 336q0 252 164 410.5t344 158.5q94 0 150.5 -50t56.5 -124q0 -14 -3 -31.5t-16.5 -53.5t-50 -70.5t-92.5 -57.5q-115 -45 -297 -45h-79q-35 -135 -35 -225q0 -51 10 -96.5t47 -87t98 -41.5q35 0 79 7t133 57t157 136q18 23 27 23q12 0 22 -12.5t10 -20.5 q0 -20 -50 -73.5t-156.5 -108t-225.5 -54.5q-139 0 -216 106t-77 253zM422 518h43q31 0 55.5 1t78.5 6t95 19.5t85 37t67.5 62.5t23.5 91q0 53 -34.5 89t-94.5 36q-20 0 -48.5 -8t-83 -36t-105.5 -104.5t-82 -193.5z" />
<glyph unicode="f" horiz-adv-x="628" d="M-51 -285q0 51 30.5 82t71.5 31q27 0 48.5 -17.5t21.5 -48.5q0 -35 -23.5 -63.5t-66.5 -36.5q27 -37 82 -37q76 0 116 176q25 88 58 254l149 764h-127q-51 0 -51 23q0 29 12.5 35t42.5 6h136l43 225q70 336 266 336q68 0 118 -36t50 -99q0 -51 -31 -82t-72 -31 q-27 0 -48 17.5t-21 48.5q0 35 23.5 63.5t66.5 36.5q-31 37 -86 37q-35 0 -59.5 -35t-33 -64.5t-20.5 -85.5l-65 -331h159q20 0 29.5 -1t16 -7.5t6.5 -18.5q0 -25 -12.5 -31t-43.5 -6h-168l-143 -735q-12 -59 -27.5 -115.5t-52.5 -159t-97.5 -166t-133.5 -63.5 q-63 0 -113.5 36t-50.5 99z" />
<glyph unicode="g" horiz-adv-x="942" d="M109 -301q0 53 32.5 80.5t67.5 27.5q37 0 54.5 -20t17.5 -45q0 -27 -18.5 -54.5t-47.5 -39.5q55 -23 145 -23q113 0 195 96q41 49 57.5 90.5t36.5 125.5l43 172q-109 -109 -217 -109q-113 0 -181.5 90t-68.5 223q0 217 146.5 404.5t318.5 187.5q115 0 172 -117 q6 39 31 57.5t49 18.5q55 0 55 -53q0 -12 -8 -43l-223 -897q-31 -123 -142.5 -207t-267.5 -84q-247 0 -247 119zM365 223q0 -18 3 -38.5t12 -56.5t34.5 -59.5t64.5 -23.5q76 0 158 83t96 142l92 373l6 29q0 12 -5 37.5t-18 61.5t-44 62.5t-74 26.5q-57 0 -119.5 -58.5 t-101.5 -144.5q-33 -76 -68.5 -219t-35.5 -215z" />
<glyph unicode="h" d="M154 31l4 26l303 1209q6 0 6 34q0 12 -4 18.5t-27.5 11.5t-70.5 5q-49 0 -50 23q0 18 7.5 27.5t15.5 11.5t24 4l203 16q12 4 33 4q29 0 29 -24l-6 -27l-150 -598q45 43 70.5 64.5t82 45t119.5 23.5q90 0 151.5 -49t61.5 -164q0 -125 -125 -456q-37 -111 -36 -154 q0 -59 45 -59q115 0 190 256q6 25 11.5 29.5t23.5 4.5q31 0 31 -20q0 -10 -14.5 -55t-43 -105.5t-83 -108t-119.5 -47.5q-72 0 -114 47.5t-42 116.5q0 45 33 131q119 340 118 453q0 135 -94 135q-152 0 -272 -194q-39 -70 -57 -144q-4 -23 -16.5 -66.5t-16.5 -66.5l-88 -354 q-6 -20 -26.5 -39t-49.5 -19q-27 0 -42 17t-15 37z" />
<glyph unicode="i" horiz-adv-x="628" d="M170 590q0 10 15.5 55t43 105.5t83 107.5t120.5 47q63 0 108.5 -42t45.5 -122q0 -43 -25 -114l-131 -351q-53 -152 -53 -196q0 -57 45 -57q121 0 190 256q6 25 11.5 29.5t23.5 4.5q31 0 31 -20q0 -10 -14.5 -54t-42 -105.5t-83 -109t-120.5 -47.5q-76 0 -116 49.5 t-40 114.5q0 41 37 142l76 202l61 170q37 100 37 148q0 57 -45 57q-121 0 -190 -258q-6 -23 -12.5 -28t-24.5 -5q-31 1 -31 21zM510 1210q0 49 41 89t90 40q43 0 67.5 -26.5t24.5 -61.5q0 -49 -41 -89t-90 -40q-43 0 -67.5 25.5t-24.5 62.5z" />
<glyph unicode="j" horiz-adv-x="628" d="M-72 -299q0 49 33 77.5t68 28.5q37 0 54 -20t17 -45l-2 -21q-2 -18 -20.5 -41.5t-50.5 -33.5q37 -20 82 -21q68 0 121 66.5t71 118t23 75.5l196 789q14 57 15 104q0 82 -56 82q-137 0 -239 -256q-6 -18 -10.5 -24.5t-9.5 -8.5t-19 -2q-31 0 -31 21q0 10 21.5 56 t57.5 106.5t99.5 106.5t132.5 46q82 0 129 -54t47 -130q0 -37 -10 -68l-190 -766q-31 -123 -129.5 -215t-221.5 -92q-68 0 -123 29t-55 92zM510 1210q0 49 41 89t90 40q43 0 67.5 -26.5t24.5 -61.5q0 -49 -41 -89t-90 -40q-43 0 -67.5 25.5t-24.5 62.5z" />
<glyph unicode="k" horiz-adv-x="942" d="M154 31l4 26l303 1209q6 0 6 34q0 12 -4 18.5t-27.5 11.5t-70.5 5q-49 0 -50 23q0 18 7.5 27.5t15.5 11.5t24 4l203 16q12 4 33 4q29 0 29 -24l-6 -27l-209 -835q53 25 92 61.5t129 140.5q143 168 266 168q63 0 96 -38t33 -85q0 -53 -31.5 -83.5t-70.5 -30.5 q-37 0 -54.5 20.5t-17.5 44.5q0 14 5 31.5t28.5 41t62.5 30.5l-16 12q-14 12 -39 12q-49 0 -101.5 -33.5t-84 -66.5t-103.5 -115q-86 -98 -145 -135q272 -39 272 -213q0 -29 -10 -72q-16 -82 -16 -114q0 -88 59 -88q33 0 58.5 21.5t44 63.5t29.5 74.5t24 83.5q8 33 14 40 t25 7q31 0 30 -20q0 -12 -22.5 -86t-50.5 -123q-61 -106 -158 -107q-68 0 -120 49.5t-52 149.5q0 35 8 70q6 29 6 51q0 55 -38 94t-80 55.5t-89 22.5l-104 -416q-16 -76 -80 -76q-27 0 -42 17t-15 37z" />
<glyph unicode="l" horiz-adv-x="524" d="M193 162q0 31 12 80l256 1024q6 0 6 34q0 12 -4 18.5t-27.5 11.5t-70.5 5q-49 0 -50 23q0 18 7.5 27.5t15.5 11.5t24 4l203 16q12 4 33 4q29 0 29 -24l-6 -27l-293 -1169q-12 -49 -13 -95q0 -84 54 -83q76 0 131 229l14 51q6 10 29 10q31 0 30 -20q0 -10 -20.5 -87 t-42.5 -122q-55 -106 -145 -107q-74 0 -123 52.5t-49 132.5z" />
<glyph unicode="m" horiz-adv-x="1675" d="M170 590l20 78q20 78 46 129q57 109 147 108q68 0 115 -44t57 -118q119 162 293 162q82 0 143.5 -42t71.5 -138q123 180 307 180q88 0 151.5 -48t63.5 -165q0 -125 -125 -456q-37 -111 -37 -154q0 -59 45 -59q115 0 191 256q6 25 11 29.5t24 4.5q31 0 30 -20 q0 -10 -14 -55t-43 -105.5t-83 -108t-120 -47.5q-72 0 -113.5 47.5t-41.5 116.5q0 45 32 131q119 340 119 453q0 135 -94 135q-160 0 -289 -221q-23 -39 -51 -147l-17 -67q-11 -44 -16 -67l-82 -327q-20 -53 -73 -54q-29 0 -43.5 16.5t-14.5 37.5q0 10 6 28l134 533 q18 84 18 133q0 135 -94 135q-160 0 -289 -221q-23 -39 -51 -147q-4 -23 -16.5 -67t-16.5 -67l-82 -327q-20 -53 -74 -54q-29 0 -43 16.5t-14 37.5q0 10 6 28l154 615q14 57 14 104q0 82 -53 82q-45 0 -77 -61.5t-62 -182.5q-8 -33 -13.5 -40t-25.5 -7q-31 1 -31 21z" />
<glyph unicode="n" horiz-adv-x="1150" d="M170 590l20 78q20 78 46 129q57 109 147 108q68 0 115 -44t57 -118q20 31 50 62t98.5 65.5t144.5 34.5q90 0 151.5 -49t61.5 -164q0 -125 -125 -456q-37 -111 -37 -154q0 -59 45 -59q115 0 191 256q6 25 11 29.5t23 4.5q31 0 31 -20q0 -10 -14.5 -55t-43 -105.5 t-82.5 -108t-120 -47.5q-72 0 -114 47.5t-42 116.5q0 45 33 131q119 340 119 453q0 135 -94 135q-158 0 -277 -203q-35 -57 -61 -165q-4 -23 -16.5 -67t-16.5 -67l-82 -327q-20 -53 -74 -54q-29 0 -43 16.5t-14 37.5q0 10 6 28l154 615q14 57 14 104q0 82 -53 82 q-45 0 -77 -61.5t-62 -182.5q-8 -33 -13.5 -40t-25.5 -7q-31 1 -31 21z" />
<glyph unicode="o" d="M225 315q0 223 163 406.5t355 183.5q133 0 216 -94t83 -242q0 -223 -162.5 -407.5t-355.5 -184.5q-131 0 -215 91t-84 247zM369 233q0 -104 45 -157t110 -53q74 0 145.5 58t118.5 146q45 86 78 217t33 205q0 92 -42 151.5t-116 59.5q-63 0 -130.5 -48t-123.5 -138 q-47 -80 -82.5 -219.5t-35.5 -221.5z" />
<glyph unicode="p" d="M29 -373q0 39 43 39q61 2 80.5 13.5t31.5 58.5l234 938q14 57 14 102q0 82 -53 82q-45 0 -77 -61.5t-62 -182.5q-8 -33 -13.5 -40t-25.5 -7q-31 0 -31 21l20 78q20 78 46 129q57 109 147 108q51 0 101.5 -31.5t66.5 -111.5q123 143 248 143q100 0 172.5 -83t72.5 -236 q0 -227 -148 -418t-318 -191q-70 0 -113 39t-59 80l-74 -299q-23 -90 -23 -98q0 -12 4 -18.5t28 -10.5t73 -4t49 -24q0 -39 -39 -39q-31 0 -98.5 3t-100.5 3q-29 0 -87 -3t-85 -3q-24 -1 -24 24zM436 213q0 -20 8.5 -58t43 -85t87.5 -47q68 0 127.5 65.5t90.5 128.5 q43 94 78.5 243.5t35.5 217t-25.5 125t-86.5 57.5q-78 0 -160 -84t-96 -147l-97 -387q-6 -25 -6 -29z" />
<glyph unicode="q" horiz-adv-x="942" d="M221 295q0 223 149.5 416.5t319.5 193.5q123 0 176 -131q25 43 69 86t60 43q23 0 23 -22l-6 -27l-281 -1118l-6 -37q0 -12 4 -18.5t27.5 -10.5t73 -4t49.5 -24q0 -39 -39 -39q-33 0 -102.5 3t-104.5 3t-103.5 -3t-101.5 -3q-27 0 -27 24q0 27 12.5 33t37.5 6 q96 2 116.5 16.5t38.5 81.5l80 322q-113 -109 -217 -109q-113 0 -180.5 91.5t-67.5 226.5zM360 205q0 -68 25 -125t88 -57q76 0 158 83.5t96 143.5l98 393q6 18 6 27q0 66 -40 131q-39 59 -100.5 59t-126 -65.5t-103.5 -161.5q-31 -72 -66 -214t-35 -214z" />
<glyph unicode="r" horiz-adv-x="864" d="M170 590l20 78q20 78 46 129q57 109 147 108q57 0 105.5 -35.5t64.5 -111.5q106 147 248 147q72 0 136 -29.5t64 -99.5q0 -53 -32.5 -80.5t-67.5 -27.5q-37 0 -54.5 20.5t-17.5 44.5q0 10 4.5 25.5t22.5 39t51 33.5q-41 29 -108 29q-61 0 -114.5 -39t-87.5 -96t-48 -88 l-21 -47l-133 -537q-18 -76 -80 -76q-29 0 -43 16.5t-14 37.5q0 10 6 28l154 615q14 57 14 104q0 82 -53 82q-45 0 -77 -61.5t-62 -182.5q-8 -33 -13.5 -40t-25.5 -7q-31 1 -31 21z" />
<glyph unicode="s" horiz-adv-x="837" d="M156 176q0 63 31.5 95t72.5 32q33 0 51.5 -18.5t18.5 -46.5l-2 -23q-4 -23 -30 -48.5t-73 -29.5q37 -115 197 -114q59 0 108.5 17t77 44t47 59.5t26.5 59t7 49.5q0 39 -14.5 66.5t-45 44t-54 23.5t-68.5 17q-27 6 -43.5 10.5t-48 20t-50 34.5t-34 54t-15.5 80 q0 102 82 202.5t242 100.5q98 0 158.5 -50t60.5 -124q0 -59 -27.5 -86t-60.5 -27t-47 17.5t-14 40t19.5 50.5t62.5 34q-29 100 -154 100q-106 0 -156.5 -65.5t-50.5 -122.5q0 -41 23.5 -66.5t46 -34t61.5 -16.5q35 -8 58.5 -14t62.5 -24.5t62.5 -41t42 -62.5t18.5 -91 q0 -33 -10.5 -73t-38 -89t-68.5 -89t-110.5 -67t-157.5 -27q-113 0 -188.5 54.5t-75.5 144.5z" />
<glyph unicode="t" horiz-adv-x="679" d="M186 844q0 27 13.5 33t44.5 6h174l80 325q20 74 80 74q55 0 55 -53q0 -14 -8 -43l-76 -303h164q20 0 28.5 -1t15.5 -6.5t7 -17.5q0 -27 -13.5 -33t-43.5 -6h-175l-151 -608q-14 -57 -14 -105q0 -84 55 -83q78 0 138.5 77.5t96.5 173.5q12 29 17.5 34t23.5 5q31 0 31 -20 q0 -8 -20.5 -54t-56.5 -106.5t-99.5 -108t-134.5 -47.5q-78 0 -126 53.5t-48 131.5q0 29 10 69l147 588h-163q-20 0 -28.5 1t-16 6.5t-7.5 17.5z" />
<glyph unicode="u" horiz-adv-x="1099" d="M170 590q0 10 15.5 55t44 106.5t83 107.5t119.5 46q68 0 112 -45t44 -121q0 -41 -27 -110q-119 -324 -119 -449q0 -158 111 -157q109 0 188 118q16 25 29 68l150 598q18 76 79 76q29 0 43.5 -16.5t14.5 -37.5q0 -10 -6 -28l-148 -590q-14 -57 -14 -105q0 -84 53 -83 q76 0 137 243q8 33 14.5 40t24.5 7q31 0 31 -20l-19 -76q-20 -76 -43 -125q-55 -115 -149 -115q-123 0 -164 123q-98 -123 -227 -123q-94 0 -162 57.5t-68 180.5q0 115 107 401q49 137 49 185q0 59 -45 59q-123 0 -190 -258q-6 -23 -12.5 -28t-24.5 -5q-31 1 -31 21z" />
<glyph unicode="v" horiz-adv-x="942" d="M170 590q0 10 15.5 55t44 106.5t83 107.5t119.5 46q68 0 112 -45t44 -121q0 -31 -23 -102q-121 -322 -121 -444q0 -66 30 -118t104 -52q82 0 150.5 79.5t105 186t56 190.5t19.5 115q0 102 -55 162q-27 31 -27 55q0 35 32 64.5t67 29.5q43 0 63.5 -38t20.5 -97 q0 -25 -12.5 -102.5t-44 -198.5t-78 -228.5t-127 -185.5t-177.5 -78q-104 0 -178 58.5t-74 187.5q0 106 105 393q49 137 49 185q0 59 -45 59q-123 0 -190 -258q-6 -23 -12.5 -28t-24.5 -5q-31 1 -31 21z" />
<glyph unicode="w" horiz-adv-x="1359" d="M170 590q0 10 15.5 55t44 106.5t83 107.5t119.5 46q68 0 112 -45t44 -121q0 -41 -25 -108q-117 -309 -117 -430q0 -20 3.5 -41t14.5 -56.5t44 -58t82 -22.5q70 0 121 78.5t51 113.5q0 63 16 129l117 467q18 72 78 72q29 0 43 -16.5t14 -37.5q0 -14 -33 -135l-86 -344 q-25 -98 -24 -157q0 -74 31.5 -122t103.5 -48q125 0 205 190q31 74 65.5 199t34.5 182q0 102 -55 162q-27 31 -27 55q0 35 32 64.5t66 29.5q43 0 63.5 -38t20.5 -97q0 -82 -47 -270.5t-94 -292.5q-96 -229 -270 -230q-88 0 -148.5 36t-85.5 96q-78 -131 -198.5 -131.5 t-192.5 63.5q-70 63 -69 188q0 109 102 387q49 137 49 185q0 59 -45 59q-123 0 -190 -258q-6 -23 -12.5 -28t-24.5 -5q-31 1 -31 21z" />
<glyph unicode="x" horiz-adv-x="950" d="M109 104q0 49 30.5 80t71.5 31q70 0 70 -65q0 -29 -19.5 -59t-60.5 -40q35 -29 90 -28q43 0 76.5 24.5t57.5 75.5t36 91t28 105l48 187q43 176 43 225q0 61 -27 95t-72 34q-68 0 -136.5 -65.5t-106.5 -190.5q-8 -25 -12.5 -30t-24.5 -5q-31 0 -31 20.5t21.5 70 t58.5 105.5t100.5 98t134.5 42q145 0 197 -139q25 47 76 93t125 46q61 0 119.5 -29.5t58.5 -99.5q0 -53 -33 -80.5t-67 -27.5q-37 0 -54.5 20.5t-17.5 44.5l2 21q2 20 22.5 44.5t57.5 32.5q-33 29 -90 29q-121 0 -181 -219l-69 -281q-39 -166 -39 -206q0 -72 28.5 -101.5 t67.5 -29.5q70 0 137.5 65.5t106.5 190.5q8 25 13 29.5t24 4.5q31 0 30 -20q0 -18 -20.5 -66.5t-57 -106t-100 -100.5t-137.5 -43q-55 0 -111.5 31t-83.5 109q-80 -139 -200 -140q-74 0 -127 35t-53 92z" />
<glyph unicode="y" horiz-adv-x="995" d="M170 590q0 10 15.5 55t44 106.5t83 107.5t119.5 46q68 0 112 -45t44 -121q0 -41 -27 -110q-119 -324 -119 -449q0 -158 111 -157q82 0 142.5 62t74.5 120l150 602q18 76 79 76q29 0 43.5 -16.5t14.5 -37.5q0 -4 -3 -13t-3 -15l-201 -807q-41 -162 -170 -288t-281 -126 q-86 0 -141 48t-55 128q0 51 22.5 83t43 38t38.5 6q29 0 49.5 -17.5t20.5 -48t-22.5 -61t-65.5 -37.5l-17 -6q0 -20 32 -54t95 -34q94 0 186.5 99.5t145.5 328.5q-76 -76 -184 -76q-94 0 -162 57.5t-68 180.5q0 115 107 401q49 137 49 185q0 59 -45 59q-123 0 -190 -258 q-6 -23 -12.5 -28t-24.5 -5q-31 1 -31 21z" />
<glyph unicode="z" horiz-adv-x="837" d="M127 -2q0 18 67.5 113.5t145.5 171.5l336 333q20 20 82 91q-53 0 -121 30q-82 37 -123 37q-53 0 -95 -29.5t-57 -66.5q-8 -18 -13 -23.5t-23 -5.5q-31 0 -31 23q0 51 70.5 142t169.5 91q66 0 124 -80q53 -74 97 -73q29 0 54.5 23.5t72.5 103.5q10 18 15 22t24 4 q29 0 28 -20q0 -18 -69.5 -115.5t-149.5 -177.5l-297 -293q-43 -43 -115 -125q10 2 37 2q47 0 127 -35q74 -33 115 -32q68 0 132.5 48t90.5 124q6 20 11.5 26t23.5 6q31 0 31 -20q0 -33 -34 -103.5t-109.5 -141.5t-165.5 -71q-29 0 -54.5 13.5t-38 27t-34.5 39.5 q-31 43 -49.5 58.5t-49.5 15.5q-27 0 -51.5 -12.5t-50 -42t-31.5 -38.5l-29 -42q-10 -18 -32 -19q-31 1 -31 21z" />
<glyph unicode="{" horiz-adv-x="1024" d="M274 504q0 4 2 8q4 23 33 23q129 8 238 92q49 41 67.5 86t55.5 196l94 375q31 109 164 180.5t291 71.5q35 0 36 -12q0 -4 -2 -11q-6 -18 -24 -22q-145 -8 -250 -94q-45 -35 -62.5 -78t-48.5 -166l-92 -369q-8 -35 -19.5 -59.5t-42 -69.5t-94 -81.5t-153.5 -61.5 q190 -59 184 -211q-4 -41 -43 -186l-76 -308q-20 -78 -18 -98q0 -66 51 -118t160 -58q29 -2 29 -14q0 -4 -2 -8q-4 -23 -45 -23q-172 0 -267 78q-59 51 -63 115.5t22 148.5l103 406q18 61 7 104t-29.5 71.5t-54.5 45t-63.5 23.5t-58.5 9q-29 3 -29 15z" />
<glyph unicode="|" horiz-adv-x="569" d="M133 -444l477 1912q18 68 59.5 68t22.5 -68l-477 -1912q-18 -68 -57 -68q-43 0 -25 68z" />
<glyph unicode="}" horiz-adv-x="1024" d="M25 -489q6 18 24 22q68 4 122 21.5t74.5 32l55.5 40.5q43 35 60.5 78t48.5 166l92 369q8 35 19 59.5t42 69.5t95.5 81.5t154.5 61.5q-193 57 -186 211q0 4 43 186l78 308q18 80 18 98q0 66 -51 118t-162 58q-29 2 -29 14q0 4 2 8q6 23 47 23q168 0 265 -78 q59 -51 63 -115.5t-22 -148.5l-103 -406q-18 -61 -7 -104t29.5 -71.5t54.5 -45t63.5 -23.5t58.5 -9q29 -2 29 -23q-6 -23 -35 -23q-133 -8 -236 -92q-49 -41 -67.5 -85t-57.5 -197l-94 -375q-31 -109 -163 -180.5t-290 -71.5q-14 0 -20 1t-12 6.5t-4 15.5z" />
<glyph unicode="~" horiz-adv-x="1138" d="M106 430l134 90q49 33 135 72q92 37 160 37q84 0 186 -70q41 -27 61.5 -39t57.5 -24.5t75 -12.5q137 0 351 146l18 -35l-133 -90q-45 -33 -133 -72q-92 -37 -160 -37q-88 0 -186 70q-113 76 -195 76q-141 0 -350 -146z" />
<glyph unicode="&#xa2;" horiz-adv-x="942" d="M225 315q0 213 151.5 392.5t336.5 195.5l10 41q8 31 39 31q12 0 19 -9.5t3 -21.5l-10 -41q86 -8 137.5 -56t51.5 -118q0 -55 -31 -89t-74 -34q-33 0 -51.5 19.5t-18.5 46.5l3 22q4 23 29.5 47.5t70.5 30.5q-27 76 -127 88l-209 -835q72 4 166 48t178 150q18 23 27 23 q12 0 22 -12.5t10 -20.5q0 -14 -30.5 -49t-80.5 -77t-133 -74.5t-171 -35.5l-8 -38q-12 -31 -39 -31q-14 0 -20.5 9t-2.5 22l10 41q-117 16 -187.5 106t-70.5 229zM369 233q0 -180 125 -206l206 827q-131 -31 -223 -199q-39 -74 -73.5 -207t-34.5 -215z" />
<glyph unicode="&#xa3;" horiz-adv-x="1574" d="M180 78q0 74 80 140.5t189 66.5q63 0 120 -25q8 23 58 207l53 213h-107q-49 0 -49 20.5t7.5 29.5t16.5 11t32 2h116l80 328q37 152 159 263.5t257 111.5q115 0 176.5 -78t61.5 -194q0 -190 -113 -191q-27 0 -48.5 17.5t-21.5 48.5q0 45 37 77q25 20 82 21v35 q0 104 -46 161.5t-126 57.5q-78 0 -155.5 -73t-120.5 -224l-91 -361h158q49 0 49 -20.5t-7 -29.5t-16.5 -11t-31.5 -2h-168l-82 -334q-16 -66 -61 -141q127 -90 178 -117t117 -27q84 0 159.5 60.5t106.5 146.5q8 25 13 30t24 5q31 0 30 -20q0 -72 -108.5 -189t-261.5 -117 q-74 0 -130.5 29t-187.5 121q-55 -68 -136 -109t-155 -41q-57 0 -97 26t-40 75zM256 76q0 -20 15.5 -36.5t45.5 -16.5q51 0 109.5 38.5t101.5 112.5q-59 27 -116 27q-63 0 -109.5 -41t-46.5 -84z" />
<glyph unicode="&#xa5;" horiz-adv-x="1521" d="M368.5 372.5q8.5 30.5 37.5 30.5h374q39 152 39 156q0 10 -8 31l-10 31h-340q-31 0 -23 30.5t37 30.5h307l-188 592q-10 37 -36 49t-95 12q-49 0 -49 25q0 39 39 39q33 0 105.5 -3t107.5 -3q41 0 120.5 3t118.5 3q29 0 29 -25q0 -27 -11.5 -33t-33.5 -6q-115 0 -115 -49 l8 -26l183 -578h43l417 510q4 0 28 37t24 59q0 43 -64 47q-31 0 -31 25q0 39 37 39q31 0 94.5 -3t96.5 -3q27 0 79 3t76 3q16 0 21 -10l4 -13q0 -27 -9 -33t-30 -8q-76 -6 -139.5 -44t-132.5 -124l-400 -485h310q12 0 19 -9t5 -22q-8 -31 -39 -30h-346l-33 -41 q-12 -14 -24 -56l-31 -121h379q12 0 19.5 -9t4.5 -21q-8 -31 -38 -31h-379l-19 -70q-39 -162 -39 -174q0 -23 29 -29t90 -6q23 0 32 -1t16 -6t7 -17q0 -39 -38.5 -39t-120.5 3t-123 3q-39 0 -119 -3t-119 -3q-29 0 -28 25q0 27 12 32.5t39 5.5q113 2 136.5 18.5t43.5 102.5 l41 158h-375q-31 0 -22.5 30.5z" />
<glyph unicode="&#xa8;" d="M549 1212q0 45 37 81t82 36q39 0 60.5 -23.5t21.5 -56.5q0 -45 -37 -80.5t-80 -35.5q-39 0 -61.5 23t-22.5 56zM911 1212q0 45 37 81t82 36q39 0 60.5 -23.5t21.5 -56.5q0 -45 -37 -80.5t-80 -35.5q-39 0 -61.5 23t-22.5 56z" />
<glyph unicode="&#xa9;" horiz-adv-x="1398" d="M0 700q0 289 205 494t495 205q289 0 494 -205t205 -494q0 -291 -205 -495.5t-494 -204.5q-291 0 -495.5 204.5t-204.5 495.5zM82 700q0 -256 181 -437t437 -181t436.5 181t180.5 437q0 254 -181.5 435.5t-435.5 181.5q-256 0 -437 -180.5t-181 -436.5zM305 582 q0 215 162 389t354 174q119 0 185 -105l77 93l19 12q8 0 12 -6l2 -6q0 -2 -1 -8.5t-1 -8.5l-76 -299q-4 -20 -22.5 -20t-18.5 12q6 0 7 74q0 92 -42 158.5t-133 66.5q-74 0 -151.5 -44t-136.5 -126q-66 -90 -97.5 -209t-31.5 -194q0 -121 61.5 -181.5t149.5 -60.5t181 71.5 t136 213.5q4 10 18 10q18 0 19 -13q0 -72 -108.5 -196.5t-264.5 -124.5q-129 0 -214 90.5t-85 237.5z" />
<glyph unicode="&#xab;" horiz-adv-x="1150" d="M389 481q-8 16 8 27q229 203 381 467q8 14 23 14h4q23 0 14 -24q-119 -252 -297 -469q72 -221 62 -471q0 -8 -8.5 -16.5t-18.5 -8.5h-4q-16 0 -16 14q-17 260 -148 467zM702 481q-8 16 9 27q229 203 381 467q6 14 22 14h4q23 0 15 -24q-119 -252 -297 -469 q72 -221 61 -471q0 -8 -8 -16.5t-19 -8.5h-4q-16 0 -16 14q-17 260 -148 467z" />
<glyph unicode="&#xad;" horiz-adv-x="733" d="M176 410q0 18 14 61q6 18 14.5 22.5t39.5 4.5h399q20 0 28.5 -1t15.5 -6.5t7 -17.5q0 -16 -16 -65q-4 -16 -13.5 -20.5t-41.5 -4.5h-394q-23 0 -32 1t-15 7.5t-6 18.5z" />
<glyph unicode="&#xae;" horiz-adv-x="1398" d="M0 700q0 289 205 494t495 205q289 0 494 -205t205 -494q0 -291 -205 -495.5t-494 -204.5q-291 0 -495.5 204.5t-204.5 495.5zM82 700q0 -256 181 -437t437 -181t436.5 181t180.5 437q0 254 -181.5 435.5t-435.5 181.5q-256 0 -437 -180.5t-181 -436.5zM315 309 q0 23 33 23q59 0 75.5 9t25.5 44l165 666q4 16 4 22q0 20 -69 21q-35 0 -35 14q0 25 35 25h323q111 0 178.5 -53.5t67.5 -129.5q0 -74 -67.5 -141.5t-190.5 -97.5q106 -37 107 -144q0 -39 -11 -106q-8 -66 -8 -94q0 -72 41 -72q63 0 96 108q0 2 2 5q4 16 19 16q18 0 18 -16 q0 -27 -36.5 -83.5t-102.5 -56.5q-63 0 -107 33t-44 96q0 23 16 99q23 86 22 96q0 109 -116 108h-131l-80 -321q-6 -18 -6 -25q0 -8 2 -12t19.5 -7t50 -3t32.5 -15q0 -23 -22.5 -22.5t-71.5 2.5t-73.5 2t-72 -2t-71.5 -2q-17 0 -17 14zM631 727h125q113 0 180 64 q72 72 72 188q0 41 -18.5 66.5t-54.5 35t-60.5 11.5t-65.5 2q-61 0 -72 -2q-18 -4 -26 -41z" />
<glyph unicode="&#xb4;" d="M672 1069q0 10 20 31l291 291q35 35 64 34q20 0 38.5 -15t18.5 -42q0 -39 -41 -65l-330 -252q-18 -16 -28.5 -16.5t-21.5 11t-11 23.5z" />
<glyph unicode="&#xb8;" horiz-adv-x="942" d="M209 -370.5q0 22.5 51 22.5h21q276 0 276 127q0 68 -98 76q-31 4 -31 26q0 4 15.5 64.5t15.5 62.5q4 12 51 12h27q53 0 55 -14l-29 -117q125 -25 125 -112q0 -170 -401 -170h-51q-27 0 -27 22.5z" />
<glyph unicode="&#xbb;" horiz-adv-x="1150" d="M268 8q-4 8 0 17q119 254 297 471q-72 219 -61 469q0 8 8 16t18 8h5q12 0 16 -14q16 -260 147 -467q8 -12 -8 -27q-229 -203 -381 -467q-6 -14 -22 -14h-4q-11 0 -15 8zM582 8q-4 8 0 17q119 254 297 471q-72 219 -62 469q0 8 8.5 16t18.5 8h4q12 0 16 -14 q16 -260 148 -467q8 -12 -8 -27q-229 -203 -381 -467q-8 -14 -23 -14h-4q-10 0 -14 8z" />
<glyph unicode="&#xc0;" horiz-adv-x="1521" d="M121 25l2 8q0 10 6 20t16 10q35 2 58.5 7.5t58.5 19.5t67.5 50t63.5 91l680 1199q20 37 53 36q25 0 30 -8t7 -43l88 -1282q4 -43 22.5 -56.5t94.5 -13.5q20 0 28.5 -1t14.5 -7t6 -18q0 -37 -37 -37q-35 0 -106.5 3t-108.5 3q-39 0 -118.5 -3t-116.5 -3q-31 0 -31 25 q0 39 47 38q137 0 137 66l-22 340h-467l-148 -258q-29 -53 -28 -78q0 -55 86 -70q33 -4 33 -24q0 -39 -37 -39q-31 0 -94.5 3t-96.5 3q-27 0 -83 -3t-80.5 -3t-24.5 25zM629 532h428l-47 670zM926 1788q8 29 35.5 48t56.5 19q23 0 45 -22l219 -238q12 -14 12 -26 q-4 -12 -19 -24.5t-28 -14.5q-8 -2 -24 10l-275 191q-32 24 -22 57z" />
<glyph unicode="&#xc2;" horiz-adv-x="1521" d="M121 25l2 8q0 10 6 20t16 10q35 2 58.5 7.5t58.5 19.5t67.5 50t63.5 91l680 1199q20 37 53 36q25 0 30 -8t7 -43l88 -1282q4 -43 22.5 -56.5t94.5 -13.5q20 0 28.5 -1t14.5 -7t6 -18q0 -37 -37 -37q-35 0 -106.5 3t-108.5 3q-39 0 -118.5 -3t-116.5 -3q-31 0 -31 25 q0 39 47 38q137 0 137 66l-22 340h-467l-148 -258q-29 -53 -28 -78q0 -55 86 -70q33 -4 33 -24q0 -39 -37 -39q-31 0 -94.5 3t-96.5 3q-27 0 -83 -3t-80.5 -3t-24.5 25zM629 532h428l-47 670zM853 1518.5q-5 17.5 13 27.5l318 201q14 6 24 0l217 -201q12 -10 -2 -27.5 t-28 -9.5l-230 113l-286 -113q-21 -8 -26 9.5z" />
<glyph unicode="&#xc6;" horiz-adv-x="1808" d="M121 27q0 23 10 28.5t31 7.5q74 6 127 41t106 127l639 1102q-16 2 -59 2h-41q-20 0 -29.5 1t-16.5 6.5t-7 17.5q0 27 12 33t45 6h954q25 0 34 -2t13.5 -13.5t2.5 -35.5l-48 -363q-4 -41 -20 -45q-4 -2 -14 -2q-33 0 -33 25l4 26l12 141q10 123 -61 168q-55 37 -187 37 h-184q-55 0 -71.5 -10t-28.5 -63l-137 -557h155q119 0 163 39.5t73 156.5q8 29 14 36t25 7q31 0 30 -22q0 -14 -4 -27l-112 -453q-8 -27 -15.5 -34t-23.5 -7q-31 0 -31 25l4 20q18 92 18 111q0 45 -26.5 64.5t-118.5 19.5h-168l-129 -512q0 -2 -4 -19.5t-4 -25.5t2 -12 t16.5 -6.5t44.5 -2.5h187q109 0 181.5 23t125.5 79t85 115.5t79 172.5q27 66 33 69q6 6 22 6q31 0 31 -22l-8 -25l-183 -448q-10 -23 -18 -28t-39 -5h-827q-20 0 -28.5 1t-16 6t-7.5 18q0 39 48 38q74 0 94 13.5t32 64.5l125 500h-299l-254 -436q-27 -47 -26 -74 q0 -61 84 -68q33 -4 33 -24q0 -39 -37 -39q-31 0 -94.5 3t-96.5 3q-27 0 -83 -3t-80.5 -3t-24.5 27zM737 705h277l139 548q4 12 4 35q0 41 -57 41z" />
<glyph unicode="&#xc7;" horiz-adv-x="1466" d="M307 502q0 233 127 454.5t328 354.5t407 133q201 0 310 -174l129 151q12 14 22 19l10 4q20 0 23 -21q0 -12 -4 -28l-125 -498q-6 -25 -12 -31t-25 -6q-31 0 -31 21q0 2 2 22l6 50q3 30 3 53q0 154 -71 264t-220 110q-123 0 -254 -72.5t-232 -209.5q-109 -150 -162 -348.5 t-53 -325.5q0 -203 103.5 -304.5t249.5 -101.5q150 0 304 120t226 358q6 16 33 16q31 0 31 -20q0 -43 -43 -127t-117 -177.5t-199 -163t-264 -69.5h-21l-16 -66q125 -25 125 -112q0 -170 -401 -170h-52q-27 0 -26.5 22.5t51.5 22.5h20q276 0 277 127q0 68 -98 76 q-31 4 -31 26q0 4 9 41l13 53q-160 47 -256 186.5t-96 340.5z" />
<glyph unicode="&#xc8;" horiz-adv-x="1388" d="M127 25q0 27 12.5 32.5t42.5 5.5q100 0 128 15.5t40 71.5l275 1097l8 47q0 12 -4 18.5t-32 11.5t-83 5q-25 0 -34 1t-15 7t-6 19q0 25 12 31t43 6h956q20 0 26.5 -1t17 -6.5t7.5 -15.5t-1 -31l-47 -362q-2 -20 -4.5 -28.5t-9.5 -12.5t-21 -4q-31 0 -31 24q0 14 4 35 q10 82 10 131q0 115 -56 161t-216 46h-256q-53 0 -69.5 -10t-28.5 -59l-125 -504h166q121 0 167 39t76 151q0 2 2 8q8 29 13.5 35t23.5 6q33 0 33 -24l-6 -27l-113 -450q-6 -27 -12 -34t-25 -7q-33 0 -32 24l4 23q18 68 18 104q0 47 -28.5 67.5t-125.5 20.5h-178l-141 -563 q0 -2 -4 -19.5t-4 -25.5t2 -12t16.5 -6.5t44.5 -2.5h250q96 0 168 18.5t120 45.5t90 85t69.5 113.5t68.5 153.5q14 35 20.5 42t22.5 7q31 0 31 -22l-8 -25l-182 -448q-10 -23 -18.5 -28t-39.5 -5h-981q-20 0 -28.5 1t-15.5 6.5t-7 17.5zM860 1788q8 29 36 48t56 19 q23 0 45 -22l220 -238q12 -14 12 -26q-4 -12 -19.5 -24.5t-27.5 -14.5q-8 -2 -25 10l-274 191q-33 24 -23 57z" />
<glyph unicode="&#xc9;" horiz-adv-x="1388" d="M127 25q0 27 12.5 32.5t42.5 5.5q100 0 128 15.5t40 71.5l275 1097l8 47q0 12 -4 18.5t-32 11.5t-83 5q-25 0 -34 1t-15 7t-6 19q0 25 12 31t43 6h956q20 0 26.5 -1t17 -6.5t7.5 -15.5t-1 -31l-47 -362q-2 -20 -4.5 -28.5t-9.5 -12.5t-21 -4q-31 0 -31 24q0 14 4 35 q10 82 10 131q0 115 -56 161t-216 46h-256q-53 0 -69.5 -10t-28.5 -59l-125 -504h166q121 0 167 39t76 151q0 2 2 8q8 29 13.5 35t23.5 6q33 0 33 -24l-6 -27l-113 -450q-6 -27 -12 -34t-25 -7q-33 0 -32 24l4 23q18 68 18 104q0 47 -28.5 67.5t-125.5 20.5h-178l-141 -563 q0 -2 -4 -19.5t-4 -25.5t2 -12t16.5 -6.5t44.5 -2.5h250q96 0 168 18.5t120 45.5t90 85t69.5 113.5t68.5 153.5q14 35 20.5 42t22.5 7q31 0 31 -22l-8 -25l-182 -448q-10 -23 -18.5 -28t-39.5 -5h-981q-20 0 -28.5 1t-15.5 6.5t-7 17.5zM946 1569q4 12 25 26l338 238 q35 23 57 22q29 0 45 -19t12 -48q-6 -35 -51 -57l-368 -191q-23 -12 -31 -10q-10 2 -19.5 14.5t-7.5 24.5z" />
<glyph unicode="&#xca;" horiz-adv-x="1388" d="M127 25q0 27 12.5 32.5t42.5 5.5q100 0 128 15.5t40 71.5l275 1097l8 47q0 12 -4 18.5t-32 11.5t-83 5q-25 0 -34 1t-15 7t-6 19q0 25 12 31t43 6h956q20 0 26.5 -1t17 -6.5t7.5 -15.5t-1 -31l-47 -362q-2 -20 -4.5 -28.5t-9.5 -12.5t-21 -4q-31 0 -31 24q0 14 4 35 q10 82 10 131q0 115 -56 161t-216 46h-256q-53 0 -69.5 -10t-28.5 -59l-125 -504h166q121 0 167 39t76 151q0 2 2 8q8 29 13.5 35t23.5 6q33 0 33 -24l-6 -27l-113 -450q-6 -27 -12 -34t-25 -7q-33 0 -32 24l4 23q18 68 18 104q0 47 -28.5 67.5t-125.5 20.5h-178l-141 -563 q0 -2 -4 -19.5t-4 -25.5t2 -12t16.5 -6.5t44.5 -2.5h250q96 0 168 18.5t120 45.5t90 85t69.5 113.5t68.5 153.5q14 35 20.5 42t22.5 7q31 0 31 -22l-8 -25l-182 -448q-10 -23 -18.5 -28t-39.5 -5h-981q-20 0 -28.5 1t-15.5 6.5t-7 17.5zM787.5 1518.5q-5.5 17.5 13.5 27.5 l317 201q14 6 25 0l217 -201q12 -10 -2.5 -27.5t-28.5 -9.5l-229 113l-287 -113q-20 -8 -25.5 9.5z" />
<glyph unicode="&#xcb;" horiz-adv-x="1388" d="M127 25q0 27 12.5 32.5t42.5 5.5q100 0 128 15.5t40 71.5l275 1097l8 47q0 12 -4 18.5t-32 11.5t-83 5q-25 0 -34 1t-15 7t-6 19q0 25 12 31t43 6h956q20 0 26.5 -1t17 -6.5t7.5 -15.5t-1 -31l-47 -362q-2 -20 -4.5 -28.5t-9.5 -12.5t-21 -4q-31 0 -31 24q0 14 4 35 q10 82 10 131q0 115 -56 161t-216 46h-256q-53 0 -69.5 -10t-28.5 -59l-125 -504h166q121 0 167 39t76 151q0 2 2 8q8 29 13.5 35t23.5 6q33 0 33 -24l-6 -27l-113 -450q-6 -27 -12 -34t-25 -7q-33 0 -32 24l4 23q18 68 18 104q0 47 -28.5 67.5t-125.5 20.5h-178l-141 -563 q0 -2 -4 -19.5t-4 -25.5t2 -12t16.5 -6.5t44.5 -2.5h250q96 0 168 18.5t120 45.5t90 85t69.5 113.5t68.5 153.5q14 35 20.5 42t22.5 7q31 0 31 -22l-8 -25l-182 -448q-10 -23 -18.5 -28t-39.5 -5h-981q-20 0 -28.5 1t-15.5 6.5t-7 17.5zM782 1587q0 45 37 81t82 36 q39 0 60.5 -23.5t21.5 -56.5q0 -45 -37 -81t-80 -36q-39 0 -61.5 23.5t-22.5 56.5zM1210 1587q0 45 37 81t82 36q39 0 60.5 -23.5t21.5 -56.5q0 -45 -37 -81t-80 -36q-39 0 -61.5 23.5t-22.5 56.5z" />
<glyph unicode="&#xce;" horiz-adv-x="790" d="M117 27q0 25 12 30.5t49 5.5q100 0 130 15.5t42 68.5l279 1115q6 18 6 38q0 23 -31 29t-98 6q-25 0 -34 1t-15 7.5t-6 18.5q0 37 38 37q43 0 129.5 -3t126.5 -3q43 0 127 3t125 3q29 0 29 -25q0 -27 -13.5 -33t-49.5 -6q-100 0 -129 -15t-41 -69l-277 -1106l-8 -45 q0 -14 4 -20t33.5 -11.5t89.5 -5.5q25 0 34 -1t16 -6t7 -17q0 -39 -41 -39t-126 3t-128 3t-127 -3t-125 -3q-28 0 -28 27zM486.5 1518.5q-5.5 17.5 13.5 27.5l317 201q14 6 25 0l217 -201q12 -10 -2.5 -27.5t-28.5 -9.5l-229 113l-287 -113q-20 -8 -25.5 9.5z" />
<glyph unicode="&#xcf;" horiz-adv-x="790" d="M117 27q0 25 12 30.5t49 5.5q100 0 130 15.5t42 68.5l279 1115q6 18 6 38q0 23 -31 29t-98 6q-25 0 -34 1t-15 7.5t-6 18.5q0 37 38 37q43 0 129.5 -3t126.5 -3q43 0 127 3t125 3q29 0 29 -25q0 -27 -13.5 -33t-49.5 -6q-100 0 -129 -15t-41 -69l-277 -1106l-8 -45 q0 -14 4 -20t33.5 -11.5t89.5 -5.5q25 0 34 -1t16 -6t7 -17q0 -39 -41 -39t-126 3t-128 3t-127 -3t-125 -3q-28 0 -28 27zM481 1587q0 45 37 81t82 36q39 0 60.5 -23.5t21.5 -56.5q0 -45 -37 -81t-80 -36q-39 0 -61.5 23.5t-22.5 56.5zM909 1587q0 45 37 81t82 36 q39 0 60.5 -23.5t21.5 -56.5q0 -45 -37 -81t-80 -36q-39 0 -61.5 23.5t-22.5 56.5z" />
<glyph unicode="&#xd4;" horiz-adv-x="1570" d="M303 483q0 231 122 455.5t319.5 365t402.5 140.5q201 0 334 -144.5t133 -390.5q0 -240 -124 -463t-318.5 -357t-397.5 -134q-209 0 -340 147.5t-131 380.5zM487 420q0 -184 81 -298t220 -114q119 0 246 91t223 257q80 137 131.5 319.5t51.5 319.5q0 195 -89 296.5 t-218 101.5q-131 0 -260.5 -96.5t-213.5 -245.5q-94 -164 -133 -343t-39 -288zM877.5 1518.5q-5.5 17.5 13.5 27.5l317 201q14 6 25 0l217 -201q12 -10 -2 -27.5t-29 -9.5l-229 113l-287 -113q-20 -8 -25.5 9.5z" />
<glyph unicode="&#xd9;" horiz-adv-x="1521" d="M414 340q0 66 16 131l197 791q8 29 8 38q0 23 -28.5 29t-90.5 6q-23 0 -32 1t-16 6.5t-7 17.5q0 39 39 39t122 -3t123.5 -3t121.5 3t120 3q29 0 29 -27q0 -25 -12.5 -31t-49.5 -6q-94 0 -121.5 -15t-39.5 -67l-205 -823q-20 -90 -21 -156q0 -129 64.5 -192.5t154.5 -63.5 q147 0 287.5 128t188.5 323l182 729q8 33 8 49q0 84 -123 88q-37 0 -37 25q0 39 37 39q31 0 97.5 -3t99.5 -3t97.5 3t94.5 3q27 0 27 -27q0 -37 -31 -37q-174 -6 -207 -139l-186 -750q-45 -182 -201.5 -336.5t-341.5 -154.5q-152 0 -258 104.5t-106 280.5zM973 1788 q8 29 35.5 48t56.5 19q23 0 45 -22l219 -238q12 -14 12 -26q-4 -12 -19 -24.5t-28 -14.5q-8 -2 -24 10l-275 191q-32 24 -22 57z" />
<glyph unicode="&#xdb;" horiz-adv-x="1521" d="M414 340q0 66 16 131l197 791q8 29 8 38q0 23 -28.5 29t-90.5 6q-23 0 -32 1t-16 6.5t-7 17.5q0 39 39 39t122 -3t123.5 -3t121.5 3t120 3q29 0 29 -27q0 -25 -12.5 -31t-49.5 -6q-94 0 -121.5 -15t-39.5 -67l-205 -823q-20 -90 -21 -156q0 -129 64.5 -192.5t154.5 -63.5 q147 0 287.5 128t188.5 323l182 729q8 33 8 49q0 84 -123 88q-37 0 -37 25q0 39 37 39q31 0 97.5 -3t99.5 -3t97.5 3t94.5 3q27 0 27 -27q0 -37 -31 -37q-174 -6 -207 -139l-186 -750q-45 -182 -201.5 -336.5t-341.5 -154.5q-152 0 -258 104.5t-106 280.5zM900 1518.5 q-5 17.5 13 27.5l318 201q14 6 24 0l218 -201q12 -10 -2.5 -27.5t-28.5 -9.5l-230 113l-286 -113q-21 -8 -26 9.5z" />
<glyph unicode="&#xdc;" horiz-adv-x="1521" d="M414 340q0 66 16 131l197 791q8 29 8 38q0 23 -28.5 29t-90.5 6q-23 0 -32 1t-16 6.5t-7 17.5q0 39 39 39t122 -3t123.5 -3t121.5 3t120 3q29 0 29 -27q0 -25 -12.5 -31t-49.5 -6q-94 0 -121.5 -15t-39.5 -67l-205 -823q-20 -90 -21 -156q0 -129 64.5 -192.5t154.5 -63.5 q147 0 287.5 128t188.5 323l182 729q8 33 8 49q0 84 -123 88q-37 0 -37 25q0 39 37 39q31 0 97.5 -3t99.5 -3t97.5 3t94.5 3q27 0 27 -27q0 -37 -31 -37q-174 -6 -207 -139l-186 -750q-45 -182 -201.5 -336.5t-341.5 -154.5q-152 0 -258 104.5t-106 280.5zM895 1587 q0 45 37 81t82 36q39 0 60.5 -23.5t21.5 -56.5q0 -45 -37 -81t-80 -36q-39 0 -61.5 23.5t-22.5 56.5zM1323 1587q0 45 37 81t82 36q39 0 60.5 -23.5t21.5 -56.5q0 -45 -37 -81t-80 -36q-39 0 -61.5 23.5t-22.5 56.5z" />
<glyph unicode="&#xe0;" d="M221 295q0 223 149.5 416.5t319.5 193.5q117 0 170 -121q16 80 82 80q55 0 55 -53q0 -14 -8 -43l-139 -557q-14 -57 -14 -105q0 -84 53 -83q76 0 137 243q8 33 14.5 40t24.5 7q31 0 31 -20l-19 -76q-20 -76 -43 -125q-55 -115 -149 -115q-59 0 -106.5 36t-63.5 108 q-117 -143 -246 -144q-113 0 -180.5 91.5t-67.5 226.5zM360 205q0 -68 25 -125t88 -57q76 0 159 85t97 146l96 387l6 27q0 72 -38.5 132t-102.5 60q-61 0 -125.5 -65.5t-103.5 -161.5q-31 -72 -66 -214t-35 -214zM627 1368q12 27 38.5 42t47.5 15q29 0 47 -34l145 -291 q10 -20 4 -31q-6 -12 -22.5 -23.5t-26.5 -11.5t-20 17l-205 252q-26 26 -8 65z" />
<glyph unicode="&#xe2;" d="M221 295q0 223 149.5 416.5t319.5 193.5q117 0 170 -121q16 80 82 80q55 0 55 -53q0 -14 -8 -43l-139 -557q-14 -57 -14 -105q0 -84 53 -83q76 0 137 243q8 33 14.5 40t24.5 7q31 0 31 -20l-19 -76q-20 -76 -43 -125q-55 -115 -149 -115q-59 0 -106.5 36t-63.5 108 q-117 -143 -246 -144q-113 0 -180.5 91.5t-67.5 226.5zM360 205q0 -68 25 -125t88 -57q76 0 159 85t97 146l96 387l6 27q0 72 -38.5 132t-102.5 60q-61 0 -125.5 -65.5t-103.5 -161.5q-31 -72 -66 -214t-35 -214zM510 1068q-10 15 6 30l340 295q18 16 31 0l192 -295 q10 -14 -7 -29.5t-30 -3.5l-200 203l-303 -203q-19 -12 -29 3z" />
<glyph unicode="&#xe6;" horiz-adv-x="1466" d="M188 205q0 41 16.5 94t64.5 127t122 144.5t203 146.5t295 133q12 55 65 55q49 0 50 -47q0 -10 -13 -59q135 106 277 106q90 0 147.5 -49t57.5 -125q0 -16 -4.5 -36.5t-17.5 -54.5t-48 -66.5t-88 -55.5q-111 -45 -299 -45h-107q-29 -125 -28 -201q0 -96 41 -172.5 t129 -76.5q70 0 156.5 46t164.5 156q18 20 27 21q12 0 22.5 -12.5t10.5 -20.5q0 -12 -30 -49t-77 -79t-123 -75t-153 -33q-86 0 -143.5 45.5t-84.5 100.5q-23 -96 -37 -121t-51 -25q-49 0 -49 48q0 12 18 84l-2 2q-121 -133 -235.5 -133.5t-195.5 62.5t-81 165zM338 150 q0 -68 42 -97.5t91 -29.5q88 0 174 102t105 172l124 500q-256 -111 -396 -300t-140 -347zM922 518h61q412 0 412 217q0 53 -34 89t-95 36q-18 0 -41 -4t-67 -23.5t-84 -53.5t-81.5 -101.5t-70.5 -159.5z" />
<glyph unicode="&#xe7;" horiz-adv-x="942" d="M158 -370.5q0 22.5 51 22.5h20q276 0 277 127q0 68 -98 76q-31 4 -31 26q0 12 29 121q-84 35 -132.5 117t-48.5 196q0 223 163 406.5t355 183.5q96 0 158 -50t62 -126q0 -55 -31 -89t-74 -34q-33 0 -51.5 19.5t-18.5 46.5l3 22q4 23 29.5 47.5t70.5 30.5q-33 88 -146 88 q-72 0 -143.5 -53t-124.5 -152q-39 -74 -73.5 -207t-34.5 -215q0 -94 41 -152t120 -58q35 0 79 7t133 57t157 136q18 23 27 23q12 0 22 -12.5t10 -20.5q0 -14 -31.5 -50t-83.5 -78t-136 -75t-175 -33l-20 -88q125 -25 125 -112q0 -170 -401 -170h-52q-26 0 -26 22.5z" />
<glyph unicode="&#xe8;" horiz-adv-x="942" d="M233 336q0 252 164 410.5t344 158.5q94 0 150.5 -50t56.5 -124q0 -14 -3 -31.5t-16.5 -53.5t-50 -70.5t-92.5 -57.5q-115 -45 -297 -45h-79q-35 -135 -35 -225q0 -51 10 -96.5t47 -87t98 -41.5q35 0 79 7t133 57t157 136q18 23 27 23q12 0 22 -12.5t10 -20.5 q0 -20 -50 -73.5t-156.5 -108t-225.5 -54.5q-139 0 -216 106t-77 253zM422 518h43q31 0 55.5 1t78.5 6t95 19.5t85 37t67.5 62.5t23.5 91q0 53 -34.5 89t-94.5 36q-20 0 -48.5 -8t-83 -36t-105.5 -104.5t-82 -193.5zM573 1368q12 27 39 42t47 15q29 0 48 -34l145 -291 q10 -20 4 -31q-6 -12 -22.5 -23.5t-26.5 -11.5t-21 17l-204 252q-27 26 -9 65z" />
<glyph unicode="&#xe9;" horiz-adv-x="942" d="M233 336q0 252 164 410.5t344 158.5q94 0 150.5 -50t56.5 -124q0 -14 -3 -31.5t-16.5 -53.5t-50 -70.5t-92.5 -57.5q-115 -45 -297 -45h-79q-35 -135 -35 -225q0 -51 10 -96.5t47 -87t98 -41.5q35 0 79 7t133 57t157 136q18 23 27 23q12 0 22 -12.5t10 -20.5 q0 -20 -50 -73.5t-156.5 -108t-225.5 -54.5q-139 0 -216 106t-77 253zM422 518h43q31 0 55.5 1t78.5 6t95 19.5t85 37t67.5 62.5t23.5 91q0 53 -34.5 89t-94.5 36q-20 0 -48.5 -8t-83 -36t-105.5 -104.5t-82 -193.5zM618 1069q0 10 21 31l291 291q35 35 63 34q20 0 39 -15 t19 -42q0 -39 -41 -65l-330 -252q-18 -16 -28.5 -16.5t-22 11t-11.5 23.5z" />
<glyph unicode="&#xea;" horiz-adv-x="942" d="M233 336q0 252 164 410.5t344 158.5q94 0 150.5 -50t56.5 -124q0 -14 -3 -31.5t-16.5 -53.5t-50 -70.5t-92.5 -57.5q-115 -45 -297 -45h-79q-35 -135 -35 -225q0 -51 10 -96.5t47 -87t98 -41.5q35 0 79 7t133 57t157 136q18 23 27 23q12 0 22 -12.5t10 -20.5 q0 -20 -50 -73.5t-156.5 -108t-225.5 -54.5q-139 0 -216 106t-77 253zM422 518h43q31 0 55.5 1t78.5 6t95 19.5t85 37t67.5 62.5t23.5 91q0 53 -34.5 89t-94.5 36q-20 0 -48.5 -8t-83 -36t-105.5 -104.5t-82 -193.5zM456.5 1068q-10.5 15 6.5 30l340 295q18 16 31 0 l192 -295q10 -14 -7.5 -29.5t-29.5 -3.5l-201 203l-303 -203q-18 -12 -28.5 3z" />
<glyph unicode="&#xeb;" horiz-adv-x="942" d="M233 336q0 252 164 410.5t344 158.5q94 0 150.5 -50t56.5 -124q0 -14 -3 -31.5t-16.5 -53.5t-50 -70.5t-92.5 -57.5q-115 -45 -297 -45h-79q-35 -135 -35 -225q0 -51 10 -96.5t47 -87t98 -41.5q35 0 79 7t133 57t157 136q18 23 27 23q12 0 22 -12.5t10 -20.5 q0 -20 -50 -73.5t-156.5 -108t-225.5 -54.5q-139 0 -216 106t-77 253zM422 518h43q31 0 55.5 1t78.5 6t95 19.5t85 37t67.5 62.5t23.5 91q0 53 -34.5 89t-94.5 36q-20 0 -48.5 -8t-83 -36t-105.5 -104.5t-82 -193.5zM496 1212q0 45 36.5 81t81.5 36q39 0 60.5 -23.5 t21.5 -56.5q0 -45 -36.5 -80.5t-79.5 -35.5q-39 0 -61.5 23t-22.5 56zM858 1212q0 45 37 81t82 36q39 0 60.5 -23.5t21.5 -56.5q0 -45 -37 -80.5t-80 -35.5q-39 0 -61.5 23t-22.5 56z" />
<glyph unicode="&#xee;" horiz-adv-x="628" d="M170 590q0 10 15.5 55t43 105.5t83 107.5t120.5 47q63 0 108.5 -42t45.5 -122q0 -43 -25 -114l-131 -351q-53 -152 -53 -196q0 -57 45 -57q121 0 190 256q6 25 11.5 29.5t23.5 4.5q31 0 31 -20q0 -10 -14.5 -54t-42 -105.5t-83 -109t-120.5 -47.5q-76 0 -116 49.5 t-40 114.5q0 41 37 142l76 202l61 170q37 100 37 148q0 57 -45 57q-121 0 -190 -258q-6 -23 -12.5 -28t-24.5 -5q-31 1 -31 21zM301 1068q-10 15 6 30l340 295q18 16 31 0l192 -295q10 -14 -7 -29.5t-29 -3.5l-201 203l-303 -203q-19 -12 -29 3z" />
<glyph unicode="&#xef;" horiz-adv-x="628" d="M170 590q0 10 15.5 55t43 105.5t83 107.5t120.5 47q63 0 108.5 -42t45.5 -122q0 -43 -25 -114l-131 -351q-53 -152 -53 -196q0 -57 45 -57q121 0 190 256q6 25 11.5 29.5t23.5 4.5q31 0 31 -20q0 -10 -14.5 -54t-42 -105.5t-83 -109t-120.5 -47.5q-76 0 -116 49.5 t-40 114.5q0 41 37 142l76 202l61 170q37 100 37 148q0 57 -45 57q-121 0 -190 -258q-6 -23 -12.5 -28t-24.5 -5q-31 1 -31 21zM340 1212q0 45 37 81t82 36q39 0 60.5 -23.5t21.5 -56.5q0 -45 -37 -80.5t-80 -35.5q-39 0 -61.5 23t-22.5 56zM702 1212q0 45 37 81t82 36 q39 0 60.5 -23.5t21.5 -56.5q0 -45 -37 -80.5t-80 -35.5q-39 0 -61.5 23t-22.5 56z" />
<glyph unicode="&#xf4;" d="M225 315q0 223 163 406.5t355 183.5q133 0 216 -94t83 -242q0 -223 -162.5 -407.5t-355.5 -184.5q-131 0 -215 91t-84 247zM369 233q0 -104 45 -157t110 -53q74 0 145.5 58t118.5 146q45 86 78 217t33 205q0 92 -42 151.5t-116 59.5q-63 0 -130.5 -48t-123.5 -138 q-47 -80 -82.5 -219.5t-35.5 -221.5zM510 1068q-10 15 6 30l340 295q18 16 31 0l192 -295q10 -14 -7 -29.5t-30 -3.5l-200 203l-303 -203q-19 -12 -29 3z" />
<glyph unicode="&#xf9;" horiz-adv-x="1099" d="M170 590q0 10 15.5 55t44 106.5t83 107.5t119.5 46q68 0 112 -45t44 -121q0 -41 -27 -110q-119 -324 -119 -449q0 -158 111 -157q109 0 188 118q16 25 29 68l150 598q18 76 79 76q29 0 43.5 -16.5t14.5 -37.5q0 -10 -6 -28l-148 -590q-14 -57 -14 -105q0 -84 53 -83 q76 0 137 243q8 33 14.5 40t24.5 7q31 0 31 -20l-19 -76q-20 -76 -43 -125q-55 -115 -149 -115q-123 0 -164 123q-98 -123 -227 -123q-94 0 -162 57.5t-68 180.5q0 115 107 401q49 137 49 185q0 59 -45 59q-123 0 -190 -258q-6 -23 -12.5 -28t-24.5 -5q-31 1 -31 21z M653 1368q12 27 39 42t47 15q29 0 47 -34l146 -291q10 -20 4 -31q-6 -12 -22.5 -23.5t-26.5 -11.5t-21 17l-204 252q-27 26 -9 65z" />
<glyph unicode="&#xfb;" horiz-adv-x="1099" d="M170 590q0 10 15.5 55t44 106.5t83 107.5t119.5 46q68 0 112 -45t44 -121q0 -41 -27 -110q-119 -324 -119 -449q0 -158 111 -157q109 0 188 118q16 25 29 68l150 598q18 76 79 76q29 0 43.5 -16.5t14.5 -37.5q0 -10 -6 -28l-148 -590q-14 -57 -14 -105q0 -84 53 -83 q76 0 137 243q8 33 14.5 40t24.5 7q31 0 31 -20l-19 -76q-20 -76 -43 -125q-55 -115 -149 -115q-123 0 -164 123q-98 -123 -227 -123q-94 0 -162 57.5t-68 180.5q0 115 107 401q49 137 49 185q0 59 -45 59q-123 0 -190 -258q-6 -23 -12.5 -28t-24.5 -5q-31 1 -31 21z M536.5 1068q-10.5 15 6.5 30l340 295q18 16 30 0l193 -295q10 -14 -7.5 -29.5t-29.5 -3.5l-201 203l-303 -203q-18 -12 -28.5 3z" />
<glyph unicode="&#xfc;" horiz-adv-x="1099" d="M170 590q0 10 15.5 55t44 106.5t83 107.5t119.5 46q68 0 112 -45t44 -121q0 -41 -27 -110q-119 -324 -119 -449q0 -158 111 -157q109 0 188 118q16 25 29 68l150 598q18 76 79 76q29 0 43.5 -16.5t14.5 -37.5q0 -10 -6 -28l-148 -590q-14 -57 -14 -105q0 -84 53 -83 q76 0 137 243q8 33 14.5 40t24.5 7q31 0 31 -20l-19 -76q-20 -76 -43 -125q-55 -115 -149 -115q-123 0 -164 123q-98 -123 -227 -123q-94 0 -162 57.5t-68 180.5q0 115 107 401q49 137 49 185q0 59 -45 59q-123 0 -190 -258q-6 -23 -12.5 -28t-24.5 -5q-31 1 -31 21z M575 1212q0 45 37 81t82 36q39 0 60.5 -23.5t21.5 -56.5q0 -45 -37 -80.5t-80 -35.5q-39 0 -61.5 23t-22.5 56zM938 1212q0 45 37 81t82 36q39 0 60.5 -23.5t21.5 -56.5q0 -45 -37 -80.5t-80 -35.5q-39 0 -61.5 23t-22.5 56z" />
<glyph unicode="&#xff;" horiz-adv-x="995" d="M170 590q0 10 15.5 55t44 106.5t83 107.5t119.5 46q68 0 112 -45t44 -121q0 -41 -27 -110q-119 -324 -119 -449q0 -158 111 -157q82 0 142.5 62t74.5 120l150 602q18 76 79 76q29 0 43.5 -16.5t14.5 -37.5q0 -4 -3 -13t-3 -15l-201 -807q-41 -162 -170 -288t-281 -126 q-86 0 -141 48t-55 128q0 51 22.5 83t43 38t38.5 6q29 0 49.5 -17.5t20.5 -48t-22.5 -61t-65.5 -37.5l-17 -6q0 -20 32 -54t95 -34q94 0 186.5 99.5t145.5 328.5q-76 -76 -184 -76q-94 0 -162 57.5t-68 180.5q0 115 107 401q49 137 49 185q0 59 -45 59q-123 0 -190 -258 q-6 -23 -12.5 -28t-24.5 -5q-31 1 -31 21zM522 1212q0 45 37 81t82 36q39 0 60.5 -23.5t21.5 -56.5q0 -45 -37 -80.5t-80 -35.5q-39 0 -61.5 23t-22.5 56zM885 1212q0 45 36.5 81t82.5 36q39 0 60 -23.5t21 -56.5q0 -45 -36.5 -80.5t-79.5 -35.5q-39 0 -61.5 23t-22.5 56z " />
<glyph unicode="&#x152;" horiz-adv-x="2017" d="M332 483q0 233 123 457.5t319.5 364t396.5 139.5q55 0 127 -21q98 -25 160 -24h643q25 0 34 -2t13 -13.5t2 -35.5l-47 -363q-4 -41 -20 -45q-4 -2 -15 -2q-33 0 -32 25l4 26l12 133q0 133 -61 174q-55 39 -195 39h-211q-53 0 -70.5 -10t-29.5 -63l-125 -504h199 q131 0 179 42t79 158q4 25 10 32t24 7q33 0 33 -24q0 -8 -6 -27l-113 -452q-6 -25 -13 -32t-23 -7q-33 0 -33 24l6 29q16 57 16 94q0 49 -31.5 70.5t-134.5 21.5h-209l-141 -565q0 -2 -4 -19.5t-4 -25.5t2 -12t16.5 -6.5t44.5 -2.5h211q111 0 186 21.5t129 78t88 117 t79 173.5q27 66 32 69q6 6 23 6q31 0 31 -22l-8 -25l-183 -448q-10 -23 -18 -28t-39 -5h-680q-63 0 -170 -25q-86 -20 -139 -20q-203 0 -335 146t-132 382zM518 451q0 -201 80 -326t217 -125q129 0 187.5 80t113.5 299l174 692q27 102 27 195q0 27 -3 42t-15.5 40.5t-47 38 t-88.5 12.5q-147 0 -297.5 -132t-249 -354t-98.5 -462z" />
<glyph unicode="&#x153;" horiz-adv-x="1466" d="M221 293q0 223 148.5 418.5t324.5 195.5q158 0 217 -180q16 20 51 53t125.5 79t180.5 46t147.5 -49t57.5 -125q0 -14 -4.5 -33.5t-16.5 -53.5t-45 -65.5t-80 -52.5q-119 -53 -313 -53h-96q-31 -127 -31 -209q0 -92 39 -166.5t125 -74.5q70 0 156.5 46t164.5 156 q18 20 27 21q12 0 22.5 -12.5t10.5 -20.5q0 -12 -30 -49t-77 -79t-123 -75t-153 -33q-182 0 -258 203q-74 -104 -160 -154.5t-160 -50.5q-117 0 -183.5 92.5t-66.5 225.5zM360 203q0 -25 4.5 -49.5t14.5 -58.5t34.5 -54.5t59.5 -20.5q37 0 76 21.5t68.5 56.5t48 61.5 t30.5 49.5q45 86 81 228.5t36 228.5t-29.5 141t-91.5 55q-68 0 -130 -68.5t-101 -160.5q-31 -72 -66 -214t-35 -216zM930 518h55q410 0 410 217q0 53 -34 89t-95 36q-27 0 -57.5 -8t-71.5 -30.5t-77 -59.5t-71.5 -99.5t-58.5 -144.5z" />
<glyph unicode="&#x178;" horiz-adv-x="1521" d="M414 1360q0 39 39 39q33 0 105.5 -3t107.5 -3q41 0 120.5 3t118.5 3q29 0 29 -25q0 -27 -11.5 -33t-33.5 -6q-115 0 -115 -49l8 -26l195 -615l448 547q4 0 28 37t24 59q0 43 -64 47q-31 0 -31 25q0 39 37 39q31 0 94.5 -3t96.5 -3q27 0 79 3t76 3q16 0 21 -10l4 -13 q0 -27 -9 -33t-30 -8q-76 -6 -139.5 -44t-132.5 -124l-484 -587q-12 -14 -24 -56l-64 -252q-39 -162 -39 -174q0 -23 29 -29t90 -6q23 0 32 -1t16 -6t7 -17q0 -39 -38.5 -39t-120.5 3t-123 3q-39 0 -119 -3t-119 -3q-29 0 -28 25q0 27 12 32.5t39 5.5q113 2 136.5 18.5 t43.5 102.5q94 358 94 375q0 10 -8 31l-217 684q-10 37 -36 49t-95 12q-49 0 -49 25zM848 1587q0 45 37 81t82 36q39 0 60.5 -23.5t21.5 -56.5q0 -45 -37 -81t-80 -36q-39 0 -61.5 23.5t-22.5 56.5zM1276 1587q0 45 37 81t82 36q39 0 60.5 -23.5t21.5 -56.5q0 -45 -37 -81 t-80 -36q-39 0 -61.5 23.5t-22.5 56.5z" />
<glyph unicode="&#x2c6;" d="M510 1068q-10 15 6 30l340 295q18 16 31 0l192 -295q10 -14 -7 -29.5t-30 -3.5l-200 203l-303 -203q-19 -12 -29 3z" />
<glyph unicode="&#x2da;" horiz-adv-x="1701" d="M971 1223q2 88 75.5 154.5t163.5 66.5q74 0 114 -42t40 -95q0 -86 -75 -155t-167 -69q-61 0 -106 36t-45 104zM1049 1217q0 -72 90 -72q49 0 82.5 25.5t46 56t14.5 55.5l4 27q0 74 -90 73q-66 0 -102.5 -42t-40.5 -83z" />
<glyph unicode="&#x2dc;" d="M500 1149q0 14 53 63l55 48q96 74 152 73q37 0 59.5 -20.5t51 -67.5t59.5 -47q39 0 104.5 50t79.5 69q14 14 27 14q23 0 22.5 -20.5t-100.5 -102.5t-162 -82q-55 0 -104 80q-33 55 -66 56q-27 0 -73 -30t-76 -61l-33 -28q-18 -14 -27 -15q-22 1 -22 21z" />
<glyph unicode="&#x2000;" horiz-adv-x="927" />
<glyph unicode="&#x2001;" horiz-adv-x="1855" />
<glyph unicode="&#x2002;" horiz-adv-x="927" />
<glyph unicode="&#x2003;" horiz-adv-x="1855" />
<glyph unicode="&#x2004;" horiz-adv-x="618" />
<glyph unicode="&#x2005;" horiz-adv-x="462" />
<glyph unicode="&#x2006;" horiz-adv-x="309" />
<glyph unicode="&#x2007;" horiz-adv-x="309" />
<glyph unicode="&#x2008;" horiz-adv-x="231" />
<glyph unicode="&#x2009;" horiz-adv-x="370" />
<glyph unicode="&#x200a;" horiz-adv-x="102" />
<glyph unicode="&#x2010;" horiz-adv-x="733" d="M176 410q0 18 14 61q6 18 14.5 22.5t39.5 4.5h399q20 0 28.5 -1t15.5 -6.5t7 -17.5q0 -16 -16 -65q-4 -16 -13.5 -20.5t-41.5 -4.5h-394q-23 0 -32 1t-15 7.5t-6 18.5z" />
<glyph unicode="&#x2011;" horiz-adv-x="733" d="M176 410q0 18 14 61q6 18 14.5 22.5t39.5 4.5h399q20 0 28.5 -1t15.5 -6.5t7 -17.5q0 -16 -16 -65q-4 -16 -13.5 -20.5t-41.5 -4.5h-394q-23 0 -32 1t-15 7.5t-6 18.5z" />
<glyph unicode="&#x2012;" horiz-adv-x="733" d="M176 410q0 18 14 61q6 18 14.5 22.5t39.5 4.5h399q20 0 28.5 -1t15.5 -6.5t7 -17.5q0 -16 -16 -65q-4 -16 -13.5 -20.5t-41.5 -4.5h-394q-23 0 -32 1t-15 7.5t-6 18.5z" />
<glyph unicode="&#x2013;" d="M190 544.5q0 22.5 52 22.5h835q51 0 51 -22.5t-51 -22.5h-835q-52 0 -52 22.5z" />
<glyph unicode="&#x2014;" horiz-adv-x="2093" d="M244 544.5q0 22.5 51 22.5h1776q51 0 51 -22.5t-51 -22.5h-1776q-51 0 -51 22.5z" />
<glyph unicode="&#x2018;" horiz-adv-x="628" d="M424 936q0 84 40 176t92 156.5t98 107.5t63 43q20 0 20 -20q0 -8 -28 -35q-195 -160 -236 -379q39 39 92 39q90 0 90 -86q0 -49 -37.5 -90t-95.5 -41q-98 0 -98 129z" />
<glyph unicode="&#x2019;" horiz-adv-x="628" d="M451 829q0 8 28 35q195 160 236 379q-39 -39 -92 -39q-90 0 -91 86q0 49 38 90t96 41q98 0 98 -129q0 -84 -40 -176t-92 -156.5t-98.5 -107.5t-62.5 -43q-20 0 -20 20z" />
<glyph unicode="&#x201a;" horiz-adv-x="628" d="M133 -379q0 8 29 35q195 160 235 379q-39 -39 -92 -39q-90 0 -90 86q0 49 38 90t95 41q98 0 98 -129q0 -84 -39.5 -176t-92 -156.5t-98.5 -107.5t-62 -43q-21 0 -21 20z" />
<glyph unicode="&#x201c;" horiz-adv-x="1003" d="M424 936q0 84 40 176t92 156.5t98 107.5t63 43q20 0 20 -20q0 -8 -28 -35q-195 -160 -236 -379q39 39 92 39q90 0 90 -86q0 -49 -37.5 -90t-95.5 -41q-98 0 -98 129zM799 936q0 84 40 176t92 156.5t98 107.5t63 43q20 0 20 -20q0 -8 -29 -35q-195 -160 -235 -379 q39 39 92 39q90 0 90 -86q0 -49 -38 -90t-95 -41q-98 0 -98 129z" />
<glyph unicode="&#x201d;" horiz-adv-x="1003" d="M446 829q0 8 29 35q195 160 236 379q-39 -39 -93 -39q-90 0 -90 86q0 49 38 90t96 41q98 0 98 -129q0 -84 -40 -176t-92.5 -156.5t-98.5 -107.5t-62 -43q-21 0 -21 20zM821 829q0 8 29 35q195 160 235 379q-39 -39 -92 -39q-90 0 -90 86q0 49 38 90t95 41q98 0 99 -129 q0 -84 -40 -176t-92.5 -156.5t-98.5 -107.5t-62 -43q-21 0 -21 20z" />
<glyph unicode="&#x201e;" horiz-adv-x="1003" d="M145 -379q0 8 29 35q195 160 236 379q-39 -39 -93 -39q-90 0 -90 86q0 49 38 90t95 41q98 0 99 -129q0 -84 -40 -176t-92.5 -156.5t-98.5 -107.5t-62 -43q-21 0 -21 20zM520 -379q0 8 29 35q195 160 235 379q-39 -39 -92 -39q-90 0 -90 86q0 49 38 90t95 41q98 0 99 -129 q0 -84 -40 -176t-92.5 -156.5t-98.5 -107.5t-62 -43q-21 0 -21 20z" />
<glyph unicode="&#x2026;" horiz-adv-x="1400" d="M229 88q0 49 42 89t91 40q41 0 66 -26.5t25 -61.5q0 -47 -41 -88t-93 -41q-41 0 -65.5 24.5t-24.5 63.5zM616 88q0 49 42 89t92 40q41 0 65.5 -26.5t24.5 -61.5q0 -47 -41 -88t-92 -41q-41 0 -66 24.5t-25 63.5zM1004 88q0 49 41.5 89t91.5 40q41 0 65.5 -26.5 t24.5 -61.5q0 -47 -41 -88t-92 -41q-41 0 -65.5 24.5t-24.5 63.5z" />
<glyph unicode="&#x202f;" horiz-adv-x="370" />
<glyph unicode="&#x2039;" horiz-adv-x="733" d="M336 481q-8 16 8 27q229 203 381 467q8 14 23 14h4q23 0 14 -24q-119 -252 -297 -469q72 -221 61 -471q0 -8 -8 -16.5t-18 -8.5h-4q-16 0 -17 14q-16 260 -147 467z" />
<glyph unicode="&#x203a;" horiz-adv-x="733" d="M215 8q-4 8 0 17q119 254 297 471q-72 219 -61 469q0 8 8 16t18 8h4q12 0 17 -14q16 -260 147 -467q8 -12 -8 -27q-229 -203 -381 -467q-6 -14 -23 -14h-4q-10 0 -14 8z" />
<glyph unicode="&#x205f;" horiz-adv-x="462" />
<glyph unicode="&#x20ac;" horiz-adv-x="1179" d="M247 562q-3 7 1 18l10 20q6 16 23 16h86q4 27 16 84l25 84h-91q-10 0 -13 7.5t1 17.5l10 20q6 16 23 17h92q86 217 242 379q213 219 440 219q121 0 191 -90l90 84q6 6 16 6h6q20 0 17 -21l-80 -317q-4 -20 -25 -21h-20q-20 0 -17 19q18 117 -29 197.5t-147 80.5 q-168 0 -323 -192q-106 -135 -175 -344h545q10 0 14.5 -9.5t0.5 -17.5l-11 -20q-10 -14 -24 -15h-543l-23 -84l-18 -84h487q10 0 14.5 -9t-1.5 -17l-10 -21q-6 -14 -23 -14h-479q-39 -211 2 -346q25 -86 83 -139.5t142 -53.5q100 0 187.5 82t127.5 197q8 18 25 18h21 q20 0 16 -20l-80 -318q-4 -20 -25 -20h-6q-12 0 -14 8l-49 82q-113 -90 -236 -90q-113 0 -197.5 60.5t-131.5 160.5q-78 160 -52 379h-98q-10 0 -13 7z" />
<glyph unicode="&#x2122;" horiz-adv-x="1980" d="M356 1137l6 20l74 221q4 14 9.5 17.5t25.5 3.5h631q31 0 31 -15q0 -10 -3 -16l-36 -219q-4 -16 -7.5 -21.5t-15.5 -5.5q-18 0 -18 17l4 18q12 74 12 111q0 57 -30.5 75.5t-127.5 18.5q-53 0 -63 -2q-18 -4 -29 -41l-164 -662l-4 -22q0 -14 7.5 -18.5t31.5 -8.5l27 -2h35 h18q31 0 31 -14q0 -25 -25 -25q-31 0 -96.5 2t-95.5 2q-33 0 -96.5 -2t-94.5 -2q-23 0 -22 15q0 25 35 24h20q78 0 99.5 10.5t29.5 45.5l166 659q4 16 4 27q0 14 -29 14h-41q-119 0 -162.5 -35t-86.5 -164q-12 -33 -16.5 -37t-14.5 -4q-19 1 -19 15zM1030 582q0 25 25 24 q96 4 119 86l157 633q4 16 4 23q0 20 -71 20q-33 0 -33 16q0 23 33 23h163q16 0 21.5 -1t8.5 -6t5 -20l68 -690l418 694q10 16 17 19.5t28 3.5h157q31 0 31 -16.5t-7 -19.5t-30 -3q-57 0 -73.5 -9t-24.5 -40l-166 -664l-4 -28q0 -20 72 -21q33 0 32 -16q0 -23 -22 -23 q-25 0 -73 2t-70 2q-25 0 -71 -2t-69 -2q-18 0 -18 15q0 25 33 24q59 0 76.5 9.5t25.5 41.5l172 697l-459 -764q-12 -23 -30.5 -23t-20.5 29v2l-74 743h-2l-164 -651l-4 -31q0 -51 72 -53q25 0 25 -16q0 -23 -23 -23q-18 0 -59 2t-61.5 2t-59.5 -2t-57 -2q-17 1 -17 15z" />
<glyph unicode="&#xe000;" horiz-adv-x="905" d="M0 905h905v-905h-905v905z" />
<glyph unicode="&#xfb01;" horiz-adv-x="1150" d="M-51 -285q0 51 30.5 82t71.5 31q27 0 48.5 -17.5t21.5 -48.5q0 -35 -23.5 -63.5t-66.5 -36.5q16 -23 47 -31l33 -6q72 0 114 162l68 301l141 731h-127q-20 0 -28.5 1t-15.5 6t-7 18q0 27 13.5 33t43.5 6h133l37 192q39 207 146.5 288t298.5 81q293 0 293 -154 q0 -53 -32 -83.5t-71 -30.5q-37 0 -54 20.5t-17 44.5l2 21q2 20 24.5 45.5t63.5 33.5q-57 57 -205 58q-74 0 -126 -17.5t-82 -39t-52.5 -71.5t-31.5 -86t-26 -112l-36 -190h489q31 0 40 -3t9 -20l-6 -26l-156 -623q-14 -57 -14 -105q0 -84 53 -83q76 0 137 243q8 33 14.5 40 t24.5 7q31 0 31 -20l-20 -76q-18 -76 -41 -125q-55 -115 -150 -115q-74 0 -123 52.5t-49 132.5q0 29 10 69l148 588h-410l-123 -643q-25 -125 -51 -221t-66 -186.5t-94.5 -139.5t-119.5 -49q-61 0 -111.5 34.5t-50.5 100.5z" />
<glyph unicode="&#xfb02;" horiz-adv-x="1204" d="M-51 -285q0 51 30.5 82t71.5 31q27 0 48.5 -17.5t21.5 -48.5q0 -35 -23.5 -63.5t-66.5 -36.5q27 -37 80 -37q74 0 116 170l64 281l143 743h-127q-20 0 -28.5 1t-15.5 6t-7 18q0 27 13.5 33t43.5 6h133l22 113q7 38 21.5 99.5t25.5 92.5t31.5 75t41 65.5t51.5 48 t67.5 38.5t83 20.5t103.5 8.5q106 0 172 -29q82 -35 82 -106h2l18 71q10 29 17.5 35t40.5 6h30q49 0 50 -20q0 -8 -7 -27l-290 -1163q-14 -57 -15 -105q0 -84 54 -83q76 0 137 243q8 33 14 40t25 7q31 0 30 -20l-20 -76q-18 -76 -41 -125q-55 -115 -150 -115 q-74 0 -123 52.5t-49 132.5q0 29 11 69l147 588h-461l-127 -655q-111 -584 -329 -584q-61 0 -111.5 34.5t-50.5 100.5zM580 883h464l89 360h-3q-25 -47 -86 -47q-27 0 -48 17.5t-21 48t21.5 59.5t58.5 39q-51 39 -160 39q-182 0 -229 -133q-27 -74 -86 -383z" />
<glyph unicode="&#xfb03;" horiz-adv-x="1806" d="M-51 -285q0 51 30.5 82t71.5 31q27 0 48.5 -17.5t21.5 -48.5q0 -35 -23.5 -63.5t-66.5 -36.5q29 -37 80 -37q33 0 58.5 32t35.5 61.5t22 78.5q25 92 62 277l145 745h-127q-20 0 -29.5 1t-15.5 7.5t-6 18.5q0 25 12.5 31t42.5 6h135l37 194q35 178 123 272.5t281 94.5 q96 0 172 -31t76 -106q0 -49 -30 -80t-73 -31q-27 0 -48 17.5t-21 48t21.5 59.5t57.5 39q-51 39 -153 39q-172 0 -223 -127q-16 -43 -88 -389h497q43 219 63.5 291.5t63.5 128.5q68 84 158 112.5t209 28.5q307 0 307 -152q0 -57 -33 -86.5t-69.5 -29.5t-54 20.5t-17.5 44.5 l2 21q4 20 25.5 45.5t60.5 33.5q-53 57 -215 58q-59 0 -102 -7.5t-78 -23.5t-57.5 -44t-41 -67.5t-32 -92t-27.5 -121t-27 -154.5q-2 -4 -2 -6h514q31 0 40.5 -3t9.5 -20l-7 -26l-155 -623q-14 -57 -15 -105q0 -84 54 -83q76 0 137 243q8 33 14 40t25 7q31 0 30 -20l-20 -76 q-18 -76 -41 -125q-55 -115 -149 -115q-74 0 -123 52.5t-49 132.5q0 29 10 69l147 588h-434l-127 -655q-4 -25 -17.5 -85.5t-47 -163.5t-68.5 -159q-20 -29 -50 -60.5t-102.5 -73.5t-146.5 -42q-80 0 -143.5 33t-63.5 104q0 49 29.5 80t72.5 31q27 0 48.5 -17.5t21.5 -48.5 q0 -39 -25.5 -66.5t-58.5 -33.5q47 -37 121 -37q70 0 137 68q55 55 86 151q31 102 66 273l135 702h-498l-125 -651q-113 -588 -329 -588q-63 0 -112.5 34.5t-49.5 100.5z" />
<glyph unicode="&#xfb04;" horiz-adv-x="1830" d="M-51 -285q0 51 30.5 82t71.5 31q27 0 48.5 -17.5t21.5 -48.5q0 -35 -23.5 -63.5t-66.5 -36.5q29 -37 80 -37q74 0 114 168q41 166 64 281l143 745h-125q-20 0 -29.5 1t-16.5 6t-7 18q0 27 12.5 33t44.5 6h133l41 207q14 72 34 124t59.5 109t111.5 89t170 32 q94 0 157.5 -35t63.5 -102q0 -49 -29.5 -80t-72.5 -31q-27 0 -48.5 17.5t-21.5 48.5q0 41 28 67.5t54 32.5q-47 37 -129 37q-98 0 -162 -64q-35 -31 -69 -180l-53 -272h497l19 100q6 33 18 89t21.5 85t26 72t32.5 64l40 52q24 30 51.5 44t63 29.5t78.5 20.5t95 5 q106 0 172 -29q82 -35 82 -106h2l18 71q10 29 17.5 35t39.5 6h31q49 0 49 -20q0 -8 -6 -27l-291 -1163q-14 -57 -14 -105q0 -84 53 -83q76 0 137 243q8 33 14.5 40t24.5 7q31 0 31 -20l-20 -76q-18 -76 -41 -125q-55 -115 -150 -115q-74 0 -123 52.5t-49 132.5q0 29 10 69 l148 588h-461l-123 -643q-70 -326 -147 -436q-137 -160 -287 -160q-80 0 -144.5 34t-64.5 103q0 49 29.5 80t72.5 31q27 0 48.5 -17.5t21.5 -48.5q0 -29 -19.5 -58.5t-64.5 -39.5q43 -39 121 -39q51 0 99 36t69.5 64.5t32.5 49.5q39 86 90 350l135 694h-498l-127 -657 q-111 -582 -327 -582q-61 0 -111.5 34.5t-50.5 100.5zM1206 883h465l88 360h-2q-25 -47 -86 -47q-27 0 -48 17.5t-21 48t21.5 59.5t57.5 39q-51 39 -157 39q-72 0 -121 -18.5t-76 -58.5t-38 -69.5t-23 -83.5q-9 -26 -60 -286z" />
</font>
</defs>
</svg>
