<?xml version="1.0" standalone="no"?>
<!DOCTYPE svg PUBLIC "-//W3C//DTD SVG 1.1//EN" "http://www.w3.org/Graphics/SVG/1.1/DTD/svg11.dtd" >
<svg xmlns="http://www.w3.org/2000/svg">
<metadata>
This is a custom SVG webfont generated by Font Squirrel.
Copyright   : Copyright 2003 2008 B Jackowski and J M Nowacki on behalf of TeX users groups This work is released under the GUST Font License   see httptugorgfontslicensesGUSTFONTLICENSEtxt for details
</metadata>
<defs>
<font id="webfontiFeXOEBF" horiz-adv-x="1024" >
<font-face units-per-em="2048" ascent="1651" descent="-397" />
<missing-glyph horiz-adv-x="681" />
<glyph unicode=" "  horiz-adv-x="681" />
<glyph unicode="&#x09;" horiz-adv-x="681" />
<glyph unicode="&#xa0;" horiz-adv-x="681" />
<glyph unicode="!" horiz-adv-x="626" d="M180 159.5q10 65.5 65.5 112.5t121 47t104.5 -47t28.5 -112.5t-65.5 -112.5t-120.5 -47t-104.5 47t-29 112.5zM348 516l19 746q-2 16 2 36q8 59 64 102.5t122 43.5t106.5 -43t30.5 -103l-8 -26l-235 -764q-8 -31 -18.5 -38t-39.5 -7q-33 0 -39 8t-4 45z" />
<glyph unicode="&#x22;" horiz-adv-x="901" d="M379 856l8 455q0 47 41 81.5t94 34.5q51 0 82 -34.5t17 -81.5l-144 -455h-98zM711 856l8 455q0 47 41 81.5t94 34.5q51 0 82 -34.5t16 -81.5l-143 -455h-98z" />
<glyph unicode="#" horiz-adv-x="1705" d="M162 285q10 61 94 61h322l141 334h-408q-20 0 -33.5 2t-29 16.5t-10.5 42.5q12 63 106 64h432l238 555q20 61 73 61q29 0 43.5 -18.5t10.5 -42.5q-6 -20 -17 -41l-219 -514h320l237 555q20 61 74 61q29 0 43 -18.5t10 -42.5q-6 -20 -16 -41l-219 -514h276q25 0 40.5 -2 t31.5 -17.5t10 -44.5q-10 -61 -94 -61h-322l-141 -334h408q20 0 33.5 -2t28.5 -16.5t11 -42.5q-10 -63 -104 -64h-432l-238 -557q-27 -61 -74 -61q-29 0 -43 18.5t-10 42.5q0 10 15 41l221 516h-320l-237 -557q-27 -61 -74 -61q-29 0 -43 18.5t-10 42.5q0 10 14 41l221 516 h-276q-25 0 -40.5 2t-31.5 17.5t-12 44.5zM707 346h319l141 334h-319z" />
<glyph unicode="$" d="M178 379q10 59 47 93t61.5 39t43.5 5q45 0 80.5 -31.5t25.5 -97.5q-8 -45 -46 -86t-114 -41q29 -152 201 -174l86 516q-123 25 -193.5 101.5t-84 155.5t-0.5 161q27 164 136 278.5t281 133.5l17 104h96l-16 -104q170 -16 240.5 -120t45.5 -243q-12 -76 -60 -105.5 t-91 -29.5q-47 0 -81 32.5t-24 96.5q8 47 46 87t108 40q-37 127 -201 145l-77 -458q82 -18 141 -60.5t87 -90.5t41 -106.5t13 -103.5t-8 -86q-27 -168 -133.5 -292t-288.5 -148l-16 -105h-97l17 105q-178 18 -243 133t-40 256zM465 1118q-10 -70 24.5 -132t122.5 -85l74 432 q-59 -10 -103 -35.5t-67.5 -61.5t-35 -63.5t-15.5 -54.5zM573 88q190 39 226 242q14 84 -22 153.5t-122 94.5z" />
<glyph unicode="%" horiz-adv-x="1705" d="M276 -51q2 16 31 51l1071 1294q-100 -43 -221 -43q-147 0 -278 74q10 -84 -9 -201q-37 -213 -130 -313t-197 -100q-51 0 -98.5 20.5t-89.5 67.5t-55 127t3 198q18 109 60.5 192t96.5 129t109.5 68.5t110.5 22.5q78 0 137 -59q147 -154 350 -154q225 0 383 178 q31 35 64 35q23 0 39 -17.5t12 -45.5q-6 -23 -27 -48l-1245 -1501q-35 -39 -63 -39q-27 0 -42.5 18.5t-11.5 45.5zM488.5 898q3.5 -114 70.5 -114q59 0 122.5 83t92.5 257q29 170 -6 254t-96 84q-25 0 -45.5 -13t-37 -43t-26.5 -54.5t-21.5 -75.5t-15.5 -75l-14 -79 q-27 -110 -23.5 -224zM1068 100q-13 80 3 199q35 209 146.5 310.5t232.5 101.5q104 0 163.5 -100.5t24.5 -313.5q-35 -207 -127 -309.5t-198 -102.5q-51 0 -98.5 20.5t-90.5 67.5t-56 127zM1258.5 72.5q3.5 -113.5 70.5 -113.5q59 0 121.5 82t91.5 258q29 170 -5 254t-95 84 q-25 0 -45.5 -13.5t-37 -43t-26.5 -54t-21.5 -76t-15.5 -74.5l-14 -79q-27 -111 -23.5 -224.5z" />
<glyph unicode="&#x26;" horiz-adv-x="1593" d="M133 281q16 88 78 155q12 16 131 119q8 6 46 39l68 58q30 26 33 28q-47 207 -16 401q27 166 149.5 264.5t251.5 98.5q70 0 112 -46t46 -105.5t0 -116.5q-27 -147 -315 -392q49 -201 229 -471q106 106 203 238l88 117q86 115 88 120q4 25 -154 25l17 96q82 -6 250 -6 q104 0 202 6l-16 -96q-88 0 -133 -6q-33 -4 -44 -12.5t-40 -44.5l-61 -82q-217 -293 -353 -426q113 -168 217 -168q55 0 123 39t88 129h97q-23 -117 -118 -191t-218 -74q-199 0 -348 132q-188 -131 -381 -132q-154 0 -247 87.5t-73 216.5zM393 203.5q-2 -56.5 16.5 -85 t36 -36.5t43.5 -8q135 0 281 92q-178 190 -258 442q-74 -78 -104 -252q-13 -96 -15 -152.5zM698 1157q-25 -147 2 -295q217 195 236 316q20 193 -70 192q-49 0 -99.5 -50t-68.5 -163z" />
<glyph unicode="'" horiz-adv-x="569" d="M379 856l8 455q0 47 41 81.5t94 34.5q51 0 82 -34.5t17 -81.5l-144 -455h-98z" />
<glyph unicode="(" horiz-adv-x="796" d="M274 512q92 567 474 920q18 18 73.5 61t77.5 43q14 0 24.5 -7t8.5 -22q-4 -14 -19 -26q-334 -330 -440 -969q-106 -643 113 -958q16 -25 14 -35q-6 -29 -43 -29q-39 0 -119 109.5t-123 226.5q-107 305 -41 686z" />
<glyph unicode=")" horiz-adv-x="796" d="M35 -481q0 10 33 43q319 326 426 952q106 637 -113 959q-16 23 -14 34q6 29 41 29q41 0 123.5 -113.5t132.5 -259.5q88 -283 28 -651q-94 -565 -473 -918q-18 -18 -74.5 -61t-78.5 -43q-14 0 -23.5 6.5t-7.5 22.5z" />
<glyph unicode="*" d="M279 907q8 55 71 76l264 98l-231 99q-55 20 -47 75q8 43 42 72t66 29q27 0 54 -29l164 -172v260q0 35 2 41q4 35 35.5 57.5t68.5 22.5q35 0 59.5 -21.5t18.5 -58.5l-10 -26l-91 -275l222 174q35 27 61 27q33 0 58.5 -29t17.5 -72q-8 -55 -72 -75l-264 -99l231 -98 q55 -20 48 -76q-8 -43 -42 -71.5t-67 -28.5q-27 0 -53 29l-164 172v-260v-41q-6 -35 -38 -57.5t-69 -22.5q-35 0 -59.5 21.5t-15.5 58.5l8 26l90 275l-221 -174q-35 -27 -62 -27q-33 0 -58 28.5t-17 71.5z" />
<glyph unicode="+" horiz-adv-x="1593" d="M201 514q10 61 98 61h530l89 533q12 86 77 86q61 0 47 -86l-88 -533h531q23 0 37 -2t29.5 -17t11.5 -44q-10 -61 -99 -61h-530l-90 -533q-12 -86 -78 -86q-61 0 -47 86l90 533h-530q-23 0 -37.5 2t-29.5 17t-11 44z" />
<glyph unicode="," horiz-adv-x="569" d="M135 -356.5q2 14.5 31 34.5q184 145 231 359q-41 -37 -112 -37q-74 0 -110 47t-23 113q10 68 62 113.5t122 45.5q86 0 123 -73.5t18 -182.5q-20 -125 -93 -238.5t-134.5 -167.5t-81.5 -54q-12 0 -23.5 13t-9.5 27.5z" />
<glyph unicode="-" horiz-adv-x="681" d="M82 356l33 199h542l-32 -199h-543z" />
<glyph unicode="." horiz-adv-x="569" d="M151.5 159.5q10.5 65.5 65.5 112.5t120.5 47t104.5 -47t29 -112.5t-65.5 -112.5t-121 -47t-104.5 47t-28.5 112.5z" />
<glyph unicode="/" d="M39 -449q4 14 18 39l969 1889q31 57 76 57q23 0 39 -17.5t12 -45.5q-4 -16 -16 -39l-969 -1885q-27 -61 -78 -61q-23 0 -39 17t-12 46z" />
<glyph unicode="0" d="M163 435q5 79 10 118t15.5 100.5t18.5 102.5t29.5 119.5t45 133t66.5 123t95.5 109.5t128 70.5t163.5 29.5t153.5 -29.5t103.5 -71.5t58.5 -109.5t25.5 -123t1 -134t-10 -118.5l-16 -102l-18 -101q-7 -40 -28.5 -118t-46 -131t-67.5 -119.5t-94.5 -107.5t-127 -70 t-163.5 -29t-153.5 29t-103.5 70t-58.5 107.5t-26.5 119.5t-1 132zM395 268q-6 -68 5.5 -115t36 -67t44 -27.5t39.5 -7.5q29 0 60.5 12.5t72.5 62.5t62 132q23 94 78 420q47 276 57 389q10 111 -32 156t-97 45q-14 0 -32.5 -5.5t-52.5 -21.5t-63.5 -62t-46.5 -114 q-31 -133 -71 -389q-58 -375 -60 -408z" />
<glyph unicode="1" d="M170 0l16 96h230l176 1053q-115 -35 -264 -35l16 96q287 0 442 131q55 0 66.5 -9t3.5 -56l-197 -1180h238l-16 -96q-76 6 -357 6q-274 0 -354 -6z" />
<glyph unicode="2" d="M102 0l7 37q6 41 32 67l391 406q227 233 265 444q6 41 6 83t-10.5 93.5t-47 83t-98.5 31.5q-102 0 -178 -71q53 -10 81 -48.5t19 -99.5q-12 -72 -64 -109.5t-108 -37.5q-51 0 -94 35.5t-29 115.5q23 129 148 220t287 91q188 0 292.5 -109.5t77.5 -277.5 q-29 -158 -194 -303q-27 -23 -113 -88l-104 -80l-279 -227h246l90 2q90 4 98 14q33 35 76 183h96l-139 -455h-754z" />
<glyph unicode="3" d="M133 285q14 76 65.5 117.5t119 41.5t104.5 -43t27 -112q-12 -66 -56.5 -106t-99.5 -50q74 -68 186 -67q43 0 78 22.5t55.5 51t36 77.5t21.5 78t14 76q12 70 15 114.5t-4 94t-39.5 73t-90.5 23.5h-53q-23 0 -32 1t-15 9t-4 27q4 25 17.5 31t53.5 10q47 2 72 7t54.5 27.5 t54.5 65.5q49 96 65 211q2 39 7.5 82t-20.5 79t-83 36q-106 0 -188 -76q74 -8 94 -51t12 -91q-10 -59 -55 -100t-111 -41q-59 0 -94 38t-25 108q20 115 129 203.5t263 88.5q182 0 277 -78.5t73 -205.5q-20 -125 -114.5 -212t-199.5 -126q113 -27 176.5 -90.5t77 -127 t0.5 -132.5q-27 -166 -168 -279t-354 -113q-170 0 -266 90.5t-76 217.5z" />
<glyph unicode="4" d="M111 319l16 97l778 897q16 23 28.5 26.5t39.5 3.5q41 0 48 -12t1 -53l-143 -862h155l-16 -97h-156l-37 -223h156l-16 -96q-78 6 -289 6q-248 0 -322 -6l17 96h198l37 223h-495zM227 416h418l98 594z" />
<glyph unicode="5" d="M158 326q10 57 45 92t63.5 43t50.5 8q49 0 88 -34t27 -105q-10 -57 -52 -96t-112 -41q25 -63 76 -95t109 -32q53 0 104 28.5t80 83.5q31 59 63 248q33 141 23 239.5t-96 98.5q-150 0 -246 -119q-20 -20 -45 -20q-33 0 -39 18.5t2 48.5l98 590q10 59 41 59l25 -8 q125 -57 262 -57t281 55q18 10 28 10q29 0 23 -36q-4 -33 -64.5 -96.5t-178.5 -125t-245 -61.5q-66 0 -104 10l-43 -258q104 63 225 64q184 0 279.5 -117t62.5 -307q-35 -201 -186.5 -319t-356.5 -118q-158 0 -234.5 108t-53.5 241z" />
<glyph unicode="6" d="M173 456.5q5 75.5 9 109.5t13 81q27 164 87 293t129.5 201.5t153.5 120t150.5 63.5t128.5 16q135 0 187 -77.5t36 -176.5q-10 -63 -52 -98t-99.5 -35t-87 37t-19.5 90q10 57 51 90t90 39q-35 51 -114 52q-27 0 -57.5 -8.5t-76 -33t-88.5 -84t-69 -147.5 q-20 -63 -36.5 -142t-16.5 -91q72 100 190 100q166 0 263 -111.5t61 -324.5q-35 -213 -174.5 -328t-317.5 -115q-88 0 -153.5 32t-102.5 76t-57.5 114.5t-26.5 126t-1 131zM414 180q20 -115 110 -114q57 0 99.5 32.5t58.5 89.5q23 86 47 240q31 174 33 236q2 51 -25.5 84.5 t-81.5 33.5q-55 0 -96 -35.5t-65.5 -104.5t-34.5 -113t-23 -111q-32 -191 -22 -238z" />
<glyph unicode="7" d="M258 864l160 520h96q0 -27 14.5 -39t75.5 -18q72 -8 162 -8h446l-8 -55q-2 -16 -24 -39l-342 -379q-141 -156 -215 -615l-19 -108q-25 -145 -153 -146q-12 0 -26.5 3.5t-38.5 14.5t-35 44t-3 84q10 63 30.5 129.5t45.5 125t53.5 115t58.5 105.5l57 91q28 42 54 76l44 56 l30 39l14 14l174 189h-274q-188 0 -203 -16q-29 -31 -78 -183h-96z" />
<glyph unicode="8" d="M141 332q20 125 95 200.5t186 137.5q-152 111 -117 309q27 156 140.5 259t291.5 103q162 0 251 -80.5t67 -222.5q-14 -88 -68.5 -152.5t-155.5 -125.5q37 -27 60.5 -48.5t60.5 -67.5t49.5 -111.5t-0.5 -145.5q-31 -176 -162.5 -293t-334.5 -117q-184 0 -288 93.5 t-75 261.5zM317 334q-18 -119 34 -193.5t173 -74.5q106 0 185 54t96 152q8 49 -8.5 89t-38 60.5t-66.5 53.5l-194 137q-152 -112 -181 -278zM479 1102q-14 -78 62 -131l215 -156q121 82 145 223q14 94 -30 159t-152 65q-90 0 -159 -41t-81 -119z" />
<glyph unicode="9" d="M176 231q10 63 52 98.5t99.5 35.5t86 -37t18.5 -90q-8 -51 -43 -85t-84 -42q43 -45 127 -45q113 0 197 108q53 72 90 232q12 53 33 159q-70 -100 -191 -100q-168 0 -264 112.5t-61 323.5q33 201 174 320q143 121 327 120q86 0 150.5 -30.5t100.5 -75.5t55.5 -114.5 t25.5 -125t1 -130t-9 -108.5t-12 -81q-27 -166 -85.5 -295t-125 -203t-146.5 -121t-144.5 -63.5t-125.5 -16.5q-139 0 -201.5 74t-44.5 180zM479 655q0 -49 26.5 -82.5t82.5 -33.5q94 0 143 101t78 273q25 139 25 228q-18 121 -105 121q-63 0 -104 -35t-56 -76 q-20 -49 -55 -260q-29 -152 -35 -236z" />
<glyph unicode=":" horiz-adv-x="569" d="M151.5 159.5q10.5 65.5 65.5 112.5t120.5 47t104.5 -47t29 -112.5t-65.5 -112.5t-121 -47t-104.5 47t-28.5 112.5zM250 749.5q10 65.5 65.5 112.5t121 47t104.5 -47t28.5 -112.5t-65.5 -112.5t-121 -47t-104.5 47t-28.5 112.5z" />
<glyph unicode=";" horiz-adv-x="569" d="M135 -356.5q2 14.5 37 43.5q156 137 207 338q-41 -25 -94 -25q-74 0 -110 47t-23 113q10 68 62 113.5t122 45.5q80 0 111.5 -71.5t13.5 -184.5q-20 -123 -88 -236.5t-126.5 -168.5t-78.5 -55q-12 0 -23.5 13t-9.5 27.5zM250 749.5q10 65.5 65.5 112.5t121 47t104.5 -47 t28.5 -112.5t-65.5 -112.5t-121 -47t-104.5 47t-28.5 112.5z" />
<glyph unicode="&#x3c;" horiz-adv-x="1830" d="M282.5 514q6.5 41 61.5 64l1385 612q25 12 40 12q27 0 42.5 -19.5t11.5 -41.5q-6 -41 -62 -66l-1272 -563l1084 -561q45 -25 41 -66q-4 -23 -25.5 -42t-48.5 -19l-43 14l-1173 611q-48 24 -41.5 65z" />
<glyph unicode="=" horiz-adv-x="1593" d="M162 285q10 61 94 61h1194q20 0 33.5 -2t29 -16.5t11.5 -42.5q-10 -63 -105 -64h-1173q-25 0 -40.5 2t-31.5 17.5t-12 44.5zM238 741q12 63 106 64h1174q25 0 40 -2t31.5 -17.5t9.5 -44.5q-10 -61 -94 -61h-1194q-20 0 -33.5 2t-28.5 16t-11 43z" />
<glyph unicode="&#x3e;" horiz-adv-x="1830" d="M178 -115q6 41 62 66l1271 563l-1083 561q-49 27 -41 66q4 25 25.5 43t46.5 18q18 0 45 -14l1173 -610q47 -25 41 -64q-8 -43 -61 -65l-1385 -613q-25 -12 -41 -12q-29 0 -43 19t-10 42z" />
<glyph unicode="?" horiz-adv-x="966" d="M311 1174q16 104 123 182t273 78q37 0 66.5 -2t91 -15.5t101.5 -39t65.5 -80t12.5 -128.5q-18 -125 -139 -198q-266 -164 -303 -387l-10 -60q-6 -41 -15.5 -51t-44.5 -10q-33 0 -39 10t1 45l14 84q39 213 203 410q33 37 48 67.5t27 106.5q23 84 5.5 129t-109.5 45 q-111 0 -193 -64q41 -12 62.5 -43.5t13.5 -81.5q-8 -59 -52 -94t-97 -35q-47 0 -81 32t-24 100zM321.5 159.5q10.5 65.5 65.5 112.5t120.5 47t104.5 -47t29 -112.5t-65.5 -112.5t-121 -47t-104.5 47t-28.5 112.5z" />
<glyph unicode="@" horiz-adv-x="1593" d="M233 711q55 336 278.5 529.5t522.5 193.5q293 0 456 -189.5t103 -542.5q-72 -440 -311 -440q-158 0 -219 82q-104 -82 -227 -82q-170 0 -268.5 117t-61.5 332q35 215 172 331.5t307 116.5q82 0 151.5 -41t100.5 -131h70q45 0 52 -9t1 -50l-80 -475q-16 -117 33 -117 q53 0 92 56.5t55.5 121t32.5 166.5q53 317 -68 494q-131 186 -403 186q-252 0 -446.5 -170t-245.5 -479q-51 -299 81 -474.5t400 -175.5q254 0 524 115q31 14 68 14h49q20 0 29.5 -1t16.5 -7t5 -20l-8 -21q-152 -76 -373 -118q-168 -35 -321 -35q-317 0 -470 199.5 t-98 523.5zM739.5 710.5q-30.5 -182.5 4 -278.5t110.5 -96q98 0 188 96l84 496q4 35 15 51q-53 106 -162 106q-76 0 -142.5 -96t-97 -278.5z" />
<glyph unicode="A" horiz-adv-x="1548" d="M72 0l16 96q78 0 119 4q43 4 55 11.5t25 31.5l639 1233q18 37 35.5 45.5t50.5 8.5q23 0 33 -2.5t20 -14.5t14 -37l238 -1280h174l-16 -96q-72 6 -306 6q-260 0 -335 -6l16 96h170l-51 277h-449l-117 -228l-12 -24q-4 -25 156 -25l-17 -96l-239 6zM569 469h381l-100 541z " />
<glyph unicode="B" horiz-adv-x="1456" d="M70 0l16 96h193l202 1213h-192l14 96h774q211 0 309 -102q79 -82 79 -193q0 -28 -5 -57q-20 -117 -113.5 -203t-242.5 -115q170 -23 246 -121q58 -76 58 -173q0 -29 -5 -60q-27 -160 -160 -270.5t-346 -110.5h-827zM547 96h291q117 0 186 92q57 76 78 197q12 53 12 102 q0 59 -18 111q-14 45 -42 67.5t-46.5 25.5t-49.5 3h-311zM659 768h240q117 0 182.5 79t87.5 206q8 50 9 90q0 165 -142 166h-286z" />
<glyph unicode="C" horiz-adv-x="1478" d="M231 702q57 338 293 531.5t547 193.5q190 0 313 -127l138 109q25 18 41 18q25 0 29 -14q2 -7 3 -16q0 -11 -4 -27l-73 -440q-8 -41 -17.5 -49.5t-48.5 -8.5q-20 0 -28.5 1t-13.5 8.5t-5 23.5v18q0 197 -86 301q-90 108 -225 107q-227 0 -375 -168q-55 -61 -94 -155.5 t-51.5 -151.5t-28.5 -154q-25 -156 -25 -256t35 -184q41 -90 131 -139t203 -49q92 0 186 42t172 136t99 221q4 25 15 30t36 5q29 0 38 -7t5 -36q-31 -180 -202 -334t-407 -154q-317 0 -486 195q-127 147 -127 373q-1 74 13 157z" />
<glyph unicode="D" horiz-adv-x="1570" d="M70 0l16 96h193l202 1213h-192l14 96h762q266 0 414 -187q106 -135 106 -349q0 -83 -16 -179q-55 -328 -262 -509t-476 -181h-761zM557 96h207q242 0 369 174q88 123 135 420q29 170 29 283q0 96 -21 151q-70 184 -311 185h-205z" />
<glyph unicode="E" horiz-adv-x="1343" d="M70 0l16 96h193l200 1200h-192l14 97h1094l-19 -494h-96q4 43 4 82.5t-4 76.5q-8 73 -31.5 126t-92.5 82.5t-183 29.5h-203l-88 -526h45q68 0 111 14.5t67.5 51t34.5 71.5t21 103h96l-96 -576h-97q13 82 14 132q0 51 -38 79q-39 29 -129 29h-45l-97 -578h211 q84 0 148.5 14.5t114 48.5t83 68.5t63.5 97t48 108.5t45 128h96l-188 -561h-1120z" />
<glyph unicode="F" horiz-adv-x="1286" d="M70 0l16 96h193l200 1200h-192l14 97h1065l-18 -494h-97q5 48 5 92q0 33 -3 65q-6 73 -29.5 126t-90 83.5t-179.5 30.5h-184l-92 -551h35q127 0 169 53.5t62 186.5h96l-96 -575h-96q12 78 12 131t-38 80.5t-126 27.5h-34l-93 -553h242l-16 -96q-82 6 -377 6 q-274 0 -348 -6z" />
<glyph unicode="G" horiz-adv-x="1609" d="M231 702q57 336 292 530.5t550 194.5q193 0 313 -127l138 109q25 18 41 18q25 0 29.5 -14t-1.5 -43l-73 -440q-8 -41 -17.5 -49.5t-48.5 -8.5q-20 0 -28.5 1t-13.5 8.5t-5 23.5v18q0 199 -87 302q-91 106 -224 106q-240 0 -396 -190q-104 -129 -155 -439 q-22 -138 -22 -241q0 -125 32 -199q49 -102 145.5 -145t190.5 -43q68 0 137.5 41t87.5 147l35 207h-256l16 96q90 -6 383 -6q229 0 305 6l-16 -96h-141l-68 -412l-6 -29.5t-10 -18.5t-22.5 -9t-80 36t-100.5 70q-117 -129 -324 -129q-313 0 -484 194q-129 146 -129 375 q-1 73 13 156z" />
<glyph unicode="H" horiz-adv-x="1603" d="M70 0l16 96h193l202 1213h-192l14 96q72 -6 338 -6t338 6l-14 -96h-193l-90 -531h496l90 531h-193l15 96q72 -6 338 -6t337 6l-14 -96h-192l-203 -1213h192l-16 -96q-70 6 -336 6t-340 -6l16 96h193l98 586h-495l-99 -586h193l-17 -96q-70 6 -335.5 6t-339.5 -6z" />
<glyph unicode="I" horiz-adv-x="813" d="M57 0l17 96h202l203 1213h-203l15 96q74 -6 348 -6t348 6l-14 -96h-203l-203 -1213h203l-16 -96q-72 6 -346.5 6t-350.5 -6z" />
<glyph unicode="J" horiz-adv-x="1058" d="M39 233q12 76 66.5 117t117.5 41q59 0 101 -41q32 -32 31 -83q0 -16 -3 -34q-8 -45 -35.5 -80.5t-50 -49t-41.5 -19.5q57 -33 133 -33q72 0 130.5 60.5t78.5 189.5l168 1008h-252l15 96q84 -6 374 -6q225 0 302 6l-15 -96h-145l-168 -1004q-25 -154 -161 -241t-329 -87 q-158 0 -246 72q-74 59 -74 147q0 18 3 37z" />
<glyph unicode="K" horiz-adv-x="1603" d="M70 0l16 96h193l202 1213h-192l14 96q72 -6 338 -6t338 6l-14 -96h-193l-106 -629l692 586l22 22q-47 20 -127 21l15 96q76 -6 266 -6q96 0 188 6l-14 -96q-117 0 -150.5 -10.5t-87.5 -53.5l-446 -379l344 -731q8 -16 15.5 -23.5t31 -11.5t72.5 -4h47l-16 -96 q-86 6 -273 6q-254 0 -327 -6l16 96q131 0 135 23l-8 22l-254 541l-164 -137l-74 -449h193l-17 -96q-70 6 -335.5 6t-339.5 -6z" />
<glyph unicode="L" horiz-adv-x="1228" d="M70 0l16 96h193l202 1213h-192l14 96q72 -6 346 -6q295 0 379 6l-14 -96h-242l-203 -1213h136q88 0 159.5 36t114.5 83t79 121t50 118t31 107h96l-158 -561h-1007z" />
<glyph unicode="M" horiz-adv-x="1945" d="M70 0l16 96h41q57 0 102 6q37 4 45.5 11.5t14.5 42.5l192 1153h-192l14 96h428q41 0 54.5 -9.5t21.5 -43.5l219 -1028l563 1030q18 35 35.5 43t56.5 8h426l-14 -96h-192l-203 -1213h192l-16 -96q-70 6 -320 6q-248 0 -321 -6l16 96h193l198 1192h-2l-677 -1237 q-10 -18 -15.5 -25.5t-20 -16.5t-32.5 -9q-20 0 -31.5 8t-14.5 16.5t-7 26.5l-258 1204h-2l-183 -1099q-6 -33 -1 -41.5t42 -12.5q43 -6 101 -6h41l-17 -96l-246 6z" />
<glyph unicode="N" horiz-adv-x="1603" d="M70 0l16 96h41q57 0 102 6q37 4 45.5 11.5t14.5 42.5l192 1153h-192l14 96h426q33 0 44 -4t24 -27l512 -913l131 788q6 20 3 31.5t-11.5 14.5t-34.5 8q-43 6 -99 6h-41l15 96l248 -6l245 6l-14 -96h-41q-57 0 -104 -6q-37 -4 -45.5 -11.5t-12.5 -42.5l-198 -1183 q-4 -27 -8.5 -39.5t-17.5 -19.5t-40 -7q-37 0 -51 27l-662 1179l-174 -1050q-6 -33 -1 -41.5t42 -12.5q43 -6 101 -6h41l-17 -96l-246 6z" />
<glyph unicode="O" horiz-adv-x="1536" d="M231 694q57 344 272.5 538.5t502.5 194.5q281 0 434 -191q112 -139 112 -363q0 -83 -16 -179q-57 -336 -271 -526.5t-503 -190.5q-281 0 -434 189q-112 137 -112 355q-1 81 15 173zM519 421q1 -87 20 -155q25 -92 87 -147.5t152 -55.5q86 0 171 57.5t141 153.5 q90 156 137 449q23 141 27 212q1 14 1 30q0 66 -16 168q-25 102 -91.5 157.5t-156.5 55.5q-82 0 -167 -49.5t-148 -155.5q-78 -129 -127 -418q-16 -102 -24 -159q-6 -49 -6 -122v-21z" />
<glyph unicode="P" horiz-adv-x="1398" d="M70 0l16 96h193l202 1213h-192l14 96h735q223 0 332 -113q86 -89 86 -216q0 -34 -6 -70q-31 -178 -179.5 -283t-344.5 -105h-271l-86 -522h193l-17 -96q-70 6 -335.5 6t-339.5 -6zM657 702h181q72 0 123 16.5t80.5 38t49 67.5t27.5 80t19 102q17 122 16 167q0 60 -46 97 q-50 39 -167 39h-180z" />
<glyph unicode="Q" horiz-adv-x="1536" d="M231 694q57 344 272.5 538.5t502.5 194.5q281 0 434 -191q112 -139 112 -363q0 -83 -16 -179q-14 -86 -43 -169t-82 -178t-143 -177t-209 -133q20 -55 49 -84t45 -33t45 -4q133 0 158 78q16 43 45 43q30 0 29 -33q0 -10 -3 -24q-6 -31 -15 -69t-33.5 -95.5t-57.5 -102.5 t-86 -77.5t-117 -32.5q-70 0 -111.5 31.5t-56 86t-18.5 124.5q-2 28 -2 58q0 45 4 93q-74 -18 -170 -19q-287 0 -438 190q-110 137 -110 353q-1 81 15 174zM504 381q2 -82 28.5 -146.5t77.5 -111.5l2 27q12 70 72.5 118.5t136.5 48.5q129 0 191 -157q72 63 122 172.5 t66.5 183.5t34.5 180q27 166 27 281q0 78 -13 133q-27 119 -97.5 177.5t-160.5 58.5q-82 0 -177 -56.5t-169 -195.5q-68 -127 -113 -398q-16 -96 -23 -165q-6 -53 -6 -114q1 -18 1 -36zM686 117q2 -16 24.5 -37t67.5 -21q80 0 152 41q-6 143 -119 144q-49 0 -84 -29t-41 -65 q-1 -8 -1 -16.5t1 -16.5z" />
<glyph unicode="R" horiz-adv-x="1556" d="M70 0l16 96h193l202 1213h-192l14 96h682q254 0 383 -109q106 -89 106 -214q0 -28 -6 -58q-16 -111 -114.5 -202t-249.5 -128q168 -78 170 -245q0 -10 -6 -152v-121q0 -55 20.5 -90t65.5 -35q92 0 131 142q8 47 55 47q14 0 22.5 -1t15.5 -13q5 -7 5 -19q0 -7 -2 -14 q-4 -18 -15.5 -45t-37 -70t-78.5 -72t-123 -29q-340 0 -377 187q-1 9 -1 23q0 50 18 159q20 113 19 147q0 36 -19 95q-37 78 -140 78h-176l-94 -570h193l-17 -96q-70 6 -329.5 6t-333.5 -6zM664 739h163q68 0 120 10.5t86 34t55.5 45t35 60.5t18.5 63.5t13 71.5q8 49 11 73 q2 18 3 45q0 9 -1 19q-1 41 -14 61.5t-38.5 43t-73 33t-114.5 10.5h-168z" />
<glyph unicode="S" horiz-adv-x="1138" d="M117 1q0 9 4 34l61 373q6 39 15.5 49t44.5 10q31 0 37 -8t2 -39q-4 -29 -4 -55q0 -66 22 -118q31 -73 90.5 -109t117.5 -50t122 -14q113 0 171 72.5t77 166.5q4 29 4 55q0 128 -103 177q-27 10 -133 35l-147 41t-86 41.5t-76 76.5q-58 92 -58 202q0 38 7 77 q31 178 155.5 293.5t311.5 115.5q170 0 276 -102l64 55q57 47 75 47q25 0 30 -14q2 -7 2 -16q0 -11 -3 -27l-63 -375q-6 -37 -15.5 -47t-44.5 -10q-25 0 -33 6t-10 29q-1 10 -1 22q0 19 2 45q0 6 1 13q0 38 -15 83q-17 52 -44 97t-87.5 75.5t-146.5 30.5 q-104 0 -163.5 -64.5t-73.5 -150.5q-4 -22 -4 -42q0 -46 19 -86q28 -56 79 -76q12 -4 143 -39q80 -20 112 -30.5t77 -30t70.5 -47.5t50.5 -71q51 -86 51 -195q0 -44 -8 -91q-33 -190 -159 -314.5t-319 -124.5q-205 0 -323 105l-68 -57q-57 -47 -75.5 -47.5t-24.5 7t-6 16.5z " />
<glyph unicode="T" horiz-adv-x="1421" d="M221 889l127 493h1186l-41 -493h-96q8 117 8 205t-56.5 140t-179.5 52h-98l-199 -1190h275l-17 -96q-96 6 -417.5 6t-421.5 -6l16 96h275l198 1190h-100q-55 0 -100 -11t-76 -26.5t-58.5 -49.5t-43 -58.5t-34 -75.5t-26.5 -82l-25 -94h-96z" />
<glyph unicode="U" horiz-adv-x="1574" d="M289 1309l14 96q72 -6 338 -6t338 6l-14 -96h-193l-147 -879q-4 -33 -7.5 -50.5t-4.5 -58.5v-14q0 -33 4 -56q5 -28 19.5 -64.5t40 -58.5t70 -38t101.5 -16q150 0 273.5 93t158.5 304l131 778q6 20 3 31.5t-11 14.5t-35 8q-43 6 -98 6h-41l14 96l248 -6l246 6l-15 -96 h-41q-57 0 -104 -6q-37 -4 -45 -11.5t-12 -42.5l-131 -784q-35 -211 -186.5 -349.5t-379.5 -138.5q-260 0 -389 139q-102 109 -101 265q0 42 7 88l141 840h-192z" />
<glyph unicode="V" horiz-adv-x="1548" d="M264 1309l15 96q74 -6 301 -6q258 0 331 6l-14 -96h-168l199 -932l497 911q-47 20 -153 21l14 96l240 -6l209 6l-15 -96q-115 0 -144.5 -9.5t-45.5 -37.5l-674 -1227q-12 -23 -19.5 -31t-23.5 -14t-43 -6q-39 0 -50 11t-18 40l-272 1274h-166z" />
<glyph unicode="W" horiz-adv-x="2115" d="M262 1309l14 96q80 -6 291 -6q256 0 330 6l-14 -96h-172l151 -889l320 635l-43 254h-154l14 96q80 -6 291 -6q256 0 330 6l-14 -96h-172l151 -889l436 866q-53 23 -178 23l15 96q82 -6 249 -6q96 0 197 6l-14 -96q-106 0 -135 -9.5t-44 -37.5l-618 -1227 q-14 -27 -29.5 -39t-46.5 -12q-35 0 -45 11t-16 42l-148 866l-438 -868q-27 -51 -78 -51q-33 0 -44 12t-15 39l-217 1274h-154z" />
<glyph unicode="X" horiz-adv-x="1548" d="M59 0l17 96h49q129 0 184 21l451 557l-281 635h-174l14 96q74 -6 304 -6q262 0 335 6l-14 -96h-149l168 -385l274 338l18 24q-59 23 -168 23l15 96q74 -6 282 -6l250 6l-14 -96h-49q-61 0 -113 -6q-45 -4 -58.5 -10.5t-31.5 -28.5l-358 -443l321 -725h174l-16 -96 q-74 6 -301 6q-262 0 -338 -6l16 96h150l-209 475l-367 -452q57 -23 168 -23l-16 -96q-74 6 -281 6z" />
<glyph unicode="Y" horiz-adv-x="1548" d="M252 1309l14 96q74 -6 307 -6q268 0 342 6l-14 -96h-153l241 -600l428 579q-45 20 -137 21l14 96l244 -6l209 6l-14 -96q-121 0 -155 -9.5t-52 -33.5l-520 -705l-78 -465h194l-16 -96q-70 6 -332 6q-260 0 -334 -6l17 96h192l78 465l-301 748h-174z" />
<glyph unicode="Z" horiz-adv-x="1251" d="M123 53q6 29 24 53l885 1203h-192q-100 0 -179 -30t-123 -69t-78 -102.5t-46.5 -101t-24.5 -95.5h-96l106 494h904q27 0 37 -2t17 -13q5 -7 4 -20q0 -7 -1 -16q-4 -25 -23 -49l-880 -1201h205q80 0 145 17.5t109.5 41t82 66.5t58 77t41 92.5t29 91t20.5 92.5h96 l-133 -582h-930q-27 0 -38 2t-17 13q-4 7 -4 19q0 8 2 19z" />
<glyph unicode="[" horiz-adv-x="573" d="M133 -512l342 2048h307l-20 -125h-182l-301 -1798h182l-21 -125h-307z" />
<glyph unicode="\" horiz-adv-x="1177" d="M377 1473q4 29 25.5 46t46.5 17q20 0 32.5 -9t15.5 -19.5l9 -32.5l459 -1883q6 -27 4 -41q-4 -29 -25.5 -46t-46.5 -17q-14 0 -24.5 4t-17.5 15.5t-9 18.5t-6 23l-457 1883q-8 33 -6 41z" />
<glyph unicode="]" horiz-adv-x="573" d="M-41 -512l21 125h182l301 1798h-182l20 125h307l-342 -2048h-307z" />
<glyph unicode="^" horiz-adv-x="1138" d="M188 1196l635 328l525 -328l-31 -45l-516 252l-596 -252z" />
<glyph unicode="_" horiz-adv-x="1548" d="M-51 -305l16 98h1548l-16 -98h-1548z" />
<glyph unicode="`" d="M467 1319q10 49 55 88t94 39q59 0 89 -62l126 -270l-79 -67l-236 172q-57 45 -49 100z" />
<glyph unicode="a" horiz-adv-x="995" d="M94 223q27 152 202 234t415 86l12 73q7 39 7 73q0 59 -21 101q-33 65 -121 64q-59 0 -123 -12l10 -11q10 -12 17.5 -37.5t1.5 -54.5q-10 -61 -54.5 -95t-95.5 -34q-47 0 -82 34q-27 26 -27 69q0 13 3 26q8 51 44.5 90t77.5 56.5t97.5 28t86 12.5t62.5 2q188 0 282 -84 q74 -66 74 -172q0 -28 -6 -58l-73 -442q-2 -23 -2 -38t20.5 -25.5t65.5 -12.5q20 -2 29 -10q6 -6 7 -21q0 -7 -2 -16q-4 -23 -15 -34t-22.5 -13t-35.5 -2h-86q-53 0 -89 12.5t-51.5 27.5t-20.5 40.5t-4 38t3 33.5q-102 -164 -279 -164q-133 0 -230 59q-80 49 -80 137 q-1 19 3 39zM334 223q-3 -17 -3 -33q0 -44 20 -79q28 -49 87 -50q63 0 137 52.5t93 169.5l32 194q-29 -2 -56.5 -6t-82.5 -20.5t-97 -41t-81 -74t-49 -112.5z" />
<glyph unicode="b" horiz-adv-x="1138" d="M174 0l205 1229q4 20 3 34q0 27 -12 34q-19 11 -118 12l14 96l367 16l-98 -585q125 86 262 86q180 0 283 -122q75 -89 75 -231q0 -53 -10 -114q-35 -217 -184.5 -342t-344.5 -125q-147 0 -229 108l-115 -96h-98zM438 182q59 -121 174 -121q55 0 108.5 33t86.5 86 q43 78 76 277q24 140 24 216q0 29 -4 48q-10 59 -47 93t-92 34q-125 0 -234 -117z" />
<glyph unicode="c" horiz-adv-x="909" d="M143 455q35 215 179.5 344t347.5 129q133 0 215 -47q68 -39 68 -112q0 -14 -3 -30q-10 -61 -54 -95t-95 -34q-47 0 -82 34q-27 26 -27 69q0 13 2 26q10 59 58 97q-51 10 -90 10q-45 0 -83 -18.5t-64 -53.5t-44 -69.5t-31.5 -86t-19.5 -80t-12 -73.5q-17 -105 -18 -177 q0 -57 11 -93q35 -125 154 -125q145 0 240 172q12 27 51 26q14 0 22.5 -1t16.5 -8t6 -19q-2 -14 -23.5 -50t-64.5 -84.5t-122 -83t-175 -34.5q-190 0 -295 124q-77 92 -77 235q-1 51 9 108z" />
<glyph unicode="d" horiz-adv-x="1138" d="M143 455q37 219 186.5 343t340.5 124q127 0 213 -78l63 385q4 20 4 34q0 27 -13 34q-19 11 -118 12l15 96l366 16l-209 -1245q-2 -17 -2 -30q0 -31 13 -38q19 -11 118 -12l-16 -96l-377 -12l14 84q-117 -84 -247 -84q-182 0 -285 122q-75 90 -75 234q-1 52 9 111z M385 190q10 -59 47 -94t92 -35q131 0 238 132l90 546q-57 109 -174 109q-131 0 -205 -133q-33 -63 -67 -262q-24 -140 -24 -215q0 -29 3 -48z" />
<glyph unicode="e" horiz-adv-x="956" d="M135 461q35 213 180.5 340t346.5 127q92 0 158.5 -27t100 -70t53.5 -98q17 -48 17 -98q0 -8 -1 -15q-3 -58 -9 -114q-6 -41 -20.5 -50.5t-55.5 -9.5h-512q-8 -47 -10 -71.5t-5 -77.5q-1 -13 -1 -25q0 -36 7 -61q9 -33 27.5 -70t56.5 -54t93 -17q72 0 151 41t126 127 q10 16 15 23t15.5 11t26.5 4q10 0 18.5 -1t17.5 -10t7 -25q-12 -61 -122.5 -156.5t-287.5 -95.5q-207 0 -318 128q-84 96 -84 242q0 49 9 103zM406 514h382l9 54q3 22 3 63v21q-1 56 -13.5 97.5t-46 73t-89.5 31.5q-186 0 -245 -340z" />
<glyph unicode="f" horiz-adv-x="626" d="M55 0l17 96h141l119 717h-119l16 96h119l35 207q18 111 93 185.5t166 103.5t194 29q104 0 152 -54q38 -42 38 -96q0 -14 -2 -29q-10 -59 -54 -93t-93 -34q-47 0 -81 33q-26 25 -26 67q0 13 2 27q14 72 68 103q-8 2 -22.5 2t-29 -2t-47 -14.5t-59.5 -36t-52.5 -72.5 t-37.5 -117l-35 -209h203l-17 -96h-190l-119 -717h178l-16 -96q-72 6 -281 6z" />
<glyph unicode="g" d="M27 -154q20 121 176 177q-55 52 -55 151q0 19 2 39q20 102 102 188q-68 63 -68 163q0 26 4 54q20 129 132 216.5t288 87.5q147 0 232 -66q96 76 194 76q57 0 80 -38q17 -28 17 -58q0 -11 -3 -23q-6 -37 -34.5 -62.5t-67.5 -25.5t-59 25q-16 19 -16 46q0 8 1 17l13 37 q-49 -14 -80 -33q46 -63 46 -143q0 -27 -5 -56q-20 -127 -130 -215t-288 -88q-125 0 -213 52l-12 -23q-12 -20 -19 -49q-2 -13 -2 -25q0 -37 20 -62q26 -34 68 -38h119q254 0 348 -41q133 -56 133 -206q0 -32 -6 -68q-18 -115 -147 -191t-357 -76q-244 0 -337 81 q-79 69 -79 149q1 14 3 28zM205 -150q-3 -15 -3 -29q0 -61 49 -105q60 -54 204 -54q145 0 223 56.5t88 127.5q2 12 2 23q0 50 -46 75q-56 30 -179 29h-193q-125 0 -145 -123zM406 537q-1 -8 -1 -18q0 -23 4 -51q5 -40 33.5 -59.5t77.5 -19.5q41 0 72 15.5t47 35t29.5 55 t18.5 59.5t11 64q8 51 12 81q1 11 1 24q0 21 -3 46q-5 40 -34 59.5t-78 19.5q-41 0 -71.5 -15.5t-47 -34t-31 -56t-18.5 -59.5l-12 -65q-8 -52 -10 -81z" />
<glyph unicode="h" horiz-adv-x="1138" d="M49 0l17 96h141l188 1133q4 20 4 34q0 27 -13 34q-19 11 -118 12l15 96l366 16l-114 -686h2q131 186 331 187q158 0 204 -78q32 -54 32 -134q0 -36 -6 -77l-90 -537h141l-16 -96l-254 6l-254 -6l16 96h133l94 561q12 59 13 97q0 19 -3 33q-9 42 -20.5 51.5t-32.5 9.5 q-92 0 -190 -84t-123 -240l-72 -428h142l-17 -96l-256 6z" />
<glyph unicode="i" horiz-adv-x="569" d="M53 0l17 96h141l104 633q4 20 4 35q0 26 -12 34q-18 11 -112 11l16 96l358 17l-137 -826h127l-16 -96l-238 6zM332 1247q10 63 64.5 111.5t123.5 48.5q66 0 105 -47q31 -37 30 -86q0 -13 -2 -27q-10 -63 -64 -111.5t-124 -48.5q-66 0 -105 48q-31 37 -30 86q0 12 2 26z " />
<glyph unicode="j" horiz-adv-x="626" d="M-164 -223q10 55 51 92t99 37q55 0 86 -37q23 -28 23 -65q0 -12 -3 -25q-16 -72 -72 -105q31 -10 66 -10q53 0 93 47t55.5 95.5t25.5 103.5l135 817q4 27 5 39t-7 23.5t-28 15.5q-31 4 -111 4l16 96l379 17l-168 -1008q-25 -150 -144.5 -237t-258.5 -87q-115 0 -186 51 q-59 42 -58 108q0 13 2 28zM383 1247q10 63 64.5 111.5t123.5 48.5q66 0 105 -47q31 -37 31 -86q0 -13 -2 -27q-10 -63 -64.5 -111.5t-124.5 -48.5q-66 0 -104 48q-31 37 -31 86q0 12 2 26z" />
<glyph unicode="k" horiz-adv-x="1081" d="M33 0l16 96h141l189 1133q4 20 3 34q0 27 -12 34q-19 11 -118 12l14 96l367 16l-154 -913l330 262q18 8 18 21q6 23 -84 22l17 96q80 -6 233 -6q111 0 158 6l-16 -96q-90 0 -122 -8t-59 -31l-252 -203l224 -436q12 -23 18 -29t28.5 -8t90.5 -2l-16 -96q-135 6 -205 6 l-248 -6l16 96q80 0 80 21q0 11 -65 138l-95 179l-84 -67l-45 -271h142l-17 -96l-245 6z" />
<glyph unicode="l" horiz-adv-x="569" d="M53 0l17 96h141l188 1133q4 20 4 34q0 27 -13 34q-19 11 -118 12l15 96l366 16l-221 -1325h141l-16 -96l-250 6z" />
<glyph unicode="m" horiz-adv-x="1705" d="M49 0l17 96h141l104 633q4 20 4 34q0 27 -13 35q-19 11 -118 11l17 96l354 17l-35 -207h2q135 207 346 207q229 0 238 -187q129 186 330 187q158 0 203 -78q32 -54 32 -134q0 -36 -6 -77l-90 -537h141l-16 -96l-254 6l-254 -6l16 96h133l95 561q12 59 12 97q0 19 -3 33 q-9 42 -20.5 51.5t-31.5 9.5q-92 0 -190.5 -84t-123.5 -240l-71 -428h141l-16 -96l-254 6l-254 -6l16 96h133l94 561q12 59 13 97q0 19 -3 33q-9 42 -20.5 51.5t-32.5 9.5q-92 0 -190 -84t-123 -240l-72 -428h142l-17 -96l-256 6z" />
<glyph unicode="n" horiz-adv-x="1138" d="M49 0l17 96h141l104 633q4 20 4 34q0 27 -13 35q-19 11 -118 11l17 96l354 17l-35 -207h2q135 207 346 207q158 0 204 -78q32 -54 32 -134q0 -36 -6 -77l-90 -537h141l-16 -96l-254 6l-254 -6l16 96h133l94 561q12 59 13 97q0 19 -3 33q-9 42 -20.5 51.5t-32.5 9.5 q-92 0 -190 -84t-123 -240l-72 -428h142l-17 -96l-256 6z" />
<glyph unicode="o" d="M133 449q37 219 184.5 349t348.5 130q205 0 307 -131q76 -98 76 -244q0 -50 -9 -104q-37 -213 -182 -337t-350 -124q-201 0 -306 123q-78 91 -78 232q-1 50 9 106zM371 205q4 -63 48 -99t105 -36q57 0 111.5 34.5t79.5 92.5q31 63 65 272q26 152 27 227q0 19 -2 33 q-4 51 -46 88t-106 37q-59 0 -114.5 -34t-79.5 -91q-29 -63 -62 -260q-28 -162 -27 -239q0 -14 1 -25z" />
<glyph unicode="p" horiz-adv-x="1138" d="M-33 -397l15 96h141l174 1042q8 31 4 45.5t-31 18.5q-23 4 -102 4l16 96l365 17l-14 -88q127 88 268 88q180 0 279 -124q72 -90 73 -231q0 -52 -10 -110q-37 -221 -186.5 -345t-342.5 -124q-119 0 -198 73l-62 -362h142l-15 -96l-258 6zM438 182q57 -121 172 -121 q86 0 163 98.5t110 297.5q14 84 14 151q0 78 -19 131q-36 100 -118 101q-121 0 -232 -115z" />
<glyph unicode="q" horiz-adv-x="1081" d="M143 455q37 221 186.5 344t336.5 123q164 0 235 -144l131 144h84l-205 -1223h142l-15 -96l-258 6l-258 -6l15 96h141l63 379q-115 -90 -247 -90q-180 0 -284 122q-76 90 -76 234q-1 52 9 111zM406 453q-14 -86 -15 -155q0 -78 19 -133q35 -103 116 -104q88 0 170 70 q80 72 90 139l54 324q4 20 3 40q0 62 -33 124q-44 82 -134 82q-84 0 -160.5 -94t-109.5 -293z" />
<glyph unicode="r" horiz-adv-x="876" d="M33 0l16 96h141l105 633q4 20 3 34q0 27 -12 35q-19 11 -118 11l16 96l342 17l-30 -187h2q92 186 256 187q84 0 144 -44q49 -36 49 -95q0 -14 -3 -29q-8 -57 -52 -91t-93 -34t-81 33q-25 26 -25 68q0 11 1 24q6 37 31 65l25 29q-66 0 -117 -37t-82 -99.5t-49.5 -122 t-28.5 -126.5l-61 -367h178l-17 -96q-72 6 -280 6z" />
<glyph unicode="s" horiz-adv-x="806" d="M72 11q0 9 4 34l37 223q6 39 15 49.5t44 10.5q27 0 33 -6.5t10 -28.5q10 -113 55 -172.5t148 -59.5q186 0 209 152q3 17 3 32q0 25 -8 45q-13 32 -48 49t-58.5 25.5t-66.5 16.5q-166 33 -222 100q-52 62 -52 139q0 19 3 39q25 147 131.5 208t241.5 61q104 0 164 -37 q74 37 90 37q18 0 24.5 -7.5t6.5 -16.5t-5 -34l-26 -163q-6 -37 -15.5 -47.5t-44.5 -10.5q-29 0 -36 7.5t-4 31.5q1 14 1 28q0 147 -167 146q-182 0 -203 -127q-4 -29 6 -51t23.5 -35.5t46 -26t49 -16.5t57.5 -12q53 -10 81 -17.5t64.5 -29t63.5 -51.5q62 -68 62 -161 q0 -24 -5 -50q-20 -129 -111 -213t-267 -84q-117 0 -189 57q-25 -12 -55 -33q-41 -25 -59.5 -24.5t-24.5 7.5t-6 16z" />
<glyph unicode="t" horiz-adv-x="798" d="M174 813l12 74q141 6 224.5 130t111.5 283h96l-65 -391h248l-17 -96h-247l-95 -571q-6 -39 -6 -70q0 -103 70 -102q43 0 75.5 49t47.5 133l18 110h96l-20 -112q-18 -104 -84 -183t-174 -79q-259 0 -259 201q0 29 5 63l92 561h-129z" />
<glyph unicode="u" horiz-adv-x="1138" d="M184 809l17 96l377 17l-117 -707q-11 -44 -11 -75q0 -26 8 -43q17 -36 107 -36q94 0 162 78t86 195l66 395q4 20 3 34q0 27 -13 35q-19 11 -117 11l16 96l377 17l-125 -746q-2 -17 -3 -30q0 -31 14 -38q19 -11 118 -12l-16 -96l-365 -12l23 139h-3q-100 -139 -264 -139 q-162 0 -238 58q-59 45 -60 142q0 29 5 62l80 479q4 20 4 34q0 27 -13 35q-20 11 -118 11z" />
<glyph unicode="v" horiz-adv-x="1081" d="M180 813l17 96l229 -6l252 6l-16 -96h-117l112 -512l254 463l13 24q4 25 -101 25l17 96q86 -6 184 -6q86 0 162 6l-17 -96q-88 0 -111.5 -9t-37.5 -36l-399 -721q-12 -20 -18.5 -29.5t-23 -17.5t-40.5 -8q-29 0 -43.5 10t-22.5 47l-166 764h-127z" />
<glyph unicode="w" horiz-adv-x="1478" d="M178 813l17 96l217 -6l223 6l-17 -96h-86l91 -485l163 317l13 25l-27 143h-94l16 96q92 -6 185 -6l229 6l-16 -96h-121l100 -537l252 486l14 31q-43 20 -123 20l17 96l196 -6q84 0 158 6l-16 -96q-57 0 -86 -6t-37 -13.5t-21 -27.5l-370 -721q-29 -53 -80 -53 q-29 0 -42 9t-20 44l-88 479l-247 -481q-14 -29 -30 -40t-50 -11q-23 0 -36 7t-16.5 17.5t-7.5 30.5l-141 766h-119z" />
<glyph unicode="x" horiz-adv-x="1081" d="M37 0l16 96q61 0 90 1t61 10.5t48 27.5l266 297l-199 381h-139l17 96q111 -6 219 -6l241 6l-16 -96h-94l117 -221l176 199q-31 23 -92 22l16 96l211 -6q88 0 186 6l-16 -96q-78 0 -120 -5t-54.5 -12.5t-26.5 -23.5l-235 -262l215 -414h139l-16 -96l-218 6l-245 -6l16 96 h94l-133 252l-203 -229q29 -20 91 -23l-17 -96l-207 6q-96 0 -188 -6z" />
<glyph unicode="y" horiz-adv-x="1081" d="M2 -221q8 55 49 87t88 32q51 0 80 -33q21 -24 21 -58q0 -12 -2 -26q-14 -82 -95 -113q16 -4 33 -4q98 0 184 115q27 37 127 221l-180 813h-127l17 96l229 -6l252 6l-16 -96h-115l112 -506l250 455l15 26q2 10 -24 16.5t-52 6.5l-27 2l17 96q80 -6 186 -6q86 0 162 6 l-17 -96q-90 0 -113.5 -9t-41.5 -40l-518 -936q-49 -90 -139.5 -164t-194.5 -74q-82 0 -127 58q-35 45 -36 100q0 15 3 31z" />
<glyph unicode="z" horiz-adv-x="909" d="M66 19q-1 5 -1 11.5t1 14.5q2 20 22 45l602 746h-108q-154 0 -212.5 -63.5t-95.5 -221.5h-96l84 358h641q25 0 35 -1t18 -11q7 -8 7 -23q0 -21 -25 -51l-598 -741h113q92 0 151.5 21.5t96 73.5t54 99.5t40.5 137.5h96l-107 -414h-661q-18 0 -26.5 1t-18.5 5t-12 13z" />
<glyph unicode="{" horiz-adv-x="1177" d="M246 512q2 16 10 24.5t15.5 9.5t25.5 3q125 6 215 76q53 41 70.5 80.5t35.5 148.5l70 422q23 119 163 189.5t357 70.5q20 0 29.5 -1t18 -4t10.5 -10.5t0 -21.5q-2 -16 -10.5 -24.5t-15.5 -9.5t-26 -3q-102 -6 -198 -57q-88 -59 -107 -164l-71 -430q-8 -47 -17.5 -79 t-38 -79t-88 -82.5t-149.5 -58.5q117 -33 165 -98.5t38 -139.5l-80 -485q-8 -49 -6 -72q25 -141 245 -155q35 -2 29 -37q-4 -25 -17.5 -31t-52.5 -6q-53 0 -103 4t-119 21.5t-116 46t-75.5 84t-16.5 129.5l74 430q12 78 10 96q-6 66 -63.5 118t-182.5 58q-34 2 -28 37z" />
<glyph unicode="|" horiz-adv-x="653" d="M195 -422l311 1868q12 90 78 90q59 0 47 -90l-312 -1868q-18 -90 -79 -90q-63 0 -45 90z" />
<glyph unicode="}" horiz-adv-x="1177" d="M80 -475q2 16 10 24.5t15.5 9.5t25.5 3q119 6 205 61q39 27 62.5 58.5t28.5 50t11 51.5l72 430q8 51 18.5 80t38 77t88 83.5t150.5 58.5q-119 35 -167 100.5t-38 137.5l82 485q6 57 4 72q-8 63 -69.5 106t-178.5 49q-35 2 -28 37q4 25 18 31t51 6q78 0 146.5 -10 t145.5 -37t116 -88.5t24 -149.5l-71 -430q-14 -82 -11 -100q23 -162 244 -172q35 -2 29 -37q-2 -16 -10.5 -24.5t-15.5 -9.5t-25 -3q-133 -8 -211 -74q-57 -45 -73.5 -83.5t-35.5 -147.5l-72 -422q-20 -115 -158.5 -187.5t-363.5 -72.5q-27 0 -37 1t-16 9.5t-4 26.5z" />
<glyph unicode="~" horiz-adv-x="1138" d="M72 430l125 90q45 33 129 72q88 37 155 37q84 0 195 -70q117 -76 198 -76q139 0 338 146l23 -35l-125 -90q-47 -35 -129 -72q-84 -37 -156 -37q-86 0 -192 70q-121 76 -201 76q-139 0 -338 -146z" />
<glyph unicode="&#xa2;" horiz-adv-x="909" d="M143 455q33 197 158 322.5t303 146.5l14 84q2 20 19.5 34.5t38.5 14.5q47 0 41 -49l-12 -80q121 -6 190.5 -53.5t54.5 -135.5q-10 -61 -54 -95t-95 -34q-47 0 -82 34t-25 95q10 59 58 97q-51 10 -62 10l-129 -776q141 4 234 172q12 27 51 26q14 0 22.5 -1t16.5 -8t6 -19 q-2 -14 -21.5 -46t-57.5 -78t-108.5 -83t-156.5 -43l-15 -88q-4 -20 -20 -34.5t-36.5 -14.5t-33 14t-8.5 35l15 88q-166 18 -253.5 141t-52.5 324zM401 195q18 -63 66 -99l123 735q-45 -18 -80 -60t-55.5 -106.5t-28.5 -100.5t-18 -99q-32 -188 -7 -270z" />
<glyph unicode="&#xa3;" horiz-adv-x="1548" d="M133 162q16 94 116.5 138t233.5 44q76 0 150 -29q2 74 -12.5 171.5t-28.5 166.5h-238l17 99h207q-6 78 6 157q35 203 192.5 349.5t349.5 146.5q160 0 260.5 -99.5t75.5 -246.5q-10 -53 -53 -91t-96 -38t-85 38t-24 91q8 51 49 88t93 41q-31 55 -94.5 87t-141.5 32 q-117 0 -190.5 -116t-102.5 -282q-14 -88 -8 -157h334l-17 -99h-309q2 -25 14.5 -106.5t16.5 -119.5t4 -102.5t-8 -119.5q158 -88 274 -88q98 0 180 51t97 135h98q-27 -152 -98.5 -259t-182.5 -107q-57 0 -113.5 16t-102.5 41.5t-96 57.5t-93 63q-100 -137 -475 -138 q-94 0 -153.5 51.5t-45.5 133.5zM231 162q-8 -41 28 -63.5t89 -22.5q88 0 164 38t104 105q-76 27 -149 27q-41 0 -63.5 -1t-58.5 -5t-55.5 -12.5t-37 -24.5t-21.5 -41z" />
<glyph unicode="&#xa5;" horiz-adv-x="1548" d="M252 1309l14 96q74 -6 307 -6q268 0 342 6l-14 -96h-153l239 -596h4l426 575q-45 20 -137 21l14 96l244 -6l209 6l-14 -96q-121 0 -155 -9.5t-52 -33.5l-410 -553h240l-17 -99h-295l-38 -53l-27 -151h326l-17 -99h-325l-35 -215h194l-16 -96q-70 6 -332 6q-260 0 -334 -6 l17 96h192l35 215h-324l17 99h323l27 151l-22 53h-293l16 99h238l-240 596h-174z" />
<glyph unicode="&#xa8;" d="M313 1247q10 57 57.5 100.5t110.5 43.5q59 0 95 -42t26 -102q-10 -57 -58 -100t-112 -43q-59 0 -94 42t-25 101zM842 1247q10 57 57 100.5t111 43.5q59 0 95 -42t25 -102q-10 -57 -58 -100t-111 -43q-59 0 -94 42t-25 101z" />
<glyph unicode="&#xa9;" horiz-adv-x="1404" d="M117 702q49 291 288.5 497t530.5 206q293 0 464 -206t122 -497q-47 -291 -288 -496.5t-531.5 -205.5t-461.5 205.5t-124 496.5zM240 702q-39 -240 102 -409.5t381 -169.5t437.5 170t238.5 409q39 240 -102.5 410t-381 170t-437 -170t-238.5 -410zM467 702 q29 168 146.5 265.5t273.5 97.5q94 0 157 -64l68 54q12 10 21 10q18 0 12 -29l-37 -221q-4 -20 -8 -24.5t-23 -4.5q-16 0 -20 2.5t-4 14.5q2 104 -42 158.5t-112 54.5q-115 0 -188 -84q-57 -63 -88 -230q-25 -152 6 -219q39 -94 168 -94q74 0 142.5 52.5t84.5 146.5 q2 18 25 18q14 0 19 -4t3 -18q-14 -90 -100 -167t-203 -77q-158 0 -243 97t-58 265z" />
<glyph unicode="&#xab;" horiz-adv-x="1138" d="M256 465q-14 16 8 39q211 195 334 444q10 18 31 19h16q12 0 18.5 -9.5t4.5 -23.5q-63 -217 -181 -451q37 -219 31 -450q-4 -33 -35 -33h-16q-20 0 -25 20q-36 248 -186 445zM653 465q-14 16 9 39q211 195 333 444q10 18 31 19h16q12 0 18.5 -9.5t4.5 -23.5 q-63 -217 -180 -451q37 -219 30 -450q-4 -33 -34 -33h-17q-20 0 -24 20q-37 248 -187 445z" />
<glyph unicode="&#xad;" horiz-adv-x="681" d="M82 356l33 199h542l-32 -199h-543z" />
<glyph unicode="&#xae;" horiz-adv-x="1404" d="M117 702q49 291 288.5 497t530.5 206q293 0 464 -206t122 -497q-47 -291 -288 -496.5t-531.5 -205.5t-461.5 205.5t-124 496.5zM240 702q-39 -240 102 -409.5t381 -169.5t437.5 170t238.5 409q39 240 -102.5 410t-381 170t-437 -170t-238.5 -410zM424 358l8 48h96 l101 606h-97l9 47h340q127 0 190.5 -54.5t50.5 -136.5q-10 -55 -59 -100t-125 -63q84 -41 86 -123v-31q-2 -31 -2 -45v-61q0 -28 10 -45t33 -17q45 0 65 72q2 23 27 22.5t21 -22.5q-2 -14 -10.5 -35t-40 -47.5t-76.5 -26.5q-170 0 -187 94q-2 25 8 90q14 88 0 121 q-18 39 -69 39h-88l-47 -284h96l-8 -48q-37 2 -166 2q-131 0 -166 -2zM721 727h82q49 0 82 11.5t48 35t21.5 42t12.5 52.5q4 39 6 71t-28 52.5t-93 20.5h-84z" />
<glyph unicode="&#xb4;" d="M565 1114l217 270q51 61 109 62q49 0 81 -39t23 -88q-8 -57 -82 -100l-292 -172z" />
<glyph unicode="&#xb8;" horiz-adv-x="909" d="M115 -410l16 99h49q55 0 85 1t72 7t64.5 22.5t26.5 42.5q4 33 -25.5 52.5t-74.5 19.5l30 176h197l-14 -78q72 0 115.5 -50t33.5 -120q-8 -49 -43 -83.5t-75 -51t-112.5 -26t-117.5 -10.5t-129 -1h-98z" />
<glyph unicode="&#xbb;" horiz-adv-x="1138" d="M233 33q74 242 181 450q-37 225 -29 451q0 14 10.5 23.5t22.5 9.5h16q20 0 25 -19q41 -252 186 -444q12 -20 -6 -39q-211 -197 -336 -445q-6 -20 -29 -20h-16q-33 0 -25 33zM631 33q74 242 180 450q-37 225 -29 451q0 14 10.5 23.5t22.5 9.5h16q20 0 25 -19 q41 -252 186 -444q12 -20 -6 -39q-211 -197 -336 -445q-6 -20 -28 -20h-17q-32 0 -24 33z" />
<glyph unicode="&#xc0;" horiz-adv-x="1548" d="M72 0l16 96q78 0 119 4q43 4 55 11.5t25 31.5l639 1233q18 37 35.5 45.5t50.5 8.5q23 0 33 -2.5t20 -14.5t14 -37l238 -1280h174l-16 -96q-72 6 -306 6q-260 0 -335 -6l16 96h170l-51 277h-449l-117 -228l-12 -24q-4 -25 156 -25l-17 -96l-239 6zM569 469h381l-100 541z M778 1722q-2 59 43 104.5t105 45.5q49 0 80 -45l176 -238l-66 -78l-270 123q-68 33 -68 88z" />
<glyph unicode="&#xc2;" horiz-adv-x="1548" d="M72 0l16 96q78 0 119 4q43 4 55 11.5t25 31.5l639 1233q18 37 35.5 45.5t50.5 8.5q23 0 33 -2.5t20 -14.5t14 -37l238 -1280h174l-16 -96q-72 6 -306 6q-260 0 -335 -6l16 96h170l-51 277h-449l-117 -228l-12 -24q-4 -25 156 -25l-17 -96l-239 6zM569 469h381l-100 541z M672 1540l407 289l310 -289l-41 -49l-308 119l-348 -119z" />
<glyph unicode="&#xc6;" horiz-adv-x="1855" d="M72 0l16 96q86 0 127 5t52.5 13.5t21.5 28.5l618 1166h-137l14 96h1125l-19 -494h-96q8 84 2 157t-27.5 126t-85 84t-170.5 31h-165l-99 -586h64q129 0 173 54t64 186h97l-95 -576h-96q12 78 11 131t-41 81t-130 28h-63l-88 -531h176q66 0 121 13.5t95 31t75 56.5 t56.5 68.5t48 89t39.5 96l38 110.5h96l-188 -561h-989l16 96h145l89 531h-304l-253 -480l-13 -24q-2 -12 37 -18.5t78 -6.5l41 -2l-17 -96l-241 6zM711 723h268l98 586h-53z" />
<glyph unicode="&#xc7;" horiz-adv-x="1478" d="M231 702q57 338 293 531.5t547 193.5q190 0 313 -127l138 109q25 18 41 18q25 0 29.5 -14t-1.5 -43l-73 -440q-8 -41 -17.5 -49.5t-48.5 -8.5q-20 0 -28.5 1t-13.5 8.5t-5 23.5q4 211 -86 318.5t-225 107.5q-227 0 -375 -168q-55 -61 -94 -155.5t-51.5 -151.5t-28.5 -154 q-25 -156 -25 -256t35 -184q41 -90 131 -139t203 -49q92 0 186 42t172 136t99 221q4 25 15 30t36 5q29 0 38 -7t5 -36q-29 -166 -176.5 -311.5t-356.5 -171.5l-8 -50q72 0 116 -50t34 -120q-8 -49 -43 -83.5t-75 -51t-113 -26t-118 -10.5t-129 -1h-98l16 99h50q55 0 84.5 1 t71.5 7t64.5 22.5t26.5 42.5q4 33 -25.5 52.5t-74.5 19.5l27 152q-264 37 -397.5 226t-84.5 490z" />
<glyph unicode="&#xc8;" horiz-adv-x="1343" d="M70 0l16 96h193l200 1200h-192l14 97h1094l-19 -494h-96q8 86 0 158.5t-31.5 126t-92.5 83t-183 29.5h-203l-88 -526h45q68 0 111 14.5t67.5 51t34.5 71.5t21 103h96l-96 -576h-97q12 76 13.5 129t-37.5 82t-129 29h-45l-97 -578h211q84 0 148.5 14.5t114 48.5t83 68.5 t63.5 97t48 108.5t45 128h96l-188 -561h-1120zM676 1722q-2 59 43 104.5t104 45.5q49 0 80 -45l176 -238l-65 -78l-271 123q-67 33 -67 88z" />
<glyph unicode="&#xc9;" horiz-adv-x="1343" d="M70 0l16 96h193l200 1200h-192l14 97h1094l-19 -494h-96q8 86 0 158.5t-31.5 126t-92.5 83t-183 29.5h-203l-88 -526h45q68 0 111 14.5t67.5 51t34.5 71.5t21 103h96l-96 -576h-97q12 76 13.5 129t-37.5 82t-129 29h-45l-97 -578h211q84 0 148.5 14.5t114 48.5t83 68.5 t63.5 97t48 108.5t45 128h96l-188 -561h-1120zM793 1589l254 238q51 45 96 45q59 0 89 -45t9 -105q-20 -55 -96 -88l-311 -123z" />
<glyph unicode="&#xca;" horiz-adv-x="1343" d="M70 0l16 96h193l200 1200h-192l14 97h1094l-19 -494h-96q8 86 0 158.5t-31.5 126t-92.5 83t-183 29.5h-203l-88 -526h45q68 0 111 14.5t67.5 51t34.5 71.5t21 103h96l-96 -576h-97q12 76 13.5 129t-37.5 82t-129 29h-45l-97 -578h211q84 0 148.5 14.5t114 48.5t83 68.5 t63.5 97t48 108.5t45 128h96l-188 -561h-1120zM569 1540l408 289l309 -289l-41 -49l-307 119l-348 -119z" />
<glyph unicode="&#xcb;" horiz-adv-x="1343" d="M70 0l16 96h193l200 1200h-192l14 97h1094l-19 -494h-96q8 86 0 158.5t-31.5 126t-92.5 83t-183 29.5h-203l-88 -526h45q68 0 111 14.5t67.5 51t34.5 71.5t21 103h96l-96 -576h-97q12 76 13.5 129t-37.5 82t-129 29h-45l-97 -578h211q84 0 148.5 14.5t114 48.5t83 68.5 t63.5 97t48 108.5t45 128h96l-188 -561h-1120zM487 1634q10 57 57.5 100.5t110.5 43.5q59 0 95 -42t26 -102q-10 -57 -58 -100t-112 -43q-59 0 -94 42t-25 101zM1114 1634q10 57 57.5 100.5t110.5 43.5q59 0 95 -42t26 -102q-10 -57 -58.5 -100t-111.5 -43q-59 0 -94 42 t-25 101z" />
<glyph unicode="&#xce;" horiz-adv-x="813" d="M57 0l17 96h202l203 1213h-203l15 96q74 -6 348 -6t348 6l-14 -96h-203l-203 -1213h203l-16 -96q-72 6 -346.5 6t-350.5 -6zM305 1540l408 289l309 -289l-41 -49l-307 119l-348 -119z" />
<glyph unicode="&#xcf;" horiz-adv-x="813" d="M57 0l17 96h202l203 1213h-203l15 96q74 -6 348 -6t348 6l-14 -96h-203l-203 -1213h203l-16 -96q-72 6 -346.5 6t-350.5 -6zM223 1634q10 57 57.5 100.5t110.5 43.5q59 0 95 -42t26 -102q-10 -57 -58 -100t-112 -43q-59 0 -94 42t-25 101zM850 1634q10 57 57 100.5 t111 43.5q59 0 95 -42t26 -102q-10 -57 -58.5 -100t-111.5 -43q-59 0 -94 42t-25 101z" />
<glyph unicode="&#xd4;" horiz-adv-x="1536" d="M231 694q57 344 272.5 538.5t502.5 194.5q281 0 434 -191.5t96 -541.5q-57 -336 -271 -526.5t-503 -190.5q-281 0 -434.5 188.5t-96.5 528.5zM519 421q1 -87 20 -155q25 -92 87 -147.5t152 -55.5q86 0 171 57.5t141 153.5q90 156 137 449q23 141 28 212t-16 198 q-25 102 -91.5 157.5t-156.5 55.5q-82 0 -167 -49.5t-148 -155.5q-78 -129 -127 -418q-16 -102 -23.5 -158.5t-6.5 -143.5zM666 1540l407 289l309 -289l-41 -49l-307 119l-348 -119z" />
<glyph unicode="&#xd9;" horiz-adv-x="1574" d="M289 1309l14 96q72 -6 338 -6t338 6l-14 -96h-193l-147 -879q-4 -33 -7.5 -50.5t-4.5 -59t4.5 -69.5t19.5 -64.5t39.5 -58.5t70 -38t101.5 -16q150 0 273.5 93t158.5 304l131 778q6 20 3 31.5t-11 14.5t-35 8q-43 6 -98 6h-41l14 96l248 -6l246 6l-15 -96h-41 q-57 0 -104 -6q-37 -4 -45 -11.5t-12 -42.5l-131 -784q-35 -211 -186.5 -349.5t-379.5 -138.5q-260 0 -389 138.5t-94 353.5l141 840h-192zM840 1722q-2 59 43 104.5t104 45.5q49 0 80 -45l176 -238l-65 -78l-271 123q-67 33 -67 88z" />
<glyph unicode="&#xdb;" horiz-adv-x="1574" d="M289 1309l14 96q72 -6 338 -6t338 6l-14 -96h-193l-147 -879q-4 -33 -7.5 -50.5t-4.5 -59t4.5 -69.5t19.5 -64.5t39.5 -58.5t70 -38t101.5 -16q150 0 273.5 93t158.5 304l131 778q6 20 3 31.5t-11 14.5t-35 8q-43 6 -98 6h-41l14 96l248 -6l246 6l-15 -96h-41 q-57 0 -104 -6q-37 -4 -45 -11.5t-12 -42.5l-131 -784q-35 -211 -186.5 -349.5t-379.5 -138.5q-260 0 -389 138.5t-94 353.5l141 840h-192zM733 1540l408 289l309 -289l-41 -49l-307 119l-348 -119z" />
<glyph unicode="&#xdc;" horiz-adv-x="1574" d="M289 1309l14 96q72 -6 338 -6t338 6l-14 -96h-193l-147 -879q-4 -33 -7.5 -50.5t-4.5 -59t4.5 -69.5t19.5 -64.5t39.5 -58.5t70 -38t101.5 -16q150 0 273.5 93t158.5 304l131 778q6 20 3 31.5t-11 14.5t-35 8q-43 6 -98 6h-41l14 96l248 -6l246 6l-15 -96h-41 q-57 0 -104 -6q-37 -4 -45 -11.5t-12 -42.5l-131 -784q-35 -211 -186.5 -349.5t-379.5 -138.5q-260 0 -389 138.5t-94 353.5l141 840h-192zM651 1634q10 57 57.5 100.5t110.5 43.5q59 0 95 -42t26 -102q-10 -57 -58 -100t-112 -43q-59 0 -94 42t-25 101zM1278 1634 q10 57 57 100.5t111 43.5q59 0 95 -42t26 -102q-10 -57 -58.5 -100t-111.5 -43q-59 0 -94 42t-25 101z" />
<glyph unicode="&#xe0;" horiz-adv-x="995" d="M94 223q27 152 202 234t415 86l12 73q18 109 -14.5 173.5t-120.5 64.5q-59 0 -123 -12l10 -11q10 -12 17.5 -37.5t1.5 -54.5q-10 -61 -54.5 -95t-95.5 -34q-47 0 -82 34t-24 95q8 51 44.5 90t77.5 56.5t97.5 28t86 12.5t62.5 2q188 0 281.5 -84t68.5 -230l-73 -442 q-2 -23 -2 -38t20.5 -25.5t65.5 -12.5q20 -2 29.5 -10t4.5 -37q-4 -23 -15 -34t-22.5 -13t-35.5 -2h-86q-53 0 -89 12.5t-51.5 27.5t-20.5 40.5t-4 38t3 33.5q-102 -164 -279 -164q-133 0 -230 59t-77 176zM334 223.5q-10 -63.5 17.5 -113t86.5 -49.5q63 0 137 52.5 t93 169.5l32 194q-29 -2 -56.5 -6t-82.5 -20.5t-97 -41t-81 -73.5t-49 -112.5zM453 1319q10 49 55 88t94 39q59 0 88 -62l127 -270l-80 -67l-235 172q-57 45 -49 100z" />
<glyph unicode="&#xe2;" horiz-adv-x="995" d="M94 223q27 152 202 234t415 86l12 73q18 109 -14.5 173.5t-120.5 64.5q-59 0 -123 -12l10 -11q10 -12 17.5 -37.5t1.5 -54.5q-10 -61 -54.5 -95t-95.5 -34q-47 0 -82 34t-24 95q8 51 44.5 90t77.5 56.5t97.5 28t86 12.5t62.5 2q188 0 281.5 -84t68.5 -230l-73 -442 q-2 -23 -2 -38t20.5 -25.5t65.5 -12.5q20 -2 29.5 -10t4.5 -37q-4 -23 -15 -34t-22.5 -13t-35.5 -2h-86q-53 0 -89 12.5t-51.5 27.5t-20.5 40.5t-4 38t3 33.5q-102 -164 -279 -164q-133 0 -230 59t-77 176zM315 1079l426 379l299 -379l-49 -45l-289 203l-358 -203z M334 223.5q-10 -63.5 17.5 -113t86.5 -49.5q63 0 137 52.5t93 169.5l32 194q-29 -2 -56.5 -6t-82.5 -20.5t-97 -41t-81 -73.5t-49 -112.5z" />
<glyph unicode="&#xe6;" horiz-adv-x="1478" d="M92 211q45 270 615 297l18 108q41 238 -137 238q-59 0 -123 -12l10 -11q10 -12 17.5 -37.5t1.5 -54.5q-10 -61 -54.5 -95t-95.5 -34q-47 0 -82 34t-24 95q8 51 44.5 90t77.5 56.5t97.5 28t87 12.5t63.5 2q209 0 299 -103q133 102 307 103q176 0 249 -115t40 -307 q-6 -41 -20.5 -50.5t-55.5 -9.5h-497q-27 -176 4 -258q47 -119 178 -118q61 0 131 38.5t117 129.5q10 23 21.5 30.5t35.5 7.5q10 0 18.5 -1t17.5 -10t7 -25q-12 -61 -115.5 -156.5t-263.5 -95.5q-195 0 -307 123q-145 -123 -366 -123q-150 0 -242 57t-74 166zM332 211 q-8 -57 19.5 -103.5t88.5 -46.5q98 0 175 61.5t87 125.5l-2 18q-16 82 -4 172q-41 -2 -82 -10t-108.5 -29.5t-114.5 -69.5t-59 -118zM942 514h369q45 340 -109 340q-113 0 -186 -117q-43 -67 -74 -223z" />
<glyph unicode="&#xe7;" horiz-adv-x="909" d="M143 455q35 215 179.5 344t347.5 129q133 0 215 -47t65 -142q-10 -61 -54 -95t-95 -34q-47 0 -82 34t-25 95q10 59 58 97q-51 10 -90 10q-45 0 -83 -18.5t-64 -53.5t-44 -69.5t-31.5 -86t-19.5 -80t-12 -73.5q-31 -188 -7 -270q35 -125 154 -125q145 0 240 172 q12 27 51 26q14 0 22.5 -1t16.5 -8t6 -19q-4 -20 -29.5 -63.5t-97.5 -103t-166 -77.5l-12 -64q72 0 115.5 -50t33.5 -120q-8 -49 -43 -83.5t-74.5 -51t-112.5 -26t-118 -10.5t-129 -1h-98l16 99h49q55 0 85 1t72 7t64.5 22.5t26.5 42.5q4 33 -25.5 52.5t-74.5 19.5l28 164 q-145 33 -217 152t-41 305z" />
<glyph unicode="&#xe8;" horiz-adv-x="956" d="M135 461q35 213 180.5 340t346.5 127q92 0 158.5 -27t100 -70t53 -98t16.5 -113.5t-9 -113.5q-6 -41 -20.5 -50.5t-55.5 -9.5h-512q-8 -47 -10 -71.5t-5 -77.5t6 -86t27.5 -70t56.5 -54t93 -17q72 0 151 41t126 127q10 16 15 23t15.5 11t26.5 4q10 0 18.5 -1t17.5 -10 t7 -25q-12 -61 -122.5 -156.5t-287.5 -95.5q-207 0 -318.5 128t-74.5 345zM406 514h382l9 54q4 28 3 84.5t-13.5 97.5t-46 72.5t-89.5 31.5q-186 0 -245 -340zM432 1319q10 49 55 88t95 39q59 0 88 -62l127 -270l-80 -67l-236 172q-57 45 -49 100z" />
<glyph unicode="&#xe9;" horiz-adv-x="956" d="M135 461q35 213 180.5 340t346.5 127q92 0 158.5 -27t100 -70t53 -98t16.5 -113.5t-9 -113.5q-6 -41 -20.5 -50.5t-55.5 -9.5h-512q-8 -47 -10 -71.5t-5 -77.5t6 -86t27.5 -70t56.5 -54t93 -17q72 0 151 41t126 127q10 16 15 23t15.5 11t26.5 4q10 0 18.5 -1t17.5 -10 t7 -25q-12 -61 -122.5 -156.5t-287.5 -95.5q-207 0 -318.5 128t-74.5 345zM406 514h382l9 54q4 28 3 84.5t-13.5 97.5t-46 72.5t-89.5 31.5q-186 0 -245 -340zM530 1114l218 270q51 61 108 62q49 0 81 -39t24 -88q-8 -57 -82 -100l-293 -172z" />
<glyph unicode="&#xea;" horiz-adv-x="956" d="M135 461q35 213 180.5 340t346.5 127q92 0 158.5 -27t100 -70t53 -98t16.5 -113.5t-9 -113.5q-6 -41 -20.5 -50.5t-55.5 -9.5h-512q-8 -47 -10 -71.5t-5 -77.5t6 -86t27.5 -70t56.5 -54t93 -17q72 0 151 41t126 127q10 16 15 23t15.5 11t26.5 4q10 0 18.5 -1t17.5 -10 t7 -25q-12 -61 -122.5 -156.5t-287.5 -95.5q-207 0 -318.5 128t-74.5 345zM295 1079l426 379l299 -379l-49 -45l-289 203l-358 -203zM406 514h382l9 54q4 28 3 84.5t-13.5 97.5t-46 72.5t-89.5 31.5q-186 0 -245 -340z" />
<glyph unicode="&#xeb;" horiz-adv-x="956" d="M135 461q35 213 180.5 340t346.5 127q92 0 158.5 -27t100 -70t53 -98t16.5 -113.5t-9 -113.5q-6 -41 -20.5 -50.5t-55.5 -9.5h-512q-8 -47 -10 -71.5t-5 -77.5t6 -86t27.5 -70t56.5 -54t93 -17q72 0 151 41t126 127q10 16 15 23t15.5 11t26.5 4q10 0 18.5 -1t17.5 -10 t7 -25q-12 -61 -122.5 -156.5t-287.5 -95.5q-207 0 -318.5 128t-74.5 345zM279 1247q10 57 57 100.5t110 43.5q59 0 95.5 -42t25.5 -102q-10 -57 -58 -100t-112 -43q-59 0 -93.5 42t-24.5 101zM406 514h382l9 54q4 28 3 84.5t-13.5 97.5t-46 72.5t-89.5 31.5 q-186 0 -245 -340zM807 1247q10 57 57 100.5t111 43.5q59 0 95 -42t26 -102q-10 -57 -58.5 -100t-111.5 -43q-59 0 -94 42t-25 101z" />
<glyph unicode="&#xee;" horiz-adv-x="569" d="M53 0l17 96h141l104 633q10 57 -8 68.5t-112 11.5l16 96l358 17l-137 -826h127l-16 -96l-238 6zM102 1079l426 379l299 -379l-49 -45l-289 203l-358 -203z" />
<glyph unicode="&#xef;" horiz-adv-x="569" d="M53 0l17 96h141l104 633q10 57 -8 68.5t-112 11.5l16 96l358 17l-137 -826h127l-16 -96l-238 6zM86 1247q10 57 57 100.5t111 43.5q59 0 95 -42t26 -102q-10 -57 -58.5 -100t-111.5 -43q-59 0 -94 42t-25 101zM614 1247q10 57 57.5 100.5t110.5 43.5q59 0 95 -42t26 -102 q-10 -57 -58 -100t-112 -43q-59 0 -94 42t-25 101z" />
<glyph unicode="&#xf4;" d="M133 449q37 219 184.5 349t348.5 130q205 0 307 -131t67 -348q-37 -213 -182 -337t-350 -124q-201 0 -306.5 123t-68.5 338zM330 1079l426 379l299 -379l-49 -45l-289 203l-359 -203zM371 205q4 -63 48 -99t105 -36q57 0 111.5 34.5t79.5 92.5q31 63 65 272 q33 190 25 260q-4 51 -46 88t-106 37q-59 0 -114.5 -34t-79.5 -91q-29 -63 -62 -260q-32 -192 -26 -264z" />
<glyph unicode="&#xf9;" horiz-adv-x="1138" d="M184 809l17 96l377 17l-117 -707q-20 -82 -3 -118t107 -36q94 0 162 78t86 195l66 395q10 57 -9.5 68.5t-117.5 11.5l16 96l377 17l-125 -746q-8 -57 11.5 -68.5t117.5 -11.5l-16 -96l-365 -12l23 139h-3q-100 -139 -264 -139q-162 0 -238.5 58t-54.5 204l80 479 q10 57 -9.5 68.5t-117.5 11.5zM524 1319q10 49 55.5 88t94.5 39q59 0 88 -62l127 -270l-80 -67l-236 172q-57 45 -49 100z" />
<glyph unicode="&#xfb;" horiz-adv-x="1138" d="M184 809l17 96l377 17l-117 -707q-20 -82 -3 -118t107 -36q94 0 162 78t86 195l66 395q10 57 -9.5 68.5t-117.5 11.5l16 96l377 17l-125 -746q-8 -57 11.5 -68.5t117.5 -11.5l-16 -96l-365 -12l23 139h-3q-100 -139 -264 -139q-162 0 -238.5 58t-54.5 204l80 479 q10 57 -9.5 68.5t-117.5 11.5zM387 1079l426 379l299 -379l-49 -45l-289 203l-358 -203z" />
<glyph unicode="&#xfc;" horiz-adv-x="1138" d="M184 809l17 96l377 17l-117 -707q-20 -82 -3 -118t107 -36q94 0 162 78t86 195l66 395q10 57 -9.5 68.5t-117.5 11.5l16 96l377 17l-125 -746q-8 -57 11.5 -68.5t117.5 -11.5l-16 -96l-365 -12l23 139h-3q-100 -139 -264 -139q-162 0 -238.5 58t-54.5 204l80 479 q10 57 -9.5 68.5t-117.5 11.5zM371 1247q10 57 57 100.5t111 43.5q59 0 95 -42t25 -102q-10 -57 -58 -100t-112 -43q-59 0 -93.5 42t-24.5 101zM899 1247q10 57 57.5 100.5t110.5 43.5q59 0 95 -42t26 -102q-10 -57 -58.5 -100t-111.5 -43q-59 0 -94 42t-25 101z" />
<glyph unicode="&#xff;" horiz-adv-x="1081" d="M2 -221q8 55 49 87t88 32q51 0 80 -33t19 -84q-14 -82 -95 -113q16 -4 33 -4q98 0 184 115q27 37 127 221l-180 813h-127l17 96l229 -6l252 6l-16 -96h-115l112 -506l250 455l15 26q2 10 -24 16.5t-52 6.5l-27 2l17 96q80 -6 186 -6q86 0 162 6l-17 -96q-90 0 -113.5 -9 t-41.5 -40l-518 -936q-49 -90 -139.5 -164t-194.5 -74q-82 0 -127 57.5t-33 131.5zM342 1247q10 57 57 100.5t111 43.5q59 0 95 -42t26 -102q-10 -57 -58.5 -100t-111.5 -43q-59 0 -94 42t-25 101zM870 1247q10 57 57.5 100.5t110.5 43.5q59 0 95 -42t26 -102 q-10 -57 -58 -100t-112 -43q-59 0 -94 42t-25 101z" />
<glyph unicode="&#x152;" horiz-adv-x="2082" d="M266 696q53 330 273.5 530.5t531.5 200.5q84 0 182 -12q84 -10 156 -10h727l-18 -494h-97q2 70 2 129.5t-14 108.5t-44 85t-89 55.5t-150 19.5h-196l-90 -531h123q135 0 184 56.5t70 183.5h96l-96 -576h-97q12 76 10.5 129.5t-45 82t-137.5 28.5h-123l-98 -586h207 q70 0 127 13.5t98 32t78 57.5t59.5 68.5t48 88t38.5 96.5l38 109h97l-189 -561h-753q-55 0 -203 -14l-51 -4q-53 -4 -93 -5q-307 0 -462.5 192.5t-100.5 526.5zM571 727q-55 -334 28 -505t245 -171q121 0 171 49.5t79 159.5q25 84 82 445q61 350 65 442q6 111 -27.5 159 t-152.5 48q-72 0 -143.5 -34t-140 -104.5t-123 -196.5t-83.5 -292z" />
<glyph unicode="&#x153;" horiz-adv-x="1593" d="M133 459q37 217 186.5 343t350.5 126q213 0 313 -133q143 133 344 133q182 0 252 -117t39 -305q-6 -41 -20.5 -50.5t-55.5 -9.5h-500q-4 -39 -6 -52t-5 -62t2 -75t16.5 -68t32 -63.5t57.5 -38.5t86 -17q68 0 137.5 41t112.5 127q10 23 21 30.5t36 7.5q10 0 18.5 -1 t17.5 -10t7 -25q-10 -61 -115.5 -156.5t-263.5 -95.5q-205 0 -322 137q-156 -137 -362 -137q-203 0 -308.5 128t-70.5 343zM365 193q14 -61 59 -96.5t100 -35.5q125 0 207 129q49 80 82 279q33 195 6 272q-16 51 -60 82t-102 31q-59 0 -113.5 -33t-86.5 -80 q-49 -78 -82 -272q-30 -198 -10 -276zM1055 514h370q49 340 -110 340q-47 0 -99.5 -30.5t-87.5 -86.5q-42 -67 -73 -223z" />
<glyph unicode="&#x178;" horiz-adv-x="1548" d="M252 1309l14 96q74 -6 307 -6q268 0 342 6l-14 -96h-153l241 -600l428 579q-45 20 -137 21l14 96l244 -6l209 6l-14 -96q-121 0 -155 -9.5t-52 -33.5l-520 -705l-78 -465h194l-16 -96q-70 6 -332 6q-260 0 -334 -6l17 96h192l78 465l-301 748h-174zM590 1634 q10 57 57 100.5t111 43.5q59 0 95 -42t26 -102q-10 -57 -58.5 -100t-111.5 -43q-59 0 -94 42t-25 101zM1217 1634q10 57 57 100.5t110 43.5q59 0 95.5 -42t25.5 -102q-10 -57 -58 -100t-112 -43q-59 0 -93.5 42t-24.5 101z" />
<glyph unicode="&#x2c6;" d="M330 1079l426 379l299 -379l-49 -45l-289 203l-359 -203z" />
<glyph unicode="&#x2da;" horiz-adv-x="1660" d="M819 1241q10 68 73.5 119t176.5 51q106 0 153.5 -50t34.5 -120q-12 -74 -76.5 -124t-172.5 -50q-104 0 -152.5 49t-36.5 125zM930 1239q-8 -53 12.5 -70.5t81.5 -17.5q63 0 89 18.5t34 69.5q8 53 -12.5 70.5t-81.5 17.5q-63 0 -89 -18.5t-34 -69.5z" />
<glyph unicode="&#x2dc;" d="M369 1184l102 108q63 63 139 64q39 0 129 -29q98 -35 144 -35q80 0 139 64l51 -45l-102 -109q-63 -63 -140 -63q-39 0 -129 28q-98 35 -143 35q-80 0 -139 -63z" />
<glyph unicode="&#x2000;" horiz-adv-x="935" />
<glyph unicode="&#x2001;" horiz-adv-x="1871" />
<glyph unicode="&#x2002;" horiz-adv-x="935" />
<glyph unicode="&#x2003;" horiz-adv-x="1871" />
<glyph unicode="&#x2004;" horiz-adv-x="622" />
<glyph unicode="&#x2005;" horiz-adv-x="466" />
<glyph unicode="&#x2006;" horiz-adv-x="311" />
<glyph unicode="&#x2007;" horiz-adv-x="311" />
<glyph unicode="&#x2008;" horiz-adv-x="233" />
<glyph unicode="&#x2009;" horiz-adv-x="372" />
<glyph unicode="&#x200a;" horiz-adv-x="102" />
<glyph unicode="&#x2010;" horiz-adv-x="681" d="M82 356l33 199h542l-32 -199h-543z" />
<glyph unicode="&#x2011;" horiz-adv-x="681" d="M82 356l33 199h542l-32 -199h-543z" />
<glyph unicode="&#x2012;" horiz-adv-x="681" d="M82 356l33 199h542l-32 -199h-543z" />
<glyph unicode="&#x2013;" d="M88 524l12 74h1022l-12 -74h-1022z" />
<glyph unicode="&#x2014;" horiz-adv-x="2048" d="M88 524l12 74h2046l-12 -74h-2046z" />
<glyph unicode="&#x2018;" horiz-adv-x="569" d="M256 961q16 98 64.5 189t101.5 147.5t95 90t56 33.5q12 0 22.5 -13t8.5 -28q-2 -12 -35 -39q-184 -139 -235 -360l39 23q37 20 82 20q74 0 109.5 -47t23.5 -113q-10 -68 -62.5 -113.5t-122.5 -45.5q-86 0 -125.5 72.5t-21.5 183.5z" />
<glyph unicode="&#x2019;" horiz-adv-x="569" d="M319 745q2 12 35 39q186 137 236 361l-37 -23q-39 -20 -84 -20q-74 0 -109.5 47t-23.5 113q10 68 62.5 113.5t121.5 45.5q86 0 126 -72.5t22 -183.5q-16 -98 -64.5 -189t-101.5 -147.5t-95 -90t-57 -33.5q-12 0 -22.5 13t-8.5 27z" />
<glyph unicode="&#x201a;" horiz-adv-x="569" d="M121 -360q2 12 35 38q184 139 235 361l-39 -23q-37 -20 -82 -20q-74 0 -109.5 47t-23.5 113q10 68 62.5 113.5t122.5 45.5q86 0 125.5 -72.5t21.5 -183.5q-16 -98 -64.5 -189t-101.5 -147.5t-95 -90t-56 -33.5q-12 0 -22.5 13.5t-8.5 27.5z" />
<glyph unicode="&#x201c;" horiz-adv-x="1058" d="M256 961q16 98 64.5 189t101.5 147.5t95 90t56 33.5q12 0 22.5 -13t8.5 -28q-2 -12 -35 -39q-184 -139 -235 -360l39 23q37 20 82 20q74 0 109.5 -47t23.5 -113q-10 -68 -62.5 -113.5t-122.5 -45.5q-86 0 -125.5 72.5t-21.5 183.5zM745 961q16 98 64.5 189t102 147.5 t95.5 90t56 33.5q12 0 22.5 -13t8.5 -28q-2 -12 -35 -39q-184 -139 -236 -360l37 23q39 20 84 20q74 0 110 -47t23 -113q-10 -68 -62 -113.5t-122 -45.5q-86 0 -126 72.5t-22 183.5z" />
<glyph unicode="&#x201d;" horiz-adv-x="1058" d="M319 745q2 12 35 39q186 137 236 361l-37 -23q-39 -20 -84 -20q-74 0 -109.5 47t-23.5 113q10 68 62.5 113.5t121.5 45.5q86 0 126 -72.5t22 -183.5q-16 -98 -64.5 -189t-101.5 -147.5t-95 -90t-57 -33.5q-12 0 -22.5 13t-8.5 27zM809 745q2 12 35 39q186 137 235 361 l-39 -23q-37 -20 -82 -20q-74 0 -109.5 47t-23.5 113q10 68 62.5 113.5t122.5 45.5q86 0 126 -72.5t21 -183.5q-16 -98 -64.5 -189t-101.5 -147.5t-95 -90t-56 -33.5q-12 0 -22.5 13t-8.5 27z" />
<glyph unicode="&#x201e;" horiz-adv-x="1058" d="M135 -360q2 12 35 38q184 139 236 361l-37 -23q-39 -20 -84 -20q-74 0 -110 47t-23 113q10 68 62 113.5t122 45.5q86 0 126 -72.5t21 -183.5q-16 -98 -64 -189t-101.5 -147.5t-95.5 -90t-56 -33.5q-12 0 -22.5 13.5t-8.5 27.5zM625 -360q2 12 34 38q184 139 236 361 l-39 -23q-37 -20 -82 -20q-74 0 -109.5 47t-23.5 113q10 68 62.5 113.5t121.5 45.5q86 0 126 -72.5t22 -183.5q-16 -98 -64.5 -189t-101.5 -147.5t-95 -90t-57 -33.5q-12 0 -22 13.5t-8 27.5z" />
<glyph unicode="&#x2026;" horiz-adv-x="1576" d="M151.5 159.5q10.5 65.5 65.5 112.5t120.5 47t104.5 -47t29 -112.5t-65.5 -112.5t-121 -47t-104.5 47t-28.5 112.5zM655.5 159.5q10.5 65.5 65.5 112.5t120.5 47t104.5 -47t29 -112.5t-65.5 -112.5t-121 -47t-104.5 47t-28.5 112.5zM1159 159.5q10 65.5 65.5 112.5t121 47 t104.5 -47t28.5 -112.5t-65.5 -112.5t-120.5 -47t-104.5 47t-29 112.5z" />
<glyph unicode="&#x202f;" horiz-adv-x="372" />
<glyph unicode="&#x2039;" horiz-adv-x="741" d="M256 465q-14 16 8 39q211 195 334 444q10 18 31 19h16q12 0 18.5 -9.5t4.5 -23.5q-63 -217 -181 -451q37 -219 31 -450q-4 -33 -35 -33h-16q-20 0 -25 20q-36 248 -186 445z" />
<glyph unicode="&#x203a;" horiz-adv-x="741" d="M233 33q74 242 181 450q-37 225 -29 451q0 14 10.5 23.5t22.5 9.5h16q20 0 25 -19q41 -252 186 -444q12 -20 -6 -39q-211 -197 -336 -445q-6 -20 -29 -20h-16q-33 0 -25 33z" />
<glyph unicode="&#x205f;" horiz-adv-x="466" />
<glyph unicode="&#x20ac;" horiz-adv-x="1284" d="M203 555l18 41q6 20 31 20h84q2 29 10 86l19 86h-95q-14 0 -21 11.5t-1 25.5l18 41q6 20 31 21h94q70 203 205 340q195 201 467 200q109 0 188 -61l97 57q12 4 16 4h14q29 0 25 -28l-47 -281q-4 -29 -33 -28h-49q-29 0 -25 24q4 90 -41 152.5t-123 62.5q-80 0 -155.5 -44 t-124.5 -116q-74 -100 -113 -282h473q14 0 21.5 -11.5t1.5 -25.5l-19 -41q-6 -20 -30 -21h-467l-15 -86l-14 -86h406q14 0 21 -11t1 -25l-18 -41q-6 -20 -31 -21h-391q-20 -178 18 -282q27 -74 87.5 -117t140.5 -43q78 0 144 62.5t91 152.5q6 25 33 24h49q10 0 17.5 -8 t5.5 -20l-46 -281q-8 -29 -34 -29h-15q-6 0 -14 5l-78 57q-100 -61 -209 -62q-127 0 -233.5 52.5t-167.5 148.5q-86 135 -90 340h-105q-14 0 -21 11.5t-1 25.5z" />
<glyph unicode="&#x2122;" horiz-adv-x="2021" d="M229 1110l74 295h713l-25 -295h-57q4 70 5 122t-33 84t-107 32h-60l-118 -715h163l-10 -58q-59 4 -251.5 4.5t-252.5 -4.5l11 58h165l119 715h-61q-45 0 -80 -13.5t-55.5 -31t-37 -53.5t-24.5 -62.5t-20 -77.5h-58zM946 575l10 58h25q33 0 61 4q20 2 25.5 7t9.5 26 l115 692h-115l10 57h256q25 0 32 -5t14 -28l131 -616l338 619q16 31 55 30h256l-10 -57h-115l-121 -729h115l-10 -58q-43 4 -192.5 4.5t-193.5 -4.5l11 58h116l119 717h-2l-407 -744q-18 -31 -39 -31q-12 0 -19.5 5.5t-9.5 9.5t-4 16l-156 723l-108 -659q-4 -12 -3 -19.5 t6 -9.5t21 -4q2 0 23.5 -2t36.5 -2h24l-10 -58l-147 5z" />
<glyph unicode="&#xe000;" horiz-adv-x="910" d="M0 910h910v-910h-910v910z" />
<glyph unicode="&#xfb01;" horiz-adv-x="1138" d="M33 0l16 96h141l119 717h-119l17 96h119l34 205q18 113 109.5 187.5t203 103.5t238.5 29q137 0 196.5 -75t47.5 -161q-12 -66 -57 -101.5t-103 -35.5q-55 0 -86.5 37t-23.5 96q10 55 46 88t75 43q-49 35 -117 35q-131 0 -216 -65.5t-104 -182.5l-34 -203h217l4 9l362 12 l-139 -834h141l-16 -96l-250 6l-254 -6l16 96h142l106 645q8 51 0 61.5t-49 10.5h-285l-118 -717h141l-16 -96l-250 6z" />
<glyph unicode="&#xfb02;" horiz-adv-x="1138" d="M33 0l16 96h141l119 717h-119l17 96h119l34 205q18 111 105.5 184.5t199 104.5t242.5 31q76 0 125 -17q18 -6 31 -6q55 0 137 10l-221 -1325h141l-16 -96l-250 6l-254 -6l16 96h142l119 717h-347l-118 -717h141l-16 -96l-250 6zM535 909h358l35 207q6 37 -2 45 q-37 35 -27 94q16 66 59 97q-29 8 -73 8q-121 0 -207 -60q-94 -68 -109 -188z" />
<glyph unicode="&#xfb03;" horiz-adv-x="1705" d="M33 0l16 96h141l119 717h-119l17 96h119l34 205q14 84 67.5 148.5t132.5 100.5t166 53.5t179 17.5q129 0 201 -82q160 82 373 82q137 0 196.5 -75t46.5 -161q-12 -66 -57 -101.5t-102 -35.5q-55 0 -87 37t-24 96q10 55 46 88t75 43q-49 35 -117 35q-131 0 -216 -65.5 t-103 -182.5l-35 -203h217l4 9l363 12l-140 -834h142l-17 -96l-250 6l-254 -6l17 96h141l107 645q8 51 -1.5 61.5t-48.5 10.5h-284l-119 -717h141l-16 -96l-250 6l-254 -6l16 96h142l119 717h-347l-118 -717h141l-16 -96l-250 6zM535 909h358l29 168q-63 39 -50 117 q20 102 123 131q-49 35 -112 35q-119 0 -205 -60q-94 -68 -109 -188z" />
<glyph unicode="&#xfb04;" horiz-adv-x="1705" d="M33 0l16 96h141l119 717h-119l17 96h119l34 205q14 84 67.5 148.5t132.5 100.5t166 53.5t179 17.5q141 0 211 -78q150 78 359 78q76 0 124 -17q18 -6 31 -6q55 0 137 10l-221 -1325h142l-17 -96l-250 6l-254 -6l17 96h141l119 717h-346l-119 -717h141l-16 -96l-250 6 l-254 -6l16 96h142l119 717h-347l-118 -717h141l-16 -96l-250 6zM535 909h358l37 217q-45 35 -35 103q14 78 84 112q-37 18 -96 19q-119 0 -205 -60q-94 -68 -109 -188zM1102 909h358l35 207q6 37 -2 45q-37 35 -27 94q16 66 60 97q-29 8 -74 8q-121 0 -207 -60 q-94 -68 -108 -188z" />
</font>
</defs>
</svg>
