<?xml version="1.0" standalone="no"?>
<!DOCTYPE svg PUBLIC "-//W3C//DTD SVG 1.1//EN" "http://www.w3.org/Graphics/SVG/1.1/DTD/svg11.dtd" >
<svg xmlns="http://www.w3.org/2000/svg">
<metadata>
This is a custom SVG webfont generated by Font Squirrel.
Copyright   : Copyright 2003 2008 B Jackowski and J M Nowacki on behalf of TeX users groups This work is released under the GUST Font License   see httptugorgfontslicensesGUSTFONTLICENSEtxt for details
</metadata>
<defs>
<font id="webfontiapgnXnE" horiz-adv-x="1024" >
<font-face units-per-em="2048" ascent="1651" descent="-397" />
<missing-glyph horiz-adv-x="681" />
<glyph unicode=" "  horiz-adv-x="681" />
<glyph unicode="&#x09;" horiz-adv-x="681" />
<glyph unicode="&#xa0;" horiz-adv-x="681" />
<glyph unicode="!" horiz-adv-x="569" d="M176 108.5q0 45.5 32 77t77 31.5t76.5 -31.5t31.5 -77t-31.5 -77t-76.5 -31.5t-77 31.5t-32 77zM176 1362q0 47 33 75.5t76 28.5t75.5 -28.5t32.5 -75.5l-80 -934q-2 -45 -28 -45q-12 0 -18.5 6t-7.5 14.5l-3 26.5z" />
<glyph unicode="&#x22;" horiz-adv-x="765" d="M213 1372q-2 31 19.5 51.5t52 20.5t52 -20.5t19.5 -51.5l-45 -506h-53zM410 1372q-2 31 19.5 51.5t52 20.5t52 -20.5t19.5 -51.5l-45 -506h-53z" />
<glyph unicode="#" horiz-adv-x="1705" d="M115 313q0 41 69 41h351l81 316h-432q-70 0 -69.5 41t67.5 41h459l166 620q4 16 7 23.5t13.5 16.5t24.5 9q16 0 28.5 -12t12.5 -29q0 -20 -8 -37l-160 -591h385l166 620q4 16 7 23.5t13.5 16.5t24.5 9q16 0 28.5 -12t12.5 -29q0 -20 -8 -37l-160 -591h328q68 0 67.5 -41 t-69.5 -41h-351l-82 -316h433q70 0 69.5 -41t-67.5 -41h-459l-166 -620q-4 -16 -7 -23.5t-13.5 -16.5t-24.5 -9q-16 0 -28.5 12t-12.5 29q0 20 8 37l160 591h-385l-166 -620q-4 -16 -7 -23.5t-13.5 -16.5t-24.5 -9q-16 0 -28.5 12t-12.5 29q0 20 8 37l160 591h-328 q-67 0 -67 41zM618 354h386l81 316h-385z" />
<glyph unicode="$" d="M115 365q0 35 12 58t30.5 31.5t30 11.5t21.5 3q39 0 66.5 -26.5t27.5 -67.5t-26.5 -67.5t-67.5 -26.5q-16 0 -33 4q20 -102 97 -168t206 -74v610q-68 16 -98.5 26.5t-73.5 35t-80 61.5q-41 39 -76.5 110.5t-35.5 164.5q0 147 100 261.5t264 129.5v94h64v-92 q170 -8 267 -108.5t97 -252.5q0 -45 -24.5 -70.5t-41 -28.5t-28.5 -3q-37 0 -65.5 24.5t-28.5 69.5q0 43 26.5 68.5t67.5 25.5q16 0 33 -4q-25 90 -101.5 148.5t-201.5 64.5v-553q63 -16 94 -26.5t76 -37t84 -69.5q18 -18 38.5 -47t46 -99.5t25.5 -146.5 q0 -162 -103.5 -283.5t-260.5 -135.5v-95h-64v92q-180 12 -272 124t-92 264zM219 1112q0 -20 2 -39.5t17.5 -57.5t40 -67.5t77 -60.5t123.5 -45v536q-117 -12 -188.5 -90t-71.5 -176zM543 43q117 14 188.5 100t71.5 195q0 29 -7.5 62.5t-30 85t-79.5 92t-143 59.5v-594z" />
<glyph unicode="%" horiz-adv-x="1705" d="M115 1124q0 176 90 294t211 118q74 0 147 -66q166 -158 383 -157q246 0 389 194q25 29 43 29q16 0 28.5 -12.5t12.5 -28.5q0 -12 -16 -37l-1036 -1542q-23 -31 -41 -31q-16 0 -28.5 12.5t-12.5 28.5l18 41l920 1370l-2 2q-106 -72 -273 -71q-158 0 -309 86 q43 -106 43 -232q0 -172 -77 -291.5t-189 -119.5q-121 0 -211 116.5t-90 296.5zM242 1122q0 -119 20.5 -199.5t53 -112.5t56 -43t46.5 -11q84 0 148.5 104.5t64.5 263.5q0 156 -64.5 261.5t-148.5 105.5q-18 0 -35.5 -5t-44.5 -26.5t-47.5 -58.5t-34.5 -110t-14 -169z M1022 299q0 176 90 294t211 118q111 0 188.5 -120t77.5 -294q0 -172 -76.5 -292t-189.5 -120q-121 0 -211 117t-90 297zM1149 297q0 -119 20.5 -200t53 -112.5t56.5 -43t46 -11.5q84 0 148.5 104.5t64.5 264.5q0 156 -64.5 261.5t-148.5 105.5q-18 0 -35.5 -5.5t-44 -27 t-47 -58t-35 -109.5t-14.5 -169z" />
<glyph unicode="&#x26;" horiz-adv-x="1593" d="M86 262q0 76 32 126t113 134l187 199q-84 213 -84 416q0 152 86 240.5t192 88.5q51 0 89 -27.5t55.5 -70.5t26 -84t8.5 -82q0 -63 -45.5 -144t-87.5 -133.5t-117 -136.5q41 -106 122.5 -239t136 -205t81.5 -102q131 162 293 446q12 37 12 41q0 39 -38 64.5t-108 25.5v64 q84 -6 250 -6l199 6v-64q-68 0 -113 -12t-79.5 -45t-55 -60.5t-57.5 -91.5q-174 -299 -271 -409q154 -182 283 -183q82 0 153.5 59.5t75.5 170.5h52q-2 -129 -86 -211t-203 -82q-182 0 -361 156q-174 -156 -370 -156q-154 0 -262.5 88t-108.5 219zM256 328 q0 -66 17.5 -131.5t69.5 -122t130 -56.5q168 0 315 132q-80 80 -188 239q-94 135 -164 285q-98 -94 -139 -163.5t-41 -182.5zM463 1184q0 -164 61 -346q215 233 215 366l-2 53q-4 55 -34.5 109.5t-86.5 54.5q-61 0 -107 -59t-46 -178z" />
<glyph unicode="'" horiz-adv-x="569" d="M213 1372q-2 31 19.5 51.5t52 20.5t52 -20.5t19.5 -51.5l-45 -506h-53z" />
<glyph unicode="(" horiz-adv-x="796" d="M203 512q0 346 129 625q78 168 187.5 283.5t137.5 115.5q20 0 21 -20q0 -10 -27 -35q-330 -336 -329 -969q0 -635 321 -958q35 -35 35 -46q0 -20 -21 -20q-27 0 -133 110.5t-186 274.5q-135 279 -135 639z" />
<glyph unicode=")" horiz-adv-x="796" d="M117 -492q0 10 26 35q330 336 330 969q0 635 -317 956q-39 37 -39 48q0 20 20 20q27 0 133.5 -110.5t186.5 -274.5q135 -279 135 -639q0 -346 -129 -625q-78 -168 -187.5 -283.5t-138.5 -115.5q-20 0 -20 20z" />
<glyph unicode="*" d="M133 903q0 35 47 58l285 135l-289 135q-43 20 -43 55q0 20 16.5 38.5t38.5 18.5q16 0 45 -22l254 -184l-30 348q0 20 15 35.5t40 15.5q20 0 36.5 -14.5t16.5 -36.5l-30 -348l227 168q53 39 72 38q23 0 39 -18t16 -39q0 -35 -47 -57l-285 -135l289 -136q43 -20 43 -55 q0 -20 -16.5 -38.5t-38.5 -18.5q-12 0 -33 12l-266 195l30 -348q0 -20 -15 -36t-40 -16q-20 0 -36.5 14.5t-16.5 37.5l30 348l-286 -207q-31 0 -47.5 14t-18.5 29z" />
<glyph unicode="+" horiz-adv-x="1593" d="M115 512q0 41 67 41h574v573q0 68 41 68t41 -68v-573h571q68 0 68 -41t-68 -41h-571v-573q0 -68 -41 -68t-41 68v573h-574q-67 0 -67 41z" />
<glyph unicode="," horiz-adv-x="569" d="M176 109q0 43 28.5 75.5t80.5 32.5q61 0 96 -58.5t35 -156.5q0 -106 -43 -204.5t-85 -145.5t-59 -47q-20 0 -20 22q0 8 14 23q150 160 144 383q-37 -33 -82 -33q-51 0 -80 33t-29 76z" />
<glyph unicode="-" horiz-adv-x="681" d="M23 383v119h542v-119h-542z" />
<glyph unicode="." horiz-adv-x="569" d="M176 108.5q0 45.5 32 77t77 31.5t76.5 -31.5t31.5 -77t-31.5 -77t-76.5 -31.5t-77 31.5t-32 77z" />
<glyph unicode="/" d="M115 -471l10 37l698 1929q12 41 43 41q16 0 28.5 -12.5t12.5 -28.5l-10 -37l-698 -1929q-12 -41 -43 -41q-16 0 -28.5 12.5t-12.5 28.5z" />
<glyph unicode="0" d="M80 655q0 301 76 465q106 244 356 244q53 0 108.5 -14.5t126 -69.5t113.5 -145q82 -174 82 -480q0 -299 -76 -462q-111 -238 -356 -238q-92 0 -185.5 47t-152.5 160q-92 169 -92 493zM250 680q0 -309 22 -432q25 -133 93.5 -190.5t144.5 -57.5q82 0 150.5 61.5 t89.5 194.5q23 131 22 424q0 285 -20 399q-27 133 -98.5 186.5t-143.5 53.5q-27 0 -55.5 -8t-69.5 -31t-72.5 -80t-46.5 -143q-16 -111 -16 -377z" />
<glyph unicode="1" d="M182 1169v64q246 0 373 131q35 0 41 -8t6 -45v-1149q0 -61 30 -80t161 -19h65v-63q-72 6 -332 6t-331 -6v63h65q129 0 160 18.5t31 80.5v1061q-107 -54 -269 -54z" />
<glyph unicode="2" d="M102 0q0 37 3.5 48t19.5 28l393 438q215 242 215 453q0 137 -71.5 235t-202.5 98q-90 0 -166 -55t-111 -153q6 2 27 2q51 0 79.5 -32t28.5 -75q0 -55 -35.5 -81.5t-70.5 -26.5q-14 0 -32.5 3t-47.5 31.5t-29 79.5q0 143 108.5 257t274.5 114q188 0 311.5 -111.5 t123.5 -285.5q0 -61 -18.5 -116.5t-43 -98.5t-90.5 -112t-119 -118l-172 -153l-217 -211h369q180 0 194 16q20 29 45 182h52l-58 -356h-760z" />
<glyph unicode="3" d="M86 276q0 61 35 90t80 29q47 0 80.5 -30.5t33.5 -83.5q0 -57 -39.5 -89t-95.5 -24q49 -82 139.5 -119t174.5 -37q88 0 159.5 76t71.5 262q0 158 -61.5 249t-182.5 91h-90q-31 0 -40 3t-9 20q0 20 31 24q31 0 80 6q119 4 182 107q57 96 57 233q0 125 -59.5 177.5 t-136.5 52.5q-72 0 -151 -30t-122 -97q127 0 127 -103q0 -45 -28.5 -74.5t-75.5 -29.5q-45 0 -75 28.5t-30 77.5q0 117 104.5 198t258.5 81q152 0 264.5 -80t112.5 -203q0 -121 -80 -220t-207 -140q156 -31 249 -136.5t93 -234.5q0 -160 -126 -277.5t-310 -117.5 q-170 0 -292 92t-122 229z" />
<glyph unicode="4" d="M57 338v63l629 961q16 25 41 24q23 0 28 -9t5 -44v-932h205v-63h-205v-178q0 -59 24.5 -78t130.5 -19h43v-63q-84 6 -278 6q-193 0 -277 -6v63h43q106 0 131 18.5t25 78.5v178h-545zM115 401h499v764z" />
<glyph unicode="5" d="M102 330q0 61 33 84.5t68 23.5q47 0 74.5 -29.5t27.5 -70.5t-27.5 -70.5t-74.5 -29.5q-23 0 -35 4q27 -94 109.5 -162t191.5 -68q137 0 219 133q49 86 49 281q0 172 -37 258q-57 131 -174 131q-166 0 -264 -143q-12 -18 -26 -19q-20 0 -24.5 11.5t-4.5 42.5v606 q0 49 20 49l25 -6q129 -57 272 -58q147 0 279 60l16 6q20 0 21 -23q0 -12 -28 -44.5t-75 -71.5t-126 -68t-167 -29q-86 0 -174 27v-399q106 104 260 104q164 0 277 -132t113 -316q0 -193 -133.5 -325t-313.5 -132q-164 0 -267.5 117t-103.5 258z" />
<glyph unicode="6" d="M86 647q0 322 164 519.5t375 197.5q123 0 191.5 -62.5t68.5 -158.5q0 -53 -31 -76t-63 -23q-37 0 -66 25t-29 70q0 92 113 92q-53 82 -180 82q-39 0 -79 -11.5t-92 -49.5t-92 -98t-68 -173t-28 -260v-49q84 203 256 202.5t291 -131.5t119 -325q0 -199 -124 -331 t-298 -132q-78 0 -148.5 32.5t-136 106.5t-104.5 216t-39 337zM274 463q0 -201 37 -297q6 -16 19.5 -38t37 -50.5t62.5 -47t84 -18.5q137 0 203 133q35 74 35 275q0 205 -37 280q-63 127 -191 127q-86 0 -145.5 -59t-82 -138t-22.5 -167z" />
<glyph unicode="7" d="M115 963l67 421h51q6 -25 16.5 -36t69 -20t177.5 -9h497q0 -47 -18 -72l-277 -389q-88 -123 -127 -350q-23 -152 -22 -336v-104q0 -113 -94.5 -113t-94.5 113q0 391 252 770l230 323h-424q-186 0 -201 -12q-20 -18 -51 -186h-51z" />
<glyph unicode="8" d="M86 309q0 229 295 377q-127 86 -150 111q-90 100 -90 225q0 143 108.5 242.5t262.5 99.5q147 0 258 -85t111 -220q0 -190 -248 -318q164 -102 203 -145q100 -111 100 -252q0 -164 -126 -276.5t-300 -112.5q-170 0 -297 99t-127 255zM188 309q0 -127 95.5 -212t228.5 -85 q129 0 225.5 74t96.5 184q0 43 -14.5 80t-43 66.5t-46 43t-50.5 36.5l-252 159q-240 -133 -240 -346zM231 1102q0 -98 103 -166l254 -164q203 119 203 287q0 109 -83 181.5t-198 72.5q-113 0 -196 -59.5t-83 -151.5z" />
<glyph unicode="9" d="M86 903q0 109 32 183.5t99 148.5q123 129 301 129q76 0 143.5 -32t132 -104.5t103.5 -215t39 -338.5q0 -317 -153.5 -518t-360.5 -201q-131 0 -208 59.5t-77 161.5q0 53 30 75.5t64 22.5q37 0 66 -24.5t29 -69.5q0 -37 -23.5 -65.5t-83.5 -28.5q59 -74 201 -74 q51 0 102 23.5t106.5 81t89.5 178.5t34 291v65q-82 -205 -256 -205q-172 0 -291 132t-119 325zM270 901q0 -203 37 -278q63 -129 191 -129q125 0 187.5 111.5t62.5 256.5q0 201 -33 289q-61 162 -196.5 162t-205.5 -129q-43 -76 -43 -283z" />
<glyph unicode=":" horiz-adv-x="569" d="M176 108.5q0 45.5 32 77t77 31.5t76.5 -31.5t31.5 -77t-31.5 -77t-76.5 -31.5t-77 31.5t-32 77zM176 774q0 45 32 77t77 32t76.5 -32t31.5 -77t-31.5 -76.5t-76.5 -31.5t-77 31.5t-32 76.5z" />
<glyph unicode=";" horiz-adv-x="569" d="M176 109q0 43 28.5 75.5t80.5 32.5q115 0 114 -211q0 -106 -38.5 -205.5t-77.5 -147.5t-54 -48q-20 0 -20 22q0 10 14 27q131 152 131 369q-18 -16 -53 -21q0 -2 -16 -2q-51 0 -80 33t-29 76zM176 774q0 45 32 77t77 32t76.5 -32t31.5 -77t-31.5 -76.5t-76.5 -31.5 t-77 31.5t-32 76.5z" />
<glyph unicode="&#x3c;" horiz-adv-x="1593" d="M170 512q0 27 39 45l1134 535q27 14 37 14q16 0 28.5 -12.5t12.5 -28.5q0 -25 -39 -45l-1075 -508l1075 -508q39 -20 39 -45q0 -16 -12 -28.5t-29 -12.5q-10 0 -37 14l-1134 535q-39 18 -39 45z" />
<glyph unicode="=" horiz-adv-x="1593" d="M115 313q0 41 69 41h1223q70 0 70 -41t-68 -41h-1227q-67 0 -67 41zM115 711q0 41 67 41h1227q68 0 68 -41t-70 -41h-1223q-69 0 -69 41z" />
<glyph unicode="&#x3e;" horiz-adv-x="1593" d="M170 -41q0 25 39 45l1075 508l-1075 508q-39 20 -39 45q0 16 12.5 28.5t28.5 12.5q10 0 37 -14l1134 -535q39 -18 39 -45t-39 -45l-1134 -535q-27 -14 -37 -14q-16 0 -28.5 12.5t-12.5 28.5z" />
<glyph unicode="?" horiz-adv-x="966" d="M115 1171q0 106 95 189.5t253 83.5q207 0 297 -84t90 -193q0 -127 -98 -200q-270 -201 -271 -457v-72q0 -23 -1 -32t-7 -16t-18 -7q-16 0 -20.5 9t-4.5 40v92q0 109 43 234t137 227q23 23 35 40t23.5 57t11.5 98q0 35 -1 55t-13.5 55t-34 55.5t-66.5 37t-108 16.5 q-186 0 -269 -139q115 0 115 -93q0 -41 -25.5 -67.5t-68.5 -26.5q-39 0 -66.5 24.5t-27.5 73.5zM346 108.5q0 45.5 32 77t77 31.5t76.5 -31.5t31.5 -77t-31.5 -77t-76.5 -31.5t-77 31.5t-32 77z" />
<glyph unicode="@" horiz-adv-x="1593" d="M115 711q0 305 199.5 519t482.5 214q125 0 245.5 -51.5t218 -143.5t157 -237.5t59.5 -319.5q0 -92 -8.5 -160.5t-29 -134t-63.5 -100.5t-108 -35q-68 0 -129.5 36t-75.5 110q-104 -145 -270 -146q-162 0 -284 130t-122 318.5t122 318.5t284 130q166 0 280 -158 q14 -16 47 -16h35q35 0 42 -7t7 -42v-494q0 -135 72 -135q49 0 79.5 30t45 88t19.5 115.5t5 139.5q0 176 -58 318.5t-152.5 227.5t-203 129t-216.5 44q-256 0 -442.5 -200t-186.5 -488q0 -281 182 -484.5t457 -203.5q279 0 557 131q10 6 47 6h18q20 0 27.5 -1t14 -5t6.5 -15 q0 -20 -115 -60t-184 -56q-193 -45 -369 -46q-299 0 -495.5 218.5t-196.5 515.5zM528 711q0 -170 80 -287t191 -117q137 0 235 142q29 43 29 88v348q0 43 -27 82q-94 147 -237 147q-113 0 -192 -116.5t-79 -286.5z" />
<glyph unicode="A" horiz-adv-x="1536" d="M66 0v63q182 4 229 138l424 1224q8 25 17 33t32 8q12 0 19.5 -2t12.5 -9t7 -11t8 -19l442 -1280q16 -51 49 -66.5t126 -15.5h36v-63l-268 6q-221 0 -295 -6v63q170 0 170 62q0 4 -6 29l-108 313h-506l-95 -268q-4 -8 -4 -31q0 -43 40 -74t114 -31v-63l-236 6zM477 530 h461l-231 666z" />
<glyph unicode="B" horiz-adv-x="1449" d="M74 0v63h49q111 0 136.5 18.5t25.5 78.5v1079q0 59 -26 77.5t-136 18.5h-49v64h749q195 0 325 -104.5t130 -241.5q0 -113 -95.5 -203t-244.5 -119q170 -18 282.5 -120.5t112.5 -235.5q0 -150 -129 -262.5t-327 -112.5h-803zM455 145q0 -53 15 -67.5t85 -14.5h256 q147 0 232 96.5t85 217.5t-74.5 224.5t-213.5 103.5h-385v-560zM455 750h297q158 0 242.5 95t84.5 208q0 100 -67.5 191t-202.5 91h-254q-70 0 -85 -14t-15 -68v-503z" />
<glyph unicode="C" horiz-adv-x="1478" d="M115 700q0 309 211 526.5t501 217.5q90 0 170 -33t117 -61.5t90 -81.5l103 151q16 25 32.5 25t19.5 -9.5t3 -39.5v-486q0 -33 -4 -41t-29 -8q-20 0 -24.5 6t-8.5 29q-31 221 -153.5 353t-292.5 132q-49 0 -103.5 -11t-133 -53t-139 -111.5t-104.5 -201t-44 -305.5 q0 -172 44 -304t104.5 -200.5t139 -110.5t134 -53.5t104.5 -11.5q176 0 311 125t148 336q2 31 24 33q27 0 27 -35q0 -195 -149.5 -358.5t-385.5 -163.5q-291 0 -501.5 216t-210.5 529z" />
<glyph unicode="D" horiz-adv-x="1564" d="M72 0v63h49q111 0 136.5 18.5t25.5 78.5v1079q0 59 -26 77.5t-136 18.5h-49v64h749q262 0 444.5 -209t182.5 -502q0 -287 -183.5 -487.5t-443.5 -200.5h-749zM459 145q0 -53 15 -67.5t85 -14.5h207q135 0 226 55.5t138 119.5q113 154 113 450q0 311 -106 457 q-137 190 -373 190h-205q-70 0 -85 -14t-15 -68v-1108z" />
<glyph unicode="E" horiz-adv-x="1394" d="M68 0v63h49q111 0 136.5 18.5t25.5 78.5v1073q0 59 -26 77.5t-136 18.5h-49v64h1153l57 -461h-51q-14 117 -32.5 184.5t-63 119.5t-117 72.5t-189.5 20.5h-264q-70 0 -85 -14.5t-15 -67.5v-491h184q141 0 181 49t40 190h52v-542h-52q0 139 -40 189t-181 50h-184v-547 q0 -53 15.5 -67.5t84.5 -14.5h273q88 0 152.5 11.5t109.5 40t75.5 61.5t52 92.5t34 114.5t26.5 145h51l-86 -528h-1181z" />
<glyph unicode="F" horiz-adv-x="1337" d="M68 0v63h49q111 0 136.5 18.5t25.5 78.5v1073q0 59 -26 77.5t-136 18.5h-49v64h1124l57 -461h-51q-14 117 -32.5 183.5t-60.5 119.5t-112.5 73.5t-185.5 20.5h-246q-70 0 -85 -14.5t-15 -67.5v-518h176q139 0 178 50t39 190h51v-543h-51q0 141 -39 190.5t-178 49.5h-176 v-504q0 -43 7 -59.5t50 -28t137 -11.5h68v-63q-74 6 -344 6q-239 0 -311 -6z" />
<glyph unicode="G" horiz-adv-x="1607" d="M115 700.5q0 311.5 212 527.5t500 216q72 0 133.5 -16.5t110.5 -49t74.5 -54t60.5 -56.5l103 151q16 25 32.5 25t19.5 -9.5t3 -39.5v-486q0 -33 -4 -41t-29 -8q-20 0 -24 6t-9 29q-31 221 -154.5 353t-291.5 132q-49 0 -103.5 -11t-134 -53t-140 -110.5t-104.5 -200 t-44 -305.5q0 -172 44 -304t105.5 -200.5t142 -111.5t138 -54.5t108.5 -11.5q35 0 76 7.5t102.5 30t100.5 76.5t39 134v131q0 61 -30 80t-161 19h-65v63q74 -6 329 -6l250 6v-63q-98 0 -119.5 -14.5t-21.5 -75.5v-357q0 -47 -18 -47q-16 0 -63.5 46t-68.5 81 q-49 -86 -155.5 -130t-227.5 -44q-295 0 -505.5 217t-210.5 528.5z" />
<glyph unicode="H" horiz-adv-x="1536" d="M68 0v63h49q111 0 136.5 18.5t25.5 78.5v1079q0 59 -26 77.5t-136 18.5h-49v64q72 -6 303 -6q229 0 301 6v-64h-49q-111 0 -136.5 -18.5t-25.5 -77.5v-479h612v479q0 59 -25.5 77.5t-136.5 18.5h-49v64q72 -6 303 -6q229 0 301 6v-64h-49q-111 0 -136.5 -18.5 t-25.5 -77.5v-1079q0 -59 26 -78t136 -19h49v-63q-72 6 -303 6q-229 0 -301 -6v63h49q111 0 136.5 18.5t25.5 78.5v536h-612v-536q0 -59 25.5 -78t136.5 -19h49v-63q-72 6 -303 6q-229 0 -301 -6z" />
<glyph unicode="I" horiz-adv-x="739" d="M57 0v63h54q115 0 141.5 18.5t26.5 78.5v1079q0 59 -27 77.5t-141 18.5h-54v64q72 -6 314 -6q240 0 311 6v-64h-53q-115 0 -141.5 -18.5t-26.5 -77.5v-1079q0 -59 26.5 -78t141.5 -19h53v-63q-72 6 -313 6q-240 0 -312 -6z" />
<glyph unicode="J" horiz-adv-x="1052" d="M84 229q0 61 36 90t79 29q45 0 79.5 -30.5t34.5 -84.5q0 -115 -131 -114q74 -119 226 -119q86 0 148 84t62 219v934q0 43 -8 59.5t-51 27.5t-141 11h-74v64q78 -6 344 -6l264 6v-64q-104 0 -130.5 -12t-26.5 -72v-909q0 -74 -2 -90q-18 -121 -124 -209t-257 -88 q-137 0 -232.5 79.5t-95.5 194.5z" />
<glyph unicode="K" horiz-adv-x="1593" d="M68 0v63h49q111 0 136.5 18.5t25.5 78.5v1079q0 59 -26 77.5t-136 18.5h-49v64q72 -6 303 -6q229 0 301 6v-64h-49q-111 0 -136.5 -18.5t-25.5 -77.5v-651l641 612q37 33 37 68q0 12 -5.5 25.5t-29 27.5t-60.5 14v64q70 -6 261 -6q121 0 174 6v-64q-170 -2 -291 -123 l-369 -354l473 -696q43 -63 85 -81t130 -18v-63l-235 6q-221 0 -293 -6v63q121 0 121 62q0 23 -31 70l-371 548l-237 -225v-358q0 -59 25.5 -78t136.5 -19h49v-63q-72 6 -303 6q-229 0 -301 -6z" />
<glyph unicode="L" horiz-adv-x="1280" d="M68 0v63h49q111 0 136.5 18.5t25.5 78.5v1079q0 59 -26 77.5t-136 18.5h-49v64q72 -6 311 -6q270 0 344 6v-64h-68q-94 0 -137 -12t-50 -28.5t-7 -57.5v-1092q0 -53 15.5 -67.5t84.5 -14.5h168q104 0 179 31t115 70t66.5 112.5t35 120.5t16.5 131h51l-57 -528h-1067z" />
<glyph unicode="M" horiz-adv-x="1878" d="M76 0v63q74 0 121 14.5t64.5 42t21.5 46t4 49.5v1024q0 59 -25.5 77.5t-136.5 18.5h-49v64h346q37 0 47 -6.5t25 -38.5l444 -1147l448 1153q10 29 19.5 34t48.5 5h346v-64h-49q-111 0 -136.5 -18.5t-25.5 -77.5v-1079q0 -59 25.5 -78t136.5 -19h49v-63q-76 6 -293 6 q-219 0 -295 -6v63h50q111 0 136 18.5t25 78.5v1175h-2l-503 -1296q-14 -39 -37 -39q-25 0 -41 45l-494 1274h-2v-1104q0 -31 4 -49.5t21.5 -46t64.5 -42t121 -14.5v-63l-240 6z" />
<glyph unicode="N" horiz-adv-x="1536" d="M68 0v63q74 0 121 14.5t64 42t21.5 46t4.5 49.5v1069q0 29 -7.5 36t-42.5 11q-61 4 -102 4h-59v64h348q29 0 37 -4t22 -23l723 -1063v875q0 31 -4 49t-21.5 46t-64.5 42t-121 14v64l240 -6l239 6v-64q-74 0 -121 -14t-64 -42t-21.5 -46.5t-4.5 -48.5v-1131q0 -33 -4 -43 t-24 -10q-14 0 -35 27l-836 1228q-8 12 -20 25v-1065q0 -31 4 -49.5t21.5 -46t64.5 -42t121 -14.5v-63l-240 6z" />
<glyph unicode="O" horiz-adv-x="1593" d="M115 694q0 313 200.5 531.5t479.5 218.5q281 0 481.5 -219t200.5 -531q0 -309 -201 -524t-481 -215q-276 0 -478 214t-202 525zM326 723q0 -190 45 -335.5t117.5 -224.5t150.5 -117t158 -38q78 0 154.5 37t149.5 115t119 224t46 339q0 150 -32 270.5t-82 193.5 t-114.5 121t-125 66.5t-117.5 18.5q-72 0 -147 -32t-150.5 -102.5t-123.5 -209t-48 -326.5z" />
<glyph unicode="P" horiz-adv-x="1394" d="M72 0v63h49q111 0 136.5 18.5t25.5 78.5v1079q0 59 -26 77.5t-136 18.5h-49v64h723q207 0 345 -114t138 -267q0 -152 -140.5 -261.5t-326.5 -109.5h-346v-487q0 -59 25.5 -78t136.5 -19h49v-63q-72 6 -303 6q-229 0 -301 -6zM459 700h282q92 0 159 26t97.5 57.5t48 83 t19.5 80t2 71.5q0 45 -2 73.5t-19.5 80t-48 83t-97 56t-159.5 24.5h-182q-70 0 -85 -14t-15 -68v-553z" />
<glyph unicode="Q" horiz-adv-x="1593" d="M115 694q0 313 200.5 531.5t479.5 218.5q281 0 481.5 -219t200.5 -531q0 -227 -116 -411.5t-300 -268.5q39 -104 83 -152t113.5 -48t124 46t62.5 126q4 37 22 37q23 0 23 -43q0 -49 -10.5 -104.5t-35 -121t-76.5 -108.5t-126 -43q-55 0 -96 23.5t-64.5 52t-43 90 t-26.5 100.5l-20 117q-98 -31 -194 -31q-281 0 -481.5 215t-200.5 524zM319 694q0 -166 36 -294t94.5 -200.5t108.5 -110.5t101 -56q-29 57 -28 98q0 68 47 120t121 52q145 0 231 -217q242 178 242 608q0 186 -46 327.5t-120 219.5t-153 115t-158 37q-78 0 -156 -36 t-151.5 -112t-121 -219.5t-47.5 -331.5zM676 131q0 -23 7 -47.5t37 -51t77 -26.5q96 0 180 47q-39 205 -178 205q-55 0 -89 -39t-34 -88z" />
<glyph unicode="R" horiz-adv-x="1507" d="M72 0v63h49q111 0 136.5 18.5t25.5 78.5v1079q0 59 -26 77.5t-136 18.5h-49v64h643q223 0 378.5 -109.5t155.5 -259.5q0 -115 -101 -205t-257 -129q203 -70 250 -237l26 -164q10 -72 16.5 -105.5t18.5 -78.5t24.5 -63.5t35 -33t51.5 -14.5q47 0 87 42t48 140q4 33 25 33 q27 0 26 -35q0 -27 -8 -60.5t-27.5 -72.5t-61.5 -65.5t-97 -26.5q-160 0 -258 86q-41 37 -59.5 85t-21.5 86t-3 122q0 119 -12.5 171t-65.5 103q-72 70 -191 70h-235v-518q0 -59 25.5 -78t136.5 -19h49v-63q-74 6 -299 6t-299 -6zM459 723h227q109 0 182.5 26.5t108.5 74.5 t48 96.5t13 109.5q0 72 -16 126t-51 86t-70 52.5t-89 28.5t-91 10t-96 2q-100 0 -121 -4q-23 -2 -32 -13t-11 -23.5t-2 -41.5v-530z" />
<glyph unicode="S" horiz-adv-x="1138" d="M115 4v410q0 23 1 31t7 14t18 6q23 0 25 -21q6 -203 127 -315q119 -111 323 -111q123 0 199 88.5t76 204.5q0 111 -64 189q-27 35 -60.5 57.5t-54 29.5t-59.5 17q-254 61 -270 68q-121 41 -194.5 144.5t-73.5 230.5q0 164 115.5 280.5t283.5 116.5q84 0 154.5 -26.5 t99.5 -50.5t74 -67l71 117q16 27 31 27q16 0 19.5 -9.5t3.5 -39.5v-412q0 -23 -1 -31t-7.5 -13t-18.5 -5q-20 0 -25 24q-57 428 -399 428q-117 0 -193.5 -78.5t-76.5 -189.5q0 -90 56 -163.5t151 -96.5l262 -63q131 -31 219 -147t88 -267q0 -174 -113.5 -300t-290.5 -126 q-127 0 -225 42t-151 101l-74 -116q-16 -27 -31 -27q-16 0 -19 9t-3 40z" />
<glyph unicode="T" horiz-adv-x="1478" d="M74 926l39 460h1251l39 -460h-51q-8 92 -15.5 145t-25 103.5t-39 75t-62.5 44t-94 24.5t-133 5q-94 0 -117 -4q-25 -6 -31 -23.5t-6 -54.5v-1079q0 -41 8.5 -57.5t55.5 -29t151 -12.5h82v-63q-84 6 -389 6q-303 0 -387 -6v63h82q104 0 151.5 12.5t55.5 29t8 57.5v1079 q0 29 -2 41t-11 22.5t-29.5 14.5t-110.5 4q-80 0 -133.5 -5t-94.5 -24.5t-62.5 -44t-39 -75t-24.5 -103.5t-15 -145h-51z" />
<glyph unicode="U" horiz-adv-x="1536" d="M68 1335v64q72 -6 303 -6q229 0 301 6v-64h-49q-111 0 -136.5 -18.5t-25.5 -77.5v-780q0 -137 38 -231.5t97 -136.5t107.5 -57.5t95.5 -15.5q156 0 274.5 124t118.5 331v711q0 31 -4 49t-21.5 46t-64.5 42t-121 14v64l244 -6l241 6v-64q-74 0 -121 -13t-64 -42 t-21.5 -49.5t-4.5 -54.5v-656q0 -100 -6 -141q-27 -178 -153.5 -301t-300.5 -123q-211 0 -363.5 148.5t-152.5 363.5v772q0 59 -26 77.5t-136 18.5h-49z" />
<glyph unicode="V" horiz-adv-x="1536" d="M39 1335v64l260 -6q219 0 293 6v-64q-168 0 -168 -59l12 -37l391 -1034l375 987q10 31 10 41q0 41 -37.5 70.5t-111.5 31.5v64l233 -6q104 0 199 6v-64q-172 -2 -223 -137l-457 -1204q-8 -25 -16 -32t-33 -7q-20 0 -30.5 8t-20.5 37l-475 1257q-20 55 -56 66.5t-145 11.5 z" />
<glyph unicode="W" horiz-adv-x="2105" d="M37 1335v64l250 -6q217 0 291 6v-64q-172 0 -172 -61q0 -14 4 -27l329 -1007l285 878l-45 144q-16 51 -51 62t-133 11v64l249 -6q217 0 291 6v-64q-172 0 -172 -61q0 -6 6 -31l328 -1003l307 946q10 31 11 41q0 37 -43 71.5t-136 36.5v64l244 -6q94 0 186 6v-64 q-162 0 -204 -137l-392 -1202q-4 -16 -7 -23.5t-11 -12.5t-22 -5q-27 0 -39 39l-340 1042l-338 -1040q-4 -16 -7.5 -23.5t-11.5 -12.5t-22 -5q-27 0 -39 39l-410 1255q-18 59 -45.5 72.5t-140.5 13.5z" />
<glyph unicode="X" horiz-adv-x="1536" d="M49 0v63q94 0 163 29t89.5 50.5t44.5 56.5l336 495l-377 570q-29 43 -67.5 57t-122.5 14h-39v64l266 -6q227 0 299 6v-64q-61 -2 -97 -21.5t-36 -39.5q0 -8 14 -31l264 -395l234 346q18 29 18 47q0 37 -33.5 64.5t-93.5 29.5v64q82 -6 263 -6l227 6v-64 q-207 -2 -297 -133l-281 -411l432 -654q31 -45 70 -59.5t123 -14.5h39v-63l-266 6q-227 0 -299 -6v63q61 2 97 21.5t36 40.5q0 2 -11 22l-323 490l-291 -430q-20 -33 -20 -49q0 -33 32.5 -62.5t96.5 -32.5v-63q-74 6 -263 6z" />
<glyph unicode="Y" horiz-adv-x="1536" d="M23 1335v64l266 -6q229 0 303 6v-64q-76 0 -109.5 -10t-33.5 -41q0 -14 14 -35l371 -604l337 549q20 31 21 61q0 35 -28.5 57.5t-88.5 22.5v64l236 -6q106 0 200 6v-64q-182 0 -262 -133l-395 -643v-395q0 -63 25.5 -82t138.5 -19h47v-63q-74 6 -299 6t-299 -6v63h49 q111 0 136.5 18.5t25.5 78.5v399l-430 701q-18 31 -32.5 44t-51.5 22t-105 9h-36z" />
<glyph unicode="Z" horiz-adv-x="1251" d="M115 35q0 18 14 41l797 1259h-322q-123 0 -204 -27.5t-124 -86t-60 -123t-23 -160.5h-52l23 461h917h26q7 0 15 -4t10.5 -10.5t2.5 -18.5q0 -16 -15 -39l-794 -1257h336q111 0 188.5 23.5t122.5 60t71.5 103.5t36 129.5t15.5 160.5h51l-35 -547h-944q-35 0 -44 5t-9 30z " />
<glyph unicode="[" horiz-adv-x="569" d="M242 -512v2048h280v-82h-198v-1884h198v-82h-280z" />
<glyph unicode="\" d="M115 1495q0 16 12 28.5t29 12.5q29 0 45 -45l696 -1925l10 -37q0 -16 -12 -28.5t-29 -12.5q-29 0 -45 45l-696 1925z" />
<glyph unicode="]" horiz-adv-x="569" d="M45 -430h199v1884h-199v82h281v-2048h-281v82z" />
<glyph unicode="^" horiz-adv-x="1138" d="M-10 1196l579 328l580 -328l-25 -45l-557 252l-555 -252z" />
<glyph unicode="_" horiz-adv-x="1536" d="M0 -229h1536v-54h-1536v54z" />
<glyph unicode="`" d="M258 1356q0 29 22.5 51.5t51.5 22.5q39 0 61 -35l246 -314l-35 -37l-311 250q-35 27 -35 62z" />
<glyph unicode="a" d="M86 195q0 174 205 266q123 59 377 74v75q0 127 -66.5 194.5t-150.5 67.5q-150 0 -222 -94q61 -2 83 -32.5t22 -61.5q0 -41 -25.5 -67.5t-68.5 -26.5q-41 0 -68 25.5t-27 70.5q0 100 90.5 166t219.5 66q168 0 280 -113q35 -35 52.5 -80t19.5 -74.5t2 -87.5v-409 q0 -12 4 -32t22.5 -45.5t49.5 -25.5q74 0 73 131v115h52v-115q0 -109 -57.5 -151.5t-110.5 -42.5q-68 0 -111 50t-49 118q-31 -78 -101.5 -128.5t-166.5 -50.5q-74 0 -143.5 18.5t-127 70t-57.5 129.5zM244 197q0 -76 54 -125t130 -49q86 0 163 66.5t77 197.5v205 q-227 -8 -325.5 -98.5t-98.5 -196.5z" />
<glyph unicode="b" horiz-adv-x="1138" d="M57 1335v64l295 22v-649q119 133 281 133q176 0 305 -135t129 -328q0 -195 -135 -330t-322 -135q-170 0 -268 150l-74 -127h-51v1221q0 76 -27 95t-133 19zM358 233q0 -43 29 -86q82 -125 215 -124q143 0 232 131q63 98 63 290q0 190 -59 285q-82 131 -215 131 q-150 0 -242 -131q-23 -33 -23 -74v-422z" />
<glyph unicode="c" horiz-adv-x="909" d="M70 442.5q0 194.5 128 335t316 140.5q125 0 219 -59.5t94 -160.5q0 -45 -26.5 -70.5t-67.5 -25.5q-43 0 -68.5 26.5t-25.5 67.5q0 18 6 36t28.5 37t61.5 22q-74 76 -219 75q-104 0 -190 -98t-86 -322q0 -117 28.5 -202.5t75.5 -129.5t93 -64.5t91 -20.5q201 0 269 215 q6 20 26 20q27 0 27 -20q0 -14 -16.5 -51t-50 -88.5t-106.5 -89.5t-167 -38q-180 0 -310 135.5t-130 330z" />
<glyph unicode="d" horiz-adv-x="1138" d="M70 440q0 195 136 330t320 135q156 0 258 -127v443q0 76 -26.5 95t-132.5 19v64l295 22v-1243q0 -76 26.5 -95.5t132.5 -19.5v-63l-301 -23v136q-106 -135 -274 -136q-176 0 -305 135t-129 328zM240 438q0 -190 59 -284q82 -131 215 -131q152 0 242 143q23 35 22 76v420 q0 41 -22 75q-84 123 -221 123q-143 0 -232 -131q-63 -98 -63 -291z" />
<glyph unicode="e" horiz-adv-x="909" d="M57 451q0 193 124 330t302 137q180 0 273.5 -117t93.5 -285q0 -31 -8 -37t-43 -6h-572q0 -209 62 -307q86 -137 231 -137q20 0 44 4t73 21.5t92 64.5t68 121q6 29 26 28q27 0 27 -24q0 -18 -19.5 -58.5t-56.5 -88.5t-108.5 -84t-157.5 -36q-180 0 -315.5 136.5 t-135.5 337.5zM229 516h486q0 43 -7.5 91t-29 114.5t-71.5 108.5t-124 42q-33 0 -68.5 -14t-78.5 -48t-73 -111t-34 -183z" />
<glyph unicode="f" horiz-adv-x="626" d="M68 819v64h161v235q0 152 98.5 239t219.5 87q80 0 132 -43t52 -101q0 -39 -23.5 -64.5t-66.5 -25.5q-41 0 -64.5 26t-23.5 62q0 66 61 86q-31 14 -67 15q-74 0 -131.5 -76t-57.5 -203v-237h240v-64h-233v-659q0 -59 24.5 -78t130.5 -19h43v-63q-82 6 -260 6l-233 -6v63 q109 0 134 13.5t25 79.5v663h-161z" />
<glyph unicode="g" d="M57 -162q0 66 50.5 123t138.5 82q-90 57 -90 182q0 96 63 170q-96 80 -96 211q0 121 96 210t236 89q123 0 217 -74q98 96 217 97q53 0 78.5 -33t25.5 -68q0 -31 -19.5 -46t-39.5 -15q-25 0 -42.5 16.5t-17.5 42.5q0 43 33 56l-20 2q-100 0 -185 -80q84 -78 84 -199 t-96 -210t-235 -89q-115 0 -203 64q-35 -41 -35 -97q0 -51 31 -91t78 -46q14 -2 153 -2q82 0 127 -2t109.5 -15.5t115.5 -39.5q133 -74 134 -234q0 -117 -134.5 -190.5t-320.5 -73.5q-188 0 -320.5 74.5t-132.5 185.5zM164 -162q0 -84 99 -148.5t249 -64.5q147 0 246.5 63.5 t99.5 149.5q0 61 -35 100t-106.5 54.5t-121.5 18.5t-142 3h-121q-70 -4 -119 -55t-49 -121zM276 604q0 -252 179 -252q90 0 145 82q33 55 33 172q0 252 -178 252q-90 0 -146 -82q-33 -55 -33 -172z" />
<glyph unicode="h" horiz-adv-x="1138" d="M66 0v63q109 0 134 13.5t25 79.5v1065q0 76 -26.5 95t-132.5 19v64l294 22v-712h2q33 74 107 135t188 61q154 0 215 -76q45 -51 54.5 -108t9.5 -205v-391q2 -43 35 -52.5t125 -9.5v-63l-230 6l-231 -6v63q109 0 134.5 13.5t25.5 79.5v477q0 104 -32 165.5t-120 61.5 q-106 0 -191 -89t-85 -239v-376q0 -66 25.5 -79.5t133.5 -13.5v-63l-229 6z" />
<glyph unicode="i" horiz-adv-x="569" d="M68 0v63q109 0 134 13.5t25 79.5v551q0 76 -25.5 94t-125.5 18v64l286 22v-751q0 -61 22 -76t122 -15v-63q-209 6 -213 6zM174 1237q0 41 31 75t80 34q45 0 76.5 -33t31.5 -76q0 -41 -30.5 -75t-79.5 -34q-45 0 -77 33t-32 76z" />
<glyph unicode="j" horiz-adv-x="626" d="M-82 -256q0 41 25.5 67.5t68.5 26.5t68.5 -26.5t25.5 -67.5q0 -37 -21.5 -60.5t-49.5 -31.5q53 -27 110 -27q47 0 79 28t46.5 74t19.5 84.5t5 82.5v811q0 76 -29.5 95t-146.5 19v64l311 22v-1007q0 -137 -82 -227.5t-198 -90.5q-94 0 -163 44t-69 120zM211 1237 q0 41 30.5 75t80.5 34q45 0 76.5 -33t31.5 -76q0 -41 -30.5 -75t-80.5 -34q-45 0 -76.5 33t-31.5 76z" />
<glyph unicode="k" horiz-adv-x="1081" d="M57 0v63q109 0 134.5 13.5t25.5 79.5v1065q0 76 -26.5 95t-133.5 19v64l295 22v-983l289 250q45 39 45 80q0 47 -59 51v64q86 -6 229 -6q84 0 143 6v-64q-129 -6 -258 -110q-29 -23 -97.5 -82.5t-68.5 -65.5q0 -4 7 -12l6 -10l260 -367q53 -74 92 -91.5t107 -17.5v-63 q-88 6 -179 6l-221 -6v63q74 0 74 48q0 14 -16.5 42.5t-47.5 73.5l-75 108l-105 144l-131 -112v-211q0 -66 25.5 -79.5t134.5 -13.5v-63l-225 6z" />
<glyph unicode="l" horiz-adv-x="569" d="M68 0v63q109 0 134 13.5t25 79.5v1065q0 76 -26.5 95t-132.5 19v64l294 22v-1265q0 -66 26 -79.5t134 -13.5v-63l-227 6z" />
<glyph unicode="m" horiz-adv-x="1705" d="M66 0v63q109 0 134 13.5t25 79.5v549q0 76 -26.5 95t-132.5 19v64l288 22v-215q96 215 303 215q240 0 273 -200q35 78 108.5 139t188.5 61q154 0 215 -76q45 -51 54 -108t9 -205v-391q2 -43 35 -52.5t125 -9.5v-63l-229 6l-232 -6v63q109 0 134.5 13.5t25.5 79.5v477 q0 104 -32 165.5t-120 61.5q-106 0 -191 -89t-85 -239v-376q0 -66 25.5 -79.5t134.5 -13.5v-63l-230 6l-231 -6v63q109 0 134.5 13.5t25.5 79.5v477q0 104 -32 165.5t-120 61.5q-106 0 -191 -89t-85 -239v-376q0 -66 25.5 -79.5t133.5 -13.5v-63l-229 6z" />
<glyph unicode="n" horiz-adv-x="1138" d="M66 0v63q109 0 134 13.5t25 79.5v549q0 76 -26.5 95t-132.5 19v64l288 22v-215q96 215 303 215q154 0 215 -76q45 -51 54.5 -108t9.5 -205v-391q2 -43 35 -52.5t125 -9.5v-63l-230 6l-231 -6v63q109 0 134.5 13.5t25.5 79.5v477q0 104 -32 165.5t-120 61.5 q-106 0 -191 -89t-85 -239v-376q0 -66 25.5 -79.5t133.5 -13.5v-63l-229 6z" />
<glyph unicode="o" d="M57 438.5q0 194.5 132.5 337t322.5 142.5q186 0 319.5 -141.5t133.5 -338.5q0 -193 -134.5 -327t-320.5 -134q-182 0 -317.5 133.5t-135.5 328zM227 455q0 -199 52 -289q80 -137 233 -137q76 0 139.5 41t98.5 110q45 90 45 275q0 197 -54 284q-80 133 -231 133 q-66 0 -130.5 -34.5t-103.5 -102.5q-49 -90 -49 -280z" />
<glyph unicode="p" horiz-adv-x="1138" d="M57 -334q109 0 134.5 13.5t25.5 78.5v959q0 68 -25.5 85t-134.5 17v64l295 22v-135q123 135 287 135q174 0 301 -135t127 -328q0 -195 -135 -330t-322 -135q-102 0 -170.5 52.5t-81.5 91.5v-19v-344q0 -66 26 -79t134 -13v-63l-231 6l-230 -6v63zM358 233q0 -31 4.5 -42 t24.5 -44q82 -125 215 -124q117 0 206 119.5t89 299.5q0 172 -81 292t-193 120q-80 0 -150 -43t-115 -121v-457z" />
<glyph unicode="q" horiz-adv-x="1081" d="M70 440q0 197 135 331t317 134q76 0 138.5 -37t90 -73.5t46.5 -75.5l77 186h46v-1147q0 -66 25.5 -79t133.5 -13v-63l-231 6l-230 -6v63q109 0 134.5 13.5t25.5 78.5v367q-113 -147 -272 -148q-178 0 -307 136.5t-129 326.5zM240 440q0 -176 80.5 -296.5t193.5 -120.5 q111 0 188 83q82 90 82 173v288q0 96 -68.5 191.5t-180.5 95.5q-117 0 -206 -118t-89 -296z" />
<glyph unicode="r" horiz-adv-x="802" d="M57 0v63q109 0 134.5 13.5t25.5 79.5v549q0 76 -26.5 95t-133.5 19v64l285 22v-225q29 88 90.5 156.5t161.5 68.5q66 0 108.5 -37t42.5 -88q0 -45 -27.5 -67.5t-60.5 -22.5q-37 0 -62.5 23.5t-25.5 64.5q0 35 17.5 55.5t29.5 24.5q-4 2 -22 2q-113 0 -177.5 -112.5 t-64.5 -272.5v-315q0 -59 24.5 -78t131.5 -19h43v-63q-82 6 -260 6z" />
<glyph unicode="s" horiz-adv-x="806" d="M68 27v270q0 23 1 31t7 14t18 6q14 0 19.5 -6t9.5 -29q31 -141 97.5 -215.5t187.5 -74.5q115 0 173 51t58 135q0 150 -213 188q-123 25 -174 41.5t-96 53.5q-88 72 -88 174t77.5 177t249.5 75q115 0 193 -58q23 18 35 33q27 25 41 25q16 0 19 -10.5t3 -39.5v-206 q0 -23 -1 -31t-7 -13.5t-19 -5.5l-16 6q-8 4 -8 13q-16 248 -240 248q-121 0 -175 -46.5t-54 -109.5q0 -35 16.5 -61.5t38 -42t61.5 -30t64 -19.5l72 -15q164 -31 233 -98q86 -86 86 -195q0 -121 -82 -203t-247 -82q-133 0 -226 89q-12 -12 -21 -22.5l-12.5 -14.5t-4.5 -6.5 t-3 -4.5q-41 -41 -51 -41q-16 0 -19 9.5t-3 40.5z" />
<glyph unicode="t" horiz-adv-x="796" d="M39 819v45q94 4 156.5 70.5t84 148.5t23.5 177h51v-377h293v-64h-293v-569q0 -221 138 -221q59 0 98 60.5t39 168.5v113h51v-117q0 -111 -51 -194t-152 -83q-37 0 -73.5 9.5t-84 34t-77 85t-29.5 148.5v565h-174z" />
<glyph unicode="u" horiz-adv-x="1138" d="M66 819v64l301 22v-680q0 -49 4 -77.5t20.5 -61.5t55 -48t100.5 -15q111 0 179.5 91t68.5 226v365q0 76 -27 95t-133 19v64l301 22v-727q0 -76 26.5 -95.5t133.5 -19.5v-63l-295 -23v185q-86 -184 -264 -185q-90 0 -151.5 23t-92.5 51.5t-47.5 83.5t-18.5 89t-2 100v307 q0 139 -20 163.5t-139 24.5z" />
<glyph unicode="v" horiz-adv-x="1081" d="M39 819v64q92 -6 199 -6l223 6v-64q-117 0 -117 -53l12 -35l230 -571l209 522q12 35 12 49q0 35 -23.5 60.5t-74.5 27.5v64l178 -6q82 0 153 6v-64q-61 0 -104 -27.5t-56.5 -51t-27.5 -58.5l-268 -666q-16 -39 -43 -39q-18 0 -25.5 7.5t-17.5 31.5l-295 727 q-20 51 -46 63.5t-118 12.5z" />
<glyph unicode="w" horiz-adv-x="1478" d="M37 819v64l190 -6l224 6v-64q-121 0 -121 -55q0 -12 10 -37l195 -547l176 496q-37 100 -47 112q-25 31 -129 31v64q92 -6 182 -6l213 6v-64q-121 0 -121 -55q0 -8 10 -39l203 -571l186 524q10 27 11 43q0 45 -32 70.5t-87 27.5v64l190 -6q82 0 150 6v-64 q-127 -4 -172 -131l-240 -672l-2 -2q-14 -37 -39 -37q-27 0 -41 39l-209 582l-207 -580q-8 -25 -15 -33t-25.5 -8t-26.5 10.5t-17 35.5l-258 725q-18 47 -44.5 59t-106.5 12z" />
<glyph unicode="x" horiz-adv-x="1081" d="M25 0v63q160 0 262 123l192 244l-203 264q-72 92 -103.5 108.5t-137.5 16.5v64q82 -6 194 -6l222 6v-64q-72 -4 -72 -51q0 -16 18 -37l160 -207l127 160q31 37 31 72q0 57 -60 63v64q80 -6 197 -6q88 0 168 6v-64q-156 -4 -244 -106q-39 -43 -188 -232l274 -354 q33 -43 70 -53.5t125 -10.5v-63q-92 6 -197 6l-221 -6v63q37 2 55.5 18.5t18.5 33.5q0 8 -43 67l-156 205l-108 -129q-27 -33 -51.5 -70.5t-24.5 -60.5q0 -55 59 -64v-63l-194 6q-90 0 -170 -6z" />
<glyph unicode="y" horiz-adv-x="1081" d="M39 -254q0 43 25.5 65.5t60.5 22.5q37 0 61.5 -23.5t24.5 -62.5q0 -76 -80 -86q39 -37 96 -37q61 0 110.5 45t71 88t52.5 121l51 121l-307 748q-20 49 -51 60t-115 11v64q92 -6 199 -6l223 6v-64q-115 0 -115 -53q0 -6 12 -37l228 -551l207 504q12 29 12 49q0 84 -96 88 v64l178 -6q82 0 153 6v-64q-137 0 -190 -131l-361 -874q-98 -233 -262 -234q-78 0 -133 48t-55 118z" />
<glyph unicode="z" horiz-adv-x="909" d="M57 29q0 14 19 37l571 772h-233q-162 0 -214.5 -59.5t-62.5 -225.5h-51l23 330h655q23 0 32 -1t15 -7.5t6 -18.5t-18 -35l-570 -770h242q170 0 227.5 71t71.5 261h51l-35 -383h-675q-33 0 -43.5 4.5t-10.5 24.5z" />
<glyph unicode="{" d="M147 512q0 23 29 23q129 8 213 92q39 41 46 86t7 196v375q2 109 118 180.5t274 71.5q41 0 40 -23q0 -18 -18 -22q-66 -4 -115 -21.5t-67.5 -32t-44.5 -40.5q-35 -37 -42 -80t-7 -164v-369q0 -203 -242 -272q207 -59 237 -211q4 -20 5 -186v-308q0 -76 6 -98 q16 -66 80.5 -118t175.5 -58h4q29 -4 28 -22q0 -23 -40 -23q-174 0 -285 78q-72 51 -89.5 104.5t-17.5 159.5v406q0 72 -27.5 124t-71.5 77.5t-83 37.5t-80 14h-4q-29 5 -29 23z" />
<glyph unicode="|" horiz-adv-x="569" d="M244 -444v1912q0 68 41 68t41 -68v-1912q0 -68 -41 -68t-41 68z" />
<glyph unicode="}" d="M147 -489q0 18 19 22q66 4 115 21.5t67.5 32t44.5 40.5q35 37 42 80t7 164v369q0 203 242 272q-207 59 -238 211q-4 20 -4 186v308q0 76 -6 98q-16 66 -80.5 118t-175.5 58h-4q-29 4 -29 22q0 23 41 23q170 0 285 -78q72 -51 89.5 -104.5t17.5 -159.5v-406 q0 -72 27.5 -124t71.5 -77.5t83 -37.5t80 -14h4q29 -4 28 -23q0 -23 -28 -23q-129 -8 -213 -92q-39 -41 -46 -86t-7 -196v-375q-2 -109 -118 -180.5t-274 -71.5q-41 0 -41 23z" />
<glyph unicode="~" horiz-adv-x="1138" d="M0 430l111 90q41 35 116 72q82 37 150 37q86 0 205 -70q133 -76 213 -76q139 0 313 146l29 -35l-111 -90q-41 -35 -117 -72q-82 -37 -149 -37q-86 0 -205 70q-133 76 -213 76q-139 0 -313 -146z" />
<glyph unicode="&#xa2;" horiz-adv-x="909" d="M70 442q0 182 113.5 318.5t285.5 154.5v29q0 12 9 21.5t22 9.5q31 0 30 -31v-26q121 -4 209 -63.5t88 -156.5q0 -45 -26.5 -70.5t-67.5 -25.5q-43 0 -68.5 26.5t-25.5 67.5q0 18 6 36t28.5 37t61.5 22q-68 70 -205 75v-837q199 0 267 215q6 20 26 20q27 0 27 -20 q0 -14 -15.5 -50t-47 -85.5t-99 -88t-158.5 -43.5v-38q0 -31 -30 -31q-12 0 -21.5 9t-9.5 22v41q-166 16 -282.5 147t-116.5 315zM240 446q0 -186 67.5 -285.5t161.5 -123.5v825q-92 -20 -160.5 -119.5t-68.5 -296.5z" />
<glyph unicode="&#xa3;" horiz-adv-x="1536" d="M127 168q0 98 88 156.5t207 58.5q98 0 196 -61q-6 70 -29 197l-28 151h-317v61h307q-12 98 -12 152q0 209 104.5 362.5t276.5 153.5q137 0 236 -90t99 -222q0 -39 -27.5 -66.5t-66.5 -27.5t-66.5 28t-27.5 66.5t27.5 66.5t66.5 28q4 0 12.5 -1t10.5 -1q-31 74 -103.5 120 t-160.5 46q-90 0 -145.5 -73t-74 -169t-18.5 -221q0 -70 10 -152h320v-61h-312q6 -39 23.5 -140.5t27 -174t9.5 -142.5q74 -61 111.5 -89t106.5 -58.5t132 -30.5q104 0 175 76.5t71 183.5h53q0 -152 -53 -259.5t-162 -107.5q-82 0 -162 38t-141.5 92.5t-132.5 111.5 q-16 -109 -138 -162t-286 -53q-86 0 -146.5 62.5t-60.5 150.5zM180 168q0 -66 45 -113t109 -47q117 0 203 63.5t86 164.5l-2 34q-100 59 -198.5 59.5t-170.5 -41.5t-72 -120z" />
<glyph unicode="&#xa5;" horiz-adv-x="1536" d="M23 1335v64l266 -6q229 0 303 6v-64q-76 0 -109.5 -10t-33.5 -41q0 -14 14 -35l340 -555h61l307 500q20 31 21 61q0 35 -28.5 57.5t-88.5 22.5v64l236 -6q106 0 200 6v-64q-182 0 -262 -133l-311 -508h291v-61h-330l-45 -74v-168h375v-61h-375v-166q0 -63 25.5 -82 t138.5 -19h47v-63q-74 6 -299 6t-299 -6v63h49q111 0 136.5 18.5t25.5 78.5v170h-371v61h371v168l-45 74h-326v61h287l-346 566q-18 31 -32.5 44t-51.5 22t-105 9h-36z" />
<glyph unicode="&#xa8;" d="M231 1239q0 37 28 66.5t73 29.5q41 0 69.5 -29.5t28.5 -66.5q0 -39 -27.5 -68.5t-72.5 -29.5q-41 0 -70 29.5t-29 68.5zM596 1239q0 37 27.5 66.5t72.5 29.5q41 0 70 -29.5t29 -66.5q0 -39 -28 -68.5t-73 -29.5q-41 0 -69.5 29.5t-28.5 68.5z" />
<glyph unicode="&#xa9;" horiz-adv-x="1398" d="M0 700q0 289 205 494t495 205q289 0 494 -205t205 -494q0 -291 -205 -495.5t-494 -204.5q-291 0 -495.5 204.5t-204.5 495.5zM82 700q0 -256 181 -437t437 -181t436.5 181t180.5 437q0 254 -181.5 435.5t-435.5 181.5q-256 0 -437 -180.5t-181 -436.5zM315 700 q0 170 117 290t277 120q106 0 206 -96l58 82q8 14 16 14q12 0 12 -27v-268q0 -18 -2 -22.5t-14 -4.5t-14 3.5t-4 15.5q-16 123 -84 195.5t-162 72.5q-27 0 -57.5 -6t-73.5 -29.5t-77 -61.5t-57.5 -110.5t-23.5 -169.5q0 -94 24.5 -166.5t57.5 -110.5t77 -60.5t73.5 -28.5 t56.5 -6q96 0 171 68.5t83 183.5q0 18 12 18q14 0 14 -18q0 -106 -81.5 -197.5t-210.5 -91.5q-160 0 -277 119.5t-117 291.5z" />
<glyph unicode="&#xab;" horiz-adv-x="1138" d="M227 496q0 8 6 14q197 197 291 467q4 12 19 12h4q10 0 16 -7t4 -17q-57 -246 -192 -469q133 -221 192 -471q2 -8 -4 -16.5t-16 -8.5h-4q-14 0 -19 14q-94 268 -291 467q-6 3 -6 15zM569 496q0 8 6 14q197 197 291 467q2 12 19 12h4q8 0 15 -7t5 -17q-57 -246 -192 -469 q133 -221 192 -471q2 -8 -5 -16.5t-15 -8.5h-4q-14 0 -19 14q-94 268 -291 467q-6 3 -6 15z" />
<glyph unicode="&#xad;" horiz-adv-x="681" d="M23 383v119h542v-119h-542z" />
<glyph unicode="&#xae;" horiz-adv-x="1398" d="M0 700q0 289 205 494t495 205q289 0 494 -205t205 -494q0 -291 -205 -495.5t-494 -204.5q-291 0 -495.5 204.5t-204.5 495.5zM82 700q0 -256 181 -437t437 -181t436.5 181t180.5 437q0 254 -181.5 435.5t-435.5 181.5q-256 0 -437 -180.5t-181 -436.5zM338 328v34h27 q61 0 74.5 10.5t13.5 43.5v594q0 33 -13.5 43t-74.5 10h-27v35h354q123 0 208 -60.5t85 -142.5q0 -63 -56.5 -113.5t-140.5 -70.5q111 -41 138 -131l14 -91q14 -92 28.5 -126.5t51.5 -34.5q68 0 76 100q0 16 12 16q16 0 16 -18q0 -39 -25.5 -82t-82.5 -43q-88 0 -142 49 q-33 29 -40 61.5t-7 98t-7 94.5t-36 58q-39 39 -104 38h-129v-284q0 -33 13.5 -43.5t74.5 -10.5h29v-34l-166 2zM551 725h125q195 0 194 170q0 57 -19.5 94t-58 51.5t-69.5 18.5t-82 4q-55 0 -66 -2q-25 -4 -24 -43v-293z" />
<glyph unicode="&#xb4;" d="M385 1081l246 314q23 35 61 35q29 0 51.5 -23t22.5 -51q0 -35 -35 -62l-311 -250z" />
<glyph unicode="&#xb8;" horiz-adv-x="909" d="M182 -356h27q63 0 97 1t89.5 5t85 12t53 24.5t23.5 41.5q0 84 -156 84v198h107v-145q92 0 156.5 -35t64.5 -102q0 -39 -32.5 -67t-73.5 -41t-120 -20.5t-128 -8.5t-139 -1h-54v54z" />
<glyph unicode="&#xbb;" horiz-adv-x="1138" d="M229 25q55 250 193 471q-137 221 -193 469q-2 10 4.5 17t16.5 7h4q16 0 18 -12q94 -270 291 -467q6 -12 6 -14q0 -8 -6 -15q-197 -199 -291 -467q-4 -14 -18 -14h-4q-10 0 -16.5 8.5t-4.5 16.5zM571 25q55 250 193 471q-137 221 -193 469q-2 10 4.5 17t16.5 7h4 q14 0 18 -12q94 -270 291 -467q6 -12 6 -14q0 -8 -6 -15q-197 -199 -291 -467q-4 -14 -18 -14h-4q-10 0 -16.5 8.5t-4.5 16.5z" />
<glyph unicode="&#xc0;" horiz-adv-x="1536" d="M66 0v63q182 4 229 138l424 1224q8 25 17 33t32 8q12 0 19.5 -2t12.5 -9t7 -11t8 -19l442 -1280q16 -51 49 -66.5t126 -15.5h36v-63l-268 6q-221 0 -295 -6v63q170 0 170 62q0 4 -6 29l-108 313h-506l-95 -268q-4 -8 -4 -31q0 -43 40 -74t114 -31v-63l-236 6zM477 530 h461l-231 666zM487 1776q-6 33 15.5 59.5t56.5 26.5q29 0 53 -25l297 -266l-28 -43l-349 192q-39 19 -45 56z" />
<glyph unicode="&#xc2;" horiz-adv-x="1536" d="M66 0v63q182 4 229 138l424 1224q8 25 17 33t32 8q12 0 19.5 -2t12.5 -9t7 -11t8 -19l442 -1280q16 -51 49 -66.5t126 -15.5h36v-63l-268 6q-221 0 -295 -6v63q170 0 170 62q0 4 -6 29l-108 313h-506l-95 -268q-4 -8 -4 -31q0 -43 40 -74t114 -31v-63l-236 6zM459 1540 l309 240l309 -240l-24 -33l-287 135l-287 -135zM477 530h461l-231 666z" />
<glyph unicode="&#xc6;" horiz-adv-x="1849" d="M66 0v63q182 0 231 138l405 1132q-14 0 -40.5 1t-40.5 1h-93v64h1147l58 -461h-52q-14 117 -30.5 181.5t-54 119.5t-104.5 75.5t-175 20.5h-195q-70 0 -85 -14t-15 -68v-548h174q137 0 174 50t37 189h51v-543h-51q0 139 -37 189.5t-174 50.5h-174v-496q0 -53 15.5 -67.5 t84.5 -14.5h195q238 0 321 121q53 76 93 297q2 14 8 47h51l-86 -528h-1010v63q106 0 132 13.5t26 79.5v485h-330l-153 -430q-10 -27 -11 -45q0 -41 39 -70.5t113 -32.5v-63l-236 6q-73 0 -208 -6zM545 705h307v532q0 25 -3 39t-22.5 32.5t-58.5 18.5z" />
<glyph unicode="&#xc7;" horiz-adv-x="1478" d="M115 700q0 309 211 526.5t501 217.5q90 0 170 -33t117 -61.5t90 -81.5l103 151q16 25 32.5 25t19.5 -9.5t3 -39.5v-486q0 -33 -4 -41t-29 -8q-20 0 -24.5 6t-8.5 29q-31 221 -153.5 353t-292.5 132q-49 0 -103.5 -11t-133 -53t-139 -111.5t-104.5 -201t-44 -305.5 q0 -172 44 -304t104.5 -200.5t139 -110.5t134 -53.5t104.5 -11.5q176 0 311 125t148 336q2 31 24 33q27 0 27 -35q0 -184 -137.5 -345t-358.5 -175v-92q92 0 156.5 -35t64.5 -102q0 -39 -32.5 -67t-73.5 -41t-120 -20.5t-128 -8.5t-139 -1h-53v54h26q63 0 97 1t89.5 5t85 12 t53 24.5t23.5 41.5q0 84 -155 84v147q-268 27 -456.5 236.5t-188.5 504.5z" />
<glyph unicode="&#xc8;" horiz-adv-x="1394" d="M68 0v63h49q111 0 136.5 18.5t25.5 78.5v1073q0 59 -26 77.5t-136 18.5h-49v64h1153l57 -461h-51q-14 117 -32.5 184.5t-63 119.5t-117 72.5t-189.5 20.5h-264q-70 0 -85 -14.5t-15 -67.5v-491h184q141 0 181 49t40 190h52v-542h-52q0 139 -40 189t-181 50h-184v-547 q0 -53 15.5 -67.5t84.5 -14.5h273q88 0 152.5 11.5t109.5 40t75.5 61.5t52 92.5t34 114.5t26.5 145h51l-86 -528h-1181zM416 1776q-6 33 15.5 59.5t55.5 26.5q29 0 54 -25l297 -266l-29 -43l-348 192q-39 19 -45 56z" />
<glyph unicode="&#xc9;" horiz-adv-x="1394" d="M68 0v63h49q111 0 136.5 18.5t25.5 78.5v1073q0 59 -26 77.5t-136 18.5h-49v64h1153l57 -461h-51q-14 117 -32.5 184.5t-63 119.5t-117 72.5t-189.5 20.5h-264q-70 0 -85 -14.5t-15 -67.5v-491h184q141 0 181 49t40 190h52v-542h-52q0 139 -40 189t-181 50h-184v-547 q0 -53 15.5 -67.5t84.5 -14.5h273q88 0 152.5 11.5t109.5 40t75.5 61.5t52 92.5t34 114.5t26.5 145h51l-86 -528h-1181zM555 1571l297 266q25 25 53 25q35 0 56.5 -27t15.5 -59q-6 -37 -45 -56l-348 -192z" />
<glyph unicode="&#xca;" horiz-adv-x="1394" d="M68 0v63h49q111 0 136.5 18.5t25.5 78.5v1073q0 59 -26 77.5t-136 18.5h-49v64h1153l57 -461h-51q-14 117 -32.5 184.5t-63 119.5t-117 72.5t-189.5 20.5h-264q-70 0 -85 -14.5t-15 -67.5v-491h184q141 0 181 49t40 190h52v-542h-52q0 139 -40 189t-181 50h-184v-547 q0 -53 15.5 -67.5t84.5 -14.5h273q88 0 152.5 11.5t109.5 40t75.5 61.5t52 92.5t34 114.5t26.5 145h51l-86 -528h-1181zM387 1540l309 240l310 -240l-25 -33l-287 135l-286 -135z" />
<glyph unicode="&#xcb;" horiz-adv-x="1394" d="M68 0v63h49q111 0 136.5 18.5t25.5 78.5v1073q0 59 -26 77.5t-136 18.5h-49v64h1153l57 -461h-51q-14 117 -32.5 184.5t-63 119.5t-117 72.5t-189.5 20.5h-264q-70 0 -85 -14.5t-15 -67.5v-491h184q141 0 181 49t40 190h52v-542h-52q0 139 -40 189t-181 50h-184v-547 q0 -53 15.5 -67.5t84.5 -14.5h273q88 0 152.5 11.5t109.5 40t75.5 61.5t52 92.5t34 114.5t26.5 145h51l-86 -528h-1181zM383 1606q0 37 27.5 66.5t72.5 29.5q41 0 70 -30t29 -66q0 -39 -28 -69t-73 -30q-41 0 -69.5 30t-28.5 69zM813 1606q0 37 27.5 66.5t72.5 29.5 q41 0 70 -30t29 -66q0 -39 -28 -69t-73 -30q-41 0 -69.5 30t-28.5 69z" />
<glyph unicode="&#xce;" horiz-adv-x="739" d="M57 0v63h54q115 0 141.5 18.5t26.5 78.5v1079q0 59 -27 77.5t-141 18.5h-54v64q72 -6 314 -6q240 0 311 6v-64h-53q-115 0 -141.5 -18.5t-26.5 -77.5v-1079q0 -59 26.5 -78t141.5 -19h53v-63q-72 6 -313 6q-240 0 -312 -6zM61 1540l310 240l309 -240l-25 -33l-286 135 l-287 -135z" />
<glyph unicode="&#xcf;" horiz-adv-x="739" d="M57 0v63h54q115 0 141.5 18.5t26.5 78.5v1079q0 59 -27 77.5t-141 18.5h-54v64q72 -6 314 -6q240 0 311 6v-64h-53q-115 0 -141.5 -18.5t-26.5 -77.5v-1079q0 -59 26.5 -78t141.5 -19h53v-63q-72 6 -313 6q-240 0 -312 -6zM57 1606q0 37 28 66.5t73 29.5q41 0 69.5 -30 t28.5 -66q0 -39 -27.5 -69t-72.5 -30q-41 0 -70 30t-29 69zM487 1606q0 37 28 66.5t73 29.5q41 0 69.5 -30t28.5 -66q0 -39 -27.5 -69t-72.5 -30q-41 0 -70 30t-29 69z" />
<glyph unicode="&#xd4;" horiz-adv-x="1593" d="M115 694q0 313 200.5 531.5t479.5 218.5q281 0 481.5 -219t200.5 -531q0 -309 -201 -524t-481 -215q-276 0 -478 214t-202 525zM326 723q0 -190 45 -335.5t117.5 -224.5t150.5 -117t158 -38q78 0 154.5 37t149.5 115t119 224t46 339q0 150 -32 270.5t-82 193.5 t-114.5 121t-125 66.5t-117.5 18.5q-72 0 -147 -32t-150.5 -102.5t-123.5 -209t-48 -326.5zM487 1540l310 240l309 -240l-25 -33l-286 135l-287 -135z" />
<glyph unicode="&#xd9;" horiz-adv-x="1536" d="M68 1335v64q72 -6 303 -6q229 0 301 6v-64h-49q-111 0 -136.5 -18.5t-25.5 -77.5v-780q0 -137 38 -231.5t97 -136.5t107.5 -57.5t95.5 -15.5q156 0 274.5 124t118.5 331v711q0 31 -4 49t-21.5 46t-64.5 42t-121 14v64l244 -6l241 6v-64q-74 0 -121 -13t-64 -42 t-21.5 -49.5t-4.5 -54.5v-656q0 -100 -6 -141q-27 -178 -153.5 -301t-300.5 -123q-211 0 -363.5 148.5t-152.5 363.5v772q0 59 -26 77.5t-136 18.5h-49zM535 1776q-6 33 15 59.5t56 26.5q29 0 53 -25l297 -266l-28 -43l-348 192q-39 19 -45 56z" />
<glyph unicode="&#xdb;" horiz-adv-x="1536" d="M68 1335v64q72 -6 303 -6q229 0 301 6v-64h-49q-111 0 -136.5 -18.5t-25.5 -77.5v-780q0 -137 38 -231.5t97 -136.5t107.5 -57.5t95.5 -15.5q156 0 274.5 124t118.5 331v711q0 31 -4 49t-21.5 46t-64.5 42t-121 14v64l244 -6l241 6v-64q-74 0 -121 -13t-64 -42 t-21.5 -49.5t-4.5 -54.5v-656q0 -100 -6 -141q-27 -178 -153.5 -301t-300.5 -123q-211 0 -363.5 148.5t-152.5 363.5v772q0 59 -26 77.5t-136 18.5h-49zM506 1540l309 240l309 -240l-24 -33l-287 135l-287 -135z" />
<glyph unicode="&#xdc;" horiz-adv-x="1536" d="M68 1335v64q72 -6 303 -6q229 0 301 6v-64h-49q-111 0 -136.5 -18.5t-25.5 -77.5v-780q0 -137 38 -231.5t97 -136.5t107.5 -57.5t95.5 -15.5q156 0 274.5 124t118.5 331v711q0 31 -4 49t-21.5 46t-64.5 42t-121 14v64l244 -6l241 6v-64q-74 0 -121 -13t-64 -42 t-21.5 -49.5t-4.5 -54.5v-656q0 -100 -6 -141q-27 -178 -153.5 -301t-300.5 -123q-211 0 -363.5 148.5t-152.5 363.5v772q0 59 -26 77.5t-136 18.5h-49zM502 1606q0 37 27.5 66.5t72.5 29.5q41 0 69.5 -30t28.5 -66q0 -39 -27.5 -69t-72.5 -30q-41 0 -69.5 30t-28.5 69z M932 1606q0 37 27.5 66.5t72.5 29.5q41 0 69.5 -30t28.5 -66q0 -39 -27.5 -69t-72.5 -30q-41 0 -69.5 30t-28.5 69z" />
<glyph unicode="&#xe0;" d="M86 195q0 174 205 266q123 59 377 74v75q0 127 -66.5 194.5t-150.5 67.5q-150 0 -222 -94q61 -2 83 -32.5t22 -61.5q0 -41 -25.5 -67.5t-68.5 -26.5q-41 0 -68 25.5t-27 70.5q0 100 90.5 166t219.5 66q168 0 280 -113q35 -35 52.5 -80t19.5 -74.5t2 -87.5v-409 q0 -12 4 -32t22.5 -45.5t49.5 -25.5q74 0 73 131v115h52v-115q0 -109 -57.5 -151.5t-110.5 -42.5q-68 0 -111 50t-49 118q-31 -78 -101.5 -128.5t-166.5 -50.5q-74 0 -143.5 18.5t-127 70t-57.5 129.5zM244 197q0 -76 54 -125t130 -49q86 0 163 66.5t77 197.5v205 q-227 -8 -325.5 -98.5t-98.5 -196.5zM258 1356q0 29 22.5 51.5t51.5 22.5q39 0 61 -35l246 -314l-35 -37l-311 250q-35 27 -35 62z" />
<glyph unicode="&#xe2;" d="M86 195q0 174 205 266q123 59 377 74v75q0 127 -66.5 194.5t-150.5 67.5q-150 0 -222 -94q61 -2 83 -32.5t22 -61.5q0 -41 -25.5 -67.5t-68.5 -26.5q-41 0 -68 25.5t-27 70.5q0 100 90.5 166t219.5 66q168 0 280 -113q35 -35 52.5 -80t19.5 -74.5t2 -87.5v-409 q0 -12 4 -32t22.5 -45.5t49.5 -25.5q74 0 73 131v115h52v-115q0 -109 -57.5 -151.5t-110.5 -42.5q-68 0 -111 50t-49 118q-31 -78 -101.5 -128.5t-166.5 -50.5q-74 0 -143.5 18.5t-127 70t-57.5 129.5zM201 1085l311 332l311 -332l-26 -28l-285 221l-285 -221zM244 197 q0 -76 54 -125t130 -49q86 0 163 66.5t77 197.5v205q-227 -8 -325.5 -98.5t-98.5 -196.5z" />
<glyph unicode="&#xe6;" horiz-adv-x="1478" d="M92 188q0 145 162 234.5t414 89.5v98q0 125 -65.5 193.5t-151.5 68.5q-147 0 -222 -94q61 -2 83 -32.5t22 -61.5q0 -41 -25.5 -67.5t-68.5 -26.5q-41 0 -68 25.5t-27 70.5q0 100 91.5 166t218.5 66q98 0 183 -42t130 -116q131 158 309 158q162 0 252 -113t90 -289 q0 -31 -8 -37t-43 -6h-559q0 -125 30.5 -216t68.5 -133t89.5 -65.5t73 -26.5t39.5 -3q90 0 158.5 58t93.5 140v2q8 25 13 32t18 7q27 0 26 -24q0 -18 -18.5 -58.5t-52 -88.5t-100 -84t-146.5 -36q-209 0 -342 183q-39 -80 -131 -131.5t-211 -51.5q-78 0 -146.5 17.5 t-124 67.5t-55.5 126zM250 188q0 -72 52 -118.5t126 -46.5q109 0 186.5 73.5t77.5 173.5q0 23 -6 45q-18 63 -18 154q-223 -8 -320.5 -92.5t-97.5 -188.5zM811 516h473q-18 356 -209 356q-82 0 -166 -79.5t-98 -276.5z" />
<glyph unicode="&#xe7;" horiz-adv-x="909" d="M70 442q0 195 128 335.5t316 140.5q125 0 219 -59.5t94 -160.5q0 -45 -26.5 -70.5t-67.5 -25.5q-43 0 -68.5 26.5t-25.5 67.5q0 18 6 36t28.5 37t61.5 22q-74 76 -219 75q-104 0 -190 -98t-86 -322q0 -117 28.5 -202.5t75.5 -129.5t93 -64.5t91 -20.5q201 0 269 215 q6 20 26 20q27 0 27 -20q0 -12 -14.5 -46t-44 -82t-93 -88t-145.5 -48v-115q92 0 156.5 -35t64.5 -102q0 -39 -32.5 -67t-73.5 -41t-120 -20.5t-128 -8.5t-139 -1h-54v54h27q63 0 97 1t89.5 5t85 12t53 24.5t23.5 41.5q0 84 -156 84v170q-160 25 -268 154.5t-108 305.5z" />
<glyph unicode="&#xe8;" horiz-adv-x="909" d="M57 451q0 193 124 330t302 137q180 0 273.5 -117t93.5 -285q0 -31 -8 -37t-43 -6h-572q0 -209 62 -307q86 -137 231 -137q20 0 44 4t73 21.5t92 64.5t68 121q6 29 26 28q27 0 27 -24q0 -18 -19.5 -58.5t-56.5 -88.5t-108.5 -84t-157.5 -36q-180 0 -315.5 136.5 t-135.5 337.5zM201 1356q0 29 22.5 51.5t50.5 22.5q39 0 62 -35l246 -314l-35 -37l-311 250q-35 27 -35 62zM229 516h486q0 43 -7.5 91t-29 114.5t-71.5 108.5t-124 42q-33 0 -68.5 -14t-78.5 -48t-73 -111t-34 -183z" />
<glyph unicode="&#xe9;" horiz-adv-x="909" d="M57 451q0 193 124 330t302 137q180 0 273.5 -117t93.5 -285q0 -31 -8 -37t-43 -6h-572q0 -209 62 -307q86 -137 231 -137q20 0 44 4t73 21.5t92 64.5t68 121q6 29 26 28q27 0 27 -24q0 -18 -19.5 -58.5t-56.5 -88.5t-108.5 -84t-157.5 -36q-180 0 -315.5 136.5 t-135.5 337.5zM229 516h486q0 43 -7.5 91t-29 114.5t-71.5 108.5t-124 42q-33 0 -68.5 -14t-78.5 -48t-73 -111t-34 -183zM328 1081l245 314q23 35 62 35q29 0 51.5 -23t22.5 -51q0 -35 -35 -62l-312 -250z" />
<glyph unicode="&#xea;" horiz-adv-x="909" d="M57 451q0 193 124 330t302 137q180 0 273.5 -117t93.5 -285q0 -31 -8 -37t-43 -6h-572q0 -209 62 -307q86 -137 231 -137q20 0 44 4t73 21.5t92 64.5t68 121q6 29 26 28q27 0 27 -24q0 -18 -19.5 -58.5t-56.5 -88.5t-108.5 -84t-157.5 -36q-180 0 -315.5 136.5 t-135.5 337.5zM143 1085l312 332l311 -332l-27 -28l-284 221l-285 -221zM229 516h486q0 43 -7.5 91t-29 114.5t-71.5 108.5t-124 42q-33 0 -68.5 -14t-78.5 -48t-73 -111t-34 -183z" />
<glyph unicode="&#xeb;" horiz-adv-x="909" d="M57 451q0 193 124 330t302 137q180 0 273.5 -117t93.5 -285q0 -31 -8 -37t-43 -6h-572q0 -209 62 -307q86 -137 231 -137q20 0 44 4t73 21.5t92 64.5t68 121q6 29 26 28q27 0 27 -24q0 -18 -19.5 -58.5t-56.5 -88.5t-108.5 -84t-157.5 -36q-180 0 -315.5 136.5 t-135.5 337.5zM174 1239q0 37 27.5 66.5t72.5 29.5q41 0 70 -29.5t29 -66.5q0 -39 -28 -68.5t-73 -29.5q-41 0 -69.5 29.5t-28.5 68.5zM229 516h486q0 43 -7.5 91t-29 114.5t-71.5 108.5t-124 42q-33 0 -68.5 -14t-78.5 -48t-73 -111t-34 -183zM539 1239q0 37 27.5 66.5 t72.5 29.5q41 0 69.5 -29.5t28.5 -66.5q0 -39 -27.5 -68.5t-72.5 -29.5q-41 0 -69.5 29.5t-28.5 68.5z" />
<glyph unicode="&#xee;" horiz-adv-x="569" d="M-27 1085l312 332l311 -332l-27 -28l-284 221l-285 -221zM68 0v63q109 0 134 13.5t25 79.5v551q0 76 -25.5 94t-125.5 18v64l286 22v-751q0 -61 22 -76t122 -15v-63q-209 6 -213 6z" />
<glyph unicode="&#xef;" horiz-adv-x="569" d="M4 1239q0 37 27.5 66.5t72.5 29.5q41 0 70 -29.5t29 -66.5q0 -39 -28 -68.5t-73 -29.5q-41 0 -69.5 29.5t-28.5 68.5zM68 0v63q109 0 134 13.5t25 79.5v551q0 76 -25.5 94t-125.5 18v64l286 22v-751q0 -61 22 -76t122 -15v-63q-209 6 -213 6zM369 1239q0 37 27.5 66.5 t72.5 29.5q41 0 69.5 -29.5t28.5 -66.5q0 -39 -27.5 -68.5t-72.5 -29.5q-41 0 -69.5 29.5t-28.5 68.5z" />
<glyph unicode="&#xf4;" d="M57 438.5q0 194.5 132.5 337t322.5 142.5q186 0 319.5 -141.5t133.5 -338.5q0 -193 -134.5 -327t-320.5 -134q-182 0 -317.5 133.5t-135.5 328zM201 1085l311 332l311 -332l-26 -28l-285 221l-285 -221zM227 455q0 -199 52 -289q80 -137 233 -137q76 0 139.5 41t98.5 110 q45 90 45 275q0 197 -54 284q-80 133 -231 133q-66 0 -130.5 -34.5t-103.5 -102.5q-49 -90 -49 -280z" />
<glyph unicode="&#xf9;" horiz-adv-x="1138" d="M66 819v64l301 22v-680q0 -49 4 -77.5t20.5 -61.5t55 -48t100.5 -15q111 0 179.5 91t68.5 226v365q0 76 -27 95t-133 19v64l301 22v-727q0 -76 26.5 -95.5t133.5 -19.5v-63l-295 -23v185q-86 -184 -264 -185q-90 0 -151.5 23t-92.5 51.5t-47.5 83.5t-18.5 89t-2 100v307 q0 139 -20 163.5t-139 24.5zM315 1356q0 29 22.5 51.5t51.5 22.5q39 0 62 -35l245 -314l-34 -37l-312 250q-35 27 -35 62z" />
<glyph unicode="&#xfb;" horiz-adv-x="1138" d="M66 819v64l301 22v-680q0 -49 4 -77.5t20.5 -61.5t55 -48t100.5 -15q111 0 179.5 91t68.5 226v365q0 76 -27 95t-133 19v64l301 22v-727q0 -76 26.5 -95.5t133.5 -19.5v-63l-295 -23v185q-86 -184 -264 -185q-90 0 -151.5 23t-92.5 51.5t-47.5 83.5t-18.5 89t-2 100v307 q0 139 -20 163.5t-139 24.5zM258 1085l311 332l312 -332l-27 -28l-285 221l-284 -221z" />
<glyph unicode="&#xfc;" horiz-adv-x="1138" d="M66 819v64l301 22v-680q0 -49 4 -77.5t20.5 -61.5t55 -48t100.5 -15q111 0 179.5 91t68.5 226v365q0 76 -27 95t-133 19v64l301 22v-727q0 -76 26.5 -95.5t133.5 -19.5v-63l-295 -23v185q-86 -184 -264 -185q-90 0 -151.5 23t-92.5 51.5t-47.5 83.5t-18.5 89t-2 100v307 q0 139 -20 163.5t-139 24.5zM289 1239q0 37 27.5 66.5t72.5 29.5q41 0 69.5 -29.5t28.5 -66.5q0 -39 -27.5 -68.5t-72.5 -29.5q-41 0 -69.5 29.5t-28.5 68.5zM653 1239q0 37 28 66.5t73 29.5q41 0 69.5 -29.5t28.5 -66.5q0 -39 -27.5 -68.5t-72.5 -29.5q-41 0 -70 29.5 t-29 68.5z" />
<glyph unicode="&#xff;" horiz-adv-x="1081" d="M39 -254q0 43 25.5 65.5t60.5 22.5q37 0 61.5 -23.5t24.5 -62.5q0 -76 -80 -86q39 -37 96 -37q61 0 110.5 45t71 88t52.5 121l51 121l-307 748q-20 49 -51 60t-115 11v64q92 -6 199 -6l223 6v-64q-115 0 -115 -53q0 -6 12 -37l228 -551l207 504q12 29 12 49q0 84 -96 88 v64l178 -6q82 0 153 6v-64q-137 0 -190 -131l-361 -874q-98 -233 -262 -234q-78 0 -133 48t-55 118zM260 1239q0 37 27.5 66.5t72.5 29.5q41 0 70 -29.5t29 -66.5q0 -39 -28 -68.5t-73 -29.5q-41 0 -69.5 29.5t-28.5 68.5zM625 1239q0 37 27.5 66.5t72.5 29.5 q41 0 69.5 -29.5t28.5 -66.5q0 -39 -27.5 -68.5t-72.5 -29.5q-41 0 -69.5 29.5t-28.5 68.5z" />
<glyph unicode="&#x152;" horiz-adv-x="2076" d="M143 694q0 317 203 533.5t473 216.5q57 0 144 -21q113 -25 176 -24h764l57 -461h-51q-14 115 -31.5 180.5t-56.5 119.5t-106.5 75.5t-176.5 21.5h-229q-70 0 -85.5 -14t-15.5 -68v-495h222q147 0 190 50t43 189h51v-542h-51q0 139 -43 189t-190 50h-222v-549 q0 -53 15.5 -67.5t85.5 -14.5h225q86 0 149.5 11.5t107.5 43.5t70.5 61.5t48 94t31 112.5t25.5 142h51l-86 -528h-792q-59 0 -158 -23q-104 -23 -162 -22q-270 0 -473 213t-203 526zM348 725q0 -303 140.5 -514t338.5 -211q119 0 162 54.5t55 168.5q8 94 9 475 q0 395 -11 486q-6 53 -14 84.5t-29.5 65.5t-63.5 49.5t-108 15.5q-197 0 -338 -193.5t-141 -480.5z" />
<glyph unicode="&#x153;" horiz-adv-x="1593" d="M57 449q0 197 129 333t308 136q113 0 207 -57.5t151 -149.5q59 100 149.5 153.5t190.5 53.5q162 0 252 -113t90 -289q0 -31 -8 -37t-43 -6h-559q0 -125 30.5 -216t68.5 -133t89 -65.5t72.5 -26.5t40.5 -3q90 0 158.5 58t93.5 140v2q8 25 13 32t17 7q27 0 27 -24 q0 -18 -18.5 -58.5t-52 -88.5t-100.5 -84t-146 -36q-100 0 -199.5 53.5t-163.5 159.5q-55 -92 -149.5 -152.5t-210.5 -60.5q-178 0 -307.5 136.5t-129.5 335.5zM215 457q0 -117 25.5 -204t59.5 -129t79 -67.5t69.5 -29.5t47.5 -4q27 0 56.5 7t72.5 33.5t75.5 70.5t57 128 t24.5 195q0 113 -27.5 195.5t-62.5 123.5t-81 64.5t-70.5 27.5t-44.5 4q-25 0 -50.5 -4t-69.5 -28.5t-77 -65.5t-58.5 -123.5t-25.5 -193.5zM926 516h473q-18 356 -209 356q-82 0 -166 -79.5t-98 -276.5z" />
<glyph unicode="&#x178;" horiz-adv-x="1536" d="M23 1335v64l266 -6q229 0 303 6v-64q-76 0 -109.5 -10t-33.5 -41q0 -14 14 -35l371 -604l337 549q20 31 21 61q0 35 -28.5 57.5t-88.5 22.5v64l236 -6q106 0 200 6v-64q-182 0 -262 -133l-395 -643v-395q0 -63 25.5 -82t138.5 -19h47v-63q-74 6 -299 6t-299 -6v63h49 q111 0 136.5 18.5t25.5 78.5v399l-430 701q-18 31 -32.5 44t-51.5 22t-105 9h-36zM455 1606q0 37 27.5 66.5t72.5 29.5q41 0 69.5 -30t28.5 -66q0 -39 -27.5 -69t-72.5 -30q-41 0 -69.5 30t-28.5 69zM885 1606q0 37 27.5 66.5t72.5 29.5q41 0 69.5 -30t28.5 -66 q0 -39 -27.5 -69t-72.5 -30q-41 0 -69.5 30t-28.5 69z" />
<glyph unicode="&#x2c6;" d="M201 1085l311 332l311 -332l-26 -28l-285 221l-285 -221z" />
<glyph unicode="&#x2da;" horiz-adv-x="1536" d="M571 1266q0 70 56.5 124t142.5 54q82 0 138.5 -53.5t56.5 -124.5q0 -76 -56.5 -129.5t-142.5 -53.5q-80 0 -137.5 52.5t-57.5 130.5zM639 1263.5q0 -118.5 129 -118.5t129 118.5t-129 118.5t-129 -118.5z" />
<glyph unicode="&#x2dc;" d="M172 1174q66 72 90.5 96t59 43.5t71.5 19.5q47 0 127 -47q86 -51 133 -51q41 0 83 24.5t63 49.5l22 24l33 -30q-66 -72 -90.5 -96.5t-59 -44t-71.5 -19.5q-47 0 -127 47q-86 51 -133 51q-41 0 -83 -24.5t-65 -49.5l-20 -24z" />
<glyph unicode="&#x2000;" horiz-adv-x="929" />
<glyph unicode="&#x2001;" horiz-adv-x="1861" />
<glyph unicode="&#x2002;" horiz-adv-x="929" />
<glyph unicode="&#x2003;" horiz-adv-x="1861" />
<glyph unicode="&#x2004;" horiz-adv-x="620" />
<glyph unicode="&#x2005;" horiz-adv-x="464" />
<glyph unicode="&#x2006;" horiz-adv-x="309" />
<glyph unicode="&#x2007;" horiz-adv-x="309" />
<glyph unicode="&#x2008;" horiz-adv-x="231" />
<glyph unicode="&#x2009;" horiz-adv-x="370" />
<glyph unicode="&#x200a;" horiz-adv-x="102" />
<glyph unicode="&#x2010;" horiz-adv-x="681" d="M23 383v119h542v-119h-542z" />
<glyph unicode="&#x2011;" horiz-adv-x="681" d="M23 383v119h542v-119h-542z" />
<glyph unicode="&#x2012;" horiz-adv-x="681" d="M23 383v119h542v-119h-542z" />
<glyph unicode="&#x2013;" d="M0 522v45h1022v-45h-1022z" />
<glyph unicode="&#x2014;" horiz-adv-x="2048" d="M0 522v45h2046v-45h-2046z" />
<glyph unicode="&#x2018;" horiz-adv-x="569" d="M147 1022q0 109 45.5 207t88.5 144t59 46q20 0 20 -22q0 -10 -24 -35q-143 -141 -143 -340l4 -37l6 6q33 33 82 33q51 0 79.5 -33t28.5 -76t-28.5 -75.5t-79.5 -32.5q-63 0 -100.5 60.5t-37.5 154.5z" />
<glyph unicode="&#x2019;" horiz-adv-x="569" d="M176 1313q0 43 28.5 75.5t80.5 32.5q63 0 100 -60.5t37 -154.5q0 -109 -45 -207t-88 -144t-60 -46q-20 0 -20 22q0 10 24 35q143 141 144 340l-4 37l-6 -6q-33 -33 -82 -33q-51 0 -80 33t-29 76z" />
<glyph unicode="&#x201a;" horiz-adv-x="569" d="M162 104q0 43 28.5 76t79.5 33q63 0 100.5 -60.5t37.5 -154.5q0 -109 -45.5 -207t-88.5 -144t-59 -46q-20 0 -20 22q0 10 24 35q143 141 143 340l-4 37l-6 -6q-33 -33 -82 -33q-51 0 -79.5 32.5t-28.5 75.5z" />
<glyph unicode="&#x201c;" horiz-adv-x="966" d="M147 1022q0 109 45.5 207t88.5 144t59 46q20 0 20 -22q0 -10 -24 -35q-143 -141 -143 -340l4 -37l6 6q33 33 82 33q51 0 79.5 -33t28.5 -76t-28.5 -75.5t-79.5 -32.5q-63 0 -100.5 60.5t-37.5 154.5zM545 1022q0 109 45 207t88 144t59 46q20 0 21 -22q0 -10 -25 -35 q-143 -141 -143 -340l4 -37l6 6q33 33 82 33q51 0 80 -33t29 -76t-29 -75.5t-80 -32.5q-63 0 -100 60.5t-37 154.5z" />
<glyph unicode="&#x201d;" horiz-adv-x="966" d="M176 1313q0 43 28.5 75.5t80.5 32.5q63 0 100 -60.5t37 -154.5q0 -109 -45 -207t-88 -144t-60 -46q-20 0 -20 22q0 10 24 35q143 141 144 340l-4 37l-6 -6q-33 -33 -82 -33q-51 0 -80 33t-29 76zM573 1313q0 43 29 75.5t80 32.5q63 0 100 -60.5t37 -154.5 q0 -109 -45 -207t-88 -144t-59 -46q-20 0 -21 22q0 10 25 35q143 141 143 340l-4 37l-6 -6q-33 -33 -82 -33q-51 0 -80 33t-29 76z" />
<glyph unicode="&#x201e;" horiz-adv-x="966" d="M176 104q0 43 28.5 76t80.5 33q63 0 100 -60.5t37 -154.5q0 -109 -45 -207t-88 -144t-60 -46q-20 0 -20 22q0 10 24 35q143 141 144 340l-4 37l-6 -6q-33 -33 -82 -33q-51 0 -80 32.5t-29 75.5zM573 104q0 43 29 76t80 33q63 0 100 -60.5t37 -154.5q0 -109 -45 -207 t-88 -144t-59 -46q-20 0 -21 22q0 10 25 35q143 141 143 340l-4 37l-6 -6q-33 -33 -82 -33q-51 0 -80 32.5t-29 75.5z" />
<glyph unicode="&#x2026;" horiz-adv-x="1372" d="M176 108.5q0 45.5 32 77t77 31.5t76.5 -31.5t31.5 -77t-31.5 -77t-76.5 -31.5t-77 31.5t-32 77zM578 108.5q0 45.5 31.5 77t76.5 31.5t77 -31.5t32 -77t-32 -77t-77 -31.5t-76.5 31.5t-31.5 77zM979 108.5q0 45.5 31.5 77t77 31.5t77 -31.5t31.5 -77t-31.5 -77t-77 -31.5 t-77 31.5t-31.5 77z" />
<glyph unicode="&#x202f;" horiz-adv-x="370" />
<glyph unicode="&#x2039;" horiz-adv-x="796" d="M227 496q0 8 6 14q197 197 291 467q4 12 19 12h4q10 0 16 -7t4 -17q-57 -246 -192 -469q133 -221 192 -471q2 -8 -4 -16.5t-16 -8.5h-4q-14 0 -19 14q-94 268 -291 467q-6 3 -6 15z" />
<glyph unicode="&#x203a;" horiz-adv-x="796" d="M229 25q55 250 193 471q-137 221 -193 469q-2 10 4.5 17t16.5 7h4q16 0 18 -12q94 -270 291 -467q6 -12 6 -14q0 -8 -6 -15q-197 -199 -291 -467q-4 -14 -18 -14h-4q-10 0 -16.5 8.5t-4.5 16.5z" />
<glyph unicode="&#x205f;" horiz-adv-x="464" />
<glyph unicode="&#x20ac;" horiz-adv-x="1284" d="M113 580l6 20q4 16 18 16h96q-4 53 -4 84q0 27 4 84h-100q-10 0 -16 8.5t-4 16.5l6 20q4 16 18 17h103q37 219 159 379q174 219 420 219q131 0 230 -92l79 86q2 6 15 6h6q20 0 20 -21v-317q0 -20 -20 -21h-21q-16 0 -20 19q-12 117 -87 197.5t-181 80.5q-184 0 -301 -192 q-82 -135 -97 -344h596q10 0 15.5 -9.5t3.5 -17.5l-4 -20q-8 -14 -21 -15h-592l-2 -84l2 -84h533q10 0 15 -9t3 -17l-4 -21q-8 -14 -20 -14h-525q14 -209 97 -344q51 -88 130 -141.5t171 -53.5q106 0 181 81t87 198q4 18 20 18h21q20 0 20 -20v-318q0 -20 -20 -20h-6 q-12 0 -15 6l-79 86q-98 -92 -230 -92q-242 0 -420 219q-123 160 -159 381h-107q-10 0 -16 7.5t-4 17.5z" />
<glyph unicode="&#x2122;" horiz-adv-x="2013" d="M45 1122l23 277h751l23 -277h-31q-12 154 -49 197t-172 43q-57 0 -70 -2q-23 -6 -22 -47v-647q0 -27 5 -36t32.5 -16.5t91.5 -7.5h49v-39q-51 4 -233.5 4t-231.5 -4v39h49q63 0 91 7.5t33 16.5t5 36v647q0 16 -1 23t-7 14.5t-18.5 9.5t-65.5 2q-135 0 -172 -43t-49 -197 h-31zM887 567v39q45 0 72.5 8.5t39 25.5t13.5 27.5t2 28.5v615q0 37 -14.5 47t-81.5 10h-31v39h209q14 0 20 -1t11.5 -6t11.5 -20l266 -688l268 692q6 16 11.5 19.5t29.5 3.5h207v-39h-29q-68 0 -82 -10t-14 -47v-647q0 -37 14.5 -47.5t81.5 -10.5h29v-39q-45 4 -174 4 q-133 0 -178 -4v39h30q68 0 82.5 10.5t14.5 47.5v704h-2l-301 -776q-10 -25 -22.5 -25t-24.5 27l-297 766v-664q0 -18 2 -28.5t13 -27.5t38.5 -25.5t73.5 -8.5v-39l-146 4z" />
<glyph unicode="&#xe000;" horiz-adv-x="885" d="M0 885h885v-885h-885v885z" />
<glyph unicode="&#xfb01;" horiz-adv-x="1138" d="M55 819v64h162v233q0 104 70.5 182t166 112t197.5 34q115 0 189.5 -58.5t74.5 -148.5q0 -43 -27.5 -68.5t-66.5 -25.5q-35 0 -63.5 23.5t-28.5 70.5q0 90 96 94q-59 68 -176 68q-113 0 -208 -73t-95 -212v-231h242q33 0 37 2l37 4l258 18v-751q0 -66 25.5 -79.5 t133.5 -13.5v-63l-227 6l-227 -6v63q109 0 134 13.5t25 79.5v553q0 66 -20.5 88t-87.5 22h-324v-663q0 -66 25.5 -79.5t134.5 -13.5v-63l-227 6l-228 -6v63q109 0 134.5 13.5t25.5 79.5v663h-162z" />
<glyph unicode="&#xfb02;" horiz-adv-x="1138" d="M55 819v64h162v233q0 152 132 240t306 88q106 0 172 -29q12 -6 19 -6l74 12v-1265q0 -66 25.5 -79.5t133.5 -13.5v-63l-227 6l-227 -6v63q109 0 134 13.5t25 79.5v663h-432v-663q0 -66 25.5 -79.5t134.5 -13.5v-63l-227 6l-228 -6v63q109 0 134.5 13.5t25.5 79.5v663 h-162zM346 883h438v336q-51 18 -51 79q0 59 51 82q-57 18 -131 19q-123 0 -215 -75t-92 -210v-231z" />
<glyph unicode="&#xfb03;" horiz-adv-x="1705" d="M55 819v64h162v233q0 104 69.5 182t165 112t197.5 34q162 0 236 -113q135 113 334 113q115 0 189.5 -58.5t74.5 -148.5q0 -43 -28 -68.5t-66 -25.5q-35 0 -64 23.5t-29 70.5q0 90 97 94q-59 68 -176 68q-113 0 -208.5 -73t-95.5 -212v-231h242q33 0 37 2l215 16l80 6 v-751q0 -66 25.5 -79.5t134.5 -13.5v-63l-228 6l-227 -6v63q109 0 134.5 13.5t25.5 79.5v553q0 66 -20.5 88t-88.5 22h-323v-663q0 -66 25.5 -79.5t133.5 -13.5v-63l-227 6l-227 -6v63q109 0 134 13.5t25 79.5v663h-432v-663q0 -66 25.5 -79.5t134.5 -13.5v-63l-227 6 l-228 -6v63q109 0 134.5 13.5t25.5 79.5v663h-162zM346 883h438v266q-61 16 -61 88q0 90 98 94q-66 68 -176 68q-109 0 -204 -73t-95 -212v-231z" />
<glyph unicode="&#xfb04;" horiz-adv-x="1705" d="M55 819v64h162v233q0 154 133 241t301 87q186 0 242 -107q131 106 330 107q106 0 172 -29q12 -6 18 -6l74 12v-1265q0 -66 25.5 -79.5t134.5 -13.5v-63l-228 6l-227 -6v63q109 0 134.5 13.5t25.5 79.5v663h-432v-663q0 -66 25.5 -79.5t133.5 -13.5v-63l-227 6l-227 -6v63 q109 0 134 13.5t25 79.5v663h-432v-663q0 -66 25.5 -79.5t134.5 -13.5v-63l-227 6l-228 -6v63q109 0 134.5 13.5t25.5 79.5v663h-162zM346 883h438v233q0 49 7 72q-57 20 -58 82q0 76 74 90q-63 39 -158 39q-117 0 -210 -74t-93 -211v-231zM913 883h439v336q-51 18 -52 79 q0 59 52 82q-57 18 -131 19q-123 0 -215.5 -75t-92.5 -210v-231z" />
</font>
</defs>
</svg>
